%TF.GenerationSoftware,KiCad,Pcbnew,(6.0.1)*%
%TF.CreationDate,2022-07-20T18:19:17-07:00*%
%TF.ProjectId,LevelShifter,4c657665-6c53-4686-9966-7465722e6b69,rev?*%
%TF.SameCoordinates,Original*%
%TF.FileFunction,Legend,Top*%
%TF.FilePolarity,Positive*%
%FSLAX46Y46*%
G04 Gerber Fmt 4.6, Leading zero omitted, Abs format (unit mm)*
G04 Created by KiCad (PCBNEW (6.0.1)) date 2022-07-20 18:19:17*
%MOMM*%
%LPD*%
G01*
G04 APERTURE LIST*
G04 Aperture macros list*
%AMRoundRect*
0 Rectangle with rounded corners*
0 $1 Rounding radius*
0 $2 $3 $4 $5 $6 $7 $8 $9 X,Y pos of 4 corners*
0 Add a 4 corners polygon primitive as box body*
4,1,4,$2,$3,$4,$5,$6,$7,$8,$9,$2,$3,0*
0 Add four circle primitives for the rounded corners*
1,1,$1+$1,$2,$3*
1,1,$1+$1,$4,$5*
1,1,$1+$1,$6,$7*
1,1,$1+$1,$8,$9*
0 Add four rect primitives between the rounded corners*
20,1,$1+$1,$2,$3,$4,$5,0*
20,1,$1+$1,$4,$5,$6,$7,0*
20,1,$1+$1,$6,$7,$8,$9,0*
20,1,$1+$1,$8,$9,$2,$3,0*%
G04 Aperture macros list end*
%ADD10C,0.150000*%
%ADD11C,0.120000*%
%ADD12C,0.100000*%
%ADD13R,1.700000X1.700000*%
%ADD14O,1.700000X1.700000*%
%ADD15RoundRect,0.225000X-0.250000X0.225000X-0.250000X-0.225000X0.250000X-0.225000X0.250000X0.225000X0*%
%ADD16RoundRect,0.225000X0.250000X-0.225000X0.250000X0.225000X-0.250000X0.225000X-0.250000X-0.225000X0*%
%ADD17R,1.404099X0.354800*%
%ADD18RoundRect,0.225000X-0.225000X-0.250000X0.225000X-0.250000X0.225000X0.250000X-0.225000X0.250000X0*%
%ADD19RoundRect,0.225000X0.225000X0.250000X-0.225000X0.250000X-0.225000X-0.250000X0.225000X-0.250000X0*%
%ADD20C,0.800000*%
G04 APERTURE END LIST*
D10*
X155604523Y-113852380D02*
X156175952Y-113852380D01*
X155890238Y-114852380D02*
X155890238Y-113852380D01*
X156509285Y-114852380D02*
X156509285Y-113852380D01*
X156937857Y-114852380D02*
X156937857Y-114328571D01*
X156890238Y-114233333D01*
X156795000Y-114185714D01*
X156652142Y-114185714D01*
X156556904Y-114233333D01*
X156509285Y-114280952D01*
X157414047Y-114852380D02*
X157414047Y-114185714D01*
X157414047Y-113852380D02*
X157366428Y-113900000D01*
X157414047Y-113947619D01*
X157461666Y-113900000D01*
X157414047Y-113852380D01*
X157414047Y-113947619D01*
X157842619Y-114804761D02*
X157937857Y-114852380D01*
X158128333Y-114852380D01*
X158223571Y-114804761D01*
X158271190Y-114709523D01*
X158271190Y-114661904D01*
X158223571Y-114566666D01*
X158128333Y-114519047D01*
X157985476Y-114519047D01*
X157890238Y-114471428D01*
X157842619Y-114376190D01*
X157842619Y-114328571D01*
X157890238Y-114233333D01*
X157985476Y-114185714D01*
X158128333Y-114185714D01*
X158223571Y-114233333D01*
X159414047Y-114804761D02*
X159509285Y-114852380D01*
X159699761Y-114852380D01*
X159795000Y-114804761D01*
X159842619Y-114709523D01*
X159842619Y-114661904D01*
X159795000Y-114566666D01*
X159699761Y-114519047D01*
X159556904Y-114519047D01*
X159461666Y-114471428D01*
X159414047Y-114376190D01*
X159414047Y-114328571D01*
X159461666Y-114233333D01*
X159556904Y-114185714D01*
X159699761Y-114185714D01*
X159795000Y-114233333D01*
X160271190Y-114852380D02*
X160271190Y-114185714D01*
X160271190Y-113852380D02*
X160223571Y-113900000D01*
X160271190Y-113947619D01*
X160318809Y-113900000D01*
X160271190Y-113852380D01*
X160271190Y-113947619D01*
X161175952Y-114852380D02*
X161175952Y-113852380D01*
X161175952Y-114804761D02*
X161080714Y-114852380D01*
X160890238Y-114852380D01*
X160795000Y-114804761D01*
X160747380Y-114757142D01*
X160699761Y-114661904D01*
X160699761Y-114376190D01*
X160747380Y-114280952D01*
X160795000Y-114233333D01*
X160890238Y-114185714D01*
X161080714Y-114185714D01*
X161175952Y-114233333D01*
X162033095Y-114804761D02*
X161937857Y-114852380D01*
X161747380Y-114852380D01*
X161652142Y-114804761D01*
X161604523Y-114709523D01*
X161604523Y-114328571D01*
X161652142Y-114233333D01*
X161747380Y-114185714D01*
X161937857Y-114185714D01*
X162033095Y-114233333D01*
X162080714Y-114328571D01*
X162080714Y-114423809D01*
X161604523Y-114519047D01*
X163271190Y-113852380D02*
X163271190Y-114661904D01*
X163318809Y-114757142D01*
X163366428Y-114804761D01*
X163461666Y-114852380D01*
X163652142Y-114852380D01*
X163747380Y-114804761D01*
X163795000Y-114757142D01*
X163842619Y-114661904D01*
X163842619Y-113852380D01*
X164318809Y-114852380D02*
X164318809Y-113852380D01*
X164699761Y-113852380D01*
X164795000Y-113900000D01*
X164842619Y-113947619D01*
X164890238Y-114042857D01*
X164890238Y-114185714D01*
X164842619Y-114280952D01*
X164795000Y-114328571D01*
X164699761Y-114376190D01*
X164318809Y-114376190D01*
%TO.C,J1*%
X143911666Y-76682380D02*
X143911666Y-77396666D01*
X143864047Y-77539523D01*
X143768809Y-77634761D01*
X143625952Y-77682380D01*
X143530714Y-77682380D01*
X144911666Y-77682380D02*
X144340238Y-77682380D01*
X144625952Y-77682380D02*
X144625952Y-76682380D01*
X144530714Y-76825238D01*
X144435476Y-76920476D01*
X144340238Y-76968095D01*
%TO.C,C7*%
X164252142Y-111466666D02*
X164299761Y-111514285D01*
X164347380Y-111657142D01*
X164347380Y-111752380D01*
X164299761Y-111895238D01*
X164204523Y-111990476D01*
X164109285Y-112038095D01*
X163918809Y-112085714D01*
X163775952Y-112085714D01*
X163585476Y-112038095D01*
X163490238Y-111990476D01*
X163395000Y-111895238D01*
X163347380Y-111752380D01*
X163347380Y-111657142D01*
X163395000Y-111514285D01*
X163442619Y-111466666D01*
X163347380Y-111133333D02*
X163347380Y-110466666D01*
X164347380Y-110895238D01*
%TO.C,C8*%
X159752142Y-111366666D02*
X159799761Y-111414285D01*
X159847380Y-111557142D01*
X159847380Y-111652380D01*
X159799761Y-111795238D01*
X159704523Y-111890476D01*
X159609285Y-111938095D01*
X159418809Y-111985714D01*
X159275952Y-111985714D01*
X159085476Y-111938095D01*
X158990238Y-111890476D01*
X158895000Y-111795238D01*
X158847380Y-111652380D01*
X158847380Y-111557142D01*
X158895000Y-111414285D01*
X158942619Y-111366666D01*
X159275952Y-110795238D02*
X159228333Y-110890476D01*
X159180714Y-110938095D01*
X159085476Y-110985714D01*
X159037857Y-110985714D01*
X158942619Y-110938095D01*
X158895000Y-110890476D01*
X158847380Y-110795238D01*
X158847380Y-110604761D01*
X158895000Y-110509523D01*
X158942619Y-110461904D01*
X159037857Y-110414285D01*
X159085476Y-110414285D01*
X159180714Y-110461904D01*
X159228333Y-110509523D01*
X159275952Y-110604761D01*
X159275952Y-110795238D01*
X159323571Y-110890476D01*
X159371190Y-110938095D01*
X159466428Y-110985714D01*
X159656904Y-110985714D01*
X159752142Y-110938095D01*
X159799761Y-110890476D01*
X159847380Y-110795238D01*
X159847380Y-110604761D01*
X159799761Y-110509523D01*
X159752142Y-110461904D01*
X159656904Y-110414285D01*
X159466428Y-110414285D01*
X159371190Y-110461904D01*
X159323571Y-110509523D01*
X159275952Y-110604761D01*
%TO.C,U6*%
X164933095Y-92952380D02*
X164933095Y-93761904D01*
X164980714Y-93857142D01*
X165028333Y-93904761D01*
X165123571Y-93952380D01*
X165314047Y-93952380D01*
X165409285Y-93904761D01*
X165456904Y-93857142D01*
X165504523Y-93761904D01*
X165504523Y-92952380D01*
X166409285Y-92952380D02*
X166218809Y-92952380D01*
X166123571Y-93000000D01*
X166075952Y-93047619D01*
X165980714Y-93190476D01*
X165933095Y-93380952D01*
X165933095Y-93761904D01*
X165980714Y-93857142D01*
X166028333Y-93904761D01*
X166123571Y-93952380D01*
X166314047Y-93952380D01*
X166409285Y-93904761D01*
X166456904Y-93857142D01*
X166504523Y-93761904D01*
X166504523Y-93523809D01*
X166456904Y-93428571D01*
X166409285Y-93380952D01*
X166314047Y-93333333D01*
X166123571Y-93333333D01*
X166028333Y-93380952D01*
X165980714Y-93428571D01*
X165933095Y-93523809D01*
X156691050Y-89504622D02*
X156691050Y-89742718D01*
X156452954Y-89647480D02*
X156691050Y-89742718D01*
X156929145Y-89647480D01*
X156548192Y-89933194D02*
X156691050Y-89742718D01*
X156833907Y-89933194D01*
X156691050Y-89504622D02*
X156691050Y-89742718D01*
X156452954Y-89647480D02*
X156691050Y-89742718D01*
X156929145Y-89647480D01*
X156548192Y-89933194D02*
X156691050Y-89742718D01*
X156833907Y-89933194D01*
%TO.C,C12*%
X156052142Y-88257142D02*
X156004523Y-88304761D01*
X155861666Y-88352380D01*
X155766428Y-88352380D01*
X155623571Y-88304761D01*
X155528333Y-88209523D01*
X155480714Y-88114285D01*
X155433095Y-87923809D01*
X155433095Y-87780952D01*
X155480714Y-87590476D01*
X155528333Y-87495238D01*
X155623571Y-87400000D01*
X155766428Y-87352380D01*
X155861666Y-87352380D01*
X156004523Y-87400000D01*
X156052142Y-87447619D01*
X157004523Y-88352380D02*
X156433095Y-88352380D01*
X156718809Y-88352380D02*
X156718809Y-87352380D01*
X156623571Y-87495238D01*
X156528333Y-87590476D01*
X156433095Y-87638095D01*
X157385476Y-87447619D02*
X157433095Y-87400000D01*
X157528333Y-87352380D01*
X157766428Y-87352380D01*
X157861666Y-87400000D01*
X157909285Y-87447619D01*
X157956904Y-87542857D01*
X157956904Y-87638095D01*
X157909285Y-87780952D01*
X157337857Y-88352380D01*
X157956904Y-88352380D01*
%TO.C,U5*%
X164933095Y-103452380D02*
X164933095Y-104261904D01*
X164980714Y-104357142D01*
X165028333Y-104404761D01*
X165123571Y-104452380D01*
X165314047Y-104452380D01*
X165409285Y-104404761D01*
X165456904Y-104357142D01*
X165504523Y-104261904D01*
X165504523Y-103452380D01*
X166456904Y-103452380D02*
X165980714Y-103452380D01*
X165933095Y-103928571D01*
X165980714Y-103880952D01*
X166075952Y-103833333D01*
X166314047Y-103833333D01*
X166409285Y-103880952D01*
X166456904Y-103928571D01*
X166504523Y-104023809D01*
X166504523Y-104261904D01*
X166456904Y-104357142D01*
X166409285Y-104404761D01*
X166314047Y-104452380D01*
X166075952Y-104452380D01*
X165980714Y-104404761D01*
X165933095Y-104357142D01*
X156691050Y-100004622D02*
X156691050Y-100242718D01*
X156452954Y-100147480D02*
X156691050Y-100242718D01*
X156929145Y-100147480D01*
X156548192Y-100433194D02*
X156691050Y-100242718D01*
X156833907Y-100433194D01*
X156691050Y-100004622D02*
X156691050Y-100242718D01*
X156452954Y-100147480D02*
X156691050Y-100242718D01*
X156929145Y-100147480D01*
X156548192Y-100433194D02*
X156691050Y-100242718D01*
X156833907Y-100433194D01*
%TO.C,C10*%
X156052142Y-98357142D02*
X156004523Y-98404761D01*
X155861666Y-98452380D01*
X155766428Y-98452380D01*
X155623571Y-98404761D01*
X155528333Y-98309523D01*
X155480714Y-98214285D01*
X155433095Y-98023809D01*
X155433095Y-97880952D01*
X155480714Y-97690476D01*
X155528333Y-97595238D01*
X155623571Y-97500000D01*
X155766428Y-97452380D01*
X155861666Y-97452380D01*
X156004523Y-97500000D01*
X156052142Y-97547619D01*
X157004523Y-98452380D02*
X156433095Y-98452380D01*
X156718809Y-98452380D02*
X156718809Y-97452380D01*
X156623571Y-97595238D01*
X156528333Y-97690476D01*
X156433095Y-97738095D01*
X157623571Y-97452380D02*
X157718809Y-97452380D01*
X157814047Y-97500000D01*
X157861666Y-97547619D01*
X157909285Y-97642857D01*
X157956904Y-97833333D01*
X157956904Y-98071428D01*
X157909285Y-98261904D01*
X157861666Y-98357142D01*
X157814047Y-98404761D01*
X157718809Y-98452380D01*
X157623571Y-98452380D01*
X157528333Y-98404761D01*
X157480714Y-98357142D01*
X157433095Y-98261904D01*
X157385476Y-98071428D01*
X157385476Y-97833333D01*
X157433095Y-97642857D01*
X157480714Y-97547619D01*
X157528333Y-97500000D01*
X157623571Y-97452380D01*
%TO.C,J2*%
X175316666Y-77182380D02*
X175316666Y-77896666D01*
X175269047Y-78039523D01*
X175173809Y-78134761D01*
X175030952Y-78182380D01*
X174935714Y-78182380D01*
X175745238Y-77277619D02*
X175792857Y-77230000D01*
X175888095Y-77182380D01*
X176126190Y-77182380D01*
X176221428Y-77230000D01*
X176269047Y-77277619D01*
X176316666Y-77372857D01*
X176316666Y-77468095D01*
X176269047Y-77610952D01*
X175697619Y-78182380D01*
X176316666Y-78182380D01*
%TO.C,U4*%
X165033095Y-82952380D02*
X165033095Y-83761904D01*
X165080714Y-83857142D01*
X165128333Y-83904761D01*
X165223571Y-83952380D01*
X165414047Y-83952380D01*
X165509285Y-83904761D01*
X165556904Y-83857142D01*
X165604523Y-83761904D01*
X165604523Y-82952380D01*
X166509285Y-83285714D02*
X166509285Y-83952380D01*
X166271190Y-82904761D02*
X166033095Y-83619047D01*
X166652142Y-83619047D01*
X156691050Y-79504622D02*
X156691050Y-79742718D01*
X156452954Y-79647480D02*
X156691050Y-79742718D01*
X156929145Y-79647480D01*
X156548192Y-79933194D02*
X156691050Y-79742718D01*
X156833907Y-79933194D01*
X156691050Y-79504622D02*
X156691050Y-79742718D01*
X156452954Y-79647480D02*
X156691050Y-79742718D01*
X156929145Y-79647480D01*
X156548192Y-79933194D02*
X156691050Y-79742718D01*
X156833907Y-79933194D01*
%TO.C,C9*%
X163428333Y-100357142D02*
X163380714Y-100404761D01*
X163237857Y-100452380D01*
X163142619Y-100452380D01*
X162999761Y-100404761D01*
X162904523Y-100309523D01*
X162856904Y-100214285D01*
X162809285Y-100023809D01*
X162809285Y-99880952D01*
X162856904Y-99690476D01*
X162904523Y-99595238D01*
X162999761Y-99500000D01*
X163142619Y-99452380D01*
X163237857Y-99452380D01*
X163380714Y-99500000D01*
X163428333Y-99547619D01*
X163904523Y-100452380D02*
X164095000Y-100452380D01*
X164190238Y-100404761D01*
X164237857Y-100357142D01*
X164333095Y-100214285D01*
X164380714Y-100023809D01*
X164380714Y-99642857D01*
X164333095Y-99547619D01*
X164285476Y-99500000D01*
X164190238Y-99452380D01*
X163999761Y-99452380D01*
X163904523Y-99500000D01*
X163856904Y-99547619D01*
X163809285Y-99642857D01*
X163809285Y-99880952D01*
X163856904Y-99976190D01*
X163904523Y-100023809D01*
X163999761Y-100071428D01*
X164190238Y-100071428D01*
X164285476Y-100023809D01*
X164333095Y-99976190D01*
X164380714Y-99880952D01*
%TO.C,C11*%
X163252142Y-89857142D02*
X163204523Y-89904761D01*
X163061666Y-89952380D01*
X162966428Y-89952380D01*
X162823571Y-89904761D01*
X162728333Y-89809523D01*
X162680714Y-89714285D01*
X162633095Y-89523809D01*
X162633095Y-89380952D01*
X162680714Y-89190476D01*
X162728333Y-89095238D01*
X162823571Y-89000000D01*
X162966428Y-88952380D01*
X163061666Y-88952380D01*
X163204523Y-89000000D01*
X163252142Y-89047619D01*
X164204523Y-89952380D02*
X163633095Y-89952380D01*
X163918809Y-89952380D02*
X163918809Y-88952380D01*
X163823571Y-89095238D01*
X163728333Y-89190476D01*
X163633095Y-89238095D01*
X165156904Y-89952380D02*
X164585476Y-89952380D01*
X164871190Y-89952380D02*
X164871190Y-88952380D01*
X164775952Y-89095238D01*
X164680714Y-89190476D01*
X164585476Y-89238095D01*
D11*
%TO.C,J1*%
X137265000Y-93970000D02*
X145895000Y-93970000D01*
X148405000Y-113380000D02*
X148845000Y-113380000D01*
X137265000Y-101590000D02*
X145895000Y-101590000D01*
X145895000Y-82900000D02*
X146305000Y-82900000D01*
X148405000Y-97420000D02*
X148845000Y-97420000D01*
X145895000Y-103220000D02*
X146305000Y-103220000D01*
X148405000Y-115920000D02*
X148845000Y-115920000D01*
X137265000Y-80679520D02*
X145895000Y-80679520D01*
X137265000Y-83810000D02*
X145895000Y-83810000D01*
X148405000Y-87980000D02*
X148845000Y-87980000D01*
X145895000Y-87980000D02*
X146305000Y-87980000D01*
X145895000Y-102500000D02*
X146305000Y-102500000D01*
X137265000Y-79144285D02*
X145895000Y-79144285D01*
X145895000Y-100680000D02*
X146305000Y-100680000D01*
X148405000Y-94880000D02*
X148845000Y-94880000D01*
X148405000Y-87260000D02*
X148845000Y-87260000D01*
X145895000Y-115200000D02*
X146305000Y-115200000D01*
X145895000Y-87260000D02*
X146305000Y-87260000D01*
X145895000Y-110120000D02*
X146305000Y-110120000D01*
X137265000Y-79262380D02*
X145895000Y-79262380D01*
X151005000Y-78670000D02*
X151005000Y-80000000D01*
X137265000Y-79852855D02*
X145895000Y-79852855D01*
X145895000Y-110840000D02*
X146305000Y-110840000D01*
X148405000Y-103220000D02*
X148845000Y-103220000D01*
X137265000Y-80915710D02*
X145895000Y-80915710D01*
X145895000Y-112660000D02*
X146305000Y-112660000D01*
X148405000Y-85440000D02*
X148845000Y-85440000D01*
X148405000Y-79640000D02*
X148785000Y-79640000D01*
X145895000Y-98140000D02*
X146305000Y-98140000D01*
X137265000Y-78790000D02*
X145895000Y-78790000D01*
X137265000Y-86350000D02*
X145895000Y-86350000D01*
X137265000Y-79970950D02*
X145895000Y-79970950D01*
X145895000Y-107580000D02*
X146305000Y-107580000D01*
X148405000Y-108300000D02*
X148845000Y-108300000D01*
X148405000Y-98140000D02*
X148845000Y-98140000D01*
X148405000Y-110840000D02*
X148845000Y-110840000D01*
X137265000Y-81151900D02*
X145895000Y-81151900D01*
X148405000Y-82900000D02*
X148845000Y-82900000D01*
X137265000Y-109210000D02*
X145895000Y-109210000D01*
X148405000Y-100680000D02*
X148845000Y-100680000D01*
X137265000Y-80561425D02*
X145895000Y-80561425D01*
X145895000Y-97420000D02*
X146305000Y-97420000D01*
X137265000Y-79498570D02*
X145895000Y-79498570D01*
X145895000Y-90520000D02*
X146305000Y-90520000D01*
X148405000Y-95600000D02*
X148845000Y-95600000D01*
X148405000Y-90520000D02*
X148845000Y-90520000D01*
X137265000Y-116890000D02*
X145895000Y-116890000D01*
X145895000Y-108300000D02*
X146305000Y-108300000D01*
X148405000Y-99960000D02*
X148845000Y-99960000D01*
X137265000Y-79734760D02*
X145895000Y-79734760D01*
X137265000Y-79616665D02*
X145895000Y-79616665D01*
X148405000Y-115200000D02*
X148845000Y-115200000D01*
X145895000Y-78670000D02*
X145895000Y-116890000D01*
X148405000Y-105040000D02*
X148845000Y-105040000D01*
X137265000Y-80089045D02*
X145895000Y-80089045D01*
X148405000Y-89800000D02*
X148845000Y-89800000D01*
X148405000Y-110120000D02*
X148845000Y-110120000D01*
X137265000Y-99050000D02*
X145895000Y-99050000D01*
X137265000Y-78670000D02*
X145895000Y-78670000D01*
X149895000Y-78670000D02*
X151005000Y-78670000D01*
X145895000Y-85440000D02*
X146305000Y-85440000D01*
X148405000Y-102500000D02*
X148845000Y-102500000D01*
X145895000Y-92340000D02*
X146305000Y-92340000D01*
X137265000Y-80325235D02*
X145895000Y-80325235D01*
X137265000Y-88890000D02*
X145895000Y-88890000D01*
X137265000Y-78670000D02*
X137265000Y-116890000D01*
X137265000Y-79380475D02*
X145895000Y-79380475D01*
X148405000Y-107580000D02*
X148845000Y-107580000D01*
X148405000Y-80360000D02*
X148785000Y-80360000D01*
X137265000Y-114290000D02*
X145895000Y-114290000D01*
X137265000Y-79026190D02*
X145895000Y-79026190D01*
X145895000Y-99960000D02*
X146305000Y-99960000D01*
X148405000Y-84720000D02*
X148845000Y-84720000D01*
X145895000Y-94880000D02*
X146305000Y-94880000D01*
X145895000Y-84720000D02*
X146305000Y-84720000D01*
X137265000Y-104130000D02*
X145895000Y-104130000D01*
X145895000Y-105760000D02*
X146305000Y-105760000D01*
X137265000Y-80443330D02*
X145895000Y-80443330D01*
X145895000Y-79640000D02*
X146305000Y-79640000D01*
X137265000Y-81033805D02*
X145895000Y-81033805D01*
X145895000Y-89800000D02*
X146305000Y-89800000D01*
X137265000Y-106670000D02*
X145895000Y-106670000D01*
X148405000Y-112660000D02*
X148845000Y-112660000D01*
X145895000Y-93060000D02*
X146305000Y-93060000D01*
X148405000Y-105760000D02*
X148845000Y-105760000D01*
X145895000Y-105040000D02*
X146305000Y-105040000D01*
X148405000Y-82180000D02*
X148845000Y-82180000D01*
X145895000Y-115920000D02*
X146305000Y-115920000D01*
X137265000Y-80207140D02*
X145895000Y-80207140D01*
X148405000Y-93060000D02*
X148845000Y-93060000D01*
X137265000Y-81270000D02*
X145895000Y-81270000D01*
X145895000Y-80360000D02*
X146305000Y-80360000D01*
X137265000Y-111750000D02*
X145895000Y-111750000D01*
X137265000Y-91430000D02*
X145895000Y-91430000D01*
X137265000Y-80797615D02*
X145895000Y-80797615D01*
X145895000Y-95600000D02*
X146305000Y-95600000D01*
X137265000Y-96510000D02*
X145895000Y-96510000D01*
X148405000Y-92340000D02*
X148845000Y-92340000D01*
X137265000Y-78908095D02*
X145895000Y-78908095D01*
X145895000Y-82180000D02*
X146305000Y-82180000D01*
X145895000Y-113380000D02*
X146305000Y-113380000D01*
%TO.C,C7*%
X163485000Y-108659420D02*
X163485000Y-108940580D01*
X164505000Y-108659420D02*
X164505000Y-108940580D01*
%TO.C,C8*%
X160105000Y-108840580D02*
X160105000Y-108559420D01*
X159085000Y-108840580D02*
X159085000Y-108559420D01*
%TO.C,U6*%
X157520100Y-90820300D02*
X157520100Y-91039902D01*
X157520100Y-95960098D02*
X157520100Y-96179700D01*
X157520100Y-96179700D02*
X162269900Y-96179700D01*
X162269900Y-90820300D02*
X157520100Y-90820300D01*
X162269900Y-96179700D02*
X162269900Y-95960098D01*
X162269900Y-91039902D02*
X162269900Y-90820300D01*
D12*
X164054999Y-93959486D02*
X164054999Y-94340486D01*
X164054999Y-94340486D02*
X163800999Y-94340486D01*
X163800999Y-94340486D02*
X163800999Y-93959486D01*
X163800999Y-93959486D02*
X164054999Y-93959486D01*
G36*
X164054999Y-94340486D02*
G01*
X163800999Y-94340486D01*
X163800999Y-93959486D01*
X164054999Y-93959486D01*
X164054999Y-94340486D01*
G37*
X164054999Y-94340486D02*
X163800999Y-94340486D01*
X163800999Y-93959486D01*
X164054999Y-93959486D01*
X164054999Y-94340486D01*
D11*
%TO.C,C12*%
X159654420Y-87390000D02*
X159935580Y-87390000D01*
X159654420Y-88410000D02*
X159935580Y-88410000D01*
%TO.C,U5*%
X157520100Y-106679700D02*
X162269900Y-106679700D01*
X157520100Y-101320300D02*
X157520100Y-101539902D01*
X157520100Y-106460098D02*
X157520100Y-106679700D01*
X162269900Y-101320300D02*
X157520100Y-101320300D01*
X162269900Y-106679700D02*
X162269900Y-106460098D01*
X162269900Y-101539902D02*
X162269900Y-101320300D01*
D12*
X164054999Y-104459486D02*
X164054999Y-104840486D01*
X164054999Y-104840486D02*
X163800999Y-104840486D01*
X163800999Y-104840486D02*
X163800999Y-104459486D01*
X163800999Y-104459486D02*
X164054999Y-104459486D01*
G36*
X164054999Y-104840486D02*
G01*
X163800999Y-104840486D01*
X163800999Y-104459486D01*
X164054999Y-104459486D01*
X164054999Y-104840486D01*
G37*
X164054999Y-104840486D02*
X163800999Y-104840486D01*
X163800999Y-104459486D01*
X164054999Y-104459486D01*
X164054999Y-104840486D01*
D11*
%TO.C,C10*%
X159854420Y-97490000D02*
X160135580Y-97490000D01*
X159854420Y-98510000D02*
X160135580Y-98510000D01*
%TO.C,J2*%
X182635000Y-102480000D02*
X182635000Y-103240000D01*
X176635000Y-92320000D02*
X182635000Y-92320000D01*
X173577929Y-82920000D02*
X173975000Y-82920000D01*
X173577929Y-89780000D02*
X173975000Y-89780000D01*
X176635000Y-78670000D02*
X173975000Y-78670000D01*
X168725000Y-78730000D02*
X169995000Y-78730000D01*
X182635000Y-110860000D02*
X176635000Y-110860000D01*
X171037929Y-105780000D02*
X171492071Y-105780000D01*
X173975000Y-91430000D02*
X176635000Y-91430000D01*
X176635000Y-89780000D02*
X182635000Y-89780000D01*
X171105000Y-79620000D02*
X171492071Y-79620000D01*
X171037929Y-94860000D02*
X171492071Y-94860000D01*
X173577929Y-105780000D02*
X173975000Y-105780000D01*
X171037929Y-92320000D02*
X171492071Y-92320000D01*
X171037929Y-98160000D02*
X171492071Y-98160000D01*
X182635000Y-113400000D02*
X176635000Y-113400000D01*
X176635000Y-82160000D02*
X182635000Y-82160000D01*
X173975000Y-111750000D02*
X176635000Y-111750000D01*
X171037929Y-110100000D02*
X171492071Y-110100000D01*
X171037929Y-84700000D02*
X171492071Y-84700000D01*
X173975000Y-116890000D02*
X176635000Y-116890000D01*
X182635000Y-112640000D02*
X182635000Y-113400000D01*
X173577929Y-84700000D02*
X173975000Y-84700000D01*
X171037929Y-115180000D02*
X171492071Y-115180000D01*
X173577929Y-85460000D02*
X173975000Y-85460000D01*
X182635000Y-80380000D02*
X176635000Y-80380000D01*
X182635000Y-84700000D02*
X182635000Y-85460000D01*
X173577929Y-98160000D02*
X173975000Y-98160000D01*
X182635000Y-97400000D02*
X182635000Y-98160000D01*
X173975000Y-101590000D02*
X176635000Y-101590000D01*
X173975000Y-78670000D02*
X173975000Y-116890000D01*
X182635000Y-105020000D02*
X182635000Y-105780000D01*
X182635000Y-94860000D02*
X182635000Y-95620000D01*
X173577929Y-110100000D02*
X173975000Y-110100000D01*
X176635000Y-112640000D02*
X182635000Y-112640000D01*
X171037929Y-97400000D02*
X171492071Y-97400000D01*
X182635000Y-95620000D02*
X176635000Y-95620000D01*
X173577929Y-92320000D02*
X173975000Y-92320000D01*
X182635000Y-92320000D02*
X182635000Y-93080000D01*
X173975000Y-83810000D02*
X176635000Y-83810000D01*
X182635000Y-89780000D02*
X182635000Y-90540000D01*
X173577929Y-97400000D02*
X173975000Y-97400000D01*
X171037929Y-100700000D02*
X171492071Y-100700000D01*
X173577929Y-93080000D02*
X173975000Y-93080000D01*
X173577929Y-94860000D02*
X173975000Y-94860000D01*
X182635000Y-100700000D02*
X176635000Y-100700000D01*
X171037929Y-102480000D02*
X171492071Y-102480000D01*
X173975000Y-104130000D02*
X176635000Y-104130000D01*
X182635000Y-85460000D02*
X176635000Y-85460000D01*
X168725000Y-80000000D02*
X168725000Y-78730000D01*
X173577929Y-79620000D02*
X173975000Y-79620000D01*
X173577929Y-100700000D02*
X173975000Y-100700000D01*
X171105000Y-80380000D02*
X171492071Y-80380000D01*
X173577929Y-105020000D02*
X173975000Y-105020000D01*
X182635000Y-103240000D02*
X176635000Y-103240000D01*
X176635000Y-97400000D02*
X182635000Y-97400000D01*
X171037929Y-87240000D02*
X171492071Y-87240000D01*
X182635000Y-107560000D02*
X182635000Y-108320000D01*
X173577929Y-102480000D02*
X173975000Y-102480000D01*
X173975000Y-96510000D02*
X176635000Y-96510000D01*
X173577929Y-95620000D02*
X173975000Y-95620000D01*
X171037929Y-90540000D02*
X171492071Y-90540000D01*
X171037929Y-89780000D02*
X171492071Y-89780000D01*
X171037929Y-108320000D02*
X171492071Y-108320000D01*
X176635000Y-79920000D02*
X182635000Y-79920000D01*
X176635000Y-110100000D02*
X182635000Y-110100000D01*
X171037929Y-82160000D02*
X171492071Y-82160000D01*
X173577929Y-112640000D02*
X173975000Y-112640000D01*
X173577929Y-99940000D02*
X173975000Y-99940000D01*
X173577929Y-80380000D02*
X173975000Y-80380000D01*
X173577929Y-115940000D02*
X173975000Y-115940000D01*
X176635000Y-79800000D02*
X182635000Y-79800000D01*
X171037929Y-82920000D02*
X171492071Y-82920000D01*
X176635000Y-80040000D02*
X182635000Y-80040000D01*
X171037929Y-88000000D02*
X171492071Y-88000000D01*
X176635000Y-94860000D02*
X182635000Y-94860000D01*
X176635000Y-102480000D02*
X182635000Y-102480000D01*
X171037929Y-99940000D02*
X171492071Y-99940000D01*
X173577929Y-87240000D02*
X173975000Y-87240000D01*
X182635000Y-98160000D02*
X176635000Y-98160000D01*
X173975000Y-81270000D02*
X176635000Y-81270000D01*
X173975000Y-86350000D02*
X176635000Y-86350000D01*
X173577929Y-113400000D02*
X173975000Y-113400000D01*
X182635000Y-108320000D02*
X176635000Y-108320000D01*
X173975000Y-88890000D02*
X176635000Y-88890000D01*
X176635000Y-80160000D02*
X182635000Y-80160000D01*
X171037929Y-115940000D02*
X171492071Y-115940000D01*
X182635000Y-115180000D02*
X182635000Y-115940000D01*
X182635000Y-110100000D02*
X182635000Y-110860000D01*
X173577929Y-115180000D02*
X173975000Y-115180000D01*
X173577929Y-82160000D02*
X173975000Y-82160000D01*
X176635000Y-87240000D02*
X182635000Y-87240000D01*
X176635000Y-80280000D02*
X182635000Y-80280000D01*
X176635000Y-79680000D02*
X182635000Y-79680000D01*
X176635000Y-84700000D02*
X182635000Y-84700000D01*
X173975000Y-109210000D02*
X176635000Y-109210000D01*
X171037929Y-113400000D02*
X171492071Y-113400000D01*
X173975000Y-93970000D02*
X176635000Y-93970000D01*
X171037929Y-112640000D02*
X171492071Y-112640000D01*
X176635000Y-115180000D02*
X182635000Y-115180000D01*
X173577929Y-107560000D02*
X173975000Y-107560000D01*
X182635000Y-105780000D02*
X176635000Y-105780000D01*
X176635000Y-105020000D02*
X182635000Y-105020000D01*
X176635000Y-99940000D02*
X182635000Y-99940000D01*
X171037929Y-105020000D02*
X171492071Y-105020000D01*
X182635000Y-82160000D02*
X182635000Y-82920000D01*
X182635000Y-115940000D02*
X176635000Y-115940000D01*
X182635000Y-93080000D02*
X176635000Y-93080000D01*
X182635000Y-79620000D02*
X182635000Y-80380000D01*
X171037929Y-85460000D02*
X171492071Y-85460000D01*
X173577929Y-103240000D02*
X173975000Y-103240000D01*
X171037929Y-95620000D02*
X171492071Y-95620000D01*
X176635000Y-79620000D02*
X182635000Y-79620000D01*
X171037929Y-107560000D02*
X171492071Y-107560000D01*
X176635000Y-107560000D02*
X182635000Y-107560000D01*
X173975000Y-106670000D02*
X176635000Y-106670000D01*
X176635000Y-116890000D02*
X176635000Y-78670000D01*
X182635000Y-82920000D02*
X176635000Y-82920000D01*
X173975000Y-114290000D02*
X176635000Y-114290000D01*
X173577929Y-108320000D02*
X173975000Y-108320000D01*
X173975000Y-99050000D02*
X176635000Y-99050000D01*
X173577929Y-110860000D02*
X173975000Y-110860000D01*
X182635000Y-99940000D02*
X182635000Y-100700000D01*
X173577929Y-88000000D02*
X173975000Y-88000000D01*
X182635000Y-90540000D02*
X176635000Y-90540000D01*
X171037929Y-110860000D02*
X171492071Y-110860000D01*
X171037929Y-93080000D02*
X171492071Y-93080000D01*
X173577929Y-90540000D02*
X173975000Y-90540000D01*
X182635000Y-88000000D02*
X176635000Y-88000000D01*
X171037929Y-103240000D02*
X171492071Y-103240000D01*
X182635000Y-87240000D02*
X182635000Y-88000000D01*
%TO.C,U4*%
X162269900Y-81039902D02*
X162269900Y-80820300D01*
X157520100Y-80820300D02*
X157520100Y-81039902D01*
X157520100Y-85960098D02*
X157520100Y-86179700D01*
X162269900Y-80820300D02*
X157520100Y-80820300D01*
X162269900Y-86179700D02*
X162269900Y-85960098D01*
X157520100Y-86179700D02*
X162269900Y-86179700D01*
D12*
X164054999Y-83959486D02*
X164054999Y-84340486D01*
X164054999Y-84340486D02*
X163800999Y-84340486D01*
X163800999Y-84340486D02*
X163800999Y-83959486D01*
X163800999Y-83959486D02*
X164054999Y-83959486D01*
G36*
X164054999Y-84340486D02*
G01*
X163800999Y-84340486D01*
X163800999Y-83959486D01*
X164054999Y-83959486D01*
X164054999Y-84340486D01*
G37*
X164054999Y-84340486D02*
X163800999Y-84340486D01*
X163800999Y-83959486D01*
X164054999Y-83959486D01*
X164054999Y-84340486D01*
D11*
%TO.C,C9*%
X161135580Y-99290000D02*
X160854420Y-99290000D01*
X161135580Y-100310000D02*
X160854420Y-100310000D01*
%TO.C,C11*%
X160935580Y-90010000D02*
X160654420Y-90010000D01*
X160935580Y-88990000D02*
X160654420Y-88990000D01*
%TD*%
%LPC*%
D13*
%TO.C,J1*%
X149895000Y-80000000D03*
D14*
X147355000Y-80000000D03*
X149895000Y-82540000D03*
X147355000Y-82540000D03*
X149895000Y-85080000D03*
X147355000Y-85080000D03*
X149895000Y-87620000D03*
X147355000Y-87620000D03*
X149895000Y-90160000D03*
X147355000Y-90160000D03*
X149895000Y-92700000D03*
X147355000Y-92700000D03*
X149895000Y-95240000D03*
X147355000Y-95240000D03*
X149895000Y-97780000D03*
X147355000Y-97780000D03*
X149895000Y-100320000D03*
X147355000Y-100320000D03*
X149895000Y-102860000D03*
X147355000Y-102860000D03*
X149895000Y-105400000D03*
X147355000Y-105400000D03*
X149895000Y-107940000D03*
X147355000Y-107940000D03*
X149895000Y-110480000D03*
X147355000Y-110480000D03*
X149895000Y-113020000D03*
X147355000Y-113020000D03*
X149895000Y-115560000D03*
X147355000Y-115560000D03*
%TD*%
D15*
%TO.C,C7*%
X163995000Y-108025000D03*
X163995000Y-109575000D03*
%TD*%
D16*
%TO.C,C8*%
X159595000Y-109475000D03*
X159595000Y-107925000D03*
%TD*%
D17*
%TO.C,U6*%
X156945052Y-91550042D03*
X156945052Y-92200028D03*
X156945052Y-92850014D03*
X156945052Y-93500000D03*
X156945052Y-94149986D03*
X156945052Y-94799972D03*
X156945052Y-95449958D03*
X162844948Y-95449958D03*
X162844948Y-94799972D03*
X162844948Y-94149986D03*
X162844948Y-93500000D03*
X162844948Y-92850014D03*
X162844948Y-92200028D03*
X162844948Y-91550042D03*
%TD*%
D18*
%TO.C,C12*%
X159020000Y-87900000D03*
X160570000Y-87900000D03*
%TD*%
D17*
%TO.C,U5*%
X156945052Y-102050042D03*
X156945052Y-102700028D03*
X156945052Y-103350014D03*
X156945052Y-104000000D03*
X156945052Y-104649986D03*
X156945052Y-105299972D03*
X156945052Y-105949958D03*
X162844948Y-105949958D03*
X162844948Y-105299972D03*
X162844948Y-104649986D03*
X162844948Y-104000000D03*
X162844948Y-103350014D03*
X162844948Y-102700028D03*
X162844948Y-102050042D03*
%TD*%
D18*
%TO.C,C10*%
X159220000Y-98000000D03*
X160770000Y-98000000D03*
%TD*%
D13*
%TO.C,J2*%
X169995000Y-80000000D03*
D14*
X172535000Y-80000000D03*
X169995000Y-82540000D03*
X172535000Y-82540000D03*
X169995000Y-85080000D03*
X172535000Y-85080000D03*
X169995000Y-87620000D03*
X172535000Y-87620000D03*
X169995000Y-90160000D03*
X172535000Y-90160000D03*
X169995000Y-92700000D03*
X172535000Y-92700000D03*
X169995000Y-95240000D03*
X172535000Y-95240000D03*
X169995000Y-97780000D03*
X172535000Y-97780000D03*
X169995000Y-100320000D03*
X172535000Y-100320000D03*
X169995000Y-102860000D03*
X172535000Y-102860000D03*
X169995000Y-105400000D03*
X172535000Y-105400000D03*
X169995000Y-107940000D03*
X172535000Y-107940000D03*
X169995000Y-110480000D03*
X172535000Y-110480000D03*
X169995000Y-113020000D03*
X172535000Y-113020000D03*
X169995000Y-115560000D03*
X172535000Y-115560000D03*
%TD*%
D17*
%TO.C,U4*%
X156945052Y-81550042D03*
X156945052Y-82200028D03*
X156945052Y-82850014D03*
X156945052Y-83500000D03*
X156945052Y-84149986D03*
X156945052Y-84799972D03*
X156945052Y-85449958D03*
X162844948Y-85449958D03*
X162844948Y-84799972D03*
X162844948Y-84149986D03*
X162844948Y-83500000D03*
X162844948Y-82850014D03*
X162844948Y-82200028D03*
X162844948Y-81550042D03*
%TD*%
D19*
%TO.C,C9*%
X161770000Y-99800000D03*
X160220000Y-99800000D03*
%TD*%
%TO.C,C11*%
X161570000Y-89500000D03*
X160020000Y-89500000D03*
%TD*%
D20*
X159295000Y-96600000D03*
X159295000Y-86700000D03*
X158095000Y-108800000D03*
X162844948Y-107149948D03*
X158495000Y-106000000D03*
X160595000Y-85400000D03*
X160595000Y-95300000D03*
X160595000Y-106000000D03*
X158495000Y-85400000D03*
X158495000Y-95400000D03*
M02*
