%TF.GenerationSoftware,KiCad,Pcbnew,(6.0.1)*%
%TF.CreationDate,2022-07-20T18:19:17-07:00*%
%TF.ProjectId,LevelShifter,4c657665-6c53-4686-9966-7465722e6b69,rev?*%
%TF.SameCoordinates,Original*%
%TF.FileFunction,Copper,L2,Bot*%
%TF.FilePolarity,Positive*%
%FSLAX46Y46*%
G04 Gerber Fmt 4.6, Leading zero omitted, Abs format (unit mm)*
G04 Created by KiCad (PCBNEW (6.0.1)) date 2022-07-20 18:19:17*
%MOMM*%
%LPD*%
G01*
G04 APERTURE LIST*
G04 Aperture macros list*
%AMRoundRect*
0 Rectangle with rounded corners*
0 $1 Rounding radius*
0 $2 $3 $4 $5 $6 $7 $8 $9 X,Y pos of 4 corners*
0 Add a 4 corners polygon primitive as box body*
4,1,4,$2,$3,$4,$5,$6,$7,$8,$9,$2,$3,0*
0 Add four circle primitives for the rounded corners*
1,1,$1+$1,$2,$3*
1,1,$1+$1,$4,$5*
1,1,$1+$1,$6,$7*
1,1,$1+$1,$8,$9*
0 Add four rect primitives between the rounded corners*
20,1,$1+$1,$2,$3,$4,$5,0*
20,1,$1+$1,$4,$5,$6,$7,0*
20,1,$1+$1,$6,$7,$8,$9,0*
20,1,$1+$1,$8,$9,$2,$3,0*%
G04 Aperture macros list end*
%TA.AperFunction,ComponentPad*%
%ADD10R,1.700000X1.700000*%
%TD*%
%TA.AperFunction,ComponentPad*%
%ADD11O,1.700000X1.700000*%
%TD*%
%TA.AperFunction,SMDPad,CuDef*%
%ADD12RoundRect,0.225000X-0.225000X-0.250000X0.225000X-0.250000X0.225000X0.250000X-0.225000X0.250000X0*%
%TD*%
%TA.AperFunction,SMDPad,CuDef*%
%ADD13R,1.404099X0.354800*%
%TD*%
%TA.AperFunction,SMDPad,CuDef*%
%ADD14RoundRect,0.225000X0.225000X0.250000X-0.225000X0.250000X-0.225000X-0.250000X0.225000X-0.250000X0*%
%TD*%
%TA.AperFunction,ViaPad*%
%ADD15C,0.800000*%
%TD*%
%TA.AperFunction,Conductor*%
%ADD16C,0.250000*%
%TD*%
G04 APERTURE END LIST*
D10*
%TO.P,J1,1,Pin_1*%
%TO.N,/CHAN_0_IN*%
X149895000Y-80000000D03*
D11*
%TO.P,J1,2,Pin_2*%
%TO.N,/CHAN_23_IN*%
X147355000Y-80000000D03*
%TO.P,J1,3,Pin_3*%
%TO.N,/CHAN_1_IN*%
X149895000Y-82540000D03*
%TO.P,J1,4,Pin_4*%
%TO.N,/CHAN_22_IN*%
X147355000Y-82540000D03*
%TO.P,J1,5,Pin_5*%
%TO.N,/CHAN_2_IN*%
X149895000Y-85080000D03*
%TO.P,J1,6,Pin_6*%
%TO.N,/CHAN_21_IN*%
X147355000Y-85080000D03*
%TO.P,J1,7,Pin_7*%
%TO.N,/CHAN_3_IN*%
X149895000Y-87620000D03*
%TO.P,J1,8,Pin_8*%
%TO.N,/CHAN_20_IN*%
X147355000Y-87620000D03*
%TO.P,J1,9,Pin_9*%
%TO.N,/CHAN_4_IN*%
X149895000Y-90160000D03*
%TO.P,J1,10,Pin_10*%
%TO.N,/CHAN_19_IN*%
X147355000Y-90160000D03*
%TO.P,J1,11,Pin_11*%
%TO.N,/CHAN_5_IN*%
X149895000Y-92700000D03*
%TO.P,J1,12,Pin_12*%
%TO.N,/CHAN_18_IN*%
X147355000Y-92700000D03*
%TO.P,J1,13,Pin_13*%
%TO.N,/CHAN_6_IN*%
X149895000Y-95240000D03*
%TO.P,J1,14,Pin_14*%
%TO.N,/CHAN_17_IN*%
X147355000Y-95240000D03*
%TO.P,J1,15,Pin_15*%
%TO.N,/CHAN_7_IN*%
X149895000Y-97780000D03*
%TO.P,J1,16,Pin_16*%
%TO.N,/CHAN_16_IN*%
X147355000Y-97780000D03*
%TO.P,J1,17,Pin_17*%
%TO.N,/CHAN_8_IN*%
X149895000Y-100320000D03*
%TO.P,J1,18,Pin_18*%
%TO.N,/CHAN_15_IN*%
X147355000Y-100320000D03*
%TO.P,J1,19,Pin_19*%
%TO.N,/CHAN_9_IN*%
X149895000Y-102860000D03*
%TO.P,J1,20,Pin_20*%
%TO.N,/CHAN_14_IN*%
X147355000Y-102860000D03*
%TO.P,J1,21,Pin_21*%
%TO.N,/CHAN_10_IN*%
X149895000Y-105400000D03*
%TO.P,J1,22,Pin_22*%
%TO.N,/CHAN_13_IN*%
X147355000Y-105400000D03*
%TO.P,J1,23,Pin_23*%
%TO.N,/CHAN_11_IN*%
X149895000Y-107940000D03*
%TO.P,J1,24,Pin_24*%
%TO.N,/CHAN_12_IN*%
X147355000Y-107940000D03*
%TO.P,J1,25,Pin_25*%
%TO.N,/GND*%
X149895000Y-110480000D03*
%TO.P,J1,26,Pin_26*%
X147355000Y-110480000D03*
%TO.P,J1,27,Pin_27*%
%TO.N,/3V3*%
X149895000Y-113020000D03*
%TO.P,J1,28,Pin_28*%
X147355000Y-113020000D03*
%TO.P,J1,29,Pin_29*%
%TO.N,/5V*%
X149895000Y-115560000D03*
%TO.P,J1,30,Pin_30*%
X147355000Y-115560000D03*
%TD*%
D10*
%TO.P,J2,1,Pin_1*%
%TO.N,/CHAN_0_OUT*%
X169995000Y-80000000D03*
D11*
%TO.P,J2,2,Pin_2*%
%TO.N,/CHAN_23_OUT*%
X172535000Y-80000000D03*
%TO.P,J2,3,Pin_3*%
%TO.N,/CHAN_1_OUT*%
X169995000Y-82540000D03*
%TO.P,J2,4,Pin_4*%
%TO.N,/CHAN_22_OUT*%
X172535000Y-82540000D03*
%TO.P,J2,5,Pin_5*%
%TO.N,/CHAN_2_OUT*%
X169995000Y-85080000D03*
%TO.P,J2,6,Pin_6*%
%TO.N,/CHAN_21_OUT*%
X172535000Y-85080000D03*
%TO.P,J2,7,Pin_7*%
%TO.N,/CHAN_3_OUT*%
X169995000Y-87620000D03*
%TO.P,J2,8,Pin_8*%
%TO.N,/CHAN_20_OUT*%
X172535000Y-87620000D03*
%TO.P,J2,9,Pin_9*%
%TO.N,/CHAN_4_OUT*%
X169995000Y-90160000D03*
%TO.P,J2,10,Pin_10*%
%TO.N,/CHAN_19_OUT*%
X172535000Y-90160000D03*
%TO.P,J2,11,Pin_11*%
%TO.N,/CHAN_5_OUT*%
X169995000Y-92700000D03*
%TO.P,J2,12,Pin_12*%
%TO.N,/CHAN_18_OUT*%
X172535000Y-92700000D03*
%TO.P,J2,13,Pin_13*%
%TO.N,/CHAN_6_OUT*%
X169995000Y-95240000D03*
%TO.P,J2,14,Pin_14*%
%TO.N,/CHAN_17_OUT*%
X172535000Y-95240000D03*
%TO.P,J2,15,Pin_15*%
%TO.N,/CHAN_7_OUT*%
X169995000Y-97780000D03*
%TO.P,J2,16,Pin_16*%
%TO.N,/CHAN_16_OUT*%
X172535000Y-97780000D03*
%TO.P,J2,17,Pin_17*%
%TO.N,/CHAN_8_OUT*%
X169995000Y-100320000D03*
%TO.P,J2,18,Pin_18*%
%TO.N,/CHAN_15_OUT*%
X172535000Y-100320000D03*
%TO.P,J2,19,Pin_19*%
%TO.N,/CHAN_9_OUT*%
X169995000Y-102860000D03*
%TO.P,J2,20,Pin_20*%
%TO.N,/CHAN_14_OUT*%
X172535000Y-102860000D03*
%TO.P,J2,21,Pin_21*%
%TO.N,/CHAN_10_OUT*%
X169995000Y-105400000D03*
%TO.P,J2,22,Pin_22*%
%TO.N,/CHAN_13_OUT*%
X172535000Y-105400000D03*
%TO.P,J2,23,Pin_23*%
%TO.N,/CHAN_11_OUT*%
X169995000Y-107940000D03*
%TO.P,J2,24,Pin_24*%
%TO.N,/CHAN_12_OUT*%
X172535000Y-107940000D03*
%TO.P,J2,25,Pin_25*%
%TO.N,/GND*%
X169995000Y-110480000D03*
%TO.P,J2,26,Pin_26*%
X172535000Y-110480000D03*
%TO.P,J2,27,Pin_27*%
%TO.N,/3V3*%
X169995000Y-113020000D03*
%TO.P,J2,28,Pin_28*%
X172535000Y-113020000D03*
%TO.P,J2,29,Pin_29*%
%TO.N,/5V*%
X169995000Y-115560000D03*
%TO.P,J2,30,Pin_30*%
X172535000Y-115560000D03*
%TD*%
D12*
%TO.P,C6,1*%
%TO.N,/GND*%
X159320000Y-87800000D03*
%TO.P,C6,2*%
%TO.N,/5V*%
X160870000Y-87800000D03*
%TD*%
D13*
%TO.P,U2,1,VCCA*%
%TO.N,/5V*%
X156945052Y-85449958D03*
%TO.P,U2,2,A1*%
%TO.N,/CHAN_3_IN*%
X156945052Y-84799972D03*
%TO.P,U2,3,A2*%
%TO.N,/CHAN_2_IN*%
X156945052Y-84149986D03*
%TO.P,U2,4,A3*%
%TO.N,/CHAN_1_IN*%
X156945052Y-83500000D03*
%TO.P,U2,5,A4*%
%TO.N,/CHAN_0_IN*%
X156945052Y-82850014D03*
%TO.P,U2,6,NC*%
%TO.N,unconnected-(U2-Pad6)*%
X156945052Y-82200028D03*
%TO.P,U2,7,GND*%
%TO.N,/GND*%
X156945052Y-81550042D03*
%TO.P,U2,8,OE*%
%TO.N,/3V3*%
X162844948Y-81550042D03*
%TO.P,U2,9,NC*%
%TO.N,unconnected-(U2-Pad9)*%
X162844948Y-82200028D03*
%TO.P,U2,10,B4Y*%
%TO.N,/CHAN_0_OUT*%
X162844948Y-82850014D03*
%TO.P,U2,11,B3Y*%
%TO.N,/CHAN_1_OUT*%
X162844948Y-83500000D03*
%TO.P,U2,12,B2Y*%
%TO.N,/CHAN_2_OUT*%
X162844948Y-84149986D03*
%TO.P,U2,13,B1Y*%
%TO.N,/CHAN_3_OUT*%
X162844948Y-84799972D03*
%TO.P,U2,14,VCCB*%
%TO.N,/3V3*%
X162844948Y-85449958D03*
%TD*%
D12*
%TO.P,C2,1*%
%TO.N,/GND*%
X159120000Y-107700000D03*
%TO.P,C2,2*%
%TO.N,/5V*%
X160670000Y-107700000D03*
%TD*%
%TO.P,C4,1*%
%TO.N,/GND*%
X159220000Y-97800000D03*
%TO.P,C4,2*%
%TO.N,/5V*%
X160770000Y-97800000D03*
%TD*%
D13*
%TO.P,U1,1,VCCA*%
%TO.N,/5V*%
X156945052Y-105949958D03*
%TO.P,U1,2,A1*%
%TO.N,/CHAN_11_IN*%
X156945052Y-105299972D03*
%TO.P,U1,3,A2*%
%TO.N,/CHAN_10_IN*%
X156945052Y-104649986D03*
%TO.P,U1,4,A3*%
%TO.N,/CHAN_9_IN*%
X156945052Y-104000000D03*
%TO.P,U1,5,A4*%
%TO.N,/CHAN_8_IN*%
X156945052Y-103350014D03*
%TO.P,U1,6,NC*%
%TO.N,unconnected-(U1-Pad6)*%
X156945052Y-102700028D03*
%TO.P,U1,7,GND*%
%TO.N,/GND*%
X156945052Y-102050042D03*
%TO.P,U1,8,OE*%
%TO.N,/3V3*%
X162844948Y-102050042D03*
%TO.P,U1,9,NC*%
%TO.N,unconnected-(U1-Pad9)*%
X162844948Y-102700028D03*
%TO.P,U1,10,B4Y*%
%TO.N,/CHAN_8_OUT*%
X162844948Y-103350014D03*
%TO.P,U1,11,B3Y*%
%TO.N,/CHAN_9_OUT*%
X162844948Y-104000000D03*
%TO.P,U1,12,B2Y*%
%TO.N,/CHAN_10_OUT*%
X162844948Y-104649986D03*
%TO.P,U1,13,B1Y*%
%TO.N,/CHAN_11_OUT*%
X162844948Y-105299972D03*
%TO.P,U1,14,VCCB*%
%TO.N,/3V3*%
X162844948Y-105949958D03*
%TD*%
D14*
%TO.P,C5,1*%
%TO.N,/3V3*%
X161370000Y-89300000D03*
%TO.P,C5,2*%
%TO.N,/GND*%
X159820000Y-89300000D03*
%TD*%
%TO.P,C3,1*%
%TO.N,/3V3*%
X161370000Y-99300000D03*
%TO.P,C3,2*%
%TO.N,/GND*%
X159820000Y-99300000D03*
%TD*%
%TO.P,C1,1*%
%TO.N,/3V3*%
X161370000Y-109300000D03*
%TO.P,C1,2*%
%TO.N,/GND*%
X159820000Y-109300000D03*
%TD*%
D13*
%TO.P,U3,1,VCCA*%
%TO.N,/5V*%
X156945052Y-95449958D03*
%TO.P,U3,2,A1*%
%TO.N,/CHAN_7_IN*%
X156945052Y-94799972D03*
%TO.P,U3,3,A2*%
%TO.N,/CHAN_6_IN*%
X156945052Y-94149986D03*
%TO.P,U3,4,A3*%
%TO.N,/CHAN_5_IN*%
X156945052Y-93500000D03*
%TO.P,U3,5,A4*%
%TO.N,/CHAN_4_IN*%
X156945052Y-92850014D03*
%TO.P,U3,6,NC*%
%TO.N,unconnected-(U3-Pad6)*%
X156945052Y-92200028D03*
%TO.P,U3,7,GND*%
%TO.N,/GND*%
X156945052Y-91550042D03*
%TO.P,U3,8,OE*%
%TO.N,/3V3*%
X162844948Y-91550042D03*
%TO.P,U3,9,NC*%
%TO.N,unconnected-(U3-Pad9)*%
X162844948Y-92200028D03*
%TO.P,U3,10,B4Y*%
%TO.N,/CHAN_4_OUT*%
X162844948Y-92850014D03*
%TO.P,U3,11,B3Y*%
%TO.N,/CHAN_5_OUT*%
X162844948Y-93500000D03*
%TO.P,U3,12,B2Y*%
%TO.N,/CHAN_6_OUT*%
X162844948Y-94149986D03*
%TO.P,U3,13,B1Y*%
%TO.N,/CHAN_7_OUT*%
X162844948Y-94799972D03*
%TO.P,U3,14,VCCB*%
%TO.N,/3V3*%
X162844948Y-95449958D03*
%TD*%
D15*
%TO.N,/GND*%
X159295000Y-96600000D03*
X159295000Y-86700000D03*
X158095000Y-108800000D03*
%TO.N,/3V3*%
X162844948Y-107149948D03*
%TO.N,/5V*%
X158495000Y-106000000D03*
X160595000Y-85400000D03*
X160595000Y-95300000D03*
X160595000Y-106000000D03*
X158495000Y-85400000D03*
X158495000Y-95400000D03*
%TD*%
D16*
%TO.N,/CHAN_0_IN*%
X154683310Y-80951030D02*
X154491445Y-81142895D01*
X153592475Y-81688309D02*
X153592474Y-81688308D01*
X154314668Y-81319668D02*
X153946028Y-81688308D01*
X156945052Y-82850014D02*
X155845014Y-82850014D01*
X155845014Y-82850014D02*
X154845000Y-81850000D01*
X154844999Y-81496446D02*
X155036863Y-81304582D01*
X154845000Y-81496448D02*
X154844999Y-81496446D01*
X154491445Y-81142895D02*
X154314669Y-81319671D01*
X153430781Y-80435784D02*
X152995000Y-80000000D01*
X154314669Y-81319671D02*
X154314668Y-81319668D01*
X153592474Y-81334754D02*
X153961115Y-80966113D01*
X153961115Y-80966113D02*
X154329754Y-80597474D01*
X152995000Y-80000000D02*
X149895000Y-80000000D01*
X153430782Y-80435784D02*
X153430781Y-80435784D01*
X155036862Y-80951029D02*
X155036864Y-80951030D01*
X154329755Y-80243921D02*
X154329754Y-80243920D01*
X153976200Y-80243920D02*
X153784335Y-80435785D01*
X154683310Y-80951030D02*
G75*
G02*
X155036864Y-80951030I176777J-176778D01*
G01*
X153592475Y-81688309D02*
G75*
G03*
X153946028Y-81688308I176776J176776D01*
G01*
X155036862Y-80951029D02*
G75*
G02*
X155036863Y-81304582I-176775J-176777D01*
G01*
X154329755Y-80243921D02*
G75*
G02*
X154329754Y-80597474I-176776J-176776D01*
G01*
X153976200Y-80243920D02*
G75*
G02*
X154329754Y-80243920I176777J-176778D01*
G01*
X153430782Y-80435784D02*
G75*
G03*
X153784335Y-80435785I176777J176775D01*
G01*
X154845001Y-81496449D02*
G75*
G03*
X154845001Y-81849999I176772J-176775D01*
G01*
X153592474Y-81334754D02*
G75*
G03*
X153592474Y-81688308I176778J-176777D01*
G01*
%TO.N,/CHAN_1_IN*%
X152295000Y-83500000D02*
X152295000Y-82964591D01*
X152802296Y-83685409D02*
X152387704Y-83685409D01*
X151695000Y-82964591D02*
X151695000Y-83200000D01*
X154095000Y-82964591D02*
X154095000Y-83200000D01*
X153495000Y-83592705D02*
X153495000Y-83500000D01*
X156945052Y-83500000D02*
X154995000Y-83500000D01*
X153495000Y-83500000D02*
X153495000Y-82964591D01*
X152895000Y-82964591D02*
X152895000Y-83500000D01*
X151395000Y-83500000D02*
X150855000Y-83500000D01*
X154002296Y-83685409D02*
X153587704Y-83685409D01*
X154095000Y-83200000D02*
X154095000Y-83592705D01*
X152895000Y-83500000D02*
X152895000Y-83592705D01*
X152295000Y-83592705D02*
X152295000Y-83500000D01*
X154695000Y-83200000D02*
X154695000Y-82964591D01*
X150855000Y-83500000D02*
X149895000Y-82540000D01*
X153195000Y-82664591D02*
G75*
G02*
X153495000Y-82964591I0J-300000D01*
G01*
X152895000Y-82964591D02*
G75*
G02*
X153195000Y-82664591I300000J0D01*
G01*
X154095000Y-82964591D02*
G75*
G02*
X154395000Y-82664591I300000J0D01*
G01*
X151695000Y-82964591D02*
G75*
G02*
X151995000Y-82664591I300000J0D01*
G01*
X152295000Y-83592705D02*
G75*
G03*
X152387704Y-83685409I92703J-1D01*
G01*
X154395000Y-82664591D02*
G75*
G02*
X154695000Y-82964591I0J-300000D01*
G01*
X153495000Y-83592705D02*
G75*
G03*
X153587704Y-83685409I92703J-1D01*
G01*
X152802296Y-83685409D02*
G75*
G03*
X152895000Y-83592705I1J92703D01*
G01*
X154002296Y-83685409D02*
G75*
G03*
X154095000Y-83592705I1J92703D01*
G01*
X151995000Y-82664591D02*
G75*
G02*
X152295000Y-82964591I0J-300000D01*
G01*
X151395000Y-83500000D02*
G75*
G03*
X151695000Y-83200000I0J300000D01*
G01*
X154695000Y-83200000D02*
G75*
G03*
X154995000Y-83500000I300000J0D01*
G01*
%TO.N,/CHAN_2_IN*%
X151820014Y-84871816D02*
X151820014Y-84424986D01*
X154570014Y-84424986D02*
X154570014Y-84871816D01*
X153470014Y-84424986D02*
X153470014Y-84871816D01*
X154020014Y-84871816D02*
X154020014Y-84424986D01*
X156945052Y-84149986D02*
X154845014Y-84149986D01*
X151545014Y-84149986D02*
X150825014Y-84149986D01*
X152920014Y-84871816D02*
X152920014Y-84424986D01*
X152370014Y-84424986D02*
X152370014Y-84871816D01*
X150825014Y-84149986D02*
X149895000Y-85080000D01*
X153470014Y-84424986D02*
G75*
G02*
X153745014Y-84149986I275001J-1D01*
G01*
X151820014Y-84871816D02*
G75*
G03*
X152095014Y-85146816I275001J1D01*
G01*
X152920014Y-84871816D02*
G75*
G03*
X153195014Y-85146816I275001J1D01*
G01*
X152095014Y-85146816D02*
G75*
G03*
X152370014Y-84871816I-1J275001D01*
G01*
X151545014Y-84149986D02*
G75*
G02*
X151820014Y-84424986I-1J-275001D01*
G01*
X154570014Y-84424986D02*
G75*
G02*
X154845014Y-84149986I275001J-1D01*
G01*
X153195014Y-85146816D02*
G75*
G03*
X153470014Y-84871816I-1J275001D01*
G01*
X152370014Y-84424986D02*
G75*
G02*
X152645014Y-84149986I275001J-1D01*
G01*
X153745014Y-84149986D02*
G75*
G02*
X154020014Y-84424986I-1J-275001D01*
G01*
X154295014Y-85146816D02*
G75*
G03*
X154570014Y-84871816I-1J275001D01*
G01*
X152645014Y-84149986D02*
G75*
G02*
X152920014Y-84424986I-1J-275001D01*
G01*
X154020014Y-84871816D02*
G75*
G03*
X154295014Y-85146816I275001J1D01*
G01*
%TO.N,/CHAN_3_IN*%
X152975000Y-87620000D02*
X149895000Y-87620000D01*
X153276552Y-87318448D02*
X152975000Y-87620000D01*
X154823613Y-86919602D02*
X154823614Y-86919603D01*
X154823614Y-86919603D02*
X153675399Y-85771384D01*
X155045000Y-86080330D02*
X155353944Y-86389273D01*
X153454012Y-87140988D02*
X153276552Y-87318448D01*
X153145067Y-86301716D02*
X153454012Y-86610658D01*
X153145068Y-86301717D02*
X153145067Y-86301716D01*
X156945052Y-84799972D02*
X155795028Y-84799972D01*
X155795028Y-84799972D02*
X155045000Y-85550000D01*
X155045001Y-86080331D02*
X155045000Y-86080330D01*
X154823614Y-86919601D02*
G75*
G03*
X155353943Y-86919602I265165J265163D01*
G01*
X155045002Y-86080330D02*
G75*
G02*
X155045001Y-85550001I265163J265165D01*
G01*
X153454011Y-87140987D02*
G75*
G03*
X153454011Y-86610659I-265164J265164D01*
G01*
X153145068Y-86301717D02*
G75*
G02*
X153145067Y-85771386I265167J265166D01*
G01*
X155353943Y-86919602D02*
G75*
G03*
X155353943Y-86389274I-265164J265164D01*
G01*
X153145068Y-85771387D02*
G75*
G02*
X153675398Y-85771385I265166J-265169D01*
G01*
%TO.N,/CHAN_4_IN*%
X153798031Y-91575644D02*
X154520644Y-90853030D01*
X155220000Y-91850736D02*
X155369175Y-91701561D01*
X153105000Y-90160000D02*
X149895000Y-90160000D01*
X155795014Y-92850014D02*
X155220000Y-92275000D01*
X156945052Y-92850014D02*
X155795014Y-92850014D01*
X154944909Y-91277296D02*
X154222295Y-91999909D01*
X154944909Y-91277297D02*
X154944909Y-91277296D01*
X153522938Y-90577941D02*
X153105000Y-90160000D01*
X154096378Y-90428765D02*
X153947202Y-90577941D01*
X154096378Y-90428766D02*
X154096378Y-90428765D01*
X153798031Y-91575643D02*
X153798031Y-91575644D01*
X155369174Y-91277298D02*
G75*
G02*
X155369174Y-91701560I-212131J-212131D01*
G01*
X153522939Y-90577940D02*
G75*
G03*
X153947201Y-90577940I212131J212131D01*
G01*
X153798032Y-91999908D02*
G75*
G03*
X154222294Y-91999908I212131J212131D01*
G01*
X154520643Y-90428767D02*
G75*
G02*
X154520643Y-90853029I-212131J-212131D01*
G01*
X155220001Y-91850737D02*
G75*
G03*
X155220001Y-92274999I212131J-212131D01*
G01*
X153798031Y-91575643D02*
G75*
G03*
X153798031Y-91999909I212134J-212133D01*
G01*
X154096379Y-90428767D02*
G75*
G02*
X154520643Y-90428767I212132J-212130D01*
G01*
X154944910Y-91277298D02*
G75*
G02*
X155369174Y-91277298I212132J-212130D01*
G01*
%TO.N,/CHAN_5_IN*%
X152970000Y-93598142D02*
X152970000Y-93500000D01*
X153321858Y-93696284D02*
X153068142Y-93696284D01*
X151997400Y-93500000D02*
X150695000Y-93500000D01*
X152970000Y-93500000D02*
X152970000Y-92928716D01*
X154770000Y-93275000D02*
X154770000Y-92928716D01*
X153420000Y-92928716D02*
X153420000Y-93500000D01*
X154221858Y-93696284D02*
X153968142Y-93696284D01*
X153870000Y-93598142D02*
X153870000Y-93500000D01*
X154320000Y-93275000D02*
X154320000Y-93598142D01*
X154320000Y-92928716D02*
X154320000Y-93275000D01*
X150695000Y-93500000D02*
X149895000Y-92700000D01*
X153870000Y-93500000D02*
X153870000Y-92928716D01*
X152520000Y-92928716D02*
X152520000Y-93275000D01*
X152295000Y-93500000D02*
X151997400Y-93500000D01*
X153420000Y-93500000D02*
X153420000Y-93598142D01*
X156945052Y-93500000D02*
X154995000Y-93500000D01*
X153870000Y-93598142D02*
G75*
G03*
X153968142Y-93696284I98142J0D01*
G01*
X154770000Y-93275000D02*
G75*
G03*
X154995000Y-93500000I225000J0D01*
G01*
X152745000Y-92703716D02*
G75*
G02*
X152970000Y-92928716I0J-225000D01*
G01*
X153321858Y-93696284D02*
G75*
G03*
X153420000Y-93598142I0J98142D01*
G01*
X154221858Y-93696284D02*
G75*
G03*
X154320000Y-93598142I0J98142D01*
G01*
X152295000Y-93500000D02*
G75*
G03*
X152520000Y-93275000I0J225000D01*
G01*
X152970000Y-93598142D02*
G75*
G03*
X153068142Y-93696284I98142J0D01*
G01*
X154320000Y-92928716D02*
G75*
G02*
X154545000Y-92703716I225000J0D01*
G01*
X152520000Y-92928716D02*
G75*
G02*
X152745000Y-92703716I225000J0D01*
G01*
X154545000Y-92703716D02*
G75*
G02*
X154770000Y-92928716I0J-225000D01*
G01*
X153645000Y-92703716D02*
G75*
G02*
X153870000Y-92928716I0J-225000D01*
G01*
X153420000Y-92928716D02*
G75*
G02*
X153645000Y-92703716I225000J0D01*
G01*
%TO.N,/CHAN_6_IN*%
X152045014Y-94149986D02*
X151995014Y-94149986D01*
X150985014Y-94149986D02*
X149895000Y-95240000D01*
X152795014Y-94399986D02*
X152795014Y-94864308D01*
X152295014Y-94864308D02*
X152295014Y-94399986D01*
X156945052Y-94149986D02*
X155045014Y-94149986D01*
X154795014Y-94399986D02*
X154795014Y-94864308D01*
X153795014Y-94399986D02*
X153795014Y-94864308D01*
X154295014Y-94864308D02*
X154295014Y-94399986D01*
X153295014Y-94864308D02*
X153295014Y-94399986D01*
X151995014Y-94149986D02*
X150985014Y-94149986D01*
X153545014Y-95114308D02*
G75*
G03*
X153795014Y-94864308I1J249999D01*
G01*
X154545014Y-95114308D02*
G75*
G03*
X154795014Y-94864308I1J249999D01*
G01*
X152295014Y-94864308D02*
G75*
G03*
X152545014Y-95114308I249999J-1D01*
G01*
X154295014Y-94864308D02*
G75*
G03*
X154545014Y-95114308I249999J-1D01*
G01*
X152545014Y-95114308D02*
G75*
G03*
X152795014Y-94864308I1J249999D01*
G01*
X154795014Y-94399986D02*
G75*
G02*
X155045014Y-94149986I249999J1D01*
G01*
X152795014Y-94399986D02*
G75*
G02*
X153045014Y-94149986I249999J1D01*
G01*
X153045014Y-94149986D02*
G75*
G02*
X153295014Y-94399986I1J-249999D01*
G01*
X154045014Y-94149986D02*
G75*
G02*
X154295014Y-94399986I1J-249999D01*
G01*
X152045014Y-94149986D02*
G75*
G02*
X152295014Y-94399986I1J-249999D01*
G01*
X153295014Y-94864308D02*
G75*
G03*
X153545014Y-95114308I249999J-1D01*
G01*
X153795014Y-94399986D02*
G75*
G02*
X154045014Y-94149986I249999J1D01*
G01*
%TO.N,/CHAN_7_IN*%
X155795028Y-94799972D02*
X155195000Y-95400000D01*
X155195001Y-95824265D02*
X155195000Y-95824264D01*
X154917552Y-96395343D02*
X154235014Y-95712801D01*
X153810749Y-96137068D02*
X153810748Y-96137067D01*
X155195000Y-95824264D02*
X155341816Y-95971079D01*
X156945052Y-94799972D02*
X155795028Y-94799972D01*
X153810748Y-96137067D02*
X154346475Y-96672790D01*
X153266217Y-97328783D02*
X152815000Y-97780000D01*
X152815000Y-97780000D02*
X149895000Y-97780000D01*
X154069026Y-97243869D02*
X153922211Y-97097053D01*
X154917551Y-96395342D02*
X154917552Y-96395343D01*
X153497947Y-97097053D02*
X153266217Y-97328783D01*
X154346475Y-96672790D02*
X154493290Y-96819605D01*
X154069025Y-97243868D02*
X154069026Y-97243869D01*
X154069026Y-97243867D02*
G75*
G03*
X154493289Y-97243868I212132J212130D01*
G01*
X154493289Y-97243868D02*
G75*
G03*
X154493289Y-96819606I-212131J212131D01*
G01*
X153810749Y-96137068D02*
G75*
G02*
X153810748Y-95712803I212134J212133D01*
G01*
X153497948Y-97097054D02*
G75*
G02*
X153922210Y-97097054I212131J-212131D01*
G01*
X155195002Y-95824264D02*
G75*
G02*
X155195001Y-95400001I212130J212132D01*
G01*
X155341815Y-96395342D02*
G75*
G03*
X155341815Y-95971080I-212131J212131D01*
G01*
X153810749Y-95712804D02*
G75*
G02*
X154235013Y-95712802I212133J-212136D01*
G01*
X154917552Y-96395341D02*
G75*
G03*
X155341815Y-96395342I212132J212130D01*
G01*
%TO.N,/CHAN_8_IN*%
X154795000Y-101975736D02*
X154927578Y-101843158D01*
X154503312Y-101418893D02*
X153813892Y-102108312D01*
X153097938Y-100702941D02*
X152828665Y-100433665D01*
X154503312Y-101418894D02*
X154503312Y-101418893D01*
X153654781Y-100570363D02*
X153654781Y-100570362D01*
X152715000Y-100320000D02*
X149895000Y-100320000D01*
X156945052Y-103350014D02*
X155745014Y-103350014D01*
X153389628Y-101684047D02*
X154079047Y-100994627D01*
X152828665Y-100433665D02*
X152715000Y-100320000D01*
X153654781Y-100570362D02*
X153522202Y-100702941D01*
X155745014Y-103350014D02*
X154795000Y-102400000D01*
X153389628Y-101684046D02*
X153389628Y-101684047D01*
X153654782Y-100570364D02*
G75*
G02*
X154079046Y-100570364I212132J-212130D01*
G01*
X154079046Y-100570364D02*
G75*
G02*
X154079046Y-100994626I-212131J-212131D01*
G01*
X154927577Y-101418895D02*
G75*
G02*
X154927577Y-101843157I-212131J-212131D01*
G01*
X154795001Y-101975737D02*
G75*
G03*
X154795001Y-102399999I212131J-212131D01*
G01*
X153389629Y-102108311D02*
G75*
G03*
X153813891Y-102108311I212131J212131D01*
G01*
X154503313Y-101418895D02*
G75*
G02*
X154927577Y-101418895I212132J-212130D01*
G01*
X153097939Y-100702940D02*
G75*
G03*
X153522201Y-100702940I212131J212131D01*
G01*
X153389628Y-101684046D02*
G75*
G03*
X153389628Y-102108312I212134J-212133D01*
G01*
%TO.N,/CHAN_9_IN*%
X153895000Y-104093977D02*
X153895000Y-104000000D01*
X152695000Y-104093977D02*
X152695000Y-104000000D01*
X156945052Y-104000000D02*
X155395000Y-104000000D01*
X152095000Y-103462047D02*
X152095000Y-103700000D01*
X153201024Y-104187953D02*
X152788976Y-104187953D01*
X151035000Y-104000000D02*
X149895000Y-102860000D01*
X153895000Y-104000000D02*
X153895000Y-103462047D01*
X151795000Y-104000000D02*
X151247059Y-104000000D01*
X154495000Y-103700000D02*
X154495000Y-104093977D01*
X151247059Y-104000000D02*
X151035000Y-104000000D01*
X154495000Y-103512047D02*
X154495000Y-103700000D01*
X155095000Y-103700000D02*
X155095000Y-103512047D01*
X154401024Y-104187953D02*
X153988976Y-104187953D01*
X153295000Y-103462047D02*
X153295000Y-104000000D01*
X152695000Y-104000000D02*
X152695000Y-103462047D01*
X153295000Y-104000000D02*
X153295000Y-104093977D01*
X152395000Y-103162047D02*
G75*
G02*
X152695000Y-103462047I0J-300000D01*
G01*
X154495000Y-103512047D02*
G75*
G02*
X154795000Y-103212047I300000J0D01*
G01*
X155095000Y-103700000D02*
G75*
G03*
X155395000Y-104000000I300000J0D01*
G01*
X151795000Y-104000000D02*
G75*
G03*
X152095000Y-103700000I0J300000D01*
G01*
X153895000Y-104093977D02*
G75*
G03*
X153988976Y-104187953I93976J0D01*
G01*
X152095000Y-103462047D02*
G75*
G02*
X152395000Y-103162047I300000J0D01*
G01*
X153201024Y-104187953D02*
G75*
G03*
X153295000Y-104093977I0J93976D01*
G01*
X153595000Y-103162047D02*
G75*
G02*
X153895000Y-103462047I0J-300000D01*
G01*
X152695000Y-104093977D02*
G75*
G03*
X152788976Y-104187953I93976J0D01*
G01*
X154401024Y-104187953D02*
G75*
G03*
X154495000Y-104093977I0J93976D01*
G01*
X153295000Y-103462047D02*
G75*
G02*
X153595000Y-103162047I300000J0D01*
G01*
X154795000Y-103212047D02*
G75*
G02*
X155095000Y-103512047I0J-300000D01*
G01*
%TO.N,/CHAN_10_IN*%
X155275215Y-104580215D02*
X155275215Y-104580214D01*
X154269986Y-105339529D02*
X154269986Y-104899986D01*
X154775215Y-104580214D02*
X154775215Y-104580215D01*
X154775215Y-104649986D02*
X154769986Y-104649986D01*
X153769986Y-104899986D02*
X153769986Y-105339529D01*
X150949268Y-104649986D02*
X150645014Y-104649986D01*
X150645014Y-104649986D02*
X149895000Y-105400000D01*
X152769986Y-104899986D02*
X152769986Y-105339529D01*
X156945052Y-104649986D02*
X155344986Y-104649986D01*
X153269986Y-105339529D02*
X153269986Y-104899986D01*
X152269986Y-105339529D02*
X152269986Y-104899986D01*
X154769986Y-104649986D02*
X154769986Y-105339529D01*
X155205444Y-104510443D02*
X154844986Y-104510443D01*
X152019986Y-104649986D02*
X150949268Y-104649986D01*
X154775215Y-104580215D02*
X154775215Y-104649986D01*
X152769986Y-104899986D02*
G75*
G02*
X153019986Y-104649986I249999J1D01*
G01*
X153519986Y-105589529D02*
G75*
G03*
X153769986Y-105339529I1J249999D01*
G01*
X152269986Y-105339529D02*
G75*
G03*
X152519986Y-105589529I249999J-1D01*
G01*
X154775215Y-104580214D02*
G75*
G02*
X154844986Y-104510443I69769J2D01*
G01*
X154269986Y-105339529D02*
G75*
G03*
X154519986Y-105589529I249999J-1D01*
G01*
X155275215Y-104580215D02*
G75*
G03*
X155344986Y-104649986I69769J-2D01*
G01*
X152019986Y-104649986D02*
G75*
G02*
X152269986Y-104899986I1J-249999D01*
G01*
X154519986Y-105589529D02*
G75*
G03*
X154769986Y-105339529I1J249999D01*
G01*
X153269986Y-105339529D02*
G75*
G03*
X153519986Y-105589529I249999J-1D01*
G01*
X152519986Y-105589529D02*
G75*
G03*
X152769986Y-105339529I1J249999D01*
G01*
X155205444Y-104510443D02*
G75*
G02*
X155275215Y-104580214I2J-69769D01*
G01*
X153769986Y-104899986D02*
G75*
G02*
X154019986Y-104649986I249999J1D01*
G01*
X153019986Y-104649986D02*
G75*
G02*
X153269986Y-104899986I1J-249999D01*
G01*
X154019986Y-104649986D02*
G75*
G02*
X154269986Y-104899986I1J-249999D01*
G01*
%TO.N,/CHAN_11_IN*%
X154445001Y-106874265D02*
X154445000Y-106874264D01*
X154445000Y-106874264D02*
X154727843Y-107157106D01*
X154303579Y-107581370D02*
X153313632Y-106591419D01*
X155595028Y-105299972D02*
X154445000Y-106450000D01*
X153172210Y-107722790D02*
X152955000Y-107940000D01*
X152889367Y-107015686D02*
X152889366Y-107015685D01*
X152955000Y-107940000D02*
X149895000Y-107940000D01*
X156945052Y-105299972D02*
X155595028Y-105299972D01*
X152889366Y-107015685D02*
X153172210Y-107298526D01*
X154303578Y-107581369D02*
X154303579Y-107581370D01*
X154445002Y-106874264D02*
G75*
G02*
X154445001Y-106450001I212130J212132D01*
G01*
X152889367Y-106591422D02*
G75*
G02*
X153313631Y-106591420I212133J-212136D01*
G01*
X153172209Y-107722789D02*
G75*
G03*
X153172209Y-107298527I-212131J212131D01*
G01*
X154727842Y-107581369D02*
G75*
G03*
X154727842Y-107157107I-212131J212131D01*
G01*
X154303579Y-107581368D02*
G75*
G03*
X154727842Y-107581369I212132J212130D01*
G01*
X152889367Y-107015686D02*
G75*
G02*
X152889366Y-106591421I212134J212133D01*
G01*
%TO.N,/GND*%
X159295000Y-102100000D02*
X159295000Y-96600000D01*
X159295000Y-96600000D02*
X159295000Y-91600000D01*
X159295000Y-91600000D02*
X159295000Y-86700000D01*
X149895000Y-110480000D02*
X156415000Y-110480000D01*
X159245042Y-91550042D02*
X159295000Y-91600000D01*
X156945052Y-91550042D02*
X159245042Y-91550042D01*
X159820000Y-109300000D02*
X159820000Y-108400000D01*
X159295000Y-86700000D02*
X159295000Y-82700000D01*
X159295000Y-82700000D02*
X158145042Y-81550042D01*
X159295000Y-107600000D02*
X159295000Y-102100000D01*
X158145042Y-81550042D02*
X156945052Y-81550042D01*
X156415000Y-110480000D02*
X159295000Y-107600000D01*
X156945052Y-102050042D02*
X159245042Y-102050042D01*
X159245042Y-102050042D02*
X159295000Y-102100000D01*
X159820000Y-108400000D02*
X159120000Y-107700000D01*
%TO.N,/3V3*%
X161818388Y-85223388D02*
X161818388Y-81876612D01*
X161818388Y-105875447D02*
X161818388Y-102276612D01*
X162844948Y-102050042D02*
X162044958Y-102050042D01*
X162045042Y-85449958D02*
X162044958Y-85449958D01*
X161818388Y-101823388D02*
X161818388Y-95676612D01*
X161891734Y-91550042D02*
X161818388Y-91623388D01*
X162044958Y-102049958D02*
X161818388Y-101823388D01*
X161818388Y-95223388D02*
X161818388Y-95123388D01*
X162844948Y-107149948D02*
X162844948Y-105949958D01*
X161818388Y-91876612D02*
X161818388Y-91623388D01*
X162044958Y-95449958D02*
X161818388Y-95223388D01*
X161891734Y-95449958D02*
X161818388Y-95376612D01*
X162045042Y-85449958D02*
X161871612Y-85623388D01*
X162044958Y-102049958D02*
X162044958Y-102050042D01*
X161818388Y-95123388D02*
X161818388Y-91876612D01*
X161818388Y-95376612D02*
X161818388Y-95123388D01*
X172435000Y-113020000D02*
X169895000Y-113020000D01*
X162045042Y-85449958D02*
X161845042Y-85449958D01*
X161818388Y-91323388D02*
X161818388Y-85623388D01*
X162844948Y-105949958D02*
X161892899Y-105949958D01*
X162044958Y-95449958D02*
X162044958Y-95450042D01*
X161370000Y-108524948D02*
X162745000Y-107149948D01*
X162745000Y-107149948D02*
X162844948Y-107149948D01*
X162844948Y-91550042D02*
X162044958Y-91550042D01*
X163044948Y-107149948D02*
X162844948Y-107149948D01*
X162044958Y-95449958D02*
X161891734Y-95449958D01*
X162844948Y-95449958D02*
X162044958Y-95449958D01*
X168915000Y-113020000D02*
X163044948Y-107149948D01*
X161370000Y-109300000D02*
X161370000Y-108524948D01*
X161818388Y-85476612D02*
X161818388Y-85223388D01*
X161818388Y-101976612D02*
X161818388Y-101823388D01*
X162844948Y-85449958D02*
X162045042Y-85449958D01*
X161818388Y-91776612D02*
X161818388Y-91876612D01*
X162044958Y-85449958D02*
X161818388Y-85223388D01*
X161818388Y-91623388D02*
X161818388Y-91323388D01*
X162044958Y-102050042D02*
X161891818Y-102050042D01*
X162044958Y-91550042D02*
X161891734Y-91550042D01*
X162044958Y-102050042D02*
X161818388Y-102276612D01*
X162044958Y-95450042D02*
X161818388Y-95676612D01*
X161818388Y-102276612D02*
X161818388Y-101976612D01*
X161891818Y-102050042D02*
X161818388Y-101976612D01*
X161892899Y-105949958D02*
X161818388Y-105875447D01*
X162044958Y-91550042D02*
X161818388Y-91776612D01*
X161845042Y-85449958D02*
X161818388Y-85476612D01*
X162144958Y-81550042D02*
X162844948Y-81550042D01*
X161871612Y-85623388D02*
X161818388Y-85623388D01*
X161818388Y-85623388D02*
X161818388Y-85476612D01*
X161818388Y-95676612D02*
X161818388Y-95376612D01*
X162044958Y-91549958D02*
X161818388Y-91323388D01*
X162044958Y-91550042D02*
X162044958Y-91549958D01*
X161818388Y-81876612D02*
X162144958Y-81550042D01*
X169895000Y-113020000D02*
X168915000Y-113020000D01*
%TO.N,/5V*%
X160595000Y-85400000D02*
X160595000Y-95300000D01*
X158445042Y-85449958D02*
X158495000Y-85400000D01*
X156945052Y-85449958D02*
X158445042Y-85449958D01*
X160595000Y-95300000D02*
X160595000Y-106000000D01*
X160595000Y-106000000D02*
X160595000Y-110100000D01*
X160595000Y-110100000D02*
X155135000Y-115560000D01*
X156945052Y-105949958D02*
X158444958Y-105949958D01*
X158444958Y-105949958D02*
X158495000Y-106000000D01*
X155135000Y-115560000D02*
X149895000Y-115560000D01*
X156945052Y-95449958D02*
X158445042Y-95449958D01*
X158445042Y-95449958D02*
X158495000Y-95400000D01*
%TO.N,/CHAN_0_OUT*%
X166146473Y-80424263D02*
X166712101Y-80989890D01*
X165156582Y-81131427D02*
X165297947Y-81272789D01*
X166287837Y-81414154D02*
X165934342Y-81060658D01*
X165297947Y-81697053D02*
X164144986Y-82850014D01*
X169895000Y-80000000D02*
X166995000Y-80000000D01*
X165156583Y-81131428D02*
X165156582Y-81131427D01*
X166005108Y-80282901D02*
X166146473Y-80424263D01*
X166570736Y-80000000D02*
X166429372Y-79858637D01*
X165934342Y-81060658D02*
X165580848Y-80707161D01*
X166570735Y-79999999D02*
X166570736Y-80000000D01*
X164144986Y-82850014D02*
X162844948Y-82850014D01*
X166287836Y-81414153D02*
X166287837Y-81414154D01*
X166005109Y-80282902D02*
X166005108Y-80282901D01*
X166005109Y-80282902D02*
G75*
G02*
X166005108Y-79858637I212134J212133D01*
G01*
X166005109Y-79858638D02*
G75*
G02*
X166429371Y-79858638I212131J-212131D01*
G01*
X165156583Y-80707164D02*
G75*
G02*
X165580847Y-80707162I212133J-212136D01*
G01*
X166712100Y-81414153D02*
G75*
G03*
X166712100Y-80989891I-212131J212131D01*
G01*
X165156583Y-81131428D02*
G75*
G02*
X165156582Y-80707163I212134J212133D01*
G01*
X166287837Y-81414152D02*
G75*
G03*
X166712100Y-81414153I212132J212130D01*
G01*
X165297946Y-81697052D02*
G75*
G03*
X165297946Y-81272790I-212131J212131D01*
G01*
X166570735Y-79999999D02*
G75*
G03*
X166995000Y-80000000I212133J212127D01*
G01*
%TO.N,/CHAN_1_OUT*%
X166895000Y-83500000D02*
X166895000Y-82924591D01*
X164382893Y-83500000D02*
X162844948Y-83500000D01*
X165695000Y-83562705D02*
X165695000Y-83500000D01*
X165095000Y-82924591D02*
X165095000Y-83200000D01*
X168935000Y-83500000D02*
X168395000Y-83500000D01*
X167495000Y-82924591D02*
X167495000Y-83200000D01*
X167495000Y-83200000D02*
X167495000Y-83562705D01*
X168095000Y-83200000D02*
X168095000Y-82924591D01*
X169895000Y-82540000D02*
X168935000Y-83500000D01*
X164795000Y-83500000D02*
X164382893Y-83500000D01*
X166295000Y-82924591D02*
X166295000Y-83500000D01*
X165695000Y-83500000D02*
X165695000Y-82924591D01*
X166295000Y-83500000D02*
X166295000Y-83562705D01*
X166232296Y-83625409D02*
X165757704Y-83625409D01*
X167432296Y-83625409D02*
X166957704Y-83625409D01*
X166895000Y-83562705D02*
X166895000Y-83500000D01*
X165395000Y-82624591D02*
G75*
G02*
X165695000Y-82924591I0J-300000D01*
G01*
X164795000Y-83500000D02*
G75*
G03*
X165095000Y-83200000I0J300000D01*
G01*
X167795000Y-82624591D02*
G75*
G02*
X168095000Y-82924591I0J-300000D01*
G01*
X167495000Y-82924591D02*
G75*
G02*
X167795000Y-82624591I300000J0D01*
G01*
X165695000Y-83562705D02*
G75*
G03*
X165757704Y-83625409I62705J1D01*
G01*
X166895000Y-83562705D02*
G75*
G03*
X166957704Y-83625409I62705J1D01*
G01*
X166232296Y-83625409D02*
G75*
G03*
X166295000Y-83562705I-1J62705D01*
G01*
X166295000Y-82924591D02*
G75*
G02*
X166595000Y-82624591I300000J0D01*
G01*
X166595000Y-82624591D02*
G75*
G02*
X166895000Y-82924591I0J-300000D01*
G01*
X168095000Y-83200000D02*
G75*
G03*
X168395000Y-83500000I300000J0D01*
G01*
X167432296Y-83625409D02*
G75*
G03*
X167495000Y-83562705I-1J62705D01*
G01*
X165095000Y-82924591D02*
G75*
G02*
X165395000Y-82624591I300000J0D01*
G01*
%TO.N,/CHAN_2_OUT*%
X165369986Y-84878938D02*
X165369986Y-84374986D01*
X166269986Y-84878938D02*
X166269986Y-84374986D01*
X165144986Y-84149986D02*
X165094986Y-84149986D01*
X165819986Y-84374986D02*
X165819986Y-84878938D01*
X167619986Y-84374986D02*
X167619986Y-84878938D01*
X168964986Y-84149986D02*
X167844986Y-84149986D01*
X167169986Y-84878938D02*
X167169986Y-84374986D01*
X169895000Y-85080000D02*
X168964986Y-84149986D01*
X166719986Y-84374986D02*
X166719986Y-84878938D01*
X165094986Y-84149986D02*
X162844948Y-84149986D01*
X165369986Y-84878938D02*
G75*
G03*
X165594986Y-85103938I225000J0D01*
G01*
X166719986Y-84374986D02*
G75*
G02*
X166944986Y-84149986I225000J0D01*
G01*
X165144986Y-84149986D02*
G75*
G02*
X165369986Y-84374986I0J-225000D01*
G01*
X165594986Y-85103938D02*
G75*
G03*
X165819986Y-84878938I0J225000D01*
G01*
X167169986Y-84878938D02*
G75*
G03*
X167394986Y-85103938I225000J0D01*
G01*
X166494986Y-85103938D02*
G75*
G03*
X166719986Y-84878938I0J225000D01*
G01*
X167394986Y-85103938D02*
G75*
G03*
X167619986Y-84878938I0J225000D01*
G01*
X166944986Y-84149986D02*
G75*
G02*
X167169986Y-84374986I0J-225000D01*
G01*
X166269986Y-84878938D02*
G75*
G03*
X166494986Y-85103938I225000J0D01*
G01*
X166044986Y-84149986D02*
G75*
G02*
X166269986Y-84374986I0J-225000D01*
G01*
X167619986Y-84374986D02*
G75*
G02*
X167844986Y-84149986I225000J0D01*
G01*
X165819986Y-84374986D02*
G75*
G02*
X166044986Y-84149986I225000J0D01*
G01*
%TO.N,/CHAN_3_OUT*%
X167015000Y-87620000D02*
X169895000Y-87620000D01*
X165834428Y-86439430D02*
X165834431Y-86439431D01*
X164194972Y-84799972D02*
X165145000Y-85750000D01*
X165834431Y-86439431D02*
X166421143Y-85852719D01*
X165145000Y-86209620D02*
X164788098Y-86566522D01*
X162844948Y-84799972D02*
X164194972Y-84799972D01*
X166880762Y-85852720D02*
X166880762Y-85852719D01*
X166713517Y-87318517D02*
X167015000Y-87620000D01*
X166523861Y-87128859D02*
X166523861Y-87128858D01*
X166880762Y-86312337D02*
X166880762Y-86312338D01*
X165247717Y-87026142D02*
X165247717Y-87026141D01*
X166523861Y-87128858D02*
X166713517Y-87318517D01*
X165247717Y-87026141D02*
X165834428Y-86439430D01*
X166880762Y-86312338D02*
X166523861Y-86669239D01*
X164788098Y-87026142D02*
X164788099Y-87026142D01*
X166880762Y-86312337D02*
G75*
G03*
X166880762Y-85852719I-229809J229809D01*
G01*
X165247717Y-87026142D02*
G75*
G02*
X164788099Y-87026142I-229809J229812D01*
G01*
X166880762Y-85852720D02*
G75*
G03*
X166421143Y-85852719I-229810J-229808D01*
G01*
X165145000Y-86209620D02*
G75*
G03*
X165145000Y-85750000I-229811J229810D01*
G01*
X164788098Y-87026142D02*
G75*
G02*
X164788098Y-86566522I229811J229810D01*
G01*
X166523861Y-87128859D02*
G75*
G02*
X166523861Y-86669239I229811J229810D01*
G01*
%TO.N,/CHAN_4_OUT*%
X164697947Y-92197053D02*
X164044986Y-92850014D01*
X165334342Y-91560658D02*
X164973038Y-91199351D01*
X169895000Y-90160000D02*
X166735000Y-90160000D01*
X165970736Y-90500000D02*
X165821562Y-90350827D01*
X165695647Y-91921964D02*
X165334342Y-91560658D01*
X165546473Y-90924263D02*
X166119911Y-91497700D01*
X164548773Y-91623618D02*
X164548772Y-91623617D01*
X165695646Y-91921963D02*
X165695647Y-91921964D01*
X165970735Y-90499999D02*
X165970736Y-90500000D01*
X164548772Y-91623617D02*
X164697947Y-91772789D01*
X164044986Y-92850014D02*
X162844948Y-92850014D01*
X166735000Y-90160000D02*
X166395000Y-90500000D01*
X165397298Y-90775091D02*
X165546473Y-90924263D01*
X165397299Y-90775092D02*
X165397298Y-90775091D01*
X164548773Y-91623618D02*
G75*
G02*
X164548772Y-91199353I212134J212133D01*
G01*
X164697946Y-92197052D02*
G75*
G03*
X164697946Y-91772790I-212131J212131D01*
G01*
X165695647Y-91921962D02*
G75*
G03*
X166119910Y-91921963I212132J212130D01*
G01*
X165970735Y-90499999D02*
G75*
G03*
X166395000Y-90500000I212133J212127D01*
G01*
X166119910Y-91921963D02*
G75*
G03*
X166119910Y-91497701I-212131J212131D01*
G01*
X165397299Y-90350828D02*
G75*
G02*
X165821561Y-90350828I212131J-212131D01*
G01*
X164548773Y-91199354D02*
G75*
G02*
X164973037Y-91199352I212133J-212136D01*
G01*
X165397299Y-90775092D02*
G75*
G02*
X165397298Y-90350827I212134J212133D01*
G01*
%TO.N,/CHAN_5_OUT*%
X165595000Y-93596018D02*
X165595000Y-93500000D01*
X169895000Y-92700000D02*
X169095000Y-93500000D01*
X164995000Y-92957964D02*
X164995000Y-93200000D01*
X164695000Y-93500000D02*
X163795137Y-93500000D01*
X166098982Y-93692036D02*
X165691018Y-93692036D01*
X167395000Y-92957964D02*
X167395000Y-93200000D01*
X163795137Y-93500000D02*
X162844948Y-93500000D01*
X166195000Y-92957964D02*
X166195000Y-93500000D01*
X166795000Y-93596018D02*
X166795000Y-93500000D01*
X166195000Y-93500000D02*
X166195000Y-93596018D01*
X167298982Y-93692036D02*
X166891018Y-93692036D01*
X166795000Y-93500000D02*
X166795000Y-92957964D01*
X169095000Y-93500000D02*
X168295000Y-93500000D01*
X167995000Y-93200000D02*
X167995000Y-92957964D01*
X165595000Y-93500000D02*
X165595000Y-92957964D01*
X167395000Y-93200000D02*
X167395000Y-93596018D01*
X164995000Y-92957964D02*
G75*
G02*
X165295000Y-92657964I300000J0D01*
G01*
X166195000Y-92957964D02*
G75*
G02*
X166495000Y-92657964I300000J0D01*
G01*
X167395000Y-92957964D02*
G75*
G02*
X167695000Y-92657964I300000J0D01*
G01*
X166495000Y-92657964D02*
G75*
G02*
X166795000Y-92957964I0J-300000D01*
G01*
X166795000Y-93596018D02*
G75*
G03*
X166891018Y-93692036I96018J0D01*
G01*
X167995000Y-93200000D02*
G75*
G03*
X168295000Y-93500000I300000J0D01*
G01*
X167298982Y-93692036D02*
G75*
G03*
X167395000Y-93596018I0J96018D01*
G01*
X165295000Y-92657964D02*
G75*
G02*
X165595000Y-92957964I0J-300000D01*
G01*
X164695000Y-93500000D02*
G75*
G03*
X164995000Y-93200000I0J300000D01*
G01*
X167695000Y-92657964D02*
G75*
G02*
X167995000Y-92957964I0J-300000D01*
G01*
X165595000Y-93596018D02*
G75*
G03*
X165691018Y-93692036I96018J0D01*
G01*
X166098982Y-93692036D02*
G75*
G03*
X166195000Y-93596018I0J96018D01*
G01*
%TO.N,/CHAN_6_OUT*%
X165045014Y-94149986D02*
X164995014Y-94149986D01*
X169895000Y-95240000D02*
X168804986Y-94149986D01*
X167520014Y-94374986D02*
X167520014Y-94867848D01*
X166170014Y-94867848D02*
X166170014Y-94374986D01*
X166620014Y-94374986D02*
X166620014Y-94867848D01*
X165270014Y-94867848D02*
X165270014Y-94374986D01*
X164995014Y-94149986D02*
X162844948Y-94149986D01*
X165720014Y-94374986D02*
X165720014Y-94867848D01*
X167070014Y-94867848D02*
X167070014Y-94374986D01*
X168804986Y-94149986D02*
X167745014Y-94149986D01*
X167520014Y-94374986D02*
G75*
G02*
X167745014Y-94149986I225000J0D01*
G01*
X165945014Y-94149986D02*
G75*
G02*
X166170014Y-94374986I0J-225000D01*
G01*
X166395014Y-95092848D02*
G75*
G03*
X166620014Y-94867848I0J225000D01*
G01*
X167295014Y-95092848D02*
G75*
G03*
X167520014Y-94867848I0J225000D01*
G01*
X165495014Y-95092848D02*
G75*
G03*
X165720014Y-94867848I0J225000D01*
G01*
X165045014Y-94149986D02*
G75*
G02*
X165270014Y-94374986I0J-225000D01*
G01*
X166170014Y-94867848D02*
G75*
G03*
X166395014Y-95092848I225000J0D01*
G01*
X166620014Y-94374986D02*
G75*
G02*
X166845014Y-94149986I225000J0D01*
G01*
X165720014Y-94374986D02*
G75*
G02*
X165945014Y-94149986I225000J0D01*
G01*
X166845014Y-94149986D02*
G75*
G02*
X167070014Y-94374986I0J-225000D01*
G01*
X165270014Y-94867848D02*
G75*
G03*
X165495014Y-95092848I225000J0D01*
G01*
X167070014Y-94867848D02*
G75*
G03*
X167295014Y-95092848I225000J0D01*
G01*
%TO.N,/CHAN_7_OUT*%
X166224180Y-97129180D02*
X166875000Y-97780000D01*
X162844948Y-94799972D02*
X163894972Y-94799972D01*
X164895000Y-96224266D02*
X164895001Y-96224266D01*
X163894972Y-94799972D02*
X164895000Y-95800000D01*
X166536925Y-96279399D02*
X166167795Y-96648529D01*
X165319264Y-96648531D02*
X166112661Y-95855135D01*
X164950134Y-97017661D02*
X165319264Y-96648531D01*
X164895001Y-96224266D02*
X164525870Y-96593397D01*
X166167795Y-97072793D02*
X166224180Y-97129180D01*
X166875000Y-97780000D02*
X169895000Y-97780000D01*
X166536924Y-96279398D02*
G75*
G03*
X166536924Y-95855136I-212131J212131D01*
G01*
X164894999Y-96224265D02*
G75*
G03*
X164894999Y-95800001I-212130J212132D01*
G01*
X164950133Y-97017660D02*
G75*
G02*
X164525871Y-97017660I-212131J212131D01*
G01*
X166536924Y-95855136D02*
G75*
G03*
X166112662Y-95855136I-212131J-212131D01*
G01*
X166167796Y-97072792D02*
G75*
G02*
X166167796Y-96648530I212131J212131D01*
G01*
X164525871Y-97017660D02*
G75*
G02*
X164525871Y-96593398I212131J212131D01*
G01*
%TO.N,/CHAN_8_OUT*%
X169895000Y-100320000D02*
X166975000Y-100320000D01*
X165145370Y-101460215D02*
X165145369Y-101460214D01*
X166259049Y-101725366D02*
X166259050Y-101725367D01*
X166259050Y-101725367D02*
X165914342Y-101380658D01*
X163944986Y-103350014D02*
X162844948Y-103350014D01*
X165145369Y-101460214D02*
X165277947Y-101592789D01*
X165277947Y-102017053D02*
X163944986Y-103350014D01*
X165993895Y-100611688D02*
X166126473Y-100744263D01*
X165993896Y-100611689D02*
X165993895Y-100611688D01*
X166550736Y-100320000D02*
X166418159Y-100187424D01*
X166126473Y-100744263D02*
X166683314Y-101301103D01*
X165914342Y-101380658D02*
X165569635Y-101035948D01*
X166550735Y-100319999D02*
X166550736Y-100320000D01*
X165277946Y-102017052D02*
G75*
G03*
X165277946Y-101592790I-212131J212131D01*
G01*
X165993896Y-100611689D02*
G75*
G02*
X165993895Y-100187424I212134J212133D01*
G01*
X165993896Y-100187425D02*
G75*
G02*
X166418158Y-100187425I212131J-212131D01*
G01*
X166683313Y-101725366D02*
G75*
G03*
X166683313Y-101301104I-212131J212131D01*
G01*
X165145370Y-101460215D02*
G75*
G02*
X165145369Y-101035950I212134J212133D01*
G01*
X166550735Y-100319999D02*
G75*
G03*
X166975000Y-100320000I212133J212127D01*
G01*
X165145370Y-101035951D02*
G75*
G02*
X165569634Y-101035949I212133J-212136D01*
G01*
X166259050Y-101725365D02*
G75*
G03*
X166683313Y-101725366I212132J212130D01*
G01*
%TO.N,/CHAN_9_OUT*%
X165845000Y-103750000D02*
X165845000Y-104095392D01*
X166345000Y-104095392D02*
X166345000Y-104000000D01*
X168755000Y-104000000D02*
X169895000Y-102860000D01*
X167345000Y-104095392D02*
X167345000Y-104000000D01*
X162844948Y-104000000D02*
X165095000Y-104000000D01*
X166345000Y-104000000D02*
X166345000Y-103459216D01*
X167845000Y-103459216D02*
X167845000Y-103750000D01*
X166845000Y-104000000D02*
X166845000Y-104095392D01*
X168552350Y-104000000D02*
X168755000Y-104000000D01*
X168095000Y-104000000D02*
X168552350Y-104000000D01*
X166845000Y-103459216D02*
X166845000Y-104000000D01*
X165845000Y-103459216D02*
X165845000Y-103750000D01*
X165940392Y-104190784D02*
X166249608Y-104190784D01*
X167345000Y-104000000D02*
X167345000Y-103459216D01*
X165345000Y-103750000D02*
X165345000Y-103459216D01*
X166940392Y-104190784D02*
X167249608Y-104190784D01*
X166345000Y-104095392D02*
G75*
G02*
X166249608Y-104190784I-95393J1D01*
G01*
X168095000Y-104000000D02*
G75*
G02*
X167845000Y-103750000I-1J249999D01*
G01*
X166940392Y-104190784D02*
G75*
G02*
X166845000Y-104095392I1J95393D01*
G01*
X167595000Y-103209216D02*
G75*
G03*
X167345000Y-103459216I-1J-249999D01*
G01*
X167845000Y-103459216D02*
G75*
G03*
X167595000Y-103209216I-249999J1D01*
G01*
X167345000Y-104095392D02*
G75*
G02*
X167249608Y-104190784I-95393J1D01*
G01*
X165940392Y-104190784D02*
G75*
G02*
X165845000Y-104095392I1J95393D01*
G01*
X166595000Y-103209216D02*
G75*
G03*
X166345000Y-103459216I-1J-249999D01*
G01*
X166845000Y-103459216D02*
G75*
G03*
X166595000Y-103209216I-249999J1D01*
G01*
X165595000Y-103209216D02*
G75*
G03*
X165345000Y-103459216I-1J-249999D01*
G01*
X165345000Y-103750000D02*
G75*
G02*
X165095000Y-104000000I-249999J-1D01*
G01*
X165845000Y-103459216D02*
G75*
G03*
X165595000Y-103209216I-249999J1D01*
G01*
%TO.N,/CHAN_10_OUT*%
X165557361Y-104587611D02*
X165557361Y-104649986D01*
X167819986Y-105349737D02*
X167819986Y-104874986D01*
X165557361Y-104649986D02*
X165569986Y-104649986D01*
X166469986Y-104874986D02*
X166469986Y-105349737D01*
X167369986Y-104874986D02*
X167369986Y-105349737D01*
X168044986Y-104649986D02*
X168094986Y-104649986D01*
X165169736Y-104525235D02*
X165494986Y-104525235D01*
X166019986Y-105349737D02*
X166019986Y-104874986D01*
X165557361Y-104587610D02*
X165557361Y-104587611D01*
X162844948Y-104649986D02*
X165044986Y-104649986D01*
X169144986Y-104649986D02*
X169895000Y-105400000D01*
X165107361Y-104587611D02*
X165107361Y-104587610D01*
X166919986Y-105349737D02*
X166919986Y-104874986D01*
X165569986Y-104649986D02*
X165569986Y-105349737D01*
X168094986Y-104649986D02*
X169144986Y-104649986D01*
X166019986Y-105349737D02*
G75*
G02*
X165794986Y-105574737I-225000J0D01*
G01*
X165107361Y-104587611D02*
G75*
G02*
X165044986Y-104649986I-62374J-1D01*
G01*
X166919986Y-105349737D02*
G75*
G02*
X166694986Y-105574737I-225000J0D01*
G01*
X166469986Y-104874986D02*
G75*
G03*
X166244986Y-104649986I-225000J0D01*
G01*
X168044986Y-104649986D02*
G75*
G03*
X167819986Y-104874986I0J-225000D01*
G01*
X165169736Y-104525235D02*
G75*
G03*
X165107361Y-104587610I-1J-62374D01*
G01*
X167144986Y-104649986D02*
G75*
G03*
X166919986Y-104874986I0J-225000D01*
G01*
X167819986Y-105349737D02*
G75*
G02*
X167594986Y-105574737I-225000J0D01*
G01*
X166694986Y-105574737D02*
G75*
G02*
X166469986Y-105349737I0J225000D01*
G01*
X167369986Y-104874986D02*
G75*
G03*
X167144986Y-104649986I-225000J0D01*
G01*
X166244986Y-104649986D02*
G75*
G03*
X166019986Y-104874986I0J-225000D01*
G01*
X167594986Y-105574737D02*
G75*
G02*
X167369986Y-105349737I0J225000D01*
G01*
X165557361Y-104587610D02*
G75*
G03*
X165494986Y-104525235I-62374J1D01*
G01*
X165794986Y-105574737D02*
G75*
G02*
X165569986Y-105349737I0J225000D01*
G01*
%TO.N,/CHAN_11_OUT*%
X165605660Y-107010662D02*
X166051915Y-106564407D01*
X165174715Y-106579713D02*
X165181397Y-106586397D01*
X163894972Y-105299972D02*
X164545000Y-105950000D01*
X165366798Y-105950000D02*
X165380164Y-105963365D01*
X166535000Y-107940000D02*
X169895000Y-107940000D01*
X166476179Y-106988671D02*
X166242058Y-107222792D01*
X165181397Y-106586397D02*
X164735143Y-107032651D01*
X165159407Y-107456915D02*
X165605660Y-107010662D01*
X166242058Y-107647056D02*
X166535000Y-107940000D01*
X165380164Y-106374263D02*
X165380164Y-106374264D01*
X165366798Y-105949999D02*
X165366798Y-105950000D01*
X164955900Y-105950000D02*
X164955899Y-105950000D01*
X165380164Y-106374264D02*
X165174715Y-106579713D01*
X162844948Y-105299972D02*
X163894972Y-105299972D01*
X164735144Y-107456914D02*
G75*
G02*
X164735144Y-107032652I212131J212131D01*
G01*
X165159406Y-107456914D02*
G75*
G02*
X164735144Y-107456914I-212131J212131D01*
G01*
X166476178Y-106988670D02*
G75*
G03*
X166476178Y-106564408I-212131J212131D01*
G01*
X166476178Y-106564408D02*
G75*
G03*
X166051916Y-106564408I-212131J-212131D01*
G01*
X165366797Y-105950000D02*
G75*
G03*
X164955900Y-105950001I-205448J-205451D01*
G01*
X166242059Y-107647055D02*
G75*
G02*
X166242059Y-107222793I212131J212131D01*
G01*
X165380164Y-106374263D02*
G75*
G03*
X165380164Y-105963365I-205448J205449D01*
G01*
X164955899Y-105949999D02*
G75*
G02*
X164545001Y-105949999I-205449J205450D01*
G01*
%TD*%
%TA.AperFunction,Conductor*%
%TO.N,/GND*%
G36*
X155684735Y-106210335D02*
G01*
X155741571Y-106252882D01*
X155758685Y-106284161D01*
X155792388Y-106374063D01*
X155879742Y-106490619D01*
X155996298Y-106577973D01*
X156132687Y-106629103D01*
X156194869Y-106635858D01*
X157695235Y-106635858D01*
X157757417Y-106629103D01*
X157757507Y-106629934D01*
X157821970Y-106633303D01*
X157873848Y-106667872D01*
X157883747Y-106678866D01*
X157945238Y-106723542D01*
X158031902Y-106786507D01*
X158038248Y-106791118D01*
X158044276Y-106793802D01*
X158044278Y-106793803D01*
X158127380Y-106830802D01*
X158211931Y-106868446D01*
X158211932Y-106868447D01*
X158212712Y-106868794D01*
X158212648Y-106868937D01*
X158268779Y-106907317D01*
X158296417Y-106972713D01*
X158284311Y-107042670D01*
X158278498Y-107053192D01*
X158229998Y-107131875D01*
X158223849Y-107145061D01*
X158174509Y-107293814D01*
X158171642Y-107307190D01*
X158162328Y-107398097D01*
X158162000Y-107404514D01*
X158162000Y-107427885D01*
X158166475Y-107443124D01*
X158167865Y-107444329D01*
X158175548Y-107446000D01*
X159248000Y-107446000D01*
X159316121Y-107466002D01*
X159362614Y-107519658D01*
X159374000Y-107572000D01*
X159374000Y-107828000D01*
X159353998Y-107896121D01*
X159300342Y-107942614D01*
X159248000Y-107954000D01*
X158180115Y-107954000D01*
X158164876Y-107958475D01*
X158163671Y-107959865D01*
X158162000Y-107967548D01*
X158162000Y-107995438D01*
X158162337Y-108001953D01*
X158171894Y-108094057D01*
X158174788Y-108107456D01*
X158224381Y-108256107D01*
X158230555Y-108269286D01*
X158312788Y-108402173D01*
X158321824Y-108413574D01*
X158432429Y-108523986D01*
X158443840Y-108532998D01*
X158576880Y-108615004D01*
X158590061Y-108621151D01*
X158738814Y-108670491D01*
X158752190Y-108673358D01*
X158785032Y-108676723D01*
X158850759Y-108703564D01*
X158891541Y-108761678D01*
X158894431Y-108832616D01*
X158891783Y-108841734D01*
X158874510Y-108893811D01*
X158871642Y-108907190D01*
X158862328Y-108998097D01*
X158862000Y-109004514D01*
X158862000Y-109027885D01*
X158866475Y-109043124D01*
X158867865Y-109044329D01*
X158875548Y-109046000D01*
X159835500Y-109046000D01*
X159903621Y-109066002D01*
X159950114Y-109119658D01*
X159961500Y-109172000D01*
X159961500Y-109428000D01*
X159941498Y-109496121D01*
X159887842Y-109542614D01*
X159835500Y-109554000D01*
X158880115Y-109554000D01*
X158864876Y-109558475D01*
X158863671Y-109559865D01*
X158862000Y-109567548D01*
X158862000Y-109595438D01*
X158862337Y-109601953D01*
X158871894Y-109694057D01*
X158874788Y-109707456D01*
X158924381Y-109856107D01*
X158930555Y-109869286D01*
X159012788Y-110002173D01*
X159021824Y-110013574D01*
X159132429Y-110123986D01*
X159143840Y-110132998D01*
X159276880Y-110215004D01*
X159290064Y-110221152D01*
X159312417Y-110228567D01*
X159370776Y-110268999D01*
X159398011Y-110334563D01*
X159385476Y-110404445D01*
X159361842Y-110437254D01*
X157006753Y-112792342D01*
X154909500Y-114889595D01*
X154847188Y-114923621D01*
X154820405Y-114926500D01*
X151171805Y-114926500D01*
X151103684Y-114906498D01*
X151066013Y-114868940D01*
X150977822Y-114732617D01*
X150977820Y-114732614D01*
X150975014Y-114728277D01*
X150824670Y-114563051D01*
X150820619Y-114559852D01*
X150820615Y-114559848D01*
X150653414Y-114427800D01*
X150653410Y-114427798D01*
X150649359Y-114424598D01*
X150608053Y-114401796D01*
X150558084Y-114351364D01*
X150543312Y-114281921D01*
X150568428Y-114215516D01*
X150595780Y-114188909D01*
X150639603Y-114157650D01*
X150774860Y-114061173D01*
X150933096Y-113903489D01*
X151063453Y-113722077D01*
X151084320Y-113679857D01*
X151160136Y-113526453D01*
X151160137Y-113526451D01*
X151162430Y-113521811D01*
X151227370Y-113308069D01*
X151256529Y-113086590D01*
X151258156Y-113020000D01*
X151239852Y-112797361D01*
X151185431Y-112580702D01*
X151096354Y-112375840D01*
X150975014Y-112188277D01*
X150824670Y-112023051D01*
X150820619Y-112019852D01*
X150820615Y-112019848D01*
X150653414Y-111887800D01*
X150653410Y-111887798D01*
X150649359Y-111884598D01*
X150607569Y-111861529D01*
X150557598Y-111811097D01*
X150542826Y-111741654D01*
X150567942Y-111675248D01*
X150595294Y-111648641D01*
X150770328Y-111523792D01*
X150778200Y-111517139D01*
X150929052Y-111366812D01*
X150935730Y-111358965D01*
X151060003Y-111186020D01*
X151065313Y-111177183D01*
X151159670Y-110986267D01*
X151163469Y-110976672D01*
X151225377Y-110772910D01*
X151227555Y-110762837D01*
X151228986Y-110751962D01*
X151226775Y-110737778D01*
X151213617Y-110734000D01*
X147227000Y-110734000D01*
X147158879Y-110713998D01*
X147112386Y-110660342D01*
X147101000Y-110608000D01*
X147101000Y-110352000D01*
X147121002Y-110283879D01*
X147174658Y-110237386D01*
X147227000Y-110226000D01*
X151213344Y-110226000D01*
X151226875Y-110222027D01*
X151228180Y-110212947D01*
X151186214Y-110045875D01*
X151182894Y-110036124D01*
X151097972Y-109840814D01*
X151093105Y-109831739D01*
X150977426Y-109652926D01*
X150971136Y-109644757D01*
X150827806Y-109487240D01*
X150820273Y-109480215D01*
X150653139Y-109348222D01*
X150644556Y-109342520D01*
X150607602Y-109322120D01*
X150557631Y-109271687D01*
X150542859Y-109202245D01*
X150567975Y-109135839D01*
X150595327Y-109109232D01*
X150655933Y-109066002D01*
X150774860Y-108981173D01*
X150933096Y-108823489D01*
X150977512Y-108761678D01*
X151060435Y-108646277D01*
X151063453Y-108642077D01*
X151065746Y-108637437D01*
X151067446Y-108634608D01*
X151119674Y-108586518D01*
X151175451Y-108573500D01*
X152876233Y-108573500D01*
X152887416Y-108574027D01*
X152894909Y-108575702D01*
X152902835Y-108575453D01*
X152902836Y-108575453D01*
X152962986Y-108573562D01*
X152966945Y-108573500D01*
X152994856Y-108573500D01*
X152998791Y-108573003D01*
X152998856Y-108572995D01*
X153010693Y-108572062D01*
X153042951Y-108571048D01*
X153046970Y-108570922D01*
X153054889Y-108570673D01*
X153074343Y-108565021D01*
X153093700Y-108561013D01*
X153105930Y-108559468D01*
X153105931Y-108559468D01*
X153113797Y-108558474D01*
X153121168Y-108555555D01*
X153121170Y-108555555D01*
X153154912Y-108542196D01*
X153166142Y-108538351D01*
X153200983Y-108528229D01*
X153200984Y-108528229D01*
X153208593Y-108526018D01*
X153215412Y-108521985D01*
X153215417Y-108521983D01*
X153226028Y-108515707D01*
X153243776Y-108507012D01*
X153262617Y-108499552D01*
X153298387Y-108473564D01*
X153308307Y-108467048D01*
X153339535Y-108448580D01*
X153339538Y-108448578D01*
X153346362Y-108444542D01*
X153360683Y-108430221D01*
X153375717Y-108417380D01*
X153377433Y-108416133D01*
X153392107Y-108405472D01*
X153420298Y-108371395D01*
X153428288Y-108362616D01*
X153581977Y-108208927D01*
X153595420Y-108197261D01*
X153610604Y-108185861D01*
X153610607Y-108185858D01*
X153613904Y-108183383D01*
X153623452Y-108174032D01*
X153642333Y-108149952D01*
X153644942Y-108146735D01*
X153706535Y-108073332D01*
X153765642Y-108034007D01*
X153836629Y-108032881D01*
X153884044Y-108057803D01*
X153920925Y-108088750D01*
X153974012Y-108133296D01*
X153974016Y-108133299D01*
X153978229Y-108136834D01*
X153982992Y-108139584D01*
X153982995Y-108139586D01*
X154029171Y-108166246D01*
X154119687Y-108218506D01*
X154273178Y-108274373D01*
X154434038Y-108302737D01*
X154597380Y-108302737D01*
X154647516Y-108293897D01*
X154752821Y-108275330D01*
X154752827Y-108275328D01*
X154758240Y-108274374D01*
X154763414Y-108272491D01*
X154906564Y-108220389D01*
X154906568Y-108220387D01*
X154911731Y-108218508D01*
X154977573Y-108180494D01*
X155048418Y-108139592D01*
X155048422Y-108139589D01*
X155053189Y-108136837D01*
X155135726Y-108067580D01*
X155141051Y-108063350D01*
X155145057Y-108060343D01*
X155169537Y-108041963D01*
X155179085Y-108032612D01*
X155197966Y-108008532D01*
X155200575Y-108005315D01*
X155283310Y-107906716D01*
X155298954Y-107879621D01*
X155362231Y-107770020D01*
X155364980Y-107765259D01*
X155420846Y-107611768D01*
X155449210Y-107450909D01*
X155449210Y-107287567D01*
X155423838Y-107143674D01*
X155421802Y-107132128D01*
X155421801Y-107132125D01*
X155420846Y-107126708D01*
X155395152Y-107056115D01*
X155366861Y-106978384D01*
X155366859Y-106978380D01*
X155364980Y-106973217D01*
X155311001Y-106879722D01*
X155286065Y-106836531D01*
X155286062Y-106836527D01*
X155283310Y-106831760D01*
X155249709Y-106791716D01*
X155237781Y-106774869D01*
X155236418Y-106772564D01*
X155232384Y-106765743D01*
X155217868Y-106751227D01*
X155183842Y-106688915D01*
X155188907Y-106618100D01*
X155217867Y-106573037D01*
X155551609Y-106239295D01*
X155613920Y-106205271D01*
X155684735Y-106210335D01*
G37*
%TD.AperFunction*%
%TA.AperFunction,Conductor*%
G36*
X165679580Y-107970854D02*
G01*
X165704093Y-107993260D01*
X165720185Y-108012438D01*
X165732117Y-108029290D01*
X165733478Y-108031591D01*
X165737515Y-108038417D01*
X165755922Y-108056824D01*
X165767588Y-108070268D01*
X165778981Y-108085443D01*
X165778990Y-108085453D01*
X165781465Y-108088750D01*
X165790816Y-108098298D01*
X165794061Y-108100843D01*
X165794064Y-108100845D01*
X165815315Y-108117508D01*
X165826666Y-108127568D01*
X166031349Y-108332252D01*
X166038889Y-108340539D01*
X166043000Y-108347018D01*
X166048776Y-108352442D01*
X166092669Y-108393660D01*
X166095511Y-108396415D01*
X166115229Y-108416133D01*
X166118359Y-108418561D01*
X166118368Y-108418569D01*
X166118436Y-108418622D01*
X166127441Y-108426314D01*
X166153902Y-108451162D01*
X166153906Y-108451165D01*
X166159679Y-108456586D01*
X166177431Y-108466345D01*
X166193955Y-108477200D01*
X166209957Y-108489613D01*
X166250549Y-108507178D01*
X166261186Y-108512390D01*
X166299940Y-108533695D01*
X166307616Y-108535666D01*
X166307619Y-108535667D01*
X166319562Y-108538733D01*
X166338269Y-108545138D01*
X166349577Y-108550032D01*
X166349582Y-108550033D01*
X166356853Y-108553180D01*
X166386238Y-108557835D01*
X166400512Y-108560096D01*
X166412130Y-108562502D01*
X166447287Y-108571528D01*
X166447291Y-108571529D01*
X166454970Y-108573500D01*
X166475222Y-108573500D01*
X166494934Y-108575051D01*
X166514941Y-108578220D01*
X166558960Y-108574059D01*
X166570817Y-108573500D01*
X168719274Y-108573500D01*
X168787395Y-108593502D01*
X168826707Y-108633665D01*
X168894987Y-108745088D01*
X169041250Y-108913938D01*
X169150374Y-109004534D01*
X169196856Y-109043124D01*
X169213126Y-109056632D01*
X169229161Y-109066002D01*
X169286955Y-109099774D01*
X169335679Y-109151412D01*
X169348750Y-109221195D01*
X169322019Y-109286967D01*
X169281562Y-109320327D01*
X169273457Y-109324546D01*
X169264738Y-109330036D01*
X169094433Y-109457905D01*
X169086726Y-109464748D01*
X168939590Y-109618717D01*
X168933104Y-109626727D01*
X168813098Y-109802649D01*
X168808000Y-109811623D01*
X168718338Y-110004783D01*
X168714775Y-110014470D01*
X168659389Y-110214183D01*
X168660912Y-110222607D01*
X168673292Y-110226000D01*
X172663000Y-110226000D01*
X172731121Y-110246002D01*
X172777614Y-110299658D01*
X172789000Y-110352000D01*
X172789000Y-110608000D01*
X172768998Y-110676121D01*
X172715342Y-110722614D01*
X172663000Y-110734000D01*
X168678225Y-110734000D01*
X168664694Y-110737973D01*
X168663257Y-110747966D01*
X168693565Y-110882446D01*
X168696645Y-110892275D01*
X168776770Y-111089603D01*
X168781413Y-111098794D01*
X168892694Y-111280388D01*
X168898777Y-111288699D01*
X169038213Y-111449667D01*
X169045580Y-111456883D01*
X169209434Y-111592916D01*
X169217881Y-111598831D01*
X169286969Y-111639203D01*
X169335693Y-111690842D01*
X169348764Y-111760625D01*
X169322033Y-111826396D01*
X169281584Y-111859752D01*
X169268607Y-111866507D01*
X169264474Y-111869610D01*
X169264471Y-111869612D01*
X169111701Y-111984315D01*
X169089965Y-112000635D01*
X169086393Y-112004373D01*
X169033187Y-112060050D01*
X168971663Y-112095480D01*
X168900750Y-112092023D01*
X168852998Y-112062094D01*
X165147114Y-108356209D01*
X165113088Y-108293897D01*
X165118153Y-108223081D01*
X165160700Y-108166246D01*
X165193114Y-108148714D01*
X165306469Y-108107456D01*
X165338129Y-108095933D01*
X165338133Y-108095931D01*
X165343296Y-108094052D01*
X165406080Y-108057804D01*
X165479991Y-108015132D01*
X165479996Y-108015128D01*
X165484753Y-108012382D01*
X165488971Y-108008843D01*
X165524791Y-107978787D01*
X165541643Y-107966854D01*
X165543432Y-107965796D01*
X165612249Y-107948337D01*
X165679580Y-107970854D01*
G37*
%TD.AperFunction*%
%TA.AperFunction,Conductor*%
G36*
X173529121Y-78328002D02*
G01*
X173575614Y-78381658D01*
X173587000Y-78434000D01*
X173587000Y-78839597D01*
X173566998Y-78907718D01*
X173513342Y-78954211D01*
X173443068Y-78964315D01*
X173382908Y-78938479D01*
X173293414Y-78867800D01*
X173293410Y-78867798D01*
X173289359Y-78864598D01*
X173093789Y-78756638D01*
X173088920Y-78754914D01*
X173088916Y-78754912D01*
X172888087Y-78683795D01*
X172888083Y-78683794D01*
X172883212Y-78682069D01*
X172878119Y-78681162D01*
X172878116Y-78681161D01*
X172668373Y-78643800D01*
X172668367Y-78643799D01*
X172663284Y-78642894D01*
X172589452Y-78641992D01*
X172445081Y-78640228D01*
X172445079Y-78640228D01*
X172439911Y-78640165D01*
X172219091Y-78673955D01*
X172006756Y-78743357D01*
X171808607Y-78846507D01*
X171804474Y-78849610D01*
X171804471Y-78849612D01*
X171651701Y-78964315D01*
X171629965Y-78980635D01*
X171573537Y-79039684D01*
X171549283Y-79065064D01*
X171487759Y-79100494D01*
X171416846Y-79097037D01*
X171359060Y-79055791D01*
X171340207Y-79022243D01*
X171298767Y-78911703D01*
X171295615Y-78903295D01*
X171208261Y-78786739D01*
X171091705Y-78699385D01*
X170955316Y-78648255D01*
X170893134Y-78641500D01*
X169096866Y-78641500D01*
X169034684Y-78648255D01*
X168898295Y-78699385D01*
X168781739Y-78786739D01*
X168694385Y-78903295D01*
X168643255Y-79039684D01*
X168636500Y-79101866D01*
X168636500Y-79240500D01*
X168616498Y-79308621D01*
X168562842Y-79355114D01*
X168510500Y-79366500D01*
X167021308Y-79366500D01*
X167012740Y-79366208D01*
X166969172Y-79363238D01*
X166969169Y-79363238D01*
X166961596Y-79362722D01*
X166954119Y-79364027D01*
X166954118Y-79364027D01*
X166906839Y-79372279D01*
X166836294Y-79364287D01*
X166804184Y-79344677D01*
X166758935Y-79306708D01*
X166758931Y-79306705D01*
X166754718Y-79303170D01*
X166613261Y-79221500D01*
X166608098Y-79219621D01*
X166608094Y-79219619D01*
X166494201Y-79178166D01*
X166459770Y-79165634D01*
X166454353Y-79164679D01*
X166454350Y-79164678D01*
X166396359Y-79154453D01*
X166298911Y-79137270D01*
X166135569Y-79137270D01*
X166038121Y-79154453D01*
X165980130Y-79164678D01*
X165980127Y-79164679D01*
X165974710Y-79165634D01*
X165940279Y-79178166D01*
X165826386Y-79219619D01*
X165826382Y-79219621D01*
X165821219Y-79221500D01*
X165816458Y-79224249D01*
X165684533Y-79300415D01*
X165684530Y-79300417D01*
X165679762Y-79303170D01*
X165597223Y-79372429D01*
X165591885Y-79376667D01*
X165567652Y-79394862D01*
X165563414Y-79398044D01*
X165563411Y-79398047D01*
X165553862Y-79407398D01*
X165551320Y-79410640D01*
X165534973Y-79431488D01*
X165532341Y-79434731D01*
X165449639Y-79533293D01*
X165446888Y-79538058D01*
X165384265Y-79646526D01*
X165367969Y-79674751D01*
X165312104Y-79828242D01*
X165308806Y-79846949D01*
X165299557Y-79899403D01*
X165268030Y-79963016D01*
X165207117Y-79999486D01*
X165197351Y-80001611D01*
X165131605Y-80013204D01*
X165131604Y-80013204D01*
X165126184Y-80014160D01*
X165121007Y-80016044D01*
X165121008Y-80016044D01*
X164977862Y-80068144D01*
X164977858Y-80068146D01*
X164972695Y-80070025D01*
X164967934Y-80072774D01*
X164836000Y-80148945D01*
X164835995Y-80148949D01*
X164831238Y-80151695D01*
X164785100Y-80190409D01*
X164748688Y-80220962D01*
X164743349Y-80225201D01*
X164729643Y-80235492D01*
X164714892Y-80246567D01*
X164714889Y-80246570D01*
X164714885Y-80246573D01*
X164705336Y-80255924D01*
X164702794Y-80259166D01*
X164686447Y-80280014D01*
X164683815Y-80283257D01*
X164601113Y-80381819D01*
X164598362Y-80386584D01*
X164523118Y-80516912D01*
X164519443Y-80523277D01*
X164463578Y-80676768D01*
X164435215Y-80837627D01*
X164435215Y-81000968D01*
X164463579Y-81161827D01*
X164465461Y-81166997D01*
X164465461Y-81166998D01*
X164484258Y-81218642D01*
X164519445Y-81315317D01*
X164522193Y-81320077D01*
X164522195Y-81320081D01*
X164567856Y-81399168D01*
X164584594Y-81468164D01*
X164561373Y-81535256D01*
X164547832Y-81551264D01*
X164270592Y-81828503D01*
X164208280Y-81862528D01*
X164137464Y-81857463D01*
X164080629Y-81814916D01*
X164055818Y-81748396D01*
X164055497Y-81739407D01*
X164055497Y-81324508D01*
X164048742Y-81262326D01*
X163997612Y-81125937D01*
X163910258Y-81009381D01*
X163793702Y-80922027D01*
X163657313Y-80870897D01*
X163595131Y-80864142D01*
X162094765Y-80864142D01*
X162032583Y-80870897D01*
X161896194Y-80922027D01*
X161779638Y-81009381D01*
X161754876Y-81042420D01*
X161743138Y-81055958D01*
X161739262Y-81059833D01*
X161724243Y-81072659D01*
X161714265Y-81079909D01*
X161714262Y-81079912D01*
X161707851Y-81084570D01*
X161702799Y-81090677D01*
X161679670Y-81118635D01*
X161671680Y-81127416D01*
X161426130Y-81372965D01*
X161417851Y-81380499D01*
X161411370Y-81384612D01*
X161388002Y-81409497D01*
X161364744Y-81434264D01*
X161361989Y-81437106D01*
X161342253Y-81456842D01*
X161339773Y-81460039D01*
X161332070Y-81469059D01*
X161301802Y-81501291D01*
X161297983Y-81508237D01*
X161297981Y-81508240D01*
X161292040Y-81519046D01*
X161281189Y-81535565D01*
X161268774Y-81551571D01*
X161265629Y-81558840D01*
X161265626Y-81558844D01*
X161251214Y-81592149D01*
X161245997Y-81602799D01*
X161224693Y-81641552D01*
X161222722Y-81649227D01*
X161222722Y-81649228D01*
X161219655Y-81661174D01*
X161213251Y-81679878D01*
X161210428Y-81686403D01*
X161205207Y-81698467D01*
X161203968Y-81706290D01*
X161203965Y-81706300D01*
X161198289Y-81742136D01*
X161195883Y-81753756D01*
X161186860Y-81788901D01*
X161184888Y-81796582D01*
X161184888Y-81816836D01*
X161183337Y-81836546D01*
X161180168Y-81856555D01*
X161180914Y-81864447D01*
X161184329Y-81900573D01*
X161184888Y-81912431D01*
X161184888Y-84474135D01*
X161164886Y-84542256D01*
X161111230Y-84588749D01*
X161040956Y-84598853D01*
X161007641Y-84589243D01*
X160877288Y-84531206D01*
X160782871Y-84511137D01*
X160696944Y-84492872D01*
X160696939Y-84492872D01*
X160690487Y-84491500D01*
X160499513Y-84491500D01*
X160493061Y-84492872D01*
X160493056Y-84492872D01*
X160407129Y-84511137D01*
X160312712Y-84531206D01*
X160306682Y-84533891D01*
X160306681Y-84533891D01*
X160144278Y-84606197D01*
X160144276Y-84606198D01*
X160138248Y-84608882D01*
X159983747Y-84721134D01*
X159855960Y-84863056D01*
X159805162Y-84951041D01*
X159781429Y-84992148D01*
X159760473Y-85028444D01*
X159701458Y-85210072D01*
X159700768Y-85216633D01*
X159700768Y-85216635D01*
X159695189Y-85269715D01*
X159681496Y-85400000D01*
X159682186Y-85406565D01*
X159699120Y-85567680D01*
X159701458Y-85589928D01*
X159760473Y-85771556D01*
X159763776Y-85777278D01*
X159763777Y-85777279D01*
X159767801Y-85784248D01*
X159855960Y-85936944D01*
X159929137Y-86018215D01*
X159959853Y-86082221D01*
X159961500Y-86102524D01*
X159961500Y-86741309D01*
X159941498Y-86809430D01*
X159887842Y-86855923D01*
X159817568Y-86866027D01*
X159795833Y-86860902D01*
X159701189Y-86829510D01*
X159687810Y-86826642D01*
X159596903Y-86817328D01*
X159591874Y-86817071D01*
X159576876Y-86821475D01*
X159575671Y-86822865D01*
X159574000Y-86830548D01*
X159574000Y-87928000D01*
X159553998Y-87996121D01*
X159500342Y-88042614D01*
X159448000Y-88054000D01*
X158380115Y-88054000D01*
X158364876Y-88058475D01*
X158363671Y-88059865D01*
X158362000Y-88067548D01*
X158362000Y-88095438D01*
X158362337Y-88101953D01*
X158371894Y-88194057D01*
X158374788Y-88207456D01*
X158424381Y-88356107D01*
X158430555Y-88369286D01*
X158512788Y-88502173D01*
X158521824Y-88513574D01*
X158632429Y-88623986D01*
X158643840Y-88632998D01*
X158776880Y-88715004D01*
X158790061Y-88721151D01*
X158798141Y-88723831D01*
X158856501Y-88764262D01*
X158883737Y-88829827D01*
X158878065Y-88883094D01*
X158874510Y-88893812D01*
X158871642Y-88907190D01*
X158862328Y-88998097D01*
X158862000Y-89004514D01*
X158862000Y-89027885D01*
X158866475Y-89043124D01*
X158867865Y-89044329D01*
X158875548Y-89046000D01*
X159835500Y-89046000D01*
X159903621Y-89066002D01*
X159950114Y-89119658D01*
X159961500Y-89172000D01*
X159961500Y-94597476D01*
X159941498Y-94665597D01*
X159929142Y-94681779D01*
X159855960Y-94763056D01*
X159798225Y-94863056D01*
X159767699Y-94915929D01*
X159760473Y-94928444D01*
X159701458Y-95110072D01*
X159700768Y-95116633D01*
X159700768Y-95116635D01*
X159682186Y-95293435D01*
X159681496Y-95300000D01*
X159701458Y-95489928D01*
X159760473Y-95671556D01*
X159763776Y-95677278D01*
X159763777Y-95677279D01*
X159766266Y-95681590D01*
X159855960Y-95836944D01*
X159929137Y-95918215D01*
X159959853Y-95982221D01*
X159961500Y-96002524D01*
X159961500Y-96781597D01*
X159941498Y-96849718D01*
X159887842Y-96896211D01*
X159817568Y-96906315D01*
X159769382Y-96888856D01*
X159763117Y-96884994D01*
X159749939Y-96878849D01*
X159601186Y-96829509D01*
X159587810Y-96826642D01*
X159496903Y-96817328D01*
X159491874Y-96817071D01*
X159476876Y-96821475D01*
X159475671Y-96822865D01*
X159474000Y-96830548D01*
X159474000Y-97928000D01*
X159453998Y-97996121D01*
X159400342Y-98042614D01*
X159348000Y-98054000D01*
X158280115Y-98054000D01*
X158264876Y-98058475D01*
X158263671Y-98059865D01*
X158262000Y-98067548D01*
X158262000Y-98095438D01*
X158262337Y-98101953D01*
X158271894Y-98194057D01*
X158274788Y-98207456D01*
X158324381Y-98356107D01*
X158330555Y-98369286D01*
X158412788Y-98502173D01*
X158421824Y-98513574D01*
X158532429Y-98623986D01*
X158543840Y-98632998D01*
X158676880Y-98715004D01*
X158690061Y-98721151D01*
X158789612Y-98754171D01*
X158847971Y-98794602D01*
X158875208Y-98860166D01*
X158873145Y-98900173D01*
X158871642Y-98907183D01*
X158862328Y-98998097D01*
X158862000Y-99004514D01*
X158862000Y-99027885D01*
X158866475Y-99043124D01*
X158867865Y-99044329D01*
X158875548Y-99046000D01*
X159835500Y-99046000D01*
X159903621Y-99066002D01*
X159950114Y-99119658D01*
X159961500Y-99172000D01*
X159961500Y-105297476D01*
X159941498Y-105365597D01*
X159929142Y-105381779D01*
X159855960Y-105463056D01*
X159760473Y-105628444D01*
X159701458Y-105810072D01*
X159700768Y-105816633D01*
X159700768Y-105816635D01*
X159693301Y-105887680D01*
X159681496Y-106000000D01*
X159682186Y-106006565D01*
X159700287Y-106178783D01*
X159701458Y-106189928D01*
X159760473Y-106371556D01*
X159763776Y-106377278D01*
X159763777Y-106377279D01*
X159784226Y-106412698D01*
X159855960Y-106536944D01*
X159929137Y-106618215D01*
X159959853Y-106682221D01*
X159961500Y-106702524D01*
X159961500Y-106743237D01*
X159941498Y-106811358D01*
X159887842Y-106857851D01*
X159817568Y-106867955D01*
X159769384Y-106850497D01*
X159663120Y-106784996D01*
X159649939Y-106778849D01*
X159501186Y-106729509D01*
X159487810Y-106726642D01*
X159396903Y-106717328D01*
X159390486Y-106717000D01*
X159348323Y-106717000D01*
X159280202Y-106696998D01*
X159233709Y-106643342D01*
X159223605Y-106573068D01*
X159239204Y-106528000D01*
X159326223Y-106377279D01*
X159326224Y-106377278D01*
X159329527Y-106371556D01*
X159388542Y-106189928D01*
X159389714Y-106178783D01*
X159407814Y-106006565D01*
X159408504Y-106000000D01*
X159396699Y-105887680D01*
X159389232Y-105816635D01*
X159389232Y-105816633D01*
X159388542Y-105810072D01*
X159329527Y-105628444D01*
X159234040Y-105463056D01*
X159204067Y-105429767D01*
X159110675Y-105326045D01*
X159110674Y-105326044D01*
X159106253Y-105321134D01*
X158951752Y-105208882D01*
X158945724Y-105206198D01*
X158945722Y-105206197D01*
X158783319Y-105133891D01*
X158783318Y-105133891D01*
X158777288Y-105131206D01*
X158683888Y-105111353D01*
X158596944Y-105092872D01*
X158596939Y-105092872D01*
X158590487Y-105091500D01*
X158399513Y-105091500D01*
X158393061Y-105092872D01*
X158393056Y-105092872D01*
X158298199Y-105113035D01*
X158227408Y-105107633D01*
X158170776Y-105064816D01*
X158149618Y-105019360D01*
X158148846Y-105012256D01*
X158146073Y-105004858D01*
X158145898Y-105004124D01*
X158145899Y-104945831D01*
X158146073Y-104945098D01*
X158148846Y-104937702D01*
X158155601Y-104875520D01*
X158155601Y-104424452D01*
X158148846Y-104362270D01*
X158146073Y-104354874D01*
X158145899Y-104354141D01*
X158145899Y-104295845D01*
X158146073Y-104295112D01*
X158148846Y-104287716D01*
X158155601Y-104225534D01*
X158155601Y-103774466D01*
X158148846Y-103712284D01*
X158146073Y-103704888D01*
X158145899Y-103704155D01*
X158145899Y-103645859D01*
X158146073Y-103645126D01*
X158148846Y-103637730D01*
X158155601Y-103575548D01*
X158155601Y-103124480D01*
X158148846Y-103062298D01*
X158146073Y-103054902D01*
X158145899Y-103054169D01*
X158145899Y-102995873D01*
X158146073Y-102995140D01*
X158148846Y-102987744D01*
X158155601Y-102925562D01*
X158155601Y-102474494D01*
X158153127Y-102451720D01*
X158149700Y-102420169D01*
X158149699Y-102420165D01*
X158148846Y-102412312D01*
X158146071Y-102404908D01*
X158145639Y-102403094D01*
X158145639Y-102344794D01*
X158149207Y-102329792D01*
X158154732Y-102278928D01*
X158155101Y-102272114D01*
X158155101Y-102245557D01*
X158150626Y-102230318D01*
X158149236Y-102229113D01*
X158141553Y-102227442D01*
X158124408Y-102227442D01*
X158056287Y-102207440D01*
X158023581Y-102177005D01*
X158015745Y-102166549D01*
X158015743Y-102166547D01*
X158010362Y-102159367D01*
X157930439Y-102099468D01*
X157887924Y-102042609D01*
X157882898Y-101971790D01*
X157916958Y-101909497D01*
X157979289Y-101875507D01*
X158006004Y-101872642D01*
X158136985Y-101872642D01*
X158152224Y-101868167D01*
X158153429Y-101866777D01*
X158155100Y-101859094D01*
X158155100Y-101827973D01*
X158154730Y-101821152D01*
X158149206Y-101770290D01*
X158145580Y-101755038D01*
X158100425Y-101634588D01*
X158091887Y-101618993D01*
X158015386Y-101516918D01*
X158002825Y-101504357D01*
X157900750Y-101427856D01*
X157885155Y-101419318D01*
X157764707Y-101374164D01*
X157749452Y-101370537D01*
X157698587Y-101365011D01*
X157691773Y-101364642D01*
X157140567Y-101364642D01*
X157125328Y-101369117D01*
X157124123Y-101370507D01*
X157122452Y-101378190D01*
X157122452Y-101872642D01*
X157121895Y-101872642D01*
X157121895Y-101923627D01*
X157083511Y-101983353D01*
X157018930Y-102012846D01*
X157000999Y-102014128D01*
X156893652Y-102014128D01*
X156825531Y-101994126D01*
X156779038Y-101940470D01*
X156767652Y-101888128D01*
X156767652Y-101382758D01*
X156763177Y-101367519D01*
X156761787Y-101366314D01*
X156754104Y-101364643D01*
X156198334Y-101364643D01*
X156191513Y-101365013D01*
X156140651Y-101370537D01*
X156125399Y-101374163D01*
X156004949Y-101419318D01*
X155989354Y-101427856D01*
X155887279Y-101504357D01*
X155874719Y-101516917D01*
X155861729Y-101534250D01*
X155804870Y-101576766D01*
X155734052Y-101581792D01*
X155671758Y-101547733D01*
X155636816Y-101480566D01*
X155621537Y-101393917D01*
X155621537Y-101393916D01*
X155620581Y-101388496D01*
X155595386Y-101319272D01*
X155566596Y-101240172D01*
X155566594Y-101240168D01*
X155564715Y-101235005D01*
X155529693Y-101174345D01*
X155485800Y-101098319D01*
X155485797Y-101098315D01*
X155483045Y-101093548D01*
X155413790Y-101011013D01*
X155409561Y-101005688D01*
X155407255Y-101002617D01*
X155407245Y-101002604D01*
X155391950Y-100982233D01*
X155391949Y-100982232D01*
X155388173Y-100977203D01*
X155388171Y-100977200D01*
X155378820Y-100967652D01*
X155354731Y-100948764D01*
X155351512Y-100946151D01*
X155257150Y-100866971D01*
X155257140Y-100866964D01*
X155252926Y-100863428D01*
X155111468Y-100781757D01*
X154957977Y-100725890D01*
X154929810Y-100720923D01*
X154886805Y-100713340D01*
X154823192Y-100681812D01*
X154786723Y-100620898D01*
X154784599Y-100611134D01*
X154784474Y-100610422D01*
X154772050Y-100539965D01*
X154749399Y-100477732D01*
X154718065Y-100391641D01*
X154718063Y-100391637D01*
X154716184Y-100386474D01*
X154661526Y-100291803D01*
X154637269Y-100249788D01*
X154637266Y-100249784D01*
X154634514Y-100245017D01*
X154565250Y-100162472D01*
X154561017Y-100157140D01*
X154542120Y-100131972D01*
X154542119Y-100131971D01*
X154539640Y-100128669D01*
X154530289Y-100119121D01*
X154506200Y-100100233D01*
X154502981Y-100097620D01*
X154408619Y-100018440D01*
X154408609Y-100018433D01*
X154404395Y-100014897D01*
X154262937Y-99933226D01*
X154109446Y-99877359D01*
X153948585Y-99848995D01*
X153785243Y-99848995D01*
X153624382Y-99877359D01*
X153470891Y-99933226D01*
X153398178Y-99975207D01*
X153329187Y-99991944D01*
X153262095Y-99968724D01*
X153246086Y-99955182D01*
X153218653Y-99927749D01*
X153211110Y-99919460D01*
X153207000Y-99912982D01*
X153157361Y-99866369D01*
X153154518Y-99863614D01*
X153137571Y-99846666D01*
X153134770Y-99843865D01*
X153131573Y-99841385D01*
X153122551Y-99833680D01*
X153090321Y-99803414D01*
X153083375Y-99799595D01*
X153083372Y-99799593D01*
X153072566Y-99793652D01*
X153056047Y-99782801D01*
X153055583Y-99782441D01*
X153040041Y-99770386D01*
X153032772Y-99767241D01*
X153032768Y-99767238D01*
X152999463Y-99752826D01*
X152988813Y-99747609D01*
X152950060Y-99726305D01*
X152930437Y-99721267D01*
X152911734Y-99714863D01*
X152900420Y-99709967D01*
X152900419Y-99709967D01*
X152893145Y-99706819D01*
X152885322Y-99705580D01*
X152885312Y-99705577D01*
X152849476Y-99699901D01*
X152837856Y-99697495D01*
X152802711Y-99688472D01*
X152802710Y-99688472D01*
X152795030Y-99686500D01*
X152774776Y-99686500D01*
X152755065Y-99684949D01*
X152742886Y-99683020D01*
X152735057Y-99681780D01*
X152727165Y-99682526D01*
X152691039Y-99685941D01*
X152679181Y-99686500D01*
X151171805Y-99686500D01*
X151103684Y-99666498D01*
X151066013Y-99628940D01*
X151044340Y-99595438D01*
X158862000Y-99595438D01*
X158862337Y-99601953D01*
X158871894Y-99694057D01*
X158874788Y-99707456D01*
X158924381Y-99856107D01*
X158930555Y-99869286D01*
X159012788Y-100002173D01*
X159021824Y-100013574D01*
X159132429Y-100123986D01*
X159143840Y-100132998D01*
X159276880Y-100215004D01*
X159290061Y-100221151D01*
X159438814Y-100270491D01*
X159452190Y-100273358D01*
X159543097Y-100282672D01*
X159548126Y-100282929D01*
X159563124Y-100278525D01*
X159564329Y-100277135D01*
X159566000Y-100269452D01*
X159566000Y-99572115D01*
X159561525Y-99556876D01*
X159560135Y-99555671D01*
X159552452Y-99554000D01*
X158880115Y-99554000D01*
X158864876Y-99558475D01*
X158863671Y-99559865D01*
X158862000Y-99567548D01*
X158862000Y-99595438D01*
X151044340Y-99595438D01*
X150977822Y-99492617D01*
X150977820Y-99492614D01*
X150975014Y-99488277D01*
X150824670Y-99323051D01*
X150820619Y-99319852D01*
X150820615Y-99319848D01*
X150653414Y-99187800D01*
X150653410Y-99187798D01*
X150649359Y-99184598D01*
X150608053Y-99161796D01*
X150558084Y-99111364D01*
X150543312Y-99041921D01*
X150568428Y-98975516D01*
X150595780Y-98948909D01*
X150664105Y-98900173D01*
X150774860Y-98821173D01*
X150933096Y-98663489D01*
X151063453Y-98482077D01*
X151065746Y-98477437D01*
X151067446Y-98474608D01*
X151119674Y-98426518D01*
X151175451Y-98413500D01*
X152736233Y-98413500D01*
X152747416Y-98414027D01*
X152754909Y-98415702D01*
X152762835Y-98415453D01*
X152762836Y-98415453D01*
X152822986Y-98413562D01*
X152826945Y-98413500D01*
X152854856Y-98413500D01*
X152858791Y-98413003D01*
X152858856Y-98412995D01*
X152870693Y-98412062D01*
X152902951Y-98411048D01*
X152906970Y-98410922D01*
X152914889Y-98410673D01*
X152934343Y-98405021D01*
X152953700Y-98401013D01*
X152965930Y-98399468D01*
X152965931Y-98399468D01*
X152973797Y-98398474D01*
X152981168Y-98395555D01*
X152981170Y-98395555D01*
X153014912Y-98382196D01*
X153026142Y-98378351D01*
X153060983Y-98368229D01*
X153060984Y-98368229D01*
X153068593Y-98366018D01*
X153075412Y-98361985D01*
X153075417Y-98361983D01*
X153086028Y-98355707D01*
X153103776Y-98347012D01*
X153122617Y-98339552D01*
X153142987Y-98324753D01*
X153158387Y-98313564D01*
X153168307Y-98307048D01*
X153199535Y-98288580D01*
X153199538Y-98288578D01*
X153206362Y-98284542D01*
X153220683Y-98270221D01*
X153235717Y-98257380D01*
X153237432Y-98256134D01*
X153252107Y-98245472D01*
X153280298Y-98211395D01*
X153288288Y-98202616D01*
X153642277Y-97848627D01*
X153704589Y-97814601D01*
X153775404Y-97819666D01*
X153794370Y-97828601D01*
X153885134Y-97881005D01*
X154038625Y-97936872D01*
X154199485Y-97965236D01*
X154362827Y-97965236D01*
X154404364Y-97957912D01*
X154518268Y-97937829D01*
X154518274Y-97937827D01*
X154523687Y-97936873D01*
X154528861Y-97934990D01*
X154672011Y-97882888D01*
X154672015Y-97882886D01*
X154677178Y-97881007D01*
X154733262Y-97848627D01*
X154813865Y-97802091D01*
X154813869Y-97802088D01*
X154818636Y-97799336D01*
X154901173Y-97730079D01*
X154906498Y-97725849D01*
X154910504Y-97722842D01*
X154934984Y-97704462D01*
X154944532Y-97695111D01*
X154963413Y-97671031D01*
X154966022Y-97667814D01*
X155048757Y-97569215D01*
X155052049Y-97563514D01*
X155072619Y-97527885D01*
X158262000Y-97527885D01*
X158266475Y-97543124D01*
X158267865Y-97544329D01*
X158275548Y-97546000D01*
X158947885Y-97546000D01*
X158963124Y-97541525D01*
X158964329Y-97540135D01*
X158966000Y-97532452D01*
X158966000Y-96835115D01*
X158961525Y-96819876D01*
X158960135Y-96818671D01*
X158952452Y-96817000D01*
X158949562Y-96817000D01*
X158943047Y-96817337D01*
X158850943Y-96826894D01*
X158837544Y-96829788D01*
X158688893Y-96879381D01*
X158675714Y-96885555D01*
X158542827Y-96967788D01*
X158531426Y-96976824D01*
X158421014Y-97087429D01*
X158412002Y-97098840D01*
X158329996Y-97231880D01*
X158323849Y-97245061D01*
X158274509Y-97393814D01*
X158271642Y-97407190D01*
X158262328Y-97498097D01*
X158262000Y-97504514D01*
X158262000Y-97527885D01*
X155072619Y-97527885D01*
X155110482Y-97462304D01*
X155130427Y-97427758D01*
X155141208Y-97398139D01*
X155184409Y-97279443D01*
X155186293Y-97274267D01*
X155198842Y-97203100D01*
X155230370Y-97139488D01*
X155291284Y-97103019D01*
X155301049Y-97100895D01*
X155366794Y-97089303D01*
X155366800Y-97089302D01*
X155372213Y-97088347D01*
X155396196Y-97079618D01*
X155520537Y-97034362D01*
X155520541Y-97034360D01*
X155525704Y-97032481D01*
X155622105Y-96976824D01*
X155662391Y-96953565D01*
X155662395Y-96953562D01*
X155667162Y-96950810D01*
X155749720Y-96881535D01*
X155755049Y-96877305D01*
X155757327Y-96875595D01*
X155757369Y-96875563D01*
X155757377Y-96875557D01*
X155780207Y-96858416D01*
X155783510Y-96855936D01*
X155793058Y-96846585D01*
X155795601Y-96843342D01*
X155795607Y-96843335D01*
X155808527Y-96826856D01*
X155808533Y-96826848D01*
X155810578Y-96824241D01*
X155811954Y-96822486D01*
X155814553Y-96819283D01*
X155897283Y-96720689D01*
X155906384Y-96704927D01*
X155960660Y-96610917D01*
X155978953Y-96579232D01*
X155984862Y-96562999D01*
X156032935Y-96430917D01*
X156034819Y-96425741D01*
X156036771Y-96414675D01*
X156053295Y-96320957D01*
X156063183Y-96264882D01*
X156063183Y-96259376D01*
X156063662Y-96253902D01*
X156065384Y-96254053D01*
X156083185Y-96193429D01*
X156136841Y-96146936D01*
X156194869Y-96135948D01*
X156194869Y-96135858D01*
X157695235Y-96135858D01*
X157698632Y-96135489D01*
X157749567Y-96129956D01*
X157749569Y-96129956D01*
X157757417Y-96129103D01*
X157764810Y-96126331D01*
X157764812Y-96126331D01*
X157822899Y-96104555D01*
X157893706Y-96099372D01*
X157941189Y-96120601D01*
X158032906Y-96187237D01*
X158038248Y-96191118D01*
X158044276Y-96193802D01*
X158044278Y-96193803D01*
X158179603Y-96254053D01*
X158212712Y-96268794D01*
X158306113Y-96288647D01*
X158393056Y-96307128D01*
X158393061Y-96307128D01*
X158399513Y-96308500D01*
X158590487Y-96308500D01*
X158596939Y-96307128D01*
X158596944Y-96307128D01*
X158683888Y-96288647D01*
X158777288Y-96268794D01*
X158810397Y-96254053D01*
X158945722Y-96193803D01*
X158945724Y-96193802D01*
X158951752Y-96191118D01*
X158977188Y-96172638D01*
X159017383Y-96143434D01*
X159106253Y-96078866D01*
X159128053Y-96054655D01*
X159229621Y-95941852D01*
X159229622Y-95941851D01*
X159234040Y-95936944D01*
X159311751Y-95802345D01*
X159326223Y-95777279D01*
X159326224Y-95777278D01*
X159329527Y-95771556D01*
X159388542Y-95589928D01*
X159398393Y-95496206D01*
X159407814Y-95406565D01*
X159408504Y-95400000D01*
X159388542Y-95210072D01*
X159329527Y-95028444D01*
X159234040Y-94863056D01*
X159210116Y-94836485D01*
X159110675Y-94726045D01*
X159110674Y-94726044D01*
X159106253Y-94721134D01*
X158951752Y-94608882D01*
X158945724Y-94606198D01*
X158945722Y-94606197D01*
X158783319Y-94533891D01*
X158783318Y-94533891D01*
X158777288Y-94531206D01*
X158682871Y-94511137D01*
X158596944Y-94492872D01*
X158596939Y-94492872D01*
X158590487Y-94491500D01*
X158399513Y-94491500D01*
X158393061Y-94492872D01*
X158393056Y-94492872D01*
X158307128Y-94511137D01*
X158236337Y-94505735D01*
X158179704Y-94462918D01*
X158155211Y-94396280D01*
X158155115Y-94381075D01*
X158155232Y-94378919D01*
X158155601Y-94375520D01*
X158155601Y-93924452D01*
X158148846Y-93862270D01*
X158146073Y-93854874D01*
X158145899Y-93854141D01*
X158145899Y-93795845D01*
X158146073Y-93795112D01*
X158148846Y-93787716D01*
X158149699Y-93779864D01*
X158155232Y-93728931D01*
X158155601Y-93725534D01*
X158155601Y-93274466D01*
X158148846Y-93212284D01*
X158146073Y-93204888D01*
X158145899Y-93204155D01*
X158145899Y-93145859D01*
X158146073Y-93145126D01*
X158148846Y-93137730D01*
X158155601Y-93075548D01*
X158155601Y-92624480D01*
X158148846Y-92562298D01*
X158146073Y-92554902D01*
X158145899Y-92554169D01*
X158145899Y-92495873D01*
X158146073Y-92495140D01*
X158148846Y-92487744D01*
X158155601Y-92425562D01*
X158155601Y-91974494D01*
X158152608Y-91946942D01*
X158149700Y-91920169D01*
X158149699Y-91920165D01*
X158148846Y-91912312D01*
X158146071Y-91904908D01*
X158145639Y-91903094D01*
X158145639Y-91844794D01*
X158149207Y-91829792D01*
X158154732Y-91778928D01*
X158155101Y-91772114D01*
X158155101Y-91745557D01*
X158150626Y-91730318D01*
X158149236Y-91729113D01*
X158141553Y-91727442D01*
X158124408Y-91727442D01*
X158056287Y-91707440D01*
X158023581Y-91677005D01*
X158015745Y-91666549D01*
X158015743Y-91666547D01*
X158010362Y-91659367D01*
X157930439Y-91599468D01*
X157887924Y-91542609D01*
X157882898Y-91471790D01*
X157916958Y-91409497D01*
X157979289Y-91375507D01*
X158006004Y-91372642D01*
X158136985Y-91372642D01*
X158152224Y-91368167D01*
X158153429Y-91366777D01*
X158155100Y-91359094D01*
X158155100Y-91327973D01*
X158154730Y-91321152D01*
X158149206Y-91270290D01*
X158145580Y-91255038D01*
X158100425Y-91134588D01*
X158091887Y-91118993D01*
X158015386Y-91016918D01*
X158002825Y-91004357D01*
X157900750Y-90927856D01*
X157885155Y-90919318D01*
X157764707Y-90874164D01*
X157749452Y-90870537D01*
X157698587Y-90865011D01*
X157691773Y-90864642D01*
X157140567Y-90864642D01*
X157125328Y-90869117D01*
X157124123Y-90870507D01*
X157122452Y-90878190D01*
X157122452Y-91372642D01*
X157121895Y-91372642D01*
X157121895Y-91423627D01*
X157083511Y-91483353D01*
X157018930Y-91512846D01*
X157000999Y-91514128D01*
X156893652Y-91514128D01*
X156825531Y-91494126D01*
X156779038Y-91440470D01*
X156767652Y-91388128D01*
X156767652Y-90882758D01*
X156763177Y-90867519D01*
X156761787Y-90866314D01*
X156754104Y-90864643D01*
X156198334Y-90864643D01*
X156191513Y-90865013D01*
X156140651Y-90870537D01*
X156125397Y-90874164D01*
X156006486Y-90918741D01*
X155935679Y-90923924D01*
X155873310Y-90890003D01*
X155865749Y-90881766D01*
X155855371Y-90869398D01*
X155851149Y-90864079D01*
X155848694Y-90860809D01*
X155848691Y-90860806D01*
X155833547Y-90840636D01*
X155833546Y-90840635D01*
X155829770Y-90835606D01*
X155829768Y-90835603D01*
X155820417Y-90826055D01*
X155796328Y-90807167D01*
X155793109Y-90804554D01*
X155698747Y-90725374D01*
X155698737Y-90725367D01*
X155694523Y-90721831D01*
X155553065Y-90640160D01*
X155399574Y-90584293D01*
X155371407Y-90579326D01*
X155328402Y-90571743D01*
X155264789Y-90540215D01*
X155228320Y-90479301D01*
X155226196Y-90469537D01*
X155214603Y-90403788D01*
X155214602Y-90403785D01*
X155213647Y-90398368D01*
X155169522Y-90277135D01*
X155159662Y-90250044D01*
X155159660Y-90250040D01*
X155157781Y-90244877D01*
X155112785Y-90166941D01*
X155078866Y-90108191D01*
X155078863Y-90108187D01*
X155076111Y-90103420D01*
X155006847Y-90020875D01*
X155002614Y-90015543D01*
X154983717Y-89990375D01*
X154983716Y-89990374D01*
X154981237Y-89987072D01*
X154971886Y-89977524D01*
X154947797Y-89958636D01*
X154944578Y-89956023D01*
X154850216Y-89876843D01*
X154850206Y-89876836D01*
X154845992Y-89873300D01*
X154704534Y-89791629D01*
X154551043Y-89735762D01*
X154390182Y-89707398D01*
X154226840Y-89707398D01*
X154065979Y-89735762D01*
X153912488Y-89791629D01*
X153818732Y-89845759D01*
X153749738Y-89862497D01*
X153682646Y-89839277D01*
X153666638Y-89825735D01*
X153608657Y-89767754D01*
X153601112Y-89759462D01*
X153597000Y-89752982D01*
X153547330Y-89706339D01*
X153544489Y-89703585D01*
X153524771Y-89683867D01*
X153521576Y-89681389D01*
X153512554Y-89673683D01*
X153486097Y-89648838D01*
X153480321Y-89643414D01*
X153473377Y-89639597D01*
X153473375Y-89639595D01*
X153462567Y-89633653D01*
X153446043Y-89622799D01*
X153436306Y-89615246D01*
X153436305Y-89615246D01*
X153430043Y-89610388D01*
X153395497Y-89595438D01*
X158862000Y-89595438D01*
X158862337Y-89601953D01*
X158871894Y-89694057D01*
X158874788Y-89707456D01*
X158924381Y-89856107D01*
X158930555Y-89869286D01*
X159012788Y-90002173D01*
X159021824Y-90013574D01*
X159132429Y-90123986D01*
X159143840Y-90132998D01*
X159276880Y-90215004D01*
X159290061Y-90221151D01*
X159438814Y-90270491D01*
X159452190Y-90273358D01*
X159543097Y-90282672D01*
X159548126Y-90282929D01*
X159563124Y-90278525D01*
X159564329Y-90277135D01*
X159566000Y-90269452D01*
X159566000Y-89572115D01*
X159561525Y-89556876D01*
X159560135Y-89555671D01*
X159552452Y-89554000D01*
X158880115Y-89554000D01*
X158864876Y-89558475D01*
X158863671Y-89559865D01*
X158862000Y-89567548D01*
X158862000Y-89595438D01*
X153395497Y-89595438D01*
X153389475Y-89592832D01*
X153378814Y-89587610D01*
X153347009Y-89570125D01*
X153347008Y-89570124D01*
X153340060Y-89566305D01*
X153331644Y-89564144D01*
X153320436Y-89561266D01*
X153301732Y-89554862D01*
X153290429Y-89549971D01*
X153290426Y-89549970D01*
X153283147Y-89546820D01*
X153275313Y-89545579D01*
X153239488Y-89539904D01*
X153227870Y-89537498D01*
X153192713Y-89528472D01*
X153192709Y-89528471D01*
X153185030Y-89526500D01*
X153164778Y-89526500D01*
X153145066Y-89524949D01*
X153140956Y-89524298D01*
X153125059Y-89521780D01*
X153091535Y-89524949D01*
X153081041Y-89525941D01*
X153069183Y-89526500D01*
X151171805Y-89526500D01*
X151103684Y-89506498D01*
X151066013Y-89468940D01*
X150977822Y-89332617D01*
X150977820Y-89332614D01*
X150975014Y-89328277D01*
X150824670Y-89163051D01*
X150820619Y-89159852D01*
X150820615Y-89159848D01*
X150653414Y-89027800D01*
X150653410Y-89027798D01*
X150649359Y-89024598D01*
X150608053Y-89001796D01*
X150558084Y-88951364D01*
X150543312Y-88881921D01*
X150568428Y-88815516D01*
X150595780Y-88788909D01*
X150639603Y-88757650D01*
X150774860Y-88661173D01*
X150933096Y-88503489D01*
X151063453Y-88322077D01*
X151065746Y-88317437D01*
X151067446Y-88314608D01*
X151119674Y-88266518D01*
X151175451Y-88253500D01*
X152896233Y-88253500D01*
X152907416Y-88254027D01*
X152914909Y-88255702D01*
X152922835Y-88255453D01*
X152922836Y-88255453D01*
X152982986Y-88253562D01*
X152986945Y-88253500D01*
X153014856Y-88253500D01*
X153018791Y-88253003D01*
X153018856Y-88252995D01*
X153030693Y-88252062D01*
X153062951Y-88251048D01*
X153066970Y-88250922D01*
X153074889Y-88250673D01*
X153094343Y-88245021D01*
X153113700Y-88241013D01*
X153125930Y-88239468D01*
X153125931Y-88239468D01*
X153133797Y-88238474D01*
X153141168Y-88235555D01*
X153141170Y-88235555D01*
X153174912Y-88222196D01*
X153186142Y-88218351D01*
X153220983Y-88208229D01*
X153220984Y-88208229D01*
X153228593Y-88206018D01*
X153235412Y-88201985D01*
X153235417Y-88201983D01*
X153246028Y-88195707D01*
X153263776Y-88187012D01*
X153282617Y-88179552D01*
X153302987Y-88164753D01*
X153318387Y-88153564D01*
X153328307Y-88147048D01*
X153355175Y-88131158D01*
X153366362Y-88124542D01*
X153371969Y-88118936D01*
X153380685Y-88110220D01*
X153395719Y-88097379D01*
X153405695Y-88090131D01*
X153405696Y-88090130D01*
X153412107Y-88085472D01*
X153440288Y-88051407D01*
X153448278Y-88042626D01*
X153752687Y-87738218D01*
X153752700Y-87738204D01*
X153863779Y-87627125D01*
X153877222Y-87615459D01*
X153892406Y-87604059D01*
X153892409Y-87604056D01*
X153895706Y-87601581D01*
X153905254Y-87592230D01*
X153907793Y-87588992D01*
X153907801Y-87588983D01*
X153918834Y-87574911D01*
X153921468Y-87571664D01*
X153923543Y-87569192D01*
X153981660Y-87499931D01*
X154014582Y-87460696D01*
X154014583Y-87460694D01*
X154018116Y-87456484D01*
X154026752Y-87441527D01*
X154099434Y-87315638D01*
X154150817Y-87266645D01*
X154220530Y-87253209D01*
X154286441Y-87279596D01*
X154297648Y-87289543D01*
X154337480Y-87329375D01*
X154349146Y-87342818D01*
X154363018Y-87361294D01*
X154372369Y-87370843D01*
X154380612Y-87377306D01*
X154389681Y-87384417D01*
X154392927Y-87387050D01*
X154503905Y-87480172D01*
X154503908Y-87480174D01*
X154508116Y-87483705D01*
X154512872Y-87486451D01*
X154512875Y-87486453D01*
X154628270Y-87553077D01*
X154660938Y-87571938D01*
X154742381Y-87601581D01*
X154821588Y-87630410D01*
X154826761Y-87632293D01*
X155000545Y-87662937D01*
X155177010Y-87662937D01*
X155282585Y-87644321D01*
X155345373Y-87633250D01*
X155345376Y-87633249D01*
X155350793Y-87632294D01*
X155397047Y-87615459D01*
X155511449Y-87573821D01*
X155511453Y-87573819D01*
X155516616Y-87571940D01*
X155592922Y-87527885D01*
X158362000Y-87527885D01*
X158366475Y-87543124D01*
X158367865Y-87544329D01*
X158375548Y-87546000D01*
X159047885Y-87546000D01*
X159063124Y-87541525D01*
X159064329Y-87540135D01*
X159066000Y-87532452D01*
X159066000Y-86835115D01*
X159061525Y-86819876D01*
X159060135Y-86818671D01*
X159052452Y-86817000D01*
X159049562Y-86817000D01*
X159043047Y-86817337D01*
X158950943Y-86826894D01*
X158937544Y-86829788D01*
X158788893Y-86879381D01*
X158775714Y-86885555D01*
X158642827Y-86967788D01*
X158631426Y-86976824D01*
X158521014Y-87087429D01*
X158512002Y-87098840D01*
X158429996Y-87231880D01*
X158423849Y-87245061D01*
X158374509Y-87393814D01*
X158371642Y-87407190D01*
X158362328Y-87498097D01*
X158362000Y-87504514D01*
X158362000Y-87527885D01*
X155592922Y-87527885D01*
X155669439Y-87483708D01*
X155680225Y-87474658D01*
X155729679Y-87433160D01*
X155766050Y-87402641D01*
X155771373Y-87398415D01*
X155795638Y-87380196D01*
X155805186Y-87370845D01*
X155807725Y-87367607D01*
X155807733Y-87367598D01*
X155818766Y-87353526D01*
X155821400Y-87350279D01*
X155850468Y-87315638D01*
X155879780Y-87280705D01*
X155914514Y-87239311D01*
X155914515Y-87239309D01*
X155918048Y-87235099D01*
X156006281Y-87082276D01*
X156017835Y-87050533D01*
X156064751Y-86921630D01*
X156066635Y-86916454D01*
X156072084Y-86885555D01*
X156084159Y-86817071D01*
X156097278Y-86742670D01*
X156097278Y-86566206D01*
X156066635Y-86392422D01*
X156033364Y-86301010D01*
X156028861Y-86230158D01*
X156063379Y-86168118D01*
X156125959Y-86134588D01*
X156165372Y-86132654D01*
X156191470Y-86135489D01*
X156191474Y-86135489D01*
X156194869Y-86135858D01*
X157695235Y-86135858D01*
X157706926Y-86134588D01*
X157749567Y-86129956D01*
X157749569Y-86129956D01*
X157757417Y-86129103D01*
X157764810Y-86126331D01*
X157764812Y-86126331D01*
X157822899Y-86104555D01*
X157893706Y-86099372D01*
X157941189Y-86120601D01*
X158004207Y-86166386D01*
X158038248Y-86191118D01*
X158044276Y-86193802D01*
X158044278Y-86193803D01*
X158168049Y-86248909D01*
X158212712Y-86268794D01*
X158306113Y-86288647D01*
X158393056Y-86307128D01*
X158393061Y-86307128D01*
X158399513Y-86308500D01*
X158590487Y-86308500D01*
X158596939Y-86307128D01*
X158596944Y-86307128D01*
X158683888Y-86288647D01*
X158777288Y-86268794D01*
X158821951Y-86248909D01*
X158945722Y-86193803D01*
X158945724Y-86193802D01*
X158951752Y-86191118D01*
X159106253Y-86078866D01*
X159160865Y-86018213D01*
X159229621Y-85941852D01*
X159229625Y-85941847D01*
X159234040Y-85936944D01*
X159322199Y-85784248D01*
X159326223Y-85777279D01*
X159326224Y-85777278D01*
X159329527Y-85771556D01*
X159388542Y-85589928D01*
X159390881Y-85567680D01*
X159407814Y-85406565D01*
X159408504Y-85400000D01*
X159394811Y-85269715D01*
X159389232Y-85216635D01*
X159389232Y-85216633D01*
X159388542Y-85210072D01*
X159329527Y-85028444D01*
X159308572Y-84992148D01*
X159284838Y-84951041D01*
X159234040Y-84863056D01*
X159106253Y-84721134D01*
X158951752Y-84608882D01*
X158945724Y-84606198D01*
X158945722Y-84606197D01*
X158783319Y-84533891D01*
X158783318Y-84533891D01*
X158777288Y-84531206D01*
X158682871Y-84511137D01*
X158596944Y-84492872D01*
X158596939Y-84492872D01*
X158590487Y-84491500D01*
X158399513Y-84491500D01*
X158393061Y-84492872D01*
X158393056Y-84492872D01*
X158307128Y-84511137D01*
X158236337Y-84505735D01*
X158179704Y-84462918D01*
X158155211Y-84396280D01*
X158155115Y-84381075D01*
X158155232Y-84378919D01*
X158155601Y-84375520D01*
X158155601Y-83924452D01*
X158148846Y-83862270D01*
X158146073Y-83854874D01*
X158145899Y-83854141D01*
X158145899Y-83795845D01*
X158146073Y-83795112D01*
X158148846Y-83787716D01*
X158155601Y-83725534D01*
X158155601Y-83274466D01*
X158152083Y-83242077D01*
X158149699Y-83220136D01*
X158148846Y-83212284D01*
X158146073Y-83204888D01*
X158145899Y-83204155D01*
X158145899Y-83145859D01*
X158146073Y-83145126D01*
X158148846Y-83137730D01*
X158155601Y-83075548D01*
X158155601Y-82624480D01*
X158148846Y-82562298D01*
X158146073Y-82554902D01*
X158145899Y-82554169D01*
X158145899Y-82495873D01*
X158146073Y-82495140D01*
X158148846Y-82487744D01*
X158155601Y-82425562D01*
X158155601Y-81974494D01*
X158152137Y-81942607D01*
X158149700Y-81920169D01*
X158149699Y-81920165D01*
X158148846Y-81912312D01*
X158146071Y-81904908D01*
X158145639Y-81903094D01*
X158145639Y-81844794D01*
X158149207Y-81829792D01*
X158154732Y-81778928D01*
X158155101Y-81772114D01*
X158155101Y-81745557D01*
X158150626Y-81730318D01*
X158149236Y-81729113D01*
X158141553Y-81727442D01*
X158124408Y-81727442D01*
X158056287Y-81707440D01*
X158023581Y-81677005D01*
X158015745Y-81666549D01*
X158015743Y-81666547D01*
X158010362Y-81659367D01*
X157930439Y-81599468D01*
X157887924Y-81542609D01*
X157882898Y-81471790D01*
X157916958Y-81409497D01*
X157979289Y-81375507D01*
X158006004Y-81372642D01*
X158136985Y-81372642D01*
X158152224Y-81368167D01*
X158153429Y-81366777D01*
X158155100Y-81359094D01*
X158155100Y-81327973D01*
X158154730Y-81321152D01*
X158149206Y-81270290D01*
X158145580Y-81255038D01*
X158100425Y-81134588D01*
X158091887Y-81118993D01*
X158015386Y-81016918D01*
X158002825Y-81004357D01*
X157900750Y-80927856D01*
X157885155Y-80919318D01*
X157764707Y-80874164D01*
X157749452Y-80870537D01*
X157698587Y-80865011D01*
X157691773Y-80864642D01*
X157140567Y-80864642D01*
X157125328Y-80869117D01*
X157124123Y-80870507D01*
X157122452Y-80878190D01*
X157122452Y-81372642D01*
X157121895Y-81372642D01*
X157121895Y-81423627D01*
X157083511Y-81483353D01*
X157018930Y-81512846D01*
X157000999Y-81514128D01*
X156893652Y-81514128D01*
X156825531Y-81494126D01*
X156779038Y-81440470D01*
X156767652Y-81388128D01*
X156767652Y-80882758D01*
X156763177Y-80867519D01*
X156761787Y-80866314D01*
X156754104Y-80864643D01*
X156198334Y-80864643D01*
X156191513Y-80865013D01*
X156140651Y-80870537D01*
X156125399Y-80874163D01*
X156004949Y-80919318D01*
X155989359Y-80927853D01*
X155916010Y-80982825D01*
X155849503Y-81007672D01*
X155780121Y-80992619D01*
X155729891Y-80942444D01*
X155719875Y-80918586D01*
X155680282Y-80788066D01*
X155598242Y-80634582D01*
X155594319Y-80629801D01*
X155594315Y-80629796D01*
X155538231Y-80561459D01*
X155531959Y-80553138D01*
X155512616Y-80525135D01*
X155506629Y-80519937D01*
X155501343Y-80514032D01*
X155501417Y-80513966D01*
X155499446Y-80511986D01*
X155497456Y-80509335D01*
X155488105Y-80499786D01*
X155475863Y-80490187D01*
X155473713Y-80488462D01*
X155414103Y-80439541D01*
X155411529Y-80437369D01*
X155391755Y-80420201D01*
X155388753Y-80418700D01*
X155388277Y-80418346D01*
X155353307Y-80389648D01*
X155199823Y-80307609D01*
X155193905Y-80305814D01*
X155193891Y-80305808D01*
X155090375Y-80274407D01*
X155030994Y-80235492D01*
X155006376Y-80190409D01*
X154993798Y-80148945D01*
X154973176Y-80080962D01*
X154891136Y-79927477D01*
X154852412Y-79880292D01*
X154841357Y-79864496D01*
X154838334Y-79859384D01*
X154838333Y-79859383D01*
X154834297Y-79852558D01*
X154815888Y-79834149D01*
X154804221Y-79820705D01*
X154792829Y-79805531D01*
X154792826Y-79805527D01*
X154790348Y-79802227D01*
X154789250Y-79801106D01*
X154780995Y-79792676D01*
X154768795Y-79783110D01*
X154766608Y-79781356D01*
X154750368Y-79768029D01*
X154646197Y-79682538D01*
X154492713Y-79600499D01*
X154486793Y-79598703D01*
X154486790Y-79598702D01*
X154332095Y-79551776D01*
X154332091Y-79551775D01*
X154326173Y-79549980D01*
X154152977Y-79532922D01*
X153979781Y-79549980D01*
X153973863Y-79551775D01*
X153973859Y-79551776D01*
X153819164Y-79598702D01*
X153819161Y-79598703D01*
X153813241Y-79600499D01*
X153807783Y-79603416D01*
X153807779Y-79603418D01*
X153685920Y-79668553D01*
X153616414Y-79683025D01*
X153550117Y-79657621D01*
X153537429Y-79646526D01*
X153498657Y-79607754D01*
X153491112Y-79599462D01*
X153487000Y-79592982D01*
X153437330Y-79546339D01*
X153434489Y-79543585D01*
X153414771Y-79523867D01*
X153411576Y-79521389D01*
X153402554Y-79513683D01*
X153376097Y-79488838D01*
X153370321Y-79483414D01*
X153363377Y-79479597D01*
X153363375Y-79479595D01*
X153352567Y-79473653D01*
X153336043Y-79462799D01*
X153326306Y-79455246D01*
X153326305Y-79455246D01*
X153320043Y-79450388D01*
X153279475Y-79432832D01*
X153268814Y-79427610D01*
X153237009Y-79410125D01*
X153237008Y-79410124D01*
X153230060Y-79406305D01*
X153221644Y-79404144D01*
X153210436Y-79401266D01*
X153191732Y-79394862D01*
X153180429Y-79389971D01*
X153180426Y-79389970D01*
X153173147Y-79386820D01*
X153165313Y-79385579D01*
X153129488Y-79379904D01*
X153117870Y-79377498D01*
X153082713Y-79368472D01*
X153082709Y-79368471D01*
X153075030Y-79366500D01*
X153054778Y-79366500D01*
X153035066Y-79364949D01*
X153035024Y-79364942D01*
X153015059Y-79361780D01*
X152981535Y-79364949D01*
X152971041Y-79365941D01*
X152959183Y-79366500D01*
X151379500Y-79366500D01*
X151311379Y-79346498D01*
X151264886Y-79292842D01*
X151253500Y-79240500D01*
X151253500Y-79101866D01*
X151246745Y-79039684D01*
X151195615Y-78903295D01*
X151108261Y-78786739D01*
X150991705Y-78699385D01*
X150855316Y-78648255D01*
X150793134Y-78641500D01*
X148996866Y-78641500D01*
X148934684Y-78648255D01*
X148798295Y-78699385D01*
X148681739Y-78786739D01*
X148594385Y-78903295D01*
X148591233Y-78911703D01*
X148549919Y-79021907D01*
X148507277Y-79078671D01*
X148440716Y-79103371D01*
X148371367Y-79088163D01*
X148338743Y-79062476D01*
X148288151Y-79006875D01*
X148288142Y-79006866D01*
X148284670Y-79003051D01*
X148280619Y-78999852D01*
X148280615Y-78999848D01*
X148113414Y-78867800D01*
X148113410Y-78867798D01*
X148109359Y-78864598D01*
X147913789Y-78756638D01*
X147908920Y-78754914D01*
X147908916Y-78754912D01*
X147708087Y-78683795D01*
X147708083Y-78683794D01*
X147703212Y-78682069D01*
X147698119Y-78681162D01*
X147698116Y-78681161D01*
X147488373Y-78643800D01*
X147488367Y-78643799D01*
X147483284Y-78642894D01*
X147409452Y-78641992D01*
X147265081Y-78640228D01*
X147265079Y-78640228D01*
X147259911Y-78640165D01*
X147039091Y-78673955D01*
X146826756Y-78743357D01*
X146628607Y-78846507D01*
X146624474Y-78849610D01*
X146624471Y-78849612D01*
X146504653Y-78939574D01*
X146438168Y-78964480D01*
X146368772Y-78949488D01*
X146318499Y-78899357D01*
X146303000Y-78838814D01*
X146303000Y-78434000D01*
X146323002Y-78365879D01*
X146376658Y-78319386D01*
X146429000Y-78308000D01*
X173461000Y-78308000D01*
X173529121Y-78328002D01*
G37*
%TD.AperFunction*%
%TD*%
M02*
