%TF.GenerationSoftware,KiCad,Pcbnew,(6.0.1)*%
%TF.CreationDate,2022-07-20T18:19:17-07:00*%
%TF.ProjectId,LevelShifter,4c657665-6c53-4686-9966-7465722e6b69,rev?*%
%TF.SameCoordinates,Original*%
%TF.FileFunction,Copper,L1,Top*%
%TF.FilePolarity,Positive*%
%FSLAX46Y46*%
G04 Gerber Fmt 4.6, Leading zero omitted, Abs format (unit mm)*
G04 Created by KiCad (PCBNEW (6.0.1)) date 2022-07-20 18:19:17*
%MOMM*%
%LPD*%
G01*
G04 APERTURE LIST*
G04 Aperture macros list*
%AMRoundRect*
0 Rectangle with rounded corners*
0 $1 Rounding radius*
0 $2 $3 $4 $5 $6 $7 $8 $9 X,Y pos of 4 corners*
0 Add a 4 corners polygon primitive as box body*
4,1,4,$2,$3,$4,$5,$6,$7,$8,$9,$2,$3,0*
0 Add four circle primitives for the rounded corners*
1,1,$1+$1,$2,$3*
1,1,$1+$1,$4,$5*
1,1,$1+$1,$6,$7*
1,1,$1+$1,$8,$9*
0 Add four rect primitives between the rounded corners*
20,1,$1+$1,$2,$3,$4,$5,0*
20,1,$1+$1,$4,$5,$6,$7,0*
20,1,$1+$1,$6,$7,$8,$9,0*
20,1,$1+$1,$8,$9,$2,$3,0*%
G04 Aperture macros list end*
%TA.AperFunction,ComponentPad*%
%ADD10R,1.700000X1.700000*%
%TD*%
%TA.AperFunction,ComponentPad*%
%ADD11O,1.700000X1.700000*%
%TD*%
%TA.AperFunction,SMDPad,CuDef*%
%ADD12RoundRect,0.225000X-0.250000X0.225000X-0.250000X-0.225000X0.250000X-0.225000X0.250000X0.225000X0*%
%TD*%
%TA.AperFunction,SMDPad,CuDef*%
%ADD13RoundRect,0.225000X0.250000X-0.225000X0.250000X0.225000X-0.250000X0.225000X-0.250000X-0.225000X0*%
%TD*%
%TA.AperFunction,SMDPad,CuDef*%
%ADD14R,1.404099X0.354800*%
%TD*%
%TA.AperFunction,SMDPad,CuDef*%
%ADD15RoundRect,0.225000X-0.225000X-0.250000X0.225000X-0.250000X0.225000X0.250000X-0.225000X0.250000X0*%
%TD*%
%TA.AperFunction,SMDPad,CuDef*%
%ADD16RoundRect,0.225000X0.225000X0.250000X-0.225000X0.250000X-0.225000X-0.250000X0.225000X-0.250000X0*%
%TD*%
%TA.AperFunction,ViaPad*%
%ADD17C,0.800000*%
%TD*%
%TA.AperFunction,Conductor*%
%ADD18C,0.250000*%
%TD*%
G04 APERTURE END LIST*
D10*
%TO.P,J1,1,Pin_1*%
%TO.N,/CHAN_0_IN*%
X149895000Y-80000000D03*
D11*
%TO.P,J1,2,Pin_2*%
%TO.N,/CHAN_23_IN*%
X147355000Y-80000000D03*
%TO.P,J1,3,Pin_3*%
%TO.N,/CHAN_1_IN*%
X149895000Y-82540000D03*
%TO.P,J1,4,Pin_4*%
%TO.N,/CHAN_22_IN*%
X147355000Y-82540000D03*
%TO.P,J1,5,Pin_5*%
%TO.N,/CHAN_2_IN*%
X149895000Y-85080000D03*
%TO.P,J1,6,Pin_6*%
%TO.N,/CHAN_21_IN*%
X147355000Y-85080000D03*
%TO.P,J1,7,Pin_7*%
%TO.N,/CHAN_3_IN*%
X149895000Y-87620000D03*
%TO.P,J1,8,Pin_8*%
%TO.N,/CHAN_20_IN*%
X147355000Y-87620000D03*
%TO.P,J1,9,Pin_9*%
%TO.N,/CHAN_4_IN*%
X149895000Y-90160000D03*
%TO.P,J1,10,Pin_10*%
%TO.N,/CHAN_19_IN*%
X147355000Y-90160000D03*
%TO.P,J1,11,Pin_11*%
%TO.N,/CHAN_5_IN*%
X149895000Y-92700000D03*
%TO.P,J1,12,Pin_12*%
%TO.N,/CHAN_18_IN*%
X147355000Y-92700000D03*
%TO.P,J1,13,Pin_13*%
%TO.N,/CHAN_6_IN*%
X149895000Y-95240000D03*
%TO.P,J1,14,Pin_14*%
%TO.N,/CHAN_17_IN*%
X147355000Y-95240000D03*
%TO.P,J1,15,Pin_15*%
%TO.N,/CHAN_7_IN*%
X149895000Y-97780000D03*
%TO.P,J1,16,Pin_16*%
%TO.N,/CHAN_16_IN*%
X147355000Y-97780000D03*
%TO.P,J1,17,Pin_17*%
%TO.N,/CHAN_8_IN*%
X149895000Y-100320000D03*
%TO.P,J1,18,Pin_18*%
%TO.N,/CHAN_15_IN*%
X147355000Y-100320000D03*
%TO.P,J1,19,Pin_19*%
%TO.N,/CHAN_9_IN*%
X149895000Y-102860000D03*
%TO.P,J1,20,Pin_20*%
%TO.N,/CHAN_14_IN*%
X147355000Y-102860000D03*
%TO.P,J1,21,Pin_21*%
%TO.N,/CHAN_10_IN*%
X149895000Y-105400000D03*
%TO.P,J1,22,Pin_22*%
%TO.N,/CHAN_13_IN*%
X147355000Y-105400000D03*
%TO.P,J1,23,Pin_23*%
%TO.N,/CHAN_11_IN*%
X149895000Y-107940000D03*
%TO.P,J1,24,Pin_24*%
%TO.N,/CHAN_12_IN*%
X147355000Y-107940000D03*
%TO.P,J1,25,Pin_25*%
%TO.N,/GND*%
X149895000Y-110480000D03*
%TO.P,J1,26,Pin_26*%
X147355000Y-110480000D03*
%TO.P,J1,27,Pin_27*%
%TO.N,/3V3*%
X149895000Y-113020000D03*
%TO.P,J1,28,Pin_28*%
X147355000Y-113020000D03*
%TO.P,J1,29,Pin_29*%
%TO.N,/5V*%
X149895000Y-115560000D03*
%TO.P,J1,30,Pin_30*%
X147355000Y-115560000D03*
%TD*%
D12*
%TO.P,C7,1*%
%TO.N,/3V3*%
X163995000Y-108025000D03*
%TO.P,C7,2*%
%TO.N,/GND*%
X163995000Y-109575000D03*
%TD*%
D13*
%TO.P,C8,1*%
%TO.N,/GND*%
X159595000Y-109475000D03*
%TO.P,C8,2*%
%TO.N,/5V*%
X159595000Y-107925000D03*
%TD*%
D14*
%TO.P,U6,1,VCCA*%
%TO.N,/5V*%
X156945052Y-91550042D03*
%TO.P,U6,2,A1*%
%TO.N,/CHAN_19_IN*%
X156945052Y-92200028D03*
%TO.P,U6,3,A2*%
%TO.N,/CHAN_18_IN*%
X156945052Y-92850014D03*
%TO.P,U6,4,A3*%
%TO.N,/CHAN_17_IN*%
X156945052Y-93500000D03*
%TO.P,U6,5,A4*%
%TO.N,/CHAN_16_IN*%
X156945052Y-94149986D03*
%TO.P,U6,6,NC*%
%TO.N,unconnected-(U6-Pad6)*%
X156945052Y-94799972D03*
%TO.P,U6,7,GND*%
%TO.N,/GND*%
X156945052Y-95449958D03*
%TO.P,U6,8,OE*%
%TO.N,/3V3*%
X162844948Y-95449958D03*
%TO.P,U6,9,NC*%
%TO.N,unconnected-(U6-Pad9)*%
X162844948Y-94799972D03*
%TO.P,U6,10,B4Y*%
%TO.N,/CHAN_16_OUT*%
X162844948Y-94149986D03*
%TO.P,U6,11,B3Y*%
%TO.N,/CHAN_17_OUT*%
X162844948Y-93500000D03*
%TO.P,U6,12,B2Y*%
%TO.N,/CHAN_18_OUT*%
X162844948Y-92850014D03*
%TO.P,U6,13,B1Y*%
%TO.N,/CHAN_19_OUT*%
X162844948Y-92200028D03*
%TO.P,U6,14,VCCB*%
%TO.N,/3V3*%
X162844948Y-91550042D03*
%TD*%
D15*
%TO.P,C12,1*%
%TO.N,/GND*%
X159020000Y-87900000D03*
%TO.P,C12,2*%
%TO.N,/5V*%
X160570000Y-87900000D03*
%TD*%
D14*
%TO.P,U5,1,VCCA*%
%TO.N,/5V*%
X156945052Y-102050042D03*
%TO.P,U5,2,A1*%
%TO.N,/CHAN_15_IN*%
X156945052Y-102700028D03*
%TO.P,U5,3,A2*%
%TO.N,/CHAN_14_IN*%
X156945052Y-103350014D03*
%TO.P,U5,4,A3*%
%TO.N,/CHAN_13_IN*%
X156945052Y-104000000D03*
%TO.P,U5,5,A4*%
%TO.N,/CHAN_12_IN*%
X156945052Y-104649986D03*
%TO.P,U5,6,NC*%
%TO.N,unconnected-(U5-Pad6)*%
X156945052Y-105299972D03*
%TO.P,U5,7,GND*%
%TO.N,/GND*%
X156945052Y-105949958D03*
%TO.P,U5,8,OE*%
%TO.N,/3V3*%
X162844948Y-105949958D03*
%TO.P,U5,9,NC*%
%TO.N,unconnected-(U5-Pad9)*%
X162844948Y-105299972D03*
%TO.P,U5,10,B4Y*%
%TO.N,/CHAN_12_OUT*%
X162844948Y-104649986D03*
%TO.P,U5,11,B3Y*%
%TO.N,/CHAN_13_OUT*%
X162844948Y-104000000D03*
%TO.P,U5,12,B2Y*%
%TO.N,/CHAN_14_OUT*%
X162844948Y-103350014D03*
%TO.P,U5,13,B1Y*%
%TO.N,/CHAN_15_OUT*%
X162844948Y-102700028D03*
%TO.P,U5,14,VCCB*%
%TO.N,/3V3*%
X162844948Y-102050042D03*
%TD*%
D15*
%TO.P,C10,1*%
%TO.N,/GND*%
X159220000Y-98000000D03*
%TO.P,C10,2*%
%TO.N,/5V*%
X160770000Y-98000000D03*
%TD*%
D10*
%TO.P,J2,1,Pin_1*%
%TO.N,/CHAN_0_OUT*%
X169995000Y-80000000D03*
D11*
%TO.P,J2,2,Pin_2*%
%TO.N,/CHAN_23_OUT*%
X172535000Y-80000000D03*
%TO.P,J2,3,Pin_3*%
%TO.N,/CHAN_1_OUT*%
X169995000Y-82540000D03*
%TO.P,J2,4,Pin_4*%
%TO.N,/CHAN_22_OUT*%
X172535000Y-82540000D03*
%TO.P,J2,5,Pin_5*%
%TO.N,/CHAN_2_OUT*%
X169995000Y-85080000D03*
%TO.P,J2,6,Pin_6*%
%TO.N,/CHAN_21_OUT*%
X172535000Y-85080000D03*
%TO.P,J2,7,Pin_7*%
%TO.N,/CHAN_3_OUT*%
X169995000Y-87620000D03*
%TO.P,J2,8,Pin_8*%
%TO.N,/CHAN_20_OUT*%
X172535000Y-87620000D03*
%TO.P,J2,9,Pin_9*%
%TO.N,/CHAN_4_OUT*%
X169995000Y-90160000D03*
%TO.P,J2,10,Pin_10*%
%TO.N,/CHAN_19_OUT*%
X172535000Y-90160000D03*
%TO.P,J2,11,Pin_11*%
%TO.N,/CHAN_5_OUT*%
X169995000Y-92700000D03*
%TO.P,J2,12,Pin_12*%
%TO.N,/CHAN_18_OUT*%
X172535000Y-92700000D03*
%TO.P,J2,13,Pin_13*%
%TO.N,/CHAN_6_OUT*%
X169995000Y-95240000D03*
%TO.P,J2,14,Pin_14*%
%TO.N,/CHAN_17_OUT*%
X172535000Y-95240000D03*
%TO.P,J2,15,Pin_15*%
%TO.N,/CHAN_7_OUT*%
X169995000Y-97780000D03*
%TO.P,J2,16,Pin_16*%
%TO.N,/CHAN_16_OUT*%
X172535000Y-97780000D03*
%TO.P,J2,17,Pin_17*%
%TO.N,/CHAN_8_OUT*%
X169995000Y-100320000D03*
%TO.P,J2,18,Pin_18*%
%TO.N,/CHAN_15_OUT*%
X172535000Y-100320000D03*
%TO.P,J2,19,Pin_19*%
%TO.N,/CHAN_9_OUT*%
X169995000Y-102860000D03*
%TO.P,J2,20,Pin_20*%
%TO.N,/CHAN_14_OUT*%
X172535000Y-102860000D03*
%TO.P,J2,21,Pin_21*%
%TO.N,/CHAN_10_OUT*%
X169995000Y-105400000D03*
%TO.P,J2,22,Pin_22*%
%TO.N,/CHAN_13_OUT*%
X172535000Y-105400000D03*
%TO.P,J2,23,Pin_23*%
%TO.N,/CHAN_11_OUT*%
X169995000Y-107940000D03*
%TO.P,J2,24,Pin_24*%
%TO.N,/CHAN_12_OUT*%
X172535000Y-107940000D03*
%TO.P,J2,25,Pin_25*%
%TO.N,/GND*%
X169995000Y-110480000D03*
%TO.P,J2,26,Pin_26*%
X172535000Y-110480000D03*
%TO.P,J2,27,Pin_27*%
%TO.N,/3V3*%
X169995000Y-113020000D03*
%TO.P,J2,28,Pin_28*%
X172535000Y-113020000D03*
%TO.P,J2,29,Pin_29*%
%TO.N,/5V*%
X169995000Y-115560000D03*
%TO.P,J2,30,Pin_30*%
X172535000Y-115560000D03*
%TD*%
D14*
%TO.P,U4,1,VCCA*%
%TO.N,/5V*%
X156945052Y-81550042D03*
%TO.P,U4,2,A1*%
%TO.N,/CHAN_23_IN*%
X156945052Y-82200028D03*
%TO.P,U4,3,A2*%
%TO.N,/CHAN_22_IN*%
X156945052Y-82850014D03*
%TO.P,U4,4,A3*%
%TO.N,/CHAN_21_IN*%
X156945052Y-83500000D03*
%TO.P,U4,5,A4*%
%TO.N,/CHAN_20_IN*%
X156945052Y-84149986D03*
%TO.P,U4,6,NC*%
%TO.N,unconnected-(U4-Pad6)*%
X156945052Y-84799972D03*
%TO.P,U4,7,GND*%
%TO.N,/GND*%
X156945052Y-85449958D03*
%TO.P,U4,8,OE*%
%TO.N,/3V3*%
X162844948Y-85449958D03*
%TO.P,U4,9,NC*%
%TO.N,unconnected-(U4-Pad9)*%
X162844948Y-84799972D03*
%TO.P,U4,10,B4Y*%
%TO.N,/CHAN_20_OUT*%
X162844948Y-84149986D03*
%TO.P,U4,11,B3Y*%
%TO.N,/CHAN_21_OUT*%
X162844948Y-83500000D03*
%TO.P,U4,12,B2Y*%
%TO.N,/CHAN_22_OUT*%
X162844948Y-82850014D03*
%TO.P,U4,13,B1Y*%
%TO.N,/CHAN_23_OUT*%
X162844948Y-82200028D03*
%TO.P,U4,14,VCCB*%
%TO.N,/3V3*%
X162844948Y-81550042D03*
%TD*%
D16*
%TO.P,C9,1*%
%TO.N,/3V3*%
X161770000Y-99800000D03*
%TO.P,C9,2*%
%TO.N,/GND*%
X160220000Y-99800000D03*
%TD*%
%TO.P,C11,1*%
%TO.N,/3V3*%
X161570000Y-89500000D03*
%TO.P,C11,2*%
%TO.N,/GND*%
X160020000Y-89500000D03*
%TD*%
D17*
%TO.N,/GND*%
X159295000Y-96600000D03*
X159295000Y-86700000D03*
X158095000Y-108800000D03*
%TO.N,/3V3*%
X162844948Y-107149948D03*
%TO.N,/5V*%
X158495000Y-106000000D03*
X160595000Y-85400000D03*
X160595000Y-95300000D03*
X160595000Y-106000000D03*
X158495000Y-85400000D03*
X158495000Y-95400000D03*
%TD*%
D18*
%TO.N,/GND*%
X159195000Y-110500000D02*
X158995000Y-110500000D01*
X159295000Y-87625000D02*
X159020000Y-87900000D01*
X157495000Y-86700000D02*
X159295000Y-86700000D01*
X164395000Y-110500000D02*
X164495000Y-110500000D01*
X163995000Y-110100000D02*
X163995000Y-110500000D01*
X159295000Y-86700000D02*
X159295000Y-87625000D01*
X159495000Y-110500000D02*
X158995000Y-110500000D01*
X157395000Y-96600000D02*
X159295000Y-96600000D01*
X163395000Y-110500000D02*
X159995000Y-110500000D01*
X159595000Y-110100000D02*
X159595000Y-110400000D01*
X159095000Y-99100000D02*
X159095000Y-98125000D01*
X156945052Y-95449958D02*
X156945052Y-96150052D01*
X159595000Y-110400000D02*
X159495000Y-110500000D01*
X163995000Y-110100000D02*
X163595000Y-110500000D01*
X163995000Y-110500000D02*
X163395000Y-110500000D01*
X159020000Y-88500000D02*
X160020000Y-89500000D01*
X164495000Y-110500000D02*
X163995000Y-110500000D01*
X158995000Y-110500000D02*
X149915000Y-110500000D01*
X159595000Y-109475000D02*
X159595000Y-110100000D01*
X159595000Y-110100000D02*
X159195000Y-110500000D01*
X156945052Y-96150052D02*
X157395000Y-96600000D01*
X169895000Y-110480000D02*
X169875000Y-110500000D01*
X156945052Y-85449958D02*
X156945052Y-86150052D01*
X160220000Y-99800000D02*
X159795000Y-99800000D01*
X159220000Y-98000000D02*
X159220000Y-96675000D01*
X172435000Y-110480000D02*
X169895000Y-110480000D01*
X159995000Y-110500000D02*
X159495000Y-110500000D01*
X159095000Y-98125000D02*
X159220000Y-98000000D01*
X159220000Y-96675000D02*
X159295000Y-96600000D01*
X158095000Y-108800000D02*
X156945052Y-107650052D01*
X159595000Y-110100000D02*
X159995000Y-110500000D01*
X163995000Y-110100000D02*
X164395000Y-110500000D01*
X159795000Y-99800000D02*
X159095000Y-99100000D01*
X163995000Y-109575000D02*
X163995000Y-110100000D01*
X156945052Y-86150052D02*
X157495000Y-86700000D01*
X156945052Y-107650052D02*
X156945052Y-105949958D01*
X159020000Y-87900000D02*
X159020000Y-88500000D01*
X149915000Y-110500000D02*
X149895000Y-110480000D01*
X163595000Y-110500000D02*
X163395000Y-110500000D01*
X169875000Y-110500000D02*
X164495000Y-110500000D01*
%TO.N,/3V3*%
X161795000Y-91800000D02*
X161795000Y-95200000D01*
X169875000Y-113000000D02*
X169895000Y-113020000D01*
X162844948Y-102050042D02*
X162045042Y-102050042D01*
X147355000Y-113020000D02*
X149895000Y-113020000D01*
X161795000Y-91500000D02*
X161795000Y-91800000D01*
X162844948Y-95449958D02*
X162045042Y-95449958D01*
X161795000Y-95700000D02*
X161795000Y-95800000D01*
X163119948Y-107149948D02*
X163995000Y-108025000D01*
X161844958Y-102050042D02*
X161795000Y-102100000D01*
X162045042Y-91550042D02*
X161845042Y-91550042D01*
X149895000Y-113020000D02*
X149915000Y-113000000D01*
X161795000Y-91300000D02*
X161795000Y-91500000D01*
X161795000Y-101800000D02*
X161795000Y-102100000D01*
X162844948Y-107149948D02*
X163119948Y-107149948D01*
X161795000Y-85400000D02*
X161795000Y-85700000D01*
X161795000Y-102100000D02*
X161795000Y-102300000D01*
X161844958Y-85449958D02*
X161795000Y-85400000D01*
X161795000Y-95400000D02*
X161795000Y-95800000D01*
X161795000Y-81647941D02*
X161795000Y-85200000D01*
X161892899Y-81550042D02*
X161795000Y-81647941D01*
X161795000Y-102300000D02*
X161795000Y-105800000D01*
X149915000Y-113000000D02*
X169875000Y-113000000D01*
X161844958Y-95449958D02*
X161795000Y-95400000D01*
X162045042Y-95449958D02*
X161844958Y-95449958D01*
X161944958Y-105949958D02*
X162844948Y-105949958D01*
X162044958Y-85449958D02*
X162044958Y-85450042D01*
X162044958Y-91550042D02*
X162044958Y-91549958D01*
X162045042Y-95449958D02*
X162044958Y-95449958D01*
X162044958Y-85450042D02*
X161795000Y-85700000D01*
X162844948Y-85449958D02*
X161844958Y-85449958D01*
X162844948Y-81550042D02*
X161892899Y-81550042D01*
X162044958Y-91550042D02*
X161795000Y-91800000D01*
X162044958Y-102050042D02*
X161795000Y-102300000D01*
X162044958Y-91549958D02*
X161795000Y-91300000D01*
X161845042Y-91550042D02*
X161795000Y-91500000D01*
X161795000Y-85700000D02*
X161795000Y-91300000D01*
X162045042Y-91550042D02*
X162044958Y-91550042D01*
X162044958Y-85449958D02*
X161795000Y-85200000D01*
X162844948Y-105949958D02*
X162844948Y-107149948D01*
X162844948Y-91550042D02*
X162045042Y-91550042D01*
X162045042Y-102050042D02*
X162044958Y-102050042D01*
X161795000Y-105800000D02*
X161944958Y-105949958D01*
X162045042Y-102050042D02*
X161844958Y-102050042D01*
X162045042Y-95449958D02*
X161795000Y-95700000D01*
X162045042Y-102050042D02*
X161795000Y-101800000D01*
X161795000Y-85200000D02*
X161795000Y-85400000D01*
X161795000Y-95800000D02*
X161795000Y-101800000D01*
X161795000Y-95200000D02*
X161795000Y-95400000D01*
X162044958Y-95449958D02*
X161795000Y-95200000D01*
%TO.N,/5V*%
X158045042Y-91550042D02*
X158495000Y-92000000D01*
X169855000Y-115600000D02*
X169895000Y-115560000D01*
X160570000Y-87900000D02*
X160570000Y-85425000D01*
X156945052Y-91550042D02*
X158045042Y-91550042D01*
X158495000Y-102400000D02*
X158495000Y-106000000D01*
X160595000Y-107400000D02*
X160595000Y-106000000D01*
X160495000Y-95400000D02*
X158495000Y-95400000D01*
X158495000Y-82147941D02*
X158495000Y-85400000D01*
X149895000Y-115560000D02*
X149935000Y-115600000D01*
X160070000Y-107925000D02*
X160595000Y-107400000D01*
X160595000Y-95300000D02*
X160495000Y-95400000D01*
X147355000Y-115560000D02*
X149895000Y-115560000D01*
X157897101Y-81550042D02*
X158495000Y-82147941D01*
X160595000Y-97825000D02*
X160770000Y-98000000D01*
X159595000Y-107925000D02*
X160070000Y-107925000D01*
X169895000Y-115560000D02*
X172435000Y-115560000D01*
X158495000Y-106000000D02*
X160595000Y-106000000D01*
X158145042Y-102050042D02*
X158495000Y-102400000D01*
X156945052Y-81550042D02*
X157897101Y-81550042D01*
X158495000Y-92000000D02*
X158495000Y-95400000D01*
X160595000Y-95300000D02*
X160595000Y-97825000D01*
X160570000Y-85425000D02*
X160595000Y-85400000D01*
X156945052Y-102050042D02*
X158145042Y-102050042D01*
X149935000Y-115600000D02*
X169855000Y-115600000D01*
X160595000Y-85400000D02*
X158495000Y-85400000D01*
%TO.N,/CHAN_23_IN*%
X150269511Y-81174511D02*
X151295028Y-82200028D01*
X153269972Y-81925028D02*
X153269972Y-81489674D01*
X154094972Y-82200028D02*
X155318278Y-82200028D01*
X153819972Y-81489674D02*
X153819972Y-81925028D01*
X155318278Y-82200028D02*
X156945052Y-82200028D01*
X148529511Y-81174511D02*
X150269511Y-81174511D01*
X147355000Y-80000000D02*
X148529511Y-81174511D01*
X151295028Y-82200028D02*
X152994972Y-82200028D01*
X154094972Y-82200028D02*
G75*
G02*
X153819972Y-81925028I1J275001D01*
G01*
X153269972Y-81925028D02*
G75*
G02*
X152994972Y-82200028I-275001J1D01*
G01*
X153544972Y-81214674D02*
G75*
G03*
X153269972Y-81489674I1J-275001D01*
G01*
X153819972Y-81489674D02*
G75*
G03*
X153544972Y-81214674I-275001J-1D01*
G01*
%TO.N,/CHAN_22_IN*%
X156945052Y-82850014D02*
X153344986Y-82850014D01*
X151245996Y-82850014D02*
X150381499Y-83714511D01*
X148529511Y-83714511D02*
X147355000Y-82540000D01*
X152594986Y-83597321D02*
X152594986Y-83100014D01*
X153094986Y-83100014D02*
X153094986Y-83597321D01*
X152344986Y-82850014D02*
X151245996Y-82850014D01*
X150381499Y-83714511D02*
X148529511Y-83714511D01*
X152344986Y-82850014D02*
G75*
G02*
X152594986Y-83100014I1J-249999D01*
G01*
X153094986Y-83100014D02*
G75*
G02*
X153344986Y-82850014I249999J1D01*
G01*
X152594986Y-83597321D02*
G75*
G03*
X152844986Y-83847321I249999J-1D01*
G01*
X152844986Y-83847321D02*
G75*
G03*
X153094986Y-83597321I1J249999D01*
G01*
%TO.N,/CHAN_21_IN*%
X152361973Y-85139766D02*
X152396473Y-85174263D01*
X152820735Y-84749999D02*
X152820736Y-84750000D01*
X154495000Y-83500000D02*
X153245000Y-84750000D01*
X152820736Y-84750000D02*
X152786237Y-84715502D01*
X152361974Y-85139767D02*
X152361973Y-85139766D01*
X156945052Y-83500000D02*
X154495000Y-83500000D01*
X148529511Y-86254511D02*
X147355000Y-85080000D01*
X152396472Y-85598528D02*
X151740489Y-86254511D01*
X151740489Y-86254511D02*
X148529511Y-86254511D01*
X152396473Y-85598527D02*
X152396472Y-85598528D01*
X152396472Y-85598526D02*
G75*
G03*
X152396472Y-85174264I-212131J212131D01*
G01*
X152820735Y-84749999D02*
G75*
G03*
X153245000Y-84750000I212133J212127D01*
G01*
X152361974Y-84715503D02*
G75*
G02*
X152786236Y-84715503I212131J-212131D01*
G01*
X152361974Y-85139767D02*
G75*
G02*
X152361973Y-84715502I212134J212133D01*
G01*
%TO.N,/CHAN_20_IN*%
X148535000Y-88800000D02*
X147355000Y-87620000D01*
X156945052Y-84149986D02*
X155026024Y-84149986D01*
X150376010Y-88800000D02*
X148535000Y-88800000D01*
X155026024Y-84149986D02*
X150376010Y-88800000D01*
%TO.N,/CHAN_19_IN*%
X154916260Y-92200028D02*
X156945052Y-92200028D01*
X147355000Y-90160000D02*
X148529511Y-91334511D01*
X151056038Y-92200028D02*
X152795028Y-92200028D01*
X148529511Y-91334511D02*
X150190521Y-91334511D01*
X153045028Y-91950028D02*
X153045028Y-91452910D01*
X153545028Y-91452910D02*
X153545028Y-91950028D01*
X153795028Y-92200028D02*
X154916260Y-92200028D01*
X150190521Y-91334511D02*
X151056038Y-92200028D01*
X153545028Y-91452910D02*
G75*
G03*
X153295028Y-91202910I-249999J1D01*
G01*
X153295028Y-91202910D02*
G75*
G03*
X153045028Y-91452910I-1J-249999D01*
G01*
X153795028Y-92200028D02*
G75*
G02*
X153545028Y-91950028I-1J249999D01*
G01*
X153045028Y-91950028D02*
G75*
G02*
X152795028Y-92200028I-249999J-1D01*
G01*
%TO.N,/CHAN_18_IN*%
X151405996Y-92850014D02*
X150381499Y-93874511D01*
X148529511Y-93874511D02*
X147355000Y-92700000D01*
X150381499Y-93874511D02*
X148529511Y-93874511D01*
X153020014Y-93560602D02*
X153020014Y-93125014D01*
X156945052Y-92850014D02*
X153845014Y-92850014D01*
X153570014Y-93125014D02*
X153570014Y-93560602D01*
X152745014Y-92850014D02*
X151405996Y-92850014D01*
X153295014Y-93835602D02*
G75*
G03*
X153570014Y-93560602I-1J275001D01*
G01*
X153020014Y-93560602D02*
G75*
G03*
X153295014Y-93835602I275001J1D01*
G01*
X153570014Y-93125014D02*
G75*
G02*
X153845014Y-92850014I275001J-1D01*
G01*
X152745014Y-92850014D02*
G75*
G02*
X153020014Y-93125014I-1J-275001D01*
G01*
%TO.N,/CHAN_17_IN*%
X151714776Y-95919776D02*
X151695000Y-95919776D01*
X151114776Y-96500000D02*
X151095000Y-96500000D01*
X148615000Y-96500000D02*
X147355000Y-95240000D01*
X155295000Y-93500000D02*
X152295000Y-96500000D01*
X151095000Y-96500000D02*
X148615000Y-96500000D01*
X156945052Y-93500000D02*
X155295000Y-93500000D01*
X152004888Y-96209888D02*
G75*
G03*
X152295000Y-96500000I290113J1D01*
G01*
X151404888Y-96209888D02*
G75*
G02*
X151695000Y-95919776I290113J-1D01*
G01*
X151714776Y-95919776D02*
G75*
G02*
X152004888Y-96209888I-1J-290113D01*
G01*
X151114776Y-96500000D02*
G75*
G03*
X151404888Y-96209888I-1J290113D01*
G01*
%TO.N,/CHAN_16_IN*%
X151188478Y-98954511D02*
X148529511Y-98954511D01*
X148529511Y-98954511D02*
X147355000Y-97780000D01*
X156945052Y-94149986D02*
X155993003Y-94149986D01*
X155993003Y-94149986D02*
X151188478Y-98954511D01*
%TO.N,/CHAN_15_IN*%
X147355000Y-100320000D02*
X148635000Y-101600000D01*
X156077646Y-102700028D02*
X156945052Y-102700028D01*
X153395028Y-102400028D02*
X153395028Y-102030405D01*
X151396038Y-102700028D02*
X153095028Y-102700028D01*
X153995028Y-102030405D02*
X153995028Y-102400028D01*
X150296010Y-101600000D02*
X151396038Y-102700028D01*
X154295028Y-102700028D02*
X156077646Y-102700028D01*
X148635000Y-101600000D02*
X150296010Y-101600000D01*
X153395028Y-102400028D02*
G75*
G02*
X153095028Y-102700028I-300000J0D01*
G01*
X153995028Y-102030405D02*
G75*
G03*
X153695028Y-101730405I-300000J0D01*
G01*
X153695028Y-101730405D02*
G75*
G03*
X153395028Y-102030405I0J-300000D01*
G01*
X154295028Y-102700028D02*
G75*
G02*
X153995028Y-102400028I0J300000D01*
G01*
%TO.N,/CHAN_14_IN*%
X150495000Y-104100000D02*
X148595000Y-104100000D01*
X152770014Y-104110970D02*
X152770014Y-103575014D01*
X153220014Y-103575014D02*
X153220014Y-104110970D01*
X152545014Y-103350014D02*
X151244986Y-103350014D01*
X156945052Y-103350014D02*
X153445014Y-103350014D01*
X148595000Y-104100000D02*
X147355000Y-102860000D01*
X151244986Y-103350014D02*
X150495000Y-104100000D01*
X152545014Y-103350014D02*
G75*
G02*
X152770014Y-103575014I0J-225000D01*
G01*
X152995014Y-104335970D02*
G75*
G03*
X153220014Y-104110970I0J225000D01*
G01*
X152770014Y-104110970D02*
G75*
G03*
X152995014Y-104335970I225000J0D01*
G01*
X153220014Y-103575014D02*
G75*
G02*
X153445014Y-103350014I225000J0D01*
G01*
%TO.N,/CHAN_13_IN*%
X150136713Y-106574511D02*
X148529511Y-106574511D01*
X148529511Y-106574511D02*
X147355000Y-105400000D01*
X152720489Y-106274511D02*
X152720489Y-106188443D01*
X151820489Y-106574511D02*
X150136713Y-106574511D01*
X155595000Y-104000000D02*
X153020489Y-106574511D01*
X152120489Y-106188443D02*
X152120489Y-106274511D01*
X156945052Y-104000000D02*
X155595000Y-104000000D01*
X152720489Y-106274511D02*
G75*
G03*
X153020489Y-106574511I300000J0D01*
G01*
X152120489Y-106188443D02*
G75*
G02*
X152420489Y-105888443I300000J0D01*
G01*
X152420489Y-105888443D02*
G75*
G02*
X152720489Y-106188443I0J-300000D01*
G01*
X151820489Y-106574511D02*
G75*
G03*
X152120489Y-106274511I0J300000D01*
G01*
%TO.N,/CHAN_12_IN*%
X156945052Y-104649986D02*
X155993003Y-104649986D01*
X155993003Y-104649986D02*
X151442989Y-109200000D01*
X151442989Y-109200000D02*
X148615000Y-109200000D01*
X148615000Y-109200000D02*
X147355000Y-107940000D01*
%TO.N,/CHAN_23_OUT*%
X168249857Y-81300000D02*
X171135000Y-81300000D01*
X167295000Y-80600000D02*
X167295000Y-81000000D01*
X167595000Y-81300000D02*
X168249857Y-81300000D01*
X162844948Y-82200028D02*
X163994972Y-82200028D01*
X171135000Y-81300000D02*
X172435000Y-80000000D01*
X164895000Y-81300000D02*
X166395000Y-81300000D01*
X163994972Y-82200028D02*
X164895000Y-81300000D01*
X166695000Y-81000000D02*
X166695000Y-80600000D01*
X166695000Y-81000000D02*
G75*
G02*
X166395000Y-81300000I-300000J0D01*
G01*
X167295000Y-80600000D02*
G75*
G03*
X166995000Y-80300000I-300000J0D01*
G01*
X167595000Y-81300000D02*
G75*
G02*
X167295000Y-81000000I0J300000D01*
G01*
X166995000Y-80300000D02*
G75*
G03*
X166695000Y-80600000I0J-300000D01*
G01*
%TO.N,/CHAN_22_OUT*%
X166395000Y-83800000D02*
X166345000Y-83800000D01*
X164930718Y-83800000D02*
X163980732Y-82850014D01*
X163980732Y-82850014D02*
X162844948Y-82850014D01*
X166695000Y-83100000D02*
X166695000Y-83500000D01*
X172435000Y-82540000D02*
X171175000Y-83800000D01*
X166345000Y-83800000D02*
X164930718Y-83800000D01*
X171175000Y-83800000D02*
X167595000Y-83800000D01*
X167295000Y-83500000D02*
X167295000Y-83100000D01*
X166695000Y-83100000D02*
G75*
G02*
X166995000Y-82800000I300000J0D01*
G01*
X167295000Y-83500000D02*
G75*
G03*
X167595000Y-83800000I300000J0D01*
G01*
X166395000Y-83800000D02*
G75*
G03*
X166695000Y-83500000I0J300000D01*
G01*
X166995000Y-82800000D02*
G75*
G02*
X167295000Y-83100000I0J-300000D01*
G01*
%TO.N,/CHAN_21_OUT*%
X168000746Y-86105746D02*
X168000746Y-86105745D01*
X167106492Y-86400000D02*
X167095000Y-86400000D01*
X167400746Y-86105745D02*
X167400746Y-86105746D01*
X167095000Y-86400000D02*
X166895000Y-86400000D01*
X163995000Y-83500000D02*
X162844948Y-83500000D01*
X172435000Y-85080000D02*
X171115000Y-86400000D01*
X166895000Y-86400000D02*
X163995000Y-83500000D01*
X171115000Y-86400000D02*
X168295000Y-86400000D01*
X167706492Y-85811491D02*
X167695000Y-85811491D01*
X167400746Y-86105745D02*
G75*
G02*
X167695000Y-85811491I294254J0D01*
G01*
X167106492Y-86400000D02*
G75*
G03*
X167400746Y-86105746I0J294254D01*
G01*
X167706492Y-85811491D02*
G75*
G02*
X168000746Y-86105745I0J-294254D01*
G01*
X168000746Y-86105746D02*
G75*
G03*
X168295000Y-86400000I294254J0D01*
G01*
%TO.N,/CHAN_20_OUT*%
X171155000Y-88900000D02*
X172435000Y-87620000D01*
X168695000Y-88900000D02*
X171155000Y-88900000D01*
X163944986Y-84149986D02*
X168695000Y-88900000D01*
X162844948Y-84149986D02*
X163944986Y-84149986D01*
%TO.N,/CHAN_19_OUT*%
X171195000Y-91400000D02*
X167395000Y-91400000D01*
X172435000Y-90160000D02*
X171195000Y-91400000D01*
X164695000Y-91400000D02*
X163894972Y-92200028D01*
X166195000Y-91400000D02*
X164765701Y-91400000D01*
X164765701Y-91400000D02*
X164695000Y-91400000D01*
X167095000Y-91100000D02*
X167095000Y-90700000D01*
X166495000Y-90700000D02*
X166495000Y-91100000D01*
X163894972Y-92200028D02*
X162844948Y-92200028D01*
X167095000Y-91100000D02*
G75*
G03*
X167395000Y-91400000I300000J0D01*
G01*
X166495000Y-90700000D02*
G75*
G02*
X166795000Y-90400000I300000J0D01*
G01*
X166195000Y-91400000D02*
G75*
G03*
X166495000Y-91100000I0J300000D01*
G01*
X166795000Y-90400000D02*
G75*
G02*
X167095000Y-90700000I0J-300000D01*
G01*
%TO.N,/CHAN_18_OUT*%
X171135000Y-94000000D02*
X167295000Y-94000000D01*
X172435000Y-92700000D02*
X171135000Y-94000000D01*
X166095000Y-94000000D02*
X164995000Y-94000000D01*
X166995000Y-93700000D02*
X166995000Y-93344909D01*
X163845014Y-92850014D02*
X162844948Y-92850014D01*
X166395000Y-93344909D02*
X166395000Y-93700000D01*
X164995000Y-94000000D02*
X163845014Y-92850014D01*
X166395000Y-93344909D02*
G75*
G02*
X166695000Y-93044909I300000J0D01*
G01*
X166995000Y-93700000D02*
G75*
G03*
X167295000Y-94000000I300000J0D01*
G01*
X166095000Y-94000000D02*
G75*
G03*
X166395000Y-93700000I0J300000D01*
G01*
X166695000Y-93044909D02*
G75*
G02*
X166995000Y-93344909I0J-300000D01*
G01*
%TO.N,/CHAN_17_OUT*%
X167059511Y-96414511D02*
X166711508Y-96414511D01*
X172435000Y-95240000D02*
X171260489Y-96414511D01*
X168009511Y-96114511D02*
X168009511Y-96098894D01*
X163796997Y-93500000D02*
X162844948Y-93500000D01*
X167109511Y-96414511D02*
X167059511Y-96414511D01*
X171260489Y-96414511D02*
X168309511Y-96414511D01*
X167409511Y-96098894D02*
X167409511Y-96114511D01*
X166711508Y-96414511D02*
X163796997Y-93500000D01*
X167109511Y-96414511D02*
G75*
G03*
X167409511Y-96114511I0J300000D01*
G01*
X167709511Y-95798894D02*
G75*
G02*
X168009511Y-96098894I0J-300000D01*
G01*
X168009511Y-96114511D02*
G75*
G03*
X168309511Y-96414511I300000J0D01*
G01*
X167409511Y-96098894D02*
G75*
G02*
X167709511Y-95798894I300000J0D01*
G01*
%TO.N,/CHAN_16_OUT*%
X163796997Y-94149986D02*
X168601522Y-98954511D01*
X162844948Y-94149986D02*
X163796997Y-94149986D01*
X171260489Y-98954511D02*
X172435000Y-97780000D01*
X168601522Y-98954511D02*
X171260489Y-98954511D01*
%TO.N,/CHAN_15_OUT*%
X163994972Y-102700028D02*
X162844948Y-102700028D01*
X166145000Y-101600000D02*
X165095000Y-101600000D01*
X166195000Y-101600000D02*
X166145000Y-101600000D01*
X166495000Y-100930421D02*
X166495000Y-101300000D01*
X172435000Y-100320000D02*
X171155000Y-101600000D01*
X171155000Y-101600000D02*
X167395000Y-101600000D01*
X167095000Y-101300000D02*
X167095000Y-100930421D01*
X165095000Y-101600000D02*
X163994972Y-102700028D01*
X166195000Y-101600000D02*
G75*
G03*
X166495000Y-101300000I0J300000D01*
G01*
X166495000Y-100930421D02*
G75*
G02*
X166795000Y-100630421I300000J0D01*
G01*
X166795000Y-100630421D02*
G75*
G02*
X167095000Y-100930421I0J-300000D01*
G01*
X167095000Y-101300000D02*
G75*
G03*
X167395000Y-101600000I300000J0D01*
G01*
%TO.N,/CHAN_14_OUT*%
X163945014Y-103350014D02*
X162844948Y-103350014D01*
X164695000Y-104100000D02*
X163945014Y-103350014D01*
X172435000Y-102860000D02*
X171195000Y-104100000D01*
X171195000Y-104100000D02*
X167595000Y-104100000D01*
X167295000Y-103800000D02*
X167295000Y-103350000D01*
X166395000Y-104100000D02*
X164695000Y-104100000D01*
X166695000Y-103350000D02*
X166695000Y-103800000D01*
X167295000Y-103800000D02*
G75*
G03*
X167595000Y-104100000I300000J0D01*
G01*
X166995000Y-103050000D02*
G75*
G02*
X167295000Y-103350000I0J-300000D01*
G01*
X166695000Y-103350000D02*
G75*
G02*
X166995000Y-103050000I300000J0D01*
G01*
X166395000Y-104100000D02*
G75*
G03*
X166695000Y-103800000I0J300000D01*
G01*
%TO.N,/CHAN_13_OUT*%
X166595000Y-106700000D02*
X163895000Y-104000000D01*
X163895000Y-104000000D02*
X162844948Y-104000000D01*
X168095000Y-106400000D02*
X168095000Y-106365928D01*
X167495000Y-106365928D02*
X167495000Y-106400000D01*
X167145000Y-106700000D02*
X166595000Y-106700000D01*
X172435000Y-105400000D02*
X171135000Y-106700000D01*
X171135000Y-106700000D02*
X168395000Y-106700000D01*
X167195000Y-106700000D02*
X167145000Y-106700000D01*
X167195000Y-106700000D02*
G75*
G03*
X167495000Y-106400000I0J300000D01*
G01*
X168095000Y-106400000D02*
G75*
G03*
X168395000Y-106700000I300000J0D01*
G01*
X167495000Y-106365928D02*
G75*
G02*
X167795000Y-106065928I300000J0D01*
G01*
X167795000Y-106065928D02*
G75*
G02*
X168095000Y-106365928I0J-300000D01*
G01*
%TO.N,/CHAN_12_OUT*%
X172435000Y-108160000D02*
X172435000Y-107940000D01*
X162844948Y-104649986D02*
X163723433Y-104649986D01*
X168273447Y-109200000D02*
X171395000Y-109200000D01*
X163723433Y-104649986D02*
X168273447Y-109200000D01*
X171395000Y-109200000D02*
X172435000Y-108160000D01*
%TD*%
%TA.AperFunction,Conductor*%
%TO.N,/GND*%
G36*
X155653036Y-105990023D02*
G01*
X155709872Y-106032570D01*
X155734683Y-106099090D01*
X155735004Y-106108079D01*
X155735004Y-106172027D01*
X155735374Y-106178848D01*
X155740898Y-106229710D01*
X155744524Y-106244962D01*
X155789679Y-106365412D01*
X155798217Y-106381007D01*
X155874718Y-106483082D01*
X155887279Y-106495643D01*
X155989354Y-106572144D01*
X156004949Y-106580682D01*
X156125397Y-106625836D01*
X156140652Y-106629463D01*
X156191517Y-106634989D01*
X156198331Y-106635358D01*
X156749537Y-106635358D01*
X156764776Y-106630883D01*
X156765981Y-106629493D01*
X156767652Y-106621810D01*
X156767652Y-106111872D01*
X156787654Y-106043751D01*
X156841310Y-105997258D01*
X156893652Y-105985872D01*
X156996452Y-105985872D01*
X157064573Y-106005874D01*
X157111066Y-106059530D01*
X157122452Y-106111872D01*
X157122452Y-106617242D01*
X157126927Y-106632481D01*
X157128317Y-106633686D01*
X157136000Y-106635357D01*
X157691770Y-106635357D01*
X157698591Y-106634987D01*
X157749455Y-106629463D01*
X157750683Y-106629171D01*
X157751669Y-106629222D01*
X157757308Y-106628610D01*
X157757407Y-106629522D01*
X157821583Y-106632874D01*
X157873463Y-106667444D01*
X157883747Y-106678866D01*
X157889086Y-106682745D01*
X158031902Y-106786507D01*
X158038248Y-106791118D01*
X158044276Y-106793802D01*
X158044278Y-106793803D01*
X158206681Y-106866109D01*
X158212712Y-106868794D01*
X158306113Y-106888647D01*
X158393056Y-106907128D01*
X158393061Y-106907128D01*
X158399513Y-106908500D01*
X158590487Y-106908500D01*
X158596939Y-106907128D01*
X158596944Y-106907128D01*
X158683887Y-106888647D01*
X158777288Y-106868794D01*
X158783319Y-106866109D01*
X158945722Y-106793803D01*
X158945724Y-106793802D01*
X158951752Y-106791118D01*
X158958099Y-106786507D01*
X159100914Y-106682745D01*
X159106253Y-106678866D01*
X159110668Y-106673963D01*
X159115580Y-106669540D01*
X159116705Y-106670789D01*
X159170014Y-106637949D01*
X159203200Y-106633500D01*
X159835500Y-106633500D01*
X159903621Y-106653502D01*
X159950114Y-106707158D01*
X159961500Y-106759500D01*
X159961500Y-106840500D01*
X159941498Y-106908621D01*
X159887842Y-106955114D01*
X159835500Y-106966500D01*
X159296268Y-106966500D01*
X159293022Y-106966837D01*
X159293018Y-106966837D01*
X159258917Y-106970375D01*
X159193981Y-106977113D01*
X159187440Y-106979295D01*
X159187441Y-106979295D01*
X159038676Y-107028927D01*
X159038674Y-107028928D01*
X159031732Y-107031244D01*
X159025508Y-107035096D01*
X159025507Y-107035096D01*
X159009698Y-107044879D01*
X158886287Y-107121248D01*
X158765448Y-107242298D01*
X158761608Y-107248528D01*
X158761607Y-107248529D01*
X158683009Y-107376039D01*
X158675698Y-107387899D01*
X158621851Y-107550243D01*
X158611500Y-107651268D01*
X158611500Y-108198732D01*
X158622113Y-108301019D01*
X158624295Y-108307559D01*
X158673537Y-108455153D01*
X158676244Y-108463268D01*
X158766248Y-108608713D01*
X158771430Y-108613886D01*
X158775977Y-108619623D01*
X158774170Y-108621055D01*
X158802902Y-108673575D01*
X158797892Y-108744395D01*
X158774501Y-108780853D01*
X158775552Y-108781683D01*
X158762002Y-108798840D01*
X158679996Y-108931880D01*
X158673849Y-108945061D01*
X158624509Y-109093814D01*
X158621642Y-109107190D01*
X158612328Y-109198097D01*
X158612071Y-109203126D01*
X158616475Y-109218124D01*
X158617865Y-109219329D01*
X158625548Y-109221000D01*
X160559885Y-109221000D01*
X160575124Y-109216525D01*
X160576329Y-109215135D01*
X160578000Y-109207452D01*
X160578000Y-109204562D01*
X160577663Y-109198047D01*
X160568106Y-109105943D01*
X160565212Y-109092544D01*
X160515619Y-108943893D01*
X160509445Y-108930714D01*
X160427212Y-108797827D01*
X160413629Y-108780689D01*
X160415559Y-108779159D01*
X160387097Y-108727120D01*
X160392113Y-108656301D01*
X160415799Y-108619383D01*
X160414843Y-108618628D01*
X160419381Y-108612882D01*
X160424552Y-108607702D01*
X160428393Y-108601471D01*
X160510462Y-108468331D01*
X160510463Y-108468329D01*
X160514302Y-108462101D01*
X160547340Y-108362495D01*
X160577838Y-108313066D01*
X160987258Y-107903647D01*
X160995537Y-107896113D01*
X161002018Y-107892000D01*
X161048644Y-107842348D01*
X161051398Y-107839507D01*
X161071135Y-107819770D01*
X161073615Y-107816573D01*
X161081320Y-107807551D01*
X161106159Y-107781100D01*
X161111586Y-107775321D01*
X161115405Y-107768375D01*
X161115407Y-107768372D01*
X161121348Y-107757566D01*
X161132199Y-107741047D01*
X161139758Y-107731301D01*
X161144614Y-107725041D01*
X161147759Y-107717772D01*
X161147762Y-107717768D01*
X161162174Y-107684463D01*
X161167391Y-107673813D01*
X161188695Y-107635060D01*
X161193733Y-107615437D01*
X161200137Y-107596734D01*
X161205033Y-107585420D01*
X161205033Y-107585419D01*
X161208181Y-107578145D01*
X161209420Y-107570322D01*
X161209423Y-107570312D01*
X161215099Y-107534476D01*
X161217505Y-107522856D01*
X161226528Y-107487711D01*
X161226528Y-107487710D01*
X161228500Y-107480030D01*
X161228500Y-107459776D01*
X161230051Y-107440065D01*
X161231980Y-107427886D01*
X161233220Y-107420057D01*
X161229059Y-107376038D01*
X161228500Y-107364181D01*
X161228500Y-106702524D01*
X161248502Y-106634403D01*
X161260858Y-106618221D01*
X161334040Y-106536944D01*
X161363738Y-106485507D01*
X161415120Y-106436514D01*
X161484834Y-106423079D01*
X161550745Y-106449466D01*
X161559107Y-106456656D01*
X161569637Y-106466544D01*
X161576585Y-106470363D01*
X161576587Y-106470365D01*
X161587390Y-106476304D01*
X161603917Y-106487160D01*
X161613656Y-106494715D01*
X161613658Y-106494716D01*
X161619918Y-106499572D01*
X161660498Y-106517132D01*
X161671146Y-106522349D01*
X161709898Y-106543653D01*
X161717574Y-106545624D01*
X161717577Y-106545625D01*
X161729520Y-106548691D01*
X161748225Y-106555095D01*
X161766813Y-106563139D01*
X161774636Y-106564378D01*
X161774646Y-106564381D01*
X161810482Y-106570057D01*
X161822102Y-106572463D01*
X161855849Y-106581127D01*
X161864928Y-106583458D01*
X161885186Y-106583458D01*
X161904880Y-106585007D01*
X161909746Y-106585778D01*
X161934252Y-106592241D01*
X161945977Y-106596636D01*
X162002742Y-106639276D01*
X162027443Y-106705837D01*
X162013679Y-106765426D01*
X162016409Y-106766641D01*
X162013725Y-106772669D01*
X162010421Y-106778392D01*
X161951406Y-106960020D01*
X161950716Y-106966581D01*
X161950716Y-106966583D01*
X161934648Y-107119468D01*
X161931444Y-107149948D01*
X161932134Y-107156513D01*
X161950529Y-107331529D01*
X161951406Y-107339876D01*
X162010421Y-107521504D01*
X162013724Y-107527226D01*
X162013725Y-107527227D01*
X162030962Y-107557082D01*
X162105908Y-107686892D01*
X162110326Y-107691799D01*
X162110327Y-107691800D01*
X162222680Y-107816581D01*
X162233695Y-107828814D01*
X162388196Y-107941066D01*
X162394224Y-107943750D01*
X162394226Y-107943751D01*
X162535366Y-108006590D01*
X162562660Y-108018742D01*
X162656060Y-108038595D01*
X162743004Y-108057076D01*
X162743009Y-108057076D01*
X162749461Y-108058448D01*
X162885500Y-108058448D01*
X162953621Y-108078450D01*
X163000114Y-108132106D01*
X163011500Y-108184448D01*
X163011500Y-108298732D01*
X163022113Y-108401019D01*
X163024295Y-108407559D01*
X163073537Y-108555153D01*
X163076244Y-108563268D01*
X163080096Y-108569492D01*
X163080096Y-108569493D01*
X163144504Y-108673575D01*
X163166248Y-108708713D01*
X163171430Y-108713886D01*
X163175977Y-108719623D01*
X163174170Y-108721055D01*
X163202902Y-108773575D01*
X163197892Y-108844395D01*
X163174501Y-108880853D01*
X163175552Y-108881683D01*
X163162002Y-108898840D01*
X163079996Y-109031880D01*
X163073849Y-109045061D01*
X163024509Y-109193814D01*
X163021642Y-109207190D01*
X163012328Y-109298097D01*
X163012071Y-109303126D01*
X163016475Y-109318124D01*
X163017865Y-109319329D01*
X163025548Y-109321000D01*
X164959885Y-109321000D01*
X164975124Y-109316525D01*
X164976329Y-109315135D01*
X164978000Y-109307452D01*
X164978000Y-109304562D01*
X164977663Y-109298047D01*
X164968106Y-109205943D01*
X164965212Y-109192544D01*
X164915619Y-109043893D01*
X164909445Y-109030714D01*
X164827212Y-108897827D01*
X164813629Y-108880689D01*
X164815559Y-108879159D01*
X164787097Y-108827120D01*
X164792113Y-108756301D01*
X164815799Y-108719383D01*
X164814843Y-108718628D01*
X164819381Y-108712882D01*
X164824552Y-108707702D01*
X164890034Y-108601471D01*
X164910462Y-108568331D01*
X164910463Y-108568329D01*
X164914302Y-108562101D01*
X164968149Y-108399757D01*
X164978500Y-108298732D01*
X164978500Y-107751268D01*
X164977440Y-107741047D01*
X164972330Y-107691800D01*
X164967887Y-107648981D01*
X164927728Y-107528611D01*
X164916073Y-107493676D01*
X164916072Y-107493674D01*
X164913756Y-107486732D01*
X164841598Y-107370125D01*
X164827606Y-107347515D01*
X164823752Y-107341287D01*
X164702702Y-107220448D01*
X164696471Y-107216607D01*
X164563331Y-107134538D01*
X164563329Y-107134537D01*
X164557101Y-107130698D01*
X164394757Y-107076851D01*
X164387920Y-107076151D01*
X164387918Y-107076150D01*
X164346599Y-107071917D01*
X164293732Y-107066500D01*
X163984595Y-107066500D01*
X163916474Y-107046498D01*
X163895500Y-107029595D01*
X163717798Y-106851893D01*
X163687060Y-106801736D01*
X163683610Y-106791118D01*
X163679475Y-106778392D01*
X163676172Y-106772671D01*
X163673488Y-106766643D01*
X163676088Y-106765486D01*
X163662289Y-106708639D01*
X163685501Y-106641544D01*
X163743919Y-106596636D01*
X163785290Y-106581127D01*
X163785293Y-106581125D01*
X163793702Y-106577973D01*
X163910258Y-106490619D01*
X163997612Y-106374063D01*
X164048742Y-106237674D01*
X164055497Y-106175492D01*
X164055497Y-106174545D01*
X164078994Y-106108052D01*
X164135084Y-106064527D01*
X164205801Y-106058236D01*
X164270250Y-106092707D01*
X167769790Y-109592247D01*
X167777334Y-109600537D01*
X167781447Y-109607018D01*
X167787224Y-109612443D01*
X167831114Y-109653658D01*
X167833956Y-109656413D01*
X167853678Y-109676135D01*
X167856802Y-109678558D01*
X167856806Y-109678562D01*
X167856871Y-109678612D01*
X167865892Y-109686317D01*
X167898126Y-109716586D01*
X167905074Y-109720405D01*
X167905076Y-109720407D01*
X167915879Y-109726346D01*
X167932406Y-109737202D01*
X167942145Y-109744757D01*
X167942147Y-109744758D01*
X167948407Y-109749614D01*
X167988987Y-109767174D01*
X167999635Y-109772391D01*
X168024423Y-109786018D01*
X168038387Y-109793695D01*
X168046063Y-109795666D01*
X168046066Y-109795667D01*
X168058009Y-109798733D01*
X168076714Y-109805137D01*
X168095302Y-109813181D01*
X168103125Y-109814420D01*
X168103135Y-109814423D01*
X168138971Y-109820099D01*
X168150591Y-109822505D01*
X168182398Y-109830671D01*
X168193417Y-109833500D01*
X168213671Y-109833500D01*
X168233381Y-109835051D01*
X168253390Y-109838220D01*
X168261282Y-109837474D01*
X168280027Y-109835702D01*
X168297409Y-109834059D01*
X168309266Y-109833500D01*
X168600741Y-109833500D01*
X168668862Y-109853502D01*
X168715355Y-109907158D01*
X168725459Y-109977432D01*
X168718992Y-110003005D01*
X168714776Y-110014464D01*
X168659389Y-110214183D01*
X168660912Y-110222607D01*
X168673292Y-110226000D01*
X172663000Y-110226000D01*
X172731121Y-110246002D01*
X172777614Y-110299658D01*
X172789000Y-110352000D01*
X172789000Y-110608000D01*
X172768998Y-110676121D01*
X172715342Y-110722614D01*
X172663000Y-110734000D01*
X168678225Y-110734000D01*
X168664694Y-110737973D01*
X168663257Y-110747966D01*
X168693565Y-110882446D01*
X168696645Y-110892275D01*
X168776770Y-111089603D01*
X168781413Y-111098794D01*
X168892694Y-111280388D01*
X168898777Y-111288699D01*
X169038213Y-111449667D01*
X169045580Y-111456883D01*
X169209434Y-111592916D01*
X169217881Y-111598831D01*
X169286969Y-111639203D01*
X169335693Y-111690842D01*
X169348764Y-111760625D01*
X169322033Y-111826396D01*
X169281584Y-111859752D01*
X169268607Y-111866507D01*
X169264474Y-111869610D01*
X169264471Y-111869612D01*
X169111701Y-111984315D01*
X169089965Y-112000635D01*
X168935629Y-112162138D01*
X168932720Y-112166403D01*
X168932714Y-112166411D01*
X168833738Y-112311504D01*
X168778827Y-112356507D01*
X168729650Y-112366500D01*
X151158867Y-112366500D01*
X151090746Y-112346498D01*
X151053075Y-112308940D01*
X150977822Y-112192617D01*
X150977820Y-112192614D01*
X150975014Y-112188277D01*
X150824670Y-112023051D01*
X150820619Y-112019852D01*
X150820615Y-112019848D01*
X150653414Y-111887800D01*
X150653410Y-111887798D01*
X150649359Y-111884598D01*
X150607569Y-111861529D01*
X150557598Y-111811097D01*
X150542826Y-111741654D01*
X150567942Y-111675248D01*
X150595294Y-111648641D01*
X150770328Y-111523792D01*
X150778200Y-111517139D01*
X150929052Y-111366812D01*
X150935730Y-111358965D01*
X151060003Y-111186020D01*
X151065313Y-111177183D01*
X151159670Y-110986267D01*
X151163469Y-110976672D01*
X151225377Y-110772910D01*
X151227555Y-110762837D01*
X151228986Y-110751962D01*
X151226775Y-110737778D01*
X151213617Y-110734000D01*
X147227000Y-110734000D01*
X147158879Y-110713998D01*
X147112386Y-110660342D01*
X147101000Y-110608000D01*
X147101000Y-110352000D01*
X147121002Y-110283879D01*
X147174658Y-110237386D01*
X147227000Y-110226000D01*
X151213344Y-110226000D01*
X151226875Y-110222027D01*
X151228180Y-110212947D01*
X151186214Y-110045875D01*
X151182892Y-110036118D01*
X151171424Y-110009743D01*
X151162603Y-109939296D01*
X151193269Y-109875264D01*
X151253686Y-109837977D01*
X151286973Y-109833500D01*
X151364222Y-109833500D01*
X151375405Y-109834027D01*
X151382898Y-109835702D01*
X151390824Y-109835453D01*
X151390825Y-109835453D01*
X151450975Y-109833562D01*
X151454934Y-109833500D01*
X151482845Y-109833500D01*
X151486780Y-109833003D01*
X151486845Y-109832995D01*
X151498682Y-109832062D01*
X151530940Y-109831048D01*
X151534959Y-109830922D01*
X151542878Y-109830673D01*
X151562332Y-109825021D01*
X151581689Y-109821013D01*
X151593919Y-109819468D01*
X151593920Y-109819468D01*
X151601786Y-109818474D01*
X151609157Y-109815555D01*
X151609159Y-109815555D01*
X151642901Y-109802196D01*
X151654131Y-109798351D01*
X151688972Y-109788229D01*
X151688973Y-109788229D01*
X151696582Y-109786018D01*
X151703401Y-109781985D01*
X151703406Y-109781983D01*
X151714017Y-109775707D01*
X151731765Y-109767012D01*
X151750606Y-109759552D01*
X151770033Y-109745438D01*
X158612000Y-109745438D01*
X158612337Y-109751953D01*
X158621894Y-109844057D01*
X158624788Y-109857456D01*
X158674381Y-110006107D01*
X158680555Y-110019286D01*
X158762788Y-110152173D01*
X158771824Y-110163574D01*
X158882429Y-110273986D01*
X158893840Y-110282998D01*
X159026880Y-110365004D01*
X159040061Y-110371151D01*
X159188814Y-110420491D01*
X159202190Y-110423358D01*
X159293097Y-110432672D01*
X159299513Y-110433000D01*
X159322885Y-110433000D01*
X159338124Y-110428525D01*
X159339329Y-110427135D01*
X159341000Y-110419452D01*
X159341000Y-110414885D01*
X159849000Y-110414885D01*
X159853475Y-110430124D01*
X159854865Y-110431329D01*
X159862548Y-110433000D01*
X159890438Y-110433000D01*
X159896953Y-110432663D01*
X159989057Y-110423106D01*
X160002456Y-110420212D01*
X160151107Y-110370619D01*
X160164286Y-110364445D01*
X160297173Y-110282212D01*
X160308574Y-110273176D01*
X160418986Y-110162571D01*
X160427998Y-110151160D01*
X160510004Y-110018120D01*
X160516151Y-110004939D01*
X160565491Y-109856186D01*
X160567795Y-109845438D01*
X163012000Y-109845438D01*
X163012337Y-109851953D01*
X163021894Y-109944057D01*
X163024788Y-109957456D01*
X163074381Y-110106107D01*
X163080555Y-110119286D01*
X163162788Y-110252173D01*
X163171824Y-110263574D01*
X163282429Y-110373986D01*
X163293840Y-110382998D01*
X163426880Y-110465004D01*
X163440061Y-110471151D01*
X163588814Y-110520491D01*
X163602190Y-110523358D01*
X163693097Y-110532672D01*
X163699513Y-110533000D01*
X163722885Y-110533000D01*
X163738124Y-110528525D01*
X163739329Y-110527135D01*
X163741000Y-110519452D01*
X163741000Y-110514885D01*
X164249000Y-110514885D01*
X164253475Y-110530124D01*
X164254865Y-110531329D01*
X164262548Y-110533000D01*
X164290438Y-110533000D01*
X164296953Y-110532663D01*
X164389057Y-110523106D01*
X164402456Y-110520212D01*
X164551107Y-110470619D01*
X164564286Y-110464445D01*
X164697173Y-110382212D01*
X164708574Y-110373176D01*
X164818986Y-110262571D01*
X164827998Y-110251160D01*
X164910004Y-110118120D01*
X164916151Y-110104939D01*
X164965491Y-109956186D01*
X164968358Y-109942810D01*
X164977672Y-109851903D01*
X164977929Y-109846874D01*
X164973525Y-109831876D01*
X164972135Y-109830671D01*
X164964452Y-109829000D01*
X164267115Y-109829000D01*
X164251876Y-109833475D01*
X164250671Y-109834865D01*
X164249000Y-109842548D01*
X164249000Y-110514885D01*
X163741000Y-110514885D01*
X163741000Y-109847115D01*
X163736525Y-109831876D01*
X163735135Y-109830671D01*
X163727452Y-109829000D01*
X163030115Y-109829000D01*
X163014876Y-109833475D01*
X163013671Y-109834865D01*
X163012000Y-109842548D01*
X163012000Y-109845438D01*
X160567795Y-109845438D01*
X160568358Y-109842810D01*
X160577672Y-109751903D01*
X160577929Y-109746874D01*
X160573525Y-109731876D01*
X160572135Y-109730671D01*
X160564452Y-109729000D01*
X159867115Y-109729000D01*
X159851876Y-109733475D01*
X159850671Y-109734865D01*
X159849000Y-109742548D01*
X159849000Y-110414885D01*
X159341000Y-110414885D01*
X159341000Y-109747115D01*
X159336525Y-109731876D01*
X159335135Y-109730671D01*
X159327452Y-109729000D01*
X158630115Y-109729000D01*
X158614876Y-109733475D01*
X158613671Y-109734865D01*
X158612000Y-109742548D01*
X158612000Y-109745438D01*
X151770033Y-109745438D01*
X151786376Y-109733564D01*
X151796296Y-109727048D01*
X151827524Y-109708580D01*
X151827527Y-109708578D01*
X151834351Y-109704542D01*
X151848672Y-109690221D01*
X151863706Y-109677380D01*
X151865420Y-109676135D01*
X151880096Y-109665472D01*
X151908287Y-109631395D01*
X151916277Y-109622616D01*
X155519909Y-106018984D01*
X155582221Y-105984958D01*
X155653036Y-105990023D01*
G37*
%TD.AperFunction*%
%TA.AperFunction,Conductor*%
G36*
X155653036Y-95490023D02*
G01*
X155709872Y-95532570D01*
X155734683Y-95599090D01*
X155735004Y-95608079D01*
X155735004Y-95672027D01*
X155735374Y-95678848D01*
X155740898Y-95729710D01*
X155744524Y-95744962D01*
X155789679Y-95865412D01*
X155798217Y-95881007D01*
X155874718Y-95983082D01*
X155887279Y-95995643D01*
X155989354Y-96072144D01*
X156004949Y-96080682D01*
X156125397Y-96125836D01*
X156140652Y-96129463D01*
X156191517Y-96134989D01*
X156198331Y-96135358D01*
X156749537Y-96135358D01*
X156764776Y-96130883D01*
X156765981Y-96129493D01*
X156767652Y-96121810D01*
X156767652Y-95611872D01*
X156787654Y-95543751D01*
X156841310Y-95497258D01*
X156893652Y-95485872D01*
X156996452Y-95485872D01*
X157064573Y-95505874D01*
X157111066Y-95559530D01*
X157122452Y-95611872D01*
X157122452Y-96117242D01*
X157126927Y-96132481D01*
X157128317Y-96133686D01*
X157136000Y-96135357D01*
X157691770Y-96135357D01*
X157698591Y-96134987D01*
X157749453Y-96129463D01*
X157764708Y-96125836D01*
X157822415Y-96104203D01*
X157893222Y-96099020D01*
X157940705Y-96120249D01*
X158032906Y-96187237D01*
X158038248Y-96191118D01*
X158044276Y-96193802D01*
X158044278Y-96193803D01*
X158197133Y-96261858D01*
X158212712Y-96268794D01*
X158306113Y-96288647D01*
X158393056Y-96307128D01*
X158393061Y-96307128D01*
X158399513Y-96308500D01*
X158590487Y-96308500D01*
X158596939Y-96307128D01*
X158596944Y-96307128D01*
X158683888Y-96288647D01*
X158777288Y-96268794D01*
X158792867Y-96261858D01*
X158945722Y-96193803D01*
X158945724Y-96193802D01*
X158951752Y-96191118D01*
X159028319Y-96135489D01*
X159100914Y-96082745D01*
X159106253Y-96078866D01*
X159110668Y-96073963D01*
X159115580Y-96069540D01*
X159116705Y-96070789D01*
X159170014Y-96037949D01*
X159203200Y-96033500D01*
X159835500Y-96033500D01*
X159903621Y-96053502D01*
X159950114Y-96107158D01*
X159961500Y-96159500D01*
X159961500Y-96981597D01*
X159941498Y-97049718D01*
X159887842Y-97096211D01*
X159817568Y-97106315D01*
X159769382Y-97088856D01*
X159763117Y-97084994D01*
X159749939Y-97078849D01*
X159601186Y-97029509D01*
X159587810Y-97026642D01*
X159496903Y-97017328D01*
X159491874Y-97017071D01*
X159476876Y-97021475D01*
X159475671Y-97022865D01*
X159474000Y-97030548D01*
X159474000Y-98982225D01*
X159453998Y-99050346D01*
X159437173Y-99071243D01*
X159421011Y-99087433D01*
X159412003Y-99098839D01*
X159329996Y-99231880D01*
X159323849Y-99245061D01*
X159274509Y-99393814D01*
X159271642Y-99407190D01*
X159262328Y-99498097D01*
X159262000Y-99504514D01*
X159262000Y-99527885D01*
X159266475Y-99543124D01*
X159267865Y-99544329D01*
X159275548Y-99546000D01*
X160348000Y-99546000D01*
X160416121Y-99566002D01*
X160462614Y-99619658D01*
X160474000Y-99672000D01*
X160474000Y-100764885D01*
X160478475Y-100780124D01*
X160479865Y-100781329D01*
X160487548Y-100783000D01*
X160490438Y-100783000D01*
X160496953Y-100782663D01*
X160589057Y-100773106D01*
X160602456Y-100770212D01*
X160751107Y-100720619D01*
X160764286Y-100714445D01*
X160897173Y-100632212D01*
X160914311Y-100618629D01*
X160915841Y-100620559D01*
X160967880Y-100592097D01*
X161038699Y-100597113D01*
X161075617Y-100620799D01*
X161076372Y-100619843D01*
X161082117Y-100624380D01*
X161087298Y-100629552D01*
X161093530Y-100633394D01*
X161093532Y-100633395D01*
X161101617Y-100638379D01*
X161149110Y-100691152D01*
X161161500Y-100745638D01*
X161161500Y-101721233D01*
X161160973Y-101732416D01*
X161159298Y-101739909D01*
X161159547Y-101747835D01*
X161159547Y-101747836D01*
X161161438Y-101807986D01*
X161161500Y-101811945D01*
X161161500Y-102040224D01*
X161159949Y-102059934D01*
X161156780Y-102079943D01*
X161157526Y-102087835D01*
X161160941Y-102123961D01*
X161161500Y-102135819D01*
X161161500Y-102240224D01*
X161159949Y-102259934D01*
X161156780Y-102279943D01*
X161157526Y-102287835D01*
X161160941Y-102323961D01*
X161161500Y-102335819D01*
X161161500Y-105063722D01*
X161141498Y-105131843D01*
X161087842Y-105178336D01*
X161017568Y-105188440D01*
X160984253Y-105178829D01*
X160907304Y-105144570D01*
X160883319Y-105133891D01*
X160883318Y-105133891D01*
X160877288Y-105131206D01*
X160783888Y-105111353D01*
X160696944Y-105092872D01*
X160696939Y-105092872D01*
X160690487Y-105091500D01*
X160499513Y-105091500D01*
X160493061Y-105092872D01*
X160493056Y-105092872D01*
X160406112Y-105111353D01*
X160312712Y-105131206D01*
X160306682Y-105133891D01*
X160306681Y-105133891D01*
X160144278Y-105206197D01*
X160144276Y-105206198D01*
X160138248Y-105208882D01*
X160132907Y-105212762D01*
X160132906Y-105212763D01*
X160076197Y-105253965D01*
X159983747Y-105321134D01*
X159979332Y-105326037D01*
X159974420Y-105330460D01*
X159973295Y-105329211D01*
X159919986Y-105362051D01*
X159886800Y-105366500D01*
X159254500Y-105366500D01*
X159186379Y-105346498D01*
X159139886Y-105292842D01*
X159128500Y-105240500D01*
X159128500Y-102478763D01*
X159129027Y-102467579D01*
X159130701Y-102460091D01*
X159128562Y-102392032D01*
X159128500Y-102388075D01*
X159128500Y-102360144D01*
X159127994Y-102356138D01*
X159127061Y-102344292D01*
X159125922Y-102308037D01*
X159125673Y-102300110D01*
X159120022Y-102280658D01*
X159116014Y-102261306D01*
X159114466Y-102249058D01*
X159113474Y-102241203D01*
X159110556Y-102233832D01*
X159097200Y-102200097D01*
X159093355Y-102188870D01*
X159088373Y-102171722D01*
X159081018Y-102146407D01*
X159076984Y-102139585D01*
X159076981Y-102139579D01*
X159070706Y-102128968D01*
X159062010Y-102111218D01*
X159057472Y-102099756D01*
X159057469Y-102099751D01*
X159054552Y-102092383D01*
X159038343Y-102070073D01*
X159028573Y-102056625D01*
X159022057Y-102046707D01*
X159003575Y-102015457D01*
X158999542Y-102008637D01*
X158985218Y-101994313D01*
X158972376Y-101979278D01*
X158960472Y-101962893D01*
X158926406Y-101934711D01*
X158917627Y-101926722D01*
X158648694Y-101657789D01*
X158641154Y-101649503D01*
X158637042Y-101643024D01*
X158587390Y-101596398D01*
X158584549Y-101593644D01*
X158564812Y-101573907D01*
X158561615Y-101571427D01*
X158552593Y-101563722D01*
X158550623Y-101561872D01*
X158520363Y-101533456D01*
X158513417Y-101529637D01*
X158513414Y-101529635D01*
X158502608Y-101523694D01*
X158486089Y-101512843D01*
X158485625Y-101512483D01*
X158470083Y-101500428D01*
X158462814Y-101497283D01*
X158462810Y-101497280D01*
X158429505Y-101482868D01*
X158418855Y-101477651D01*
X158380102Y-101456347D01*
X158360479Y-101451309D01*
X158341776Y-101444905D01*
X158330462Y-101440009D01*
X158330461Y-101440009D01*
X158323187Y-101436861D01*
X158315364Y-101435622D01*
X158315354Y-101435619D01*
X158279518Y-101429943D01*
X158267898Y-101427537D01*
X158232753Y-101418514D01*
X158232752Y-101418514D01*
X158225072Y-101416542D01*
X158204818Y-101416542D01*
X158185107Y-101414991D01*
X158172928Y-101413062D01*
X158165099Y-101411822D01*
X158157207Y-101412568D01*
X158121081Y-101415983D01*
X158109223Y-101416542D01*
X157902016Y-101416542D01*
X157857787Y-101408524D01*
X157764812Y-101373669D01*
X157764810Y-101373669D01*
X157757417Y-101370897D01*
X157749569Y-101370044D01*
X157749567Y-101370044D01*
X157698632Y-101364511D01*
X157695235Y-101364142D01*
X156194869Y-101364142D01*
X156132687Y-101370897D01*
X155996298Y-101422027D01*
X155879742Y-101509381D01*
X155792388Y-101625937D01*
X155741258Y-101762326D01*
X155734503Y-101824508D01*
X155734503Y-101940528D01*
X155714501Y-102008649D01*
X155660845Y-102055142D01*
X155608503Y-102066528D01*
X154750712Y-102066528D01*
X154682591Y-102046526D01*
X154636098Y-101992870D01*
X154625192Y-101951510D01*
X154618338Y-101873173D01*
X154617858Y-101867685D01*
X154579518Y-101724598D01*
X154577005Y-101715220D01*
X154577004Y-101715218D01*
X154575582Y-101709910D01*
X154571799Y-101701797D01*
X154508877Y-101566859D01*
X154508874Y-101566854D01*
X154506551Y-101561872D01*
X154451346Y-101483031D01*
X154416021Y-101432582D01*
X154416019Y-101432580D01*
X154412862Y-101428071D01*
X154297362Y-101312571D01*
X154270752Y-101293938D01*
X154191067Y-101238142D01*
X154163561Y-101218882D01*
X154158579Y-101216559D01*
X154158574Y-101216556D01*
X154020505Y-101152174D01*
X154020504Y-101152174D01*
X154015523Y-101149851D01*
X154010215Y-101148429D01*
X154010213Y-101148428D01*
X153863063Y-101108999D01*
X153863061Y-101108999D01*
X153857748Y-101107575D01*
X153852262Y-101107095D01*
X153852256Y-101107094D01*
X153750369Y-101098179D01*
X153743599Y-101097402D01*
X153712479Y-101092973D01*
X153712469Y-101092972D01*
X153708392Y-101092392D01*
X153701772Y-101092323D01*
X153699154Y-101092295D01*
X153699151Y-101092295D01*
X153695028Y-101092252D01*
X153690939Y-101092747D01*
X153690935Y-101092747D01*
X153664655Y-101095927D01*
X153660502Y-101096359D01*
X153617780Y-101100097D01*
X153532308Y-101107575D01*
X153476160Y-101122620D01*
X153379843Y-101148428D01*
X153379841Y-101148429D01*
X153374533Y-101149851D01*
X153369552Y-101152174D01*
X153369551Y-101152174D01*
X153231482Y-101216556D01*
X153231477Y-101216559D01*
X153226495Y-101218882D01*
X153198989Y-101238142D01*
X153119305Y-101293938D01*
X153092694Y-101312571D01*
X152977194Y-101428071D01*
X152974037Y-101432580D01*
X152974035Y-101432582D01*
X152938710Y-101483031D01*
X152883505Y-101561872D01*
X152881182Y-101566854D01*
X152881179Y-101566859D01*
X152818257Y-101701797D01*
X152814474Y-101709910D01*
X152813052Y-101715218D01*
X152813051Y-101715220D01*
X152773623Y-101862368D01*
X152772198Y-101867685D01*
X152771719Y-101873163D01*
X152767643Y-101919757D01*
X152764162Y-101940117D01*
X152761528Y-101950375D01*
X152761528Y-101956894D01*
X152733396Y-102021397D01*
X152674336Y-102060798D01*
X152636772Y-102066528D01*
X151710633Y-102066528D01*
X151642512Y-102046526D01*
X151621537Y-102029623D01*
X150951216Y-101359301D01*
X150917191Y-101296989D01*
X150922256Y-101226173D01*
X150937989Y-101196680D01*
X151060435Y-101026277D01*
X151063453Y-101022077D01*
X151067455Y-101013981D01*
X151160136Y-100826453D01*
X151160137Y-100826451D01*
X151162430Y-100821811D01*
X151224621Y-100617118D01*
X151225865Y-100613023D01*
X151225865Y-100613021D01*
X151227370Y-100608069D01*
X151256529Y-100386590D01*
X151257099Y-100363268D01*
X151258074Y-100323365D01*
X151258074Y-100323361D01*
X151258156Y-100320000D01*
X151239852Y-100097361D01*
X151239369Y-100095438D01*
X159262000Y-100095438D01*
X159262337Y-100101953D01*
X159271894Y-100194057D01*
X159274788Y-100207456D01*
X159324381Y-100356107D01*
X159330555Y-100369286D01*
X159412788Y-100502173D01*
X159421824Y-100513574D01*
X159532429Y-100623986D01*
X159543840Y-100632998D01*
X159676880Y-100715004D01*
X159690061Y-100721151D01*
X159838814Y-100770491D01*
X159852190Y-100773358D01*
X159943097Y-100782672D01*
X159948126Y-100782929D01*
X159963124Y-100778525D01*
X159964329Y-100777135D01*
X159966000Y-100769452D01*
X159966000Y-100072115D01*
X159961525Y-100056876D01*
X159960135Y-100055671D01*
X159952452Y-100054000D01*
X159280115Y-100054000D01*
X159264876Y-100058475D01*
X159263671Y-100059865D01*
X159262000Y-100067548D01*
X159262000Y-100095438D01*
X151239369Y-100095438D01*
X151185431Y-99880702D01*
X151134124Y-99762704D01*
X151125304Y-99692259D01*
X151155971Y-99628227D01*
X151216388Y-99590939D01*
X151245714Y-99586525D01*
X151280448Y-99585433D01*
X151288367Y-99585184D01*
X151307821Y-99579532D01*
X151327178Y-99575524D01*
X151339408Y-99573979D01*
X151339409Y-99573979D01*
X151347275Y-99572985D01*
X151354646Y-99570066D01*
X151354648Y-99570066D01*
X151388390Y-99556707D01*
X151399620Y-99552862D01*
X151434461Y-99542740D01*
X151434462Y-99542740D01*
X151442071Y-99540529D01*
X151448890Y-99536496D01*
X151448895Y-99536494D01*
X151459506Y-99530218D01*
X151477254Y-99521523D01*
X151496095Y-99514063D01*
X151516465Y-99499264D01*
X151531865Y-99488075D01*
X151541785Y-99481559D01*
X151573013Y-99463091D01*
X151573016Y-99463089D01*
X151579840Y-99459053D01*
X151594161Y-99444732D01*
X151609195Y-99431891D01*
X151610910Y-99430645D01*
X151625585Y-99419983D01*
X151653776Y-99385906D01*
X151661766Y-99377127D01*
X152743455Y-98295438D01*
X158262000Y-98295438D01*
X158262337Y-98301953D01*
X158271894Y-98394057D01*
X158274788Y-98407456D01*
X158324381Y-98556107D01*
X158330555Y-98569286D01*
X158412788Y-98702173D01*
X158421824Y-98713574D01*
X158532429Y-98823986D01*
X158543840Y-98832998D01*
X158676880Y-98915004D01*
X158690061Y-98921151D01*
X158838814Y-98970491D01*
X158852190Y-98973358D01*
X158943097Y-98982672D01*
X158948126Y-98982929D01*
X158963124Y-98978525D01*
X158964329Y-98977135D01*
X158966000Y-98969452D01*
X158966000Y-98272115D01*
X158961525Y-98256876D01*
X158960135Y-98255671D01*
X158952452Y-98254000D01*
X158280115Y-98254000D01*
X158264876Y-98258475D01*
X158263671Y-98259865D01*
X158262000Y-98267548D01*
X158262000Y-98295438D01*
X152743455Y-98295438D01*
X153311008Y-97727885D01*
X158262000Y-97727885D01*
X158266475Y-97743124D01*
X158267865Y-97744329D01*
X158275548Y-97746000D01*
X158947885Y-97746000D01*
X158963124Y-97741525D01*
X158964329Y-97740135D01*
X158966000Y-97732452D01*
X158966000Y-97035115D01*
X158961525Y-97019876D01*
X158960135Y-97018671D01*
X158952452Y-97017000D01*
X158949562Y-97017000D01*
X158943047Y-97017337D01*
X158850943Y-97026894D01*
X158837544Y-97029788D01*
X158688893Y-97079381D01*
X158675714Y-97085555D01*
X158542827Y-97167788D01*
X158531426Y-97176824D01*
X158421014Y-97287429D01*
X158412002Y-97298840D01*
X158329996Y-97431880D01*
X158323849Y-97445061D01*
X158274509Y-97593814D01*
X158271642Y-97607190D01*
X158262328Y-97698097D01*
X158262000Y-97704514D01*
X158262000Y-97727885D01*
X153311008Y-97727885D01*
X155519909Y-95518984D01*
X155582221Y-95484958D01*
X155653036Y-95490023D01*
G37*
%TD.AperFunction*%
%TA.AperFunction,Conductor*%
G36*
X155676624Y-84803488D02*
G01*
X155723117Y-84857144D01*
X155734503Y-84909486D01*
X155734503Y-85025506D01*
X155741258Y-85087688D01*
X155744033Y-85095092D01*
X155744465Y-85096906D01*
X155744465Y-85155206D01*
X155740897Y-85170208D01*
X155735372Y-85221072D01*
X155735003Y-85227886D01*
X155735003Y-85254443D01*
X155739478Y-85269682D01*
X155740868Y-85270887D01*
X155748551Y-85272558D01*
X155765696Y-85272558D01*
X155833817Y-85292560D01*
X155866523Y-85322995D01*
X155879742Y-85340633D01*
X155959665Y-85400532D01*
X156002180Y-85457391D01*
X156007206Y-85528210D01*
X155973146Y-85590503D01*
X155910815Y-85624493D01*
X155884100Y-85627358D01*
X155753119Y-85627358D01*
X155737880Y-85631833D01*
X155736675Y-85633223D01*
X155735004Y-85640906D01*
X155735004Y-85672027D01*
X155735374Y-85678848D01*
X155740898Y-85729710D01*
X155744524Y-85744962D01*
X155789679Y-85865412D01*
X155798217Y-85881007D01*
X155874718Y-85983082D01*
X155887279Y-85995643D01*
X155989354Y-86072144D01*
X156004949Y-86080682D01*
X156125397Y-86125836D01*
X156140652Y-86129463D01*
X156191517Y-86134989D01*
X156198331Y-86135358D01*
X156749537Y-86135358D01*
X156764776Y-86130883D01*
X156765981Y-86129493D01*
X156767652Y-86121810D01*
X156767652Y-85627358D01*
X156768209Y-85627358D01*
X156768209Y-85576373D01*
X156806593Y-85516647D01*
X156871174Y-85487154D01*
X156889105Y-85485872D01*
X156996452Y-85485872D01*
X157064573Y-85505874D01*
X157111066Y-85559530D01*
X157122452Y-85611872D01*
X157122452Y-86117242D01*
X157126927Y-86132481D01*
X157128317Y-86133686D01*
X157136000Y-86135357D01*
X157691770Y-86135357D01*
X157698591Y-86134987D01*
X157749453Y-86129463D01*
X157764708Y-86125836D01*
X157822415Y-86104203D01*
X157893222Y-86099020D01*
X157940705Y-86120249D01*
X158012786Y-86172619D01*
X158038248Y-86191118D01*
X158044276Y-86193802D01*
X158044278Y-86193803D01*
X158146862Y-86239476D01*
X158212712Y-86268794D01*
X158306113Y-86288647D01*
X158393056Y-86307128D01*
X158393061Y-86307128D01*
X158399513Y-86308500D01*
X158590487Y-86308500D01*
X158596939Y-86307128D01*
X158596944Y-86307128D01*
X158683888Y-86288647D01*
X158777288Y-86268794D01*
X158843138Y-86239476D01*
X158945722Y-86193803D01*
X158945724Y-86193802D01*
X158951752Y-86191118D01*
X159021488Y-86140452D01*
X159100914Y-86082745D01*
X159106253Y-86078866D01*
X159110668Y-86073963D01*
X159115580Y-86069540D01*
X159116705Y-86070789D01*
X159170014Y-86037949D01*
X159203200Y-86033500D01*
X159810500Y-86033500D01*
X159878621Y-86053502D01*
X159925114Y-86107158D01*
X159936500Y-86159500D01*
X159936500Y-86971621D01*
X159916498Y-87039742D01*
X159890106Y-87068884D01*
X159886287Y-87071248D01*
X159881112Y-87076432D01*
X159875376Y-87080978D01*
X159873944Y-87079171D01*
X159821425Y-87107902D01*
X159750605Y-87102892D01*
X159714147Y-87079501D01*
X159713317Y-87080552D01*
X159696160Y-87067002D01*
X159563120Y-86984996D01*
X159549939Y-86978849D01*
X159401186Y-86929509D01*
X159387810Y-86926642D01*
X159296903Y-86917328D01*
X159291874Y-86917071D01*
X159276876Y-86921475D01*
X159275671Y-86922865D01*
X159274000Y-86930548D01*
X159274000Y-88797000D01*
X159253998Y-88865121D01*
X159200342Y-88911614D01*
X159169548Y-88918313D01*
X159134310Y-88928659D01*
X159128951Y-88934121D01*
X159123849Y-88945061D01*
X159074509Y-89093814D01*
X159071642Y-89107190D01*
X159062328Y-89198097D01*
X159062000Y-89204514D01*
X159062000Y-89227885D01*
X159066475Y-89243124D01*
X159067865Y-89244329D01*
X159075548Y-89246000D01*
X160148000Y-89246000D01*
X160216121Y-89266002D01*
X160262614Y-89319658D01*
X160274000Y-89372000D01*
X160274000Y-90464885D01*
X160278475Y-90480124D01*
X160279865Y-90481329D01*
X160287548Y-90483000D01*
X160290438Y-90483000D01*
X160296953Y-90482663D01*
X160389057Y-90473106D01*
X160402456Y-90470212D01*
X160551107Y-90420619D01*
X160564286Y-90414445D01*
X160697173Y-90332212D01*
X160714311Y-90318629D01*
X160715841Y-90320559D01*
X160767880Y-90292097D01*
X160838699Y-90297113D01*
X160875617Y-90320799D01*
X160876372Y-90319843D01*
X160882118Y-90324381D01*
X160887298Y-90329552D01*
X160893528Y-90333392D01*
X160893529Y-90333393D01*
X161025020Y-90414445D01*
X161032899Y-90419302D01*
X161074281Y-90433028D01*
X161075168Y-90433322D01*
X161133528Y-90473753D01*
X161160764Y-90539318D01*
X161161500Y-90552915D01*
X161161500Y-91221233D01*
X161160973Y-91232416D01*
X161159298Y-91239909D01*
X161159547Y-91247835D01*
X161159547Y-91247836D01*
X161161438Y-91307986D01*
X161161500Y-91311945D01*
X161161500Y-91421233D01*
X161160973Y-91432416D01*
X161159298Y-91439909D01*
X161159547Y-91447833D01*
X161159547Y-91447835D01*
X161161438Y-91507976D01*
X161161500Y-91511935D01*
X161161500Y-91740224D01*
X161159949Y-91759934D01*
X161156780Y-91779943D01*
X161157526Y-91787835D01*
X161160941Y-91823961D01*
X161161500Y-91835819D01*
X161161500Y-94363722D01*
X161141498Y-94431843D01*
X161087842Y-94478336D01*
X161017568Y-94488440D01*
X160984253Y-94478829D01*
X160877288Y-94431206D01*
X160783887Y-94411353D01*
X160696944Y-94392872D01*
X160696939Y-94392872D01*
X160690487Y-94391500D01*
X160499513Y-94391500D01*
X160493061Y-94392872D01*
X160493056Y-94392872D01*
X160406113Y-94411353D01*
X160312712Y-94431206D01*
X160306682Y-94433891D01*
X160306681Y-94433891D01*
X160144278Y-94506197D01*
X160144276Y-94506198D01*
X160138248Y-94508882D01*
X160132907Y-94512762D01*
X160132906Y-94512763D01*
X160090418Y-94543633D01*
X159983747Y-94621134D01*
X159979326Y-94626044D01*
X159979325Y-94626045D01*
X159890397Y-94724810D01*
X159829951Y-94762050D01*
X159796761Y-94766500D01*
X159254500Y-94766500D01*
X159186379Y-94746498D01*
X159139886Y-94692842D01*
X159128500Y-94640500D01*
X159128500Y-92078768D01*
X159129027Y-92067585D01*
X159130702Y-92060092D01*
X159130013Y-92038153D01*
X159128562Y-91992002D01*
X159128500Y-91988044D01*
X159128500Y-91960144D01*
X159127996Y-91956153D01*
X159127063Y-91944311D01*
X159125923Y-91908036D01*
X159125674Y-91900111D01*
X159123462Y-91892497D01*
X159123461Y-91892492D01*
X159120023Y-91880659D01*
X159116012Y-91861295D01*
X159114467Y-91849064D01*
X159113474Y-91841203D01*
X159110557Y-91833836D01*
X159110556Y-91833831D01*
X159097198Y-91800092D01*
X159093354Y-91788865D01*
X159083230Y-91754022D01*
X159081018Y-91746407D01*
X159070707Y-91728972D01*
X159062012Y-91711224D01*
X159054552Y-91692383D01*
X159028564Y-91656613D01*
X159022048Y-91646693D01*
X159003580Y-91615465D01*
X159003578Y-91615462D01*
X158999542Y-91608638D01*
X158985221Y-91594317D01*
X158972380Y-91579283D01*
X158965132Y-91569307D01*
X158960472Y-91562893D01*
X158926407Y-91534712D01*
X158917626Y-91526722D01*
X158548688Y-91157783D01*
X158541155Y-91149505D01*
X158537042Y-91143024D01*
X158530616Y-91136989D01*
X158487407Y-91096415D01*
X158484561Y-91093657D01*
X158467613Y-91076708D01*
X158464812Y-91073907D01*
X158461615Y-91071427D01*
X158452593Y-91063722D01*
X158426142Y-91038883D01*
X158420363Y-91033456D01*
X158413417Y-91029637D01*
X158413414Y-91029635D01*
X158402608Y-91023694D01*
X158386089Y-91012843D01*
X158385625Y-91012483D01*
X158370083Y-91000428D01*
X158362814Y-90997283D01*
X158362810Y-90997280D01*
X158329505Y-90982868D01*
X158318855Y-90977651D01*
X158280102Y-90956347D01*
X158260479Y-90951309D01*
X158241776Y-90944905D01*
X158230462Y-90940009D01*
X158230461Y-90940009D01*
X158223187Y-90936861D01*
X158215364Y-90935622D01*
X158215354Y-90935619D01*
X158179518Y-90929943D01*
X158167898Y-90927537D01*
X158132753Y-90918514D01*
X158132752Y-90918514D01*
X158125072Y-90916542D01*
X158104818Y-90916542D01*
X158085107Y-90914991D01*
X158072928Y-90913062D01*
X158065099Y-90911822D01*
X158057207Y-90912568D01*
X158021081Y-90915983D01*
X158009223Y-90916542D01*
X157902016Y-90916542D01*
X157857787Y-90908524D01*
X157764812Y-90873669D01*
X157764810Y-90873669D01*
X157757417Y-90870897D01*
X157749569Y-90870044D01*
X157749567Y-90870044D01*
X157698632Y-90864511D01*
X157695235Y-90864142D01*
X156194869Y-90864142D01*
X156132687Y-90870897D01*
X155996298Y-90922027D01*
X155879742Y-91009381D01*
X155792388Y-91125937D01*
X155741258Y-91262326D01*
X155734503Y-91324508D01*
X155734503Y-91440528D01*
X155714501Y-91508649D01*
X155660845Y-91555142D01*
X155608503Y-91566528D01*
X154308420Y-91566528D01*
X154240299Y-91546526D01*
X154193806Y-91492870D01*
X154183937Y-91452822D01*
X154183181Y-91452913D01*
X154181315Y-91437491D01*
X154181010Y-91434706D01*
X154180851Y-91433093D01*
X154165745Y-91279715D01*
X154163949Y-91273795D01*
X154163948Y-91273789D01*
X154121525Y-91133938D01*
X154115226Y-91113174D01*
X154105682Y-91095317D01*
X154036105Y-90965148D01*
X154036104Y-90965147D01*
X154033187Y-90959689D01*
X153922780Y-90825158D01*
X153788249Y-90714751D01*
X153699994Y-90667578D01*
X153640220Y-90635628D01*
X153640218Y-90635627D01*
X153634764Y-90632712D01*
X153567454Y-90612294D01*
X153474149Y-90583990D01*
X153474143Y-90583989D01*
X153468223Y-90582193D01*
X153346567Y-90570211D01*
X153341206Y-90569567D01*
X153316565Y-90566060D01*
X153312471Y-90565477D01*
X153312469Y-90565477D01*
X153308395Y-90564897D01*
X153295031Y-90564757D01*
X153295025Y-90564757D01*
X153279596Y-90566624D01*
X153276840Y-90566926D01*
X153186866Y-90575788D01*
X153121833Y-90582193D01*
X153115913Y-90583989D01*
X153115907Y-90583990D01*
X153022602Y-90612294D01*
X152955292Y-90632712D01*
X152949838Y-90635627D01*
X152949836Y-90635628D01*
X152890062Y-90667578D01*
X152801807Y-90714751D01*
X152667276Y-90825158D01*
X152556869Y-90959689D01*
X152553952Y-90965147D01*
X152553951Y-90965148D01*
X152484375Y-91095317D01*
X152474830Y-91113174D01*
X152468531Y-91133938D01*
X152426108Y-91273789D01*
X152426107Y-91273795D01*
X152424311Y-91279715D01*
X152420234Y-91321111D01*
X152418328Y-91340463D01*
X152414976Y-91359448D01*
X152413500Y-91365196D01*
X152413499Y-91365202D01*
X152411528Y-91372880D01*
X152411528Y-91398917D01*
X152410271Y-91416670D01*
X152408492Y-91429174D01*
X152407015Y-91439549D01*
X152406972Y-91443672D01*
X152406659Y-91447785D01*
X152405212Y-91447675D01*
X152386279Y-91509752D01*
X152332141Y-91555682D01*
X152280998Y-91566528D01*
X151370633Y-91566528D01*
X151302512Y-91546526D01*
X151281537Y-91529623D01*
X150951216Y-91199301D01*
X150917191Y-91136989D01*
X150922256Y-91066173D01*
X150937989Y-91036680D01*
X151057814Y-90869924D01*
X151063453Y-90862077D01*
X151075585Y-90837531D01*
X151160136Y-90666453D01*
X151160137Y-90666451D01*
X151162430Y-90661811D01*
X151220558Y-90470491D01*
X151225865Y-90453023D01*
X151225865Y-90453021D01*
X151227370Y-90448069D01*
X151256529Y-90226590D01*
X151258156Y-90160000D01*
X151239852Y-89937361D01*
X151204203Y-89795438D01*
X159062000Y-89795438D01*
X159062337Y-89801953D01*
X159071894Y-89894057D01*
X159074788Y-89907456D01*
X159124381Y-90056107D01*
X159130555Y-90069286D01*
X159212788Y-90202173D01*
X159221824Y-90213574D01*
X159332429Y-90323986D01*
X159343840Y-90332998D01*
X159476880Y-90415004D01*
X159490061Y-90421151D01*
X159638814Y-90470491D01*
X159652190Y-90473358D01*
X159743097Y-90482672D01*
X159748126Y-90482929D01*
X159763124Y-90478525D01*
X159764329Y-90477135D01*
X159766000Y-90469452D01*
X159766000Y-89772115D01*
X159761525Y-89756876D01*
X159760135Y-89755671D01*
X159752452Y-89754000D01*
X159080115Y-89754000D01*
X159064876Y-89758475D01*
X159063671Y-89759865D01*
X159062000Y-89767548D01*
X159062000Y-89795438D01*
X151204203Y-89795438D01*
X151185431Y-89720702D01*
X151096354Y-89515840D01*
X151028632Y-89411158D01*
X150977824Y-89332620D01*
X150977822Y-89332617D01*
X150975014Y-89328277D01*
X150967172Y-89319658D01*
X150945676Y-89296035D01*
X150914624Y-89232189D01*
X150923019Y-89161690D01*
X150949774Y-89122140D01*
X151876477Y-88195438D01*
X158062000Y-88195438D01*
X158062337Y-88201953D01*
X158071894Y-88294057D01*
X158074788Y-88307456D01*
X158124381Y-88456107D01*
X158130555Y-88469286D01*
X158212788Y-88602173D01*
X158221824Y-88613574D01*
X158332429Y-88723986D01*
X158343840Y-88732998D01*
X158476880Y-88815004D01*
X158490061Y-88821151D01*
X158638814Y-88870491D01*
X158652190Y-88873358D01*
X158743097Y-88882672D01*
X158748126Y-88882929D01*
X158763124Y-88878525D01*
X158764329Y-88877135D01*
X158766000Y-88869452D01*
X158766000Y-88172115D01*
X158761525Y-88156876D01*
X158760135Y-88155671D01*
X158752452Y-88154000D01*
X158080115Y-88154000D01*
X158064876Y-88158475D01*
X158063671Y-88159865D01*
X158062000Y-88167548D01*
X158062000Y-88195438D01*
X151876477Y-88195438D01*
X152444030Y-87627885D01*
X158062000Y-87627885D01*
X158066475Y-87643124D01*
X158067865Y-87644329D01*
X158075548Y-87646000D01*
X158747885Y-87646000D01*
X158763124Y-87641525D01*
X158764329Y-87640135D01*
X158766000Y-87632452D01*
X158766000Y-86935115D01*
X158761525Y-86919876D01*
X158760135Y-86918671D01*
X158752452Y-86917000D01*
X158749562Y-86917000D01*
X158743047Y-86917337D01*
X158650943Y-86926894D01*
X158637544Y-86929788D01*
X158488893Y-86979381D01*
X158475714Y-86985555D01*
X158342827Y-87067788D01*
X158331426Y-87076824D01*
X158221014Y-87187429D01*
X158212002Y-87198840D01*
X158129996Y-87331880D01*
X158123849Y-87345061D01*
X158074509Y-87493814D01*
X158071642Y-87507190D01*
X158062328Y-87598097D01*
X158062000Y-87604514D01*
X158062000Y-87627885D01*
X152444030Y-87627885D01*
X153080854Y-86991061D01*
X155251524Y-84820391D01*
X155313836Y-84786365D01*
X155340619Y-84783486D01*
X155608503Y-84783486D01*
X155676624Y-84803488D01*
G37*
%TD.AperFunction*%
%TD*%
M02*
