M48
; DRILL file {KiCad (6.0.1)} date Wed Jul 20 18:19:18 2022
; FORMAT={-:-/ absolute / inch / decimal}
; #@! TF.CreationDate,2022-07-20T18:19:18-07:00
; #@! TF.GenerationSoftware,Kicad,Pcbnew,(6.0.1)
; #@! TF.FileFunction,Plated,1,2,PTH
FMAT,2
INCH
; #@! TA.AperFunction,Plated,PTH,ViaDrill
T1C0.0157
; #@! TA.AperFunction,Plated,PTH,ComponentDrill
T2C0.0394
%
G90
G05
T1
X6.2242Y-4.2835
X6.24Y-3.3622
X6.24Y-3.7559
X6.24Y-4.1732
X6.2715Y-3.4134
X6.2715Y-3.8031
X6.3226Y-3.3622
X6.3226Y-3.752
X6.3226Y-4.1732
X6.4112Y-4.2185
T2
X5.8014Y-3.1496
X5.8014Y-3.2496
X5.8014Y-3.3496
X5.8014Y-3.4496
X5.8014Y-3.5496
X5.8014Y-3.6496
X5.8014Y-3.7496
X5.8014Y-3.8496
X5.8014Y-3.9496
X5.8014Y-4.0496
X5.8014Y-4.1496
X5.8014Y-4.2496
X5.8014Y-4.3496
X5.8014Y-4.4496
X5.8014Y-4.5496
X5.9014Y-3.1496
X5.9014Y-3.2496
X5.9014Y-3.3496
X5.9014Y-3.4496
X5.9014Y-3.5496
X5.9014Y-3.6496
X5.9014Y-3.7496
X5.9014Y-3.8496
X5.9014Y-3.9496
X5.9014Y-4.0496
X5.9014Y-4.1496
X5.9014Y-4.2496
X5.9014Y-4.3496
X5.9014Y-4.4496
X5.9014Y-4.5496
X6.6927Y-3.1496
X6.6927Y-3.2496
X6.6927Y-3.3496
X6.6927Y-3.4496
X6.6927Y-3.5496
X6.6927Y-3.6496
X6.6927Y-3.7496
X6.6927Y-3.8496
X6.6927Y-3.9496
X6.6927Y-4.0496
X6.6927Y-4.1496
X6.6927Y-4.2496
X6.6927Y-4.3496
X6.6927Y-4.4496
X6.6927Y-4.5496
X6.7927Y-3.1496
X6.7927Y-3.2496
X6.7927Y-3.3496
X6.7927Y-3.4496
X6.7927Y-3.5496
X6.7927Y-3.6496
X6.7927Y-3.7496
X6.7927Y-3.8496
X6.7927Y-3.9496
X6.7927Y-4.0496
X6.7927Y-4.1496
X6.7927Y-4.2496
X6.7927Y-4.3496
X6.7927Y-4.4496
X6.7927Y-4.5496
T0
M30
