%TF.GenerationSoftware,KiCad,Pcbnew,(6.0.1)*%
%TF.CreationDate,2022-07-20T18:19:17-07:00*%
%TF.ProjectId,LevelShifter,4c657665-6c53-4686-9966-7465722e6b69,rev?*%
%TF.SameCoordinates,Original*%
%TF.FileFunction,Soldermask,Top*%
%TF.FilePolarity,Negative*%
%FSLAX46Y46*%
G04 Gerber Fmt 4.6, Leading zero omitted, Abs format (unit mm)*
G04 Created by KiCad (PCBNEW (6.0.1)) date 2022-07-20 18:19:17*
%MOMM*%
%LPD*%
G01*
G04 APERTURE LIST*
G04 Aperture macros list*
%AMRoundRect*
0 Rectangle with rounded corners*
0 $1 Rounding radius*
0 $2 $3 $4 $5 $6 $7 $8 $9 X,Y pos of 4 corners*
0 Add a 4 corners polygon primitive as box body*
4,1,4,$2,$3,$4,$5,$6,$7,$8,$9,$2,$3,0*
0 Add four circle primitives for the rounded corners*
1,1,$1+$1,$2,$3*
1,1,$1+$1,$4,$5*
1,1,$1+$1,$6,$7*
1,1,$1+$1,$8,$9*
0 Add four rect primitives between the rounded corners*
20,1,$1+$1,$2,$3,$4,$5,0*
20,1,$1+$1,$4,$5,$6,$7,0*
20,1,$1+$1,$6,$7,$8,$9,0*
20,1,$1+$1,$8,$9,$2,$3,0*%
G04 Aperture macros list end*
%ADD10R,1.700000X1.700000*%
%ADD11O,1.700000X1.700000*%
%ADD12RoundRect,0.225000X-0.250000X0.225000X-0.250000X-0.225000X0.250000X-0.225000X0.250000X0.225000X0*%
%ADD13RoundRect,0.225000X0.250000X-0.225000X0.250000X0.225000X-0.250000X0.225000X-0.250000X-0.225000X0*%
%ADD14R,1.404099X0.354800*%
%ADD15RoundRect,0.225000X-0.225000X-0.250000X0.225000X-0.250000X0.225000X0.250000X-0.225000X0.250000X0*%
%ADD16RoundRect,0.225000X0.225000X0.250000X-0.225000X0.250000X-0.225000X-0.250000X0.225000X-0.250000X0*%
%ADD17C,0.800000*%
G04 APERTURE END LIST*
D10*
%TO.C,J1*%
X149895000Y-80000000D03*
D11*
X147355000Y-80000000D03*
X149895000Y-82540000D03*
X147355000Y-82540000D03*
X149895000Y-85080000D03*
X147355000Y-85080000D03*
X149895000Y-87620000D03*
X147355000Y-87620000D03*
X149895000Y-90160000D03*
X147355000Y-90160000D03*
X149895000Y-92700000D03*
X147355000Y-92700000D03*
X149895000Y-95240000D03*
X147355000Y-95240000D03*
X149895000Y-97780000D03*
X147355000Y-97780000D03*
X149895000Y-100320000D03*
X147355000Y-100320000D03*
X149895000Y-102860000D03*
X147355000Y-102860000D03*
X149895000Y-105400000D03*
X147355000Y-105400000D03*
X149895000Y-107940000D03*
X147355000Y-107940000D03*
X149895000Y-110480000D03*
X147355000Y-110480000D03*
X149895000Y-113020000D03*
X147355000Y-113020000D03*
X149895000Y-115560000D03*
X147355000Y-115560000D03*
%TD*%
D12*
%TO.C,C7*%
X163995000Y-108025000D03*
X163995000Y-109575000D03*
%TD*%
D13*
%TO.C,C8*%
X159595000Y-109475000D03*
X159595000Y-107925000D03*
%TD*%
D14*
%TO.C,U6*%
X156945052Y-91550042D03*
X156945052Y-92200028D03*
X156945052Y-92850014D03*
X156945052Y-93500000D03*
X156945052Y-94149986D03*
X156945052Y-94799972D03*
X156945052Y-95449958D03*
X162844948Y-95449958D03*
X162844948Y-94799972D03*
X162844948Y-94149986D03*
X162844948Y-93500000D03*
X162844948Y-92850014D03*
X162844948Y-92200028D03*
X162844948Y-91550042D03*
%TD*%
D15*
%TO.C,C12*%
X159020000Y-87900000D03*
X160570000Y-87900000D03*
%TD*%
D14*
%TO.C,U5*%
X156945052Y-102050042D03*
X156945052Y-102700028D03*
X156945052Y-103350014D03*
X156945052Y-104000000D03*
X156945052Y-104649986D03*
X156945052Y-105299972D03*
X156945052Y-105949958D03*
X162844948Y-105949958D03*
X162844948Y-105299972D03*
X162844948Y-104649986D03*
X162844948Y-104000000D03*
X162844948Y-103350014D03*
X162844948Y-102700028D03*
X162844948Y-102050042D03*
%TD*%
D15*
%TO.C,C10*%
X159220000Y-98000000D03*
X160770000Y-98000000D03*
%TD*%
D10*
%TO.C,J2*%
X169995000Y-80000000D03*
D11*
X172535000Y-80000000D03*
X169995000Y-82540000D03*
X172535000Y-82540000D03*
X169995000Y-85080000D03*
X172535000Y-85080000D03*
X169995000Y-87620000D03*
X172535000Y-87620000D03*
X169995000Y-90160000D03*
X172535000Y-90160000D03*
X169995000Y-92700000D03*
X172535000Y-92700000D03*
X169995000Y-95240000D03*
X172535000Y-95240000D03*
X169995000Y-97780000D03*
X172535000Y-97780000D03*
X169995000Y-100320000D03*
X172535000Y-100320000D03*
X169995000Y-102860000D03*
X172535000Y-102860000D03*
X169995000Y-105400000D03*
X172535000Y-105400000D03*
X169995000Y-107940000D03*
X172535000Y-107940000D03*
X169995000Y-110480000D03*
X172535000Y-110480000D03*
X169995000Y-113020000D03*
X172535000Y-113020000D03*
X169995000Y-115560000D03*
X172535000Y-115560000D03*
%TD*%
D14*
%TO.C,U4*%
X156945052Y-81550042D03*
X156945052Y-82200028D03*
X156945052Y-82850014D03*
X156945052Y-83500000D03*
X156945052Y-84149986D03*
X156945052Y-84799972D03*
X156945052Y-85449958D03*
X162844948Y-85449958D03*
X162844948Y-84799972D03*
X162844948Y-84149986D03*
X162844948Y-83500000D03*
X162844948Y-82850014D03*
X162844948Y-82200028D03*
X162844948Y-81550042D03*
%TD*%
D16*
%TO.C,C9*%
X161770000Y-99800000D03*
X160220000Y-99800000D03*
%TD*%
%TO.C,C11*%
X161570000Y-89500000D03*
X160020000Y-89500000D03*
%TD*%
D17*
X159295000Y-96600000D03*
X159295000Y-86700000D03*
X158095000Y-108800000D03*
X162844948Y-107149948D03*
X158495000Y-106000000D03*
X160595000Y-85400000D03*
X160595000Y-95300000D03*
X160595000Y-106000000D03*
X158495000Y-85400000D03*
X158495000Y-95400000D03*
M02*
