%TF.GenerationSoftware,KiCad,Pcbnew,(6.0.1)*%
%TF.CreationDate,2022-07-20T21:55:55-07:00*%
%TF.ProjectId,LogicAnalyzer,4c6f6769-6341-46e6-916c-797a65722e6b,rev?*%
%TF.SameCoordinates,Original*%
%TF.FileFunction,Copper,L2,Bot*%
%TF.FilePolarity,Positive*%
%FSLAX46Y46*%
G04 Gerber Fmt 4.6, Leading zero omitted, Abs format (unit mm)*
G04 Created by KiCad (PCBNEW (6.0.1)) date 2022-07-20 21:55:55*
%MOMM*%
%LPD*%
G01*
G04 APERTURE LIST*
%TA.AperFunction,ComponentPad*%
%ADD10O,1.700000X1.700000*%
%TD*%
%TA.AperFunction,ComponentPad*%
%ADD11R,1.700000X1.700000*%
%TD*%
%TA.AperFunction,ConnectorPad*%
%ADD12C,5.600000*%
%TD*%
%TA.AperFunction,ComponentPad*%
%ADD13C,3.600000*%
%TD*%
%TA.AperFunction,Conductor*%
%ADD14C,0.250000*%
%TD*%
G04 APERTURE END LIST*
D10*
%TO.P,U1,1,GPIO0*%
%TO.N,Net-(U1-Pad1)*%
X99295000Y-64655000D03*
%TO.P,U1,2,GPIO1*%
X99295000Y-67195000D03*
D11*
%TO.P,U1,3,GND*%
%TO.N,/GND*%
X99295000Y-69735000D03*
D10*
%TO.P,U1,4,GPIO2*%
%TO.N,/CHAN_0*%
X99295000Y-72275000D03*
%TO.P,U1,5,GPIO3*%
%TO.N,/CHAN_1*%
X99295000Y-74815000D03*
%TO.P,U1,6,GPIO4*%
%TO.N,/CHAN_2*%
X99295000Y-77355000D03*
%TO.P,U1,7,GPIO5*%
%TO.N,/CHAN_3*%
X99295000Y-79895000D03*
D11*
%TO.P,U1,8,GND*%
%TO.N,/GND*%
X99295000Y-82435000D03*
D10*
%TO.P,U1,9,GPIO6*%
%TO.N,/CHAN_4*%
X99295000Y-84975000D03*
%TO.P,U1,10,GPIO7*%
%TO.N,/CHAN_5*%
X99295000Y-87515000D03*
%TO.P,U1,11,GPIO8*%
%TO.N,/CHAN_6*%
X99295000Y-90055000D03*
%TO.P,U1,12,GPIO9*%
%TO.N,/CHAN_7*%
X99295000Y-92595000D03*
D11*
%TO.P,U1,13,GND*%
%TO.N,/GND*%
X99295000Y-95135000D03*
D10*
%TO.P,U1,14,GPIO10*%
%TO.N,/CHAN_8*%
X99295000Y-97675000D03*
%TO.P,U1,15,GPIO11*%
%TO.N,/CHAN_9*%
X99295000Y-100215000D03*
%TO.P,U1,16,GPIO12*%
%TO.N,/CHAN_10*%
X99295000Y-102755000D03*
%TO.P,U1,17,GPIO13*%
%TO.N,/CHAN_11*%
X99295000Y-105295000D03*
D11*
%TO.P,U1,18,GND*%
%TO.N,/GND*%
X99295000Y-107835000D03*
D10*
%TO.P,U1,19,GPIO14*%
%TO.N,/CHAN_12*%
X99295000Y-110375000D03*
%TO.P,U1,20,GPIO15*%
%TO.N,/CHAN_13*%
X99295000Y-112915000D03*
%TO.P,U1,21,GPIO16*%
%TO.N,/CHAN_14*%
X117075000Y-112915000D03*
%TO.P,U1,22,GPIO17*%
%TO.N,/CHAN_15*%
X117075000Y-110375000D03*
D11*
%TO.P,U1,23,GND*%
%TO.N,/GND*%
X117075000Y-107835000D03*
D10*
%TO.P,U1,24,GPIO18*%
%TO.N,/CHAN_16*%
X117075000Y-105295000D03*
%TO.P,U1,25,GPIO19*%
%TO.N,/CHAN_17*%
X117075000Y-102755000D03*
%TO.P,U1,26,GPIO20*%
%TO.N,/CHAN_18*%
X117075000Y-100215000D03*
%TO.P,U1,27,GPIO21*%
%TO.N,/CHAN_19*%
X117075000Y-97675000D03*
D11*
%TO.P,U1,28,GND*%
%TO.N,/GND*%
X117075000Y-95135000D03*
D10*
%TO.P,U1,29,GPIO22*%
%TO.N,/CHAN_20*%
X117075000Y-92595000D03*
%TO.P,U1,30,RUN*%
%TO.N,unconnected-(U1-Pad30)*%
X117075000Y-90055000D03*
%TO.P,U1,31,GPIO26_ADC0*%
%TO.N,/CHAN_21*%
X117075000Y-87515000D03*
%TO.P,U1,32,GPIO27_ADC1*%
%TO.N,/CHAN_22*%
X117075000Y-84975000D03*
D11*
%TO.P,U1,33,AGND*%
%TO.N,unconnected-(U1-Pad33)*%
X117075000Y-82435000D03*
D10*
%TO.P,U1,34,GPIO28_ADC2*%
%TO.N,/CHAN_23*%
X117075000Y-79895000D03*
%TO.P,U1,35,ADC_VREF*%
%TO.N,unconnected-(U1-Pad35)*%
X117075000Y-77355000D03*
%TO.P,U1,36,3V3*%
%TO.N,/3V3*%
X117075000Y-74815000D03*
%TO.P,U1,37,3V3_EN*%
%TO.N,unconnected-(U1-Pad37)*%
X117075000Y-72275000D03*
D11*
%TO.P,U1,38,GND*%
%TO.N,/GND*%
X117075000Y-69735000D03*
D10*
%TO.P,U1,39,VSYS*%
%TO.N,unconnected-(U1-Pad39)*%
X117075000Y-67195000D03*
%TO.P,U1,40,VBUS*%
%TO.N,/5V*%
X117075000Y-64655000D03*
%TO.P,U1,41,SWCLK*%
%TO.N,unconnected-(U1-Pad41)*%
X105645000Y-112685000D03*
D11*
%TO.P,U1,42,GND*%
%TO.N,unconnected-(U1-Pad42)*%
X108185000Y-112685000D03*
D10*
%TO.P,U1,43,SWDIO*%
%TO.N,unconnected-(U1-Pad43)*%
X110725000Y-112685000D03*
%TD*%
D12*
%TO.P,MH,1*%
%TO.N,N/C*%
X126400000Y-113100000D03*
D13*
X126400000Y-113100000D03*
%TD*%
D12*
%TO.P,MH,1*%
%TO.N,N/C*%
X77200000Y-65500000D03*
D13*
X77200000Y-65500000D03*
%TD*%
%TO.P,MH,1*%
%TO.N,N/C*%
X126400000Y-66400000D03*
D12*
X126400000Y-66400000D03*
%TD*%
%TO.P,MH,1*%
%TO.N,N/C*%
X76400000Y-113200000D03*
D13*
X76400000Y-113200000D03*
%TD*%
D11*
%TO.P,J1,1,Pin_1*%
%TO.N,/CHAN_0*%
X77025000Y-72200000D03*
D10*
%TO.P,J1,2,Pin_2*%
%TO.N,/CHAN_23*%
X74485000Y-72200000D03*
%TO.P,J1,3,Pin_3*%
%TO.N,/CHAN_1*%
X77025000Y-74740000D03*
%TO.P,J1,4,Pin_4*%
%TO.N,/CHAN_22*%
X74485000Y-74740000D03*
%TO.P,J1,5,Pin_5*%
%TO.N,/CHAN_2*%
X77025000Y-77280000D03*
%TO.P,J1,6,Pin_6*%
%TO.N,/CHAN_21*%
X74485000Y-77280000D03*
%TO.P,J1,7,Pin_7*%
%TO.N,/CHAN_3*%
X77025000Y-79820000D03*
%TO.P,J1,8,Pin_8*%
%TO.N,/CHAN_20*%
X74485000Y-79820000D03*
%TO.P,J1,9,Pin_9*%
%TO.N,/CHAN_4*%
X77025000Y-82360000D03*
%TO.P,J1,10,Pin_10*%
%TO.N,/CHAN_19*%
X74485000Y-82360000D03*
%TO.P,J1,11,Pin_11*%
%TO.N,/CHAN_5*%
X77025000Y-84900000D03*
%TO.P,J1,12,Pin_12*%
%TO.N,/CHAN_18*%
X74485000Y-84900000D03*
%TO.P,J1,13,Pin_13*%
%TO.N,/CHAN_6*%
X77025000Y-87440000D03*
%TO.P,J1,14,Pin_14*%
%TO.N,/CHAN_17*%
X74485000Y-87440000D03*
%TO.P,J1,15,Pin_15*%
%TO.N,/CHAN_7*%
X77025000Y-89980000D03*
%TO.P,J1,16,Pin_16*%
%TO.N,/CHAN_16*%
X74485000Y-89980000D03*
%TO.P,J1,17,Pin_17*%
%TO.N,/CHAN_8*%
X77025000Y-92520000D03*
%TO.P,J1,18,Pin_18*%
%TO.N,/CHAN_15*%
X74485000Y-92520000D03*
%TO.P,J1,19,Pin_19*%
%TO.N,/CHAN_9*%
X77025000Y-95060000D03*
%TO.P,J1,20,Pin_20*%
%TO.N,/CHAN_14*%
X74485000Y-95060000D03*
%TO.P,J1,21,Pin_21*%
%TO.N,/CHAN_10*%
X77025000Y-97600000D03*
%TO.P,J1,22,Pin_22*%
%TO.N,/CHAN_13*%
X74485000Y-97600000D03*
%TO.P,J1,23,Pin_23*%
%TO.N,/CHAN_11*%
X77025000Y-100140000D03*
%TO.P,J1,24,Pin_24*%
%TO.N,/CHAN_12*%
X74485000Y-100140000D03*
%TO.P,J1,25,Pin_25*%
%TO.N,/GND*%
X77025000Y-102680000D03*
%TO.P,J1,26,Pin_26*%
X74485000Y-102680000D03*
%TO.P,J1,27,Pin_27*%
%TO.N,/3V3*%
X77025000Y-105220000D03*
%TO.P,J1,28,Pin_28*%
X74485000Y-105220000D03*
%TO.P,J1,29,Pin_29*%
%TO.N,/5V*%
X77025000Y-107760000D03*
%TO.P,J1,30,Pin_30*%
X74485000Y-107760000D03*
%TD*%
D14*
%TO.N,/CHAN_12*%
X74485000Y-100140000D02*
X75659511Y-101314511D01*
X82114511Y-101614511D02*
X82114511Y-100670045D01*
X85114511Y-101314511D02*
X85114511Y-101958977D01*
X85714511Y-101958977D02*
X85714511Y-101314511D01*
X87514511Y-100670045D02*
X87514511Y-101314511D01*
X88714511Y-100670045D02*
X88714511Y-101314511D01*
X86914511Y-101314511D02*
X86914511Y-100670045D01*
X82714511Y-100670045D02*
X82714511Y-101314511D01*
X88114511Y-101958977D02*
X88114511Y-101314511D01*
X88114511Y-101314511D02*
X88114511Y-100670045D01*
X81514511Y-101614511D02*
X81514511Y-101958977D01*
X89314511Y-101958977D02*
X89314511Y-101614511D01*
X83914511Y-100670045D02*
X83914511Y-101314511D01*
X83314511Y-101314511D02*
X83314511Y-100670045D01*
X86314511Y-101314511D02*
X86314511Y-101958977D01*
X86914511Y-101958977D02*
X86914511Y-101314511D01*
X75659511Y-101314511D02*
X81214511Y-101314511D01*
X88714511Y-101314511D02*
X88714511Y-101958977D01*
X83314511Y-101958977D02*
X83314511Y-101314511D01*
X89614511Y-101314511D02*
X90234511Y-101314511D01*
X82714511Y-101314511D02*
X82714511Y-101958977D01*
X82114511Y-101958977D02*
X82114511Y-101614511D01*
X86314511Y-100670045D02*
X86314511Y-101314511D01*
X84514511Y-101958977D02*
X84514511Y-101314511D01*
X85714511Y-101314511D02*
X85714511Y-100670045D01*
X85114511Y-100670045D02*
X85114511Y-101314511D01*
X87514511Y-101314511D02*
X87514511Y-101958977D01*
X84514511Y-101314511D02*
X84514511Y-100670045D01*
X90234511Y-101314511D02*
X99295000Y-110375000D01*
X83914511Y-101314511D02*
X83914511Y-101958977D01*
X87214511Y-100370045D02*
G75*
G03*
X86914511Y-100670045I0J-300000D01*
G01*
X84814511Y-100370045D02*
G75*
G03*
X84514511Y-100670045I0J-300000D01*
G01*
X87514511Y-100670045D02*
G75*
G03*
X87214511Y-100370045I-300000J0D01*
G01*
X87814511Y-102258977D02*
G75*
G02*
X87514511Y-101958977I0J300000D01*
G01*
X89014511Y-102258977D02*
G75*
G02*
X88714511Y-101958977I0J300000D01*
G01*
X88114511Y-101958977D02*
G75*
G02*
X87814511Y-102258977I-300000J0D01*
G01*
X82414511Y-100370045D02*
G75*
G03*
X82114511Y-100670045I0J-300000D01*
G01*
X88414511Y-100370045D02*
G75*
G03*
X88114511Y-100670045I0J-300000D01*
G01*
X89614511Y-101314511D02*
G75*
G03*
X89314511Y-101614511I0J-300000D01*
G01*
X83314511Y-101958977D02*
G75*
G02*
X83014511Y-102258977I-300000J0D01*
G01*
X84214511Y-102258977D02*
G75*
G02*
X83914511Y-101958977I0J300000D01*
G01*
X81814511Y-102258977D02*
G75*
G02*
X81514511Y-101958977I0J300000D01*
G01*
X86014511Y-100370045D02*
G75*
G03*
X85714511Y-100670045I0J-300000D01*
G01*
X85114511Y-100670045D02*
G75*
G03*
X84814511Y-100370045I-300000J0D01*
G01*
X83014511Y-102258977D02*
G75*
G02*
X82714511Y-101958977I0J300000D01*
G01*
X86314511Y-100670045D02*
G75*
G03*
X86014511Y-100370045I-300000J0D01*
G01*
X86914511Y-101958977D02*
G75*
G02*
X86614511Y-102258977I-300000J0D01*
G01*
X85714511Y-101958977D02*
G75*
G02*
X85414511Y-102258977I-300000J0D01*
G01*
X88714511Y-100670045D02*
G75*
G03*
X88414511Y-100370045I-300000J0D01*
G01*
X86614511Y-102258977D02*
G75*
G02*
X86314511Y-101958977I0J300000D01*
G01*
X82714511Y-100670045D02*
G75*
G03*
X82414511Y-100370045I-300000J0D01*
G01*
X85414511Y-102258977D02*
G75*
G02*
X85114511Y-101958977I0J300000D01*
G01*
X83614511Y-100370045D02*
G75*
G03*
X83314511Y-100670045I0J-300000D01*
G01*
X82114511Y-101958977D02*
G75*
G02*
X81814511Y-102258977I-300000J0D01*
G01*
X84514511Y-101958977D02*
G75*
G02*
X84214511Y-102258977I-300000J0D01*
G01*
X83914511Y-100670045D02*
G75*
G03*
X83614511Y-100370045I-300000J0D01*
G01*
X81514511Y-101614511D02*
G75*
G03*
X81214511Y-101314511I-300000J0D01*
G01*
X89314511Y-101958977D02*
G75*
G02*
X89014511Y-102258977I-300000J0D01*
G01*
%TO.N,/CHAN_13*%
X82100000Y-103283346D02*
X82100000Y-103600000D01*
X84500000Y-103283346D02*
X84500000Y-103900000D01*
X82700000Y-103900000D02*
X82700000Y-103283346D01*
X90280000Y-103900000D02*
X99295000Y-112915000D01*
X83900000Y-103900000D02*
X83900000Y-103283346D01*
X86300000Y-104516654D02*
X86300000Y-103900000D01*
X74485000Y-97600000D02*
X73310489Y-98774511D01*
X83300000Y-103283346D02*
X83300000Y-103900000D01*
X86900000Y-103283346D02*
X86900000Y-103600000D01*
X83900000Y-104516654D02*
X83900000Y-103900000D01*
X85700000Y-103900000D02*
X85700000Y-104516654D01*
X82700000Y-104516654D02*
X82700000Y-103900000D01*
X84500000Y-103900000D02*
X84500000Y-104516654D01*
X85100000Y-104516654D02*
X85100000Y-103900000D01*
X86300000Y-103900000D02*
X86300000Y-103283346D01*
X73310489Y-103166499D02*
X74043990Y-103900000D01*
X74043990Y-103900000D02*
X81200000Y-103900000D01*
X81500000Y-103600000D02*
X81500000Y-103283346D01*
X87200000Y-103900000D02*
X90280000Y-103900000D01*
X82100000Y-103600000D02*
X82100000Y-104516654D01*
X85700000Y-103283346D02*
X85700000Y-103900000D01*
X73310489Y-98774511D02*
X73310489Y-103166499D01*
X83300000Y-103900000D02*
X83300000Y-104516654D01*
X85100000Y-103900000D02*
X85100000Y-103283346D01*
X82100000Y-103283346D02*
G75*
G03*
X81800000Y-102983346I-300000J0D01*
G01*
X81500000Y-103600000D02*
G75*
G02*
X81200000Y-103900000I-300000J0D01*
G01*
X83300000Y-103283346D02*
G75*
G03*
X83000000Y-102983346I-300000J0D01*
G01*
X85400000Y-102983346D02*
G75*
G03*
X85100000Y-103283346I0J-300000D01*
G01*
X86900000Y-103283346D02*
G75*
G03*
X86600000Y-102983346I-300000J0D01*
G01*
X84800000Y-104816654D02*
G75*
G02*
X84500000Y-104516654I0J300000D01*
G01*
X81800000Y-102983346D02*
G75*
G03*
X81500000Y-103283346I0J-300000D01*
G01*
X84200000Y-102983346D02*
G75*
G03*
X83900000Y-103283346I0J-300000D01*
G01*
X83900000Y-104516654D02*
G75*
G02*
X83600000Y-104816654I-300000J0D01*
G01*
X84500000Y-103283346D02*
G75*
G03*
X84200000Y-102983346I-300000J0D01*
G01*
X82400000Y-104816654D02*
G75*
G02*
X82100000Y-104516654I0J300000D01*
G01*
X82700000Y-104516654D02*
G75*
G02*
X82400000Y-104816654I-300000J0D01*
G01*
X86600000Y-102983346D02*
G75*
G03*
X86300000Y-103283346I0J-300000D01*
G01*
X85100000Y-104516654D02*
G75*
G02*
X84800000Y-104816654I-300000J0D01*
G01*
X83600000Y-104816654D02*
G75*
G02*
X83300000Y-104516654I0J300000D01*
G01*
X85700000Y-103283346D02*
G75*
G03*
X85400000Y-102983346I-300000J0D01*
G01*
X86300000Y-104516654D02*
G75*
G02*
X86000000Y-104816654I-300000J0D01*
G01*
X86000000Y-104816654D02*
G75*
G02*
X85700000Y-104516654I0J300000D01*
G01*
X87200000Y-103900000D02*
G75*
G02*
X86900000Y-103600000I0J300000D01*
G01*
X83000000Y-102983346D02*
G75*
G03*
X82700000Y-103283346I0J-300000D01*
G01*
%TO.N,/CHAN_14*%
X75850489Y-96425489D02*
X74485000Y-95060000D01*
X117075000Y-112915000D02*
X100585489Y-96425489D01*
X100585489Y-96425489D02*
X75850489Y-96425489D01*
%TO.N,/CHAN_15*%
X75850489Y-93885489D02*
X100585489Y-93885489D01*
X74485000Y-92520000D02*
X75850489Y-93885489D01*
X100585489Y-93885489D02*
X117075000Y-110375000D01*
%TO.N,/CHAN_16*%
X81120489Y-91720489D02*
X81120489Y-91911156D01*
X74485000Y-89980000D02*
X75659511Y-91154511D01*
X77520489Y-91420489D02*
X80820489Y-91420489D01*
X82020489Y-91420489D02*
X88670961Y-91420489D01*
X75659511Y-91154511D02*
X77254511Y-91154511D01*
X77254511Y-91154511D02*
X77520489Y-91420489D01*
X103200489Y-91420489D02*
X117075000Y-105295000D01*
X81720489Y-91911156D02*
X81720489Y-91720489D01*
X88670961Y-91420489D02*
X103200489Y-91420489D01*
X81120489Y-91720489D02*
G75*
G03*
X80820489Y-91420489I-300000J0D01*
G01*
X82020489Y-91420489D02*
G75*
G03*
X81720489Y-91720489I0J-300000D01*
G01*
X81720489Y-91911156D02*
G75*
G02*
X81420489Y-92211156I-300000J0D01*
G01*
X81420489Y-92211156D02*
G75*
G02*
X81120489Y-91911156I0J300000D01*
G01*
%TO.N,/CHAN_17*%
X103125489Y-88805489D02*
X117075000Y-102755000D01*
X81694511Y-89296190D02*
X81694511Y-89105489D01*
X81094511Y-89105489D02*
X81094511Y-89296190D01*
X74485000Y-87440000D02*
X75850489Y-88805489D01*
X81994511Y-88805489D02*
X85687857Y-88805489D01*
X85687857Y-88805489D02*
X103125489Y-88805489D01*
X75850489Y-88805489D02*
X80794511Y-88805489D01*
X81694511Y-89296190D02*
G75*
G02*
X81394511Y-89596190I-300000J0D01*
G01*
X81994511Y-88805489D02*
G75*
G03*
X81694511Y-89105489I0J-300000D01*
G01*
X81394511Y-89596190D02*
G75*
G02*
X81094511Y-89296190I0J300000D01*
G01*
X81094511Y-89105489D02*
G75*
G03*
X80794511Y-88805489I-300000J0D01*
G01*
%TO.N,/CHAN_18*%
X74485000Y-84900000D02*
X75850489Y-86265489D01*
X75850489Y-86265489D02*
X81034511Y-86265489D01*
X87676593Y-86265489D02*
X103125489Y-86265489D01*
X81934511Y-86756190D02*
X81934511Y-86565489D01*
X81334511Y-86565489D02*
X81334511Y-86756190D01*
X82234511Y-86265489D02*
X87676593Y-86265489D01*
X103125489Y-86265489D02*
X117075000Y-100215000D01*
X81634511Y-87056190D02*
G75*
G02*
X81334511Y-86756190I0J300000D01*
G01*
X81334511Y-86565489D02*
G75*
G03*
X81034511Y-86265489I-300000J0D01*
G01*
X81934511Y-86756190D02*
G75*
G02*
X81634511Y-87056190I-300000J0D01*
G01*
X82234511Y-86265489D02*
G75*
G03*
X81934511Y-86565489I0J-300000D01*
G01*
%TO.N,/CHAN_19*%
X74485000Y-82360000D02*
X75734511Y-83609511D01*
X103009511Y-83609511D02*
X117075000Y-97675000D01*
X81609511Y-83309511D02*
X81609511Y-83118809D01*
X82509511Y-83609511D02*
X88278447Y-83609511D01*
X82209511Y-83118809D02*
X82209511Y-83309511D01*
X88278447Y-83609511D02*
X103009511Y-83609511D01*
X75734511Y-83609511D02*
X81309511Y-83609511D01*
X81909511Y-82818809D02*
G75*
G03*
X81609511Y-83118809I0J-300000D01*
G01*
X82509511Y-83609511D02*
G75*
G02*
X82209511Y-83309511I0J300000D01*
G01*
X82209511Y-83118809D02*
G75*
G03*
X81909511Y-82818809I-300000J0D01*
G01*
X81609511Y-83309511D02*
G75*
G02*
X81309511Y-83609511I-300000J0D01*
G01*
%TO.N,/CHAN_20*%
X82100000Y-81300000D02*
X82100000Y-80591647D01*
X88644793Y-81000000D02*
X98738990Y-81000000D01*
X99781499Y-81069511D02*
X99851010Y-81000000D01*
X74485000Y-79820000D02*
X75665000Y-81000000D01*
X98808501Y-81069511D02*
X99781499Y-81069511D01*
X82100000Y-81408353D02*
X82100000Y-81300000D01*
X82700000Y-80591647D02*
X82700000Y-80700000D01*
X81500000Y-81300000D02*
X81500000Y-81408353D01*
X99851010Y-81000000D02*
X105480000Y-81000000D01*
X105480000Y-81000000D02*
X117075000Y-92595000D01*
X98738990Y-81000000D02*
X98808501Y-81069511D01*
X75665000Y-81000000D02*
X81200000Y-81000000D01*
X83000000Y-81000000D02*
X88644793Y-81000000D01*
X82100000Y-81408353D02*
G75*
G02*
X81800000Y-81708353I-300000J0D01*
G01*
X82400000Y-80291647D02*
G75*
G03*
X82100000Y-80591647I0J-300000D01*
G01*
X82700000Y-80591647D02*
G75*
G03*
X82400000Y-80291647I-300000J0D01*
G01*
X81500000Y-81300000D02*
G75*
G03*
X81200000Y-81000000I-300000J0D01*
G01*
X81800000Y-81708353D02*
G75*
G02*
X81500000Y-81408353I0J300000D01*
G01*
X83000000Y-81000000D02*
G75*
G02*
X82700000Y-80700000I0J300000D01*
G01*
%TO.N,/CHAN_21*%
X99781499Y-78529511D02*
X99811010Y-78500000D01*
X82000000Y-78300000D02*
X82000000Y-79265065D01*
X99811010Y-78500000D02*
X108060000Y-78500000D01*
X108060000Y-78500000D02*
X117075000Y-87515000D01*
X75805000Y-78600000D02*
X81100000Y-78600000D01*
X98808501Y-78529511D02*
X99781499Y-78529511D01*
X81400000Y-78300000D02*
X81400000Y-77934935D01*
X82000000Y-77934935D02*
X82000000Y-78300000D01*
X74485000Y-77280000D02*
X75805000Y-78600000D01*
X98738012Y-78600000D02*
X98808501Y-78529511D01*
X82600000Y-79265065D02*
X82600000Y-78900000D01*
X89796167Y-78600000D02*
X98738012Y-78600000D01*
X82900000Y-78600000D02*
X89796167Y-78600000D01*
X82900000Y-78600000D02*
G75*
G03*
X82600000Y-78900000I0J-300000D01*
G01*
X81700000Y-77634935D02*
G75*
G03*
X81400000Y-77934935I0J-300000D01*
G01*
X82300000Y-79565065D02*
G75*
G02*
X82000000Y-79265065I0J300000D01*
G01*
X82000000Y-77934935D02*
G75*
G03*
X81700000Y-77634935I-300000J0D01*
G01*
X82600000Y-79265065D02*
G75*
G02*
X82300000Y-79565065I-300000J0D01*
G01*
X81400000Y-78300000D02*
G75*
G02*
X81100000Y-78600000I-300000J0D01*
G01*
%TO.N,/CHAN_22*%
X81805489Y-75419723D02*
X81805489Y-75805489D01*
X74485000Y-74740000D02*
X75850489Y-76105489D01*
X82705489Y-76105489D02*
X87912101Y-76105489D01*
X108205489Y-76105489D02*
X117075000Y-84975000D01*
X82405489Y-76791255D02*
X82405489Y-76405489D01*
X81205489Y-75805489D02*
X81205489Y-75419723D01*
X87912101Y-76105489D02*
X108205489Y-76105489D01*
X75850489Y-76105489D02*
X80905489Y-76105489D01*
X81805489Y-75805489D02*
X81805489Y-76791255D01*
X82405489Y-76791255D02*
G75*
G02*
X82105489Y-77091255I-300000J0D01*
G01*
X82105489Y-77091255D02*
G75*
G02*
X81805489Y-76791255I0J300000D01*
G01*
X82705489Y-76105489D02*
G75*
G03*
X82405489Y-76405489I0J-300000D01*
G01*
X81205489Y-75805489D02*
G75*
G02*
X80905489Y-76105489I-300000J0D01*
G01*
X81505489Y-75119723D02*
G75*
G03*
X81205489Y-75419723I0J-300000D01*
G01*
X81805489Y-75419723D02*
G75*
G03*
X81505489Y-75119723I-300000J0D01*
G01*
%TO.N,/CHAN_23*%
X82550489Y-74024953D02*
X82550489Y-73449511D01*
X82550489Y-73449511D02*
X82550489Y-72874069D01*
X83150489Y-72874069D02*
X83150489Y-73149511D01*
X81350489Y-73149511D02*
X81350489Y-72874069D01*
X75734511Y-73449511D02*
X81050489Y-73449511D01*
X110629511Y-73449511D02*
X117075000Y-79895000D01*
X87859766Y-73449511D02*
X110629511Y-73449511D01*
X81950489Y-73149511D02*
X81950489Y-74024953D01*
X81950489Y-72874069D02*
X81950489Y-73149511D01*
X83450489Y-73449511D02*
X87859766Y-73449511D01*
X74485000Y-72200000D02*
X75734511Y-73449511D01*
X82550489Y-74024953D02*
G75*
G02*
X82250489Y-74324953I-300000J0D01*
G01*
X81950489Y-72874069D02*
G75*
G03*
X81650489Y-72574069I-300000J0D01*
G01*
X83450489Y-73449511D02*
G75*
G02*
X83150489Y-73149511I0J300000D01*
G01*
X81650489Y-72574069D02*
G75*
G03*
X81350489Y-72874069I0J-300000D01*
G01*
X81350489Y-73149511D02*
G75*
G02*
X81050489Y-73449511I-300000J0D01*
G01*
X82850489Y-72574069D02*
G75*
G03*
X82550489Y-72874069I0J-300000D01*
G01*
X83150489Y-72874069D02*
G75*
G03*
X82850489Y-72574069I-300000J0D01*
G01*
X82250489Y-74324953D02*
G75*
G02*
X81950489Y-74024953I0J300000D01*
G01*
%TO.N,/GND*%
X99295000Y-69735000D02*
X117075000Y-69735000D01*
X77025000Y-102680000D02*
X74485000Y-102680000D01*
%TO.N,/3V3*%
X77025000Y-105220000D02*
X74485000Y-105220000D01*
%TO.N,/5V*%
X117075000Y-64655000D02*
X119655000Y-64655000D01*
X120800000Y-65800000D02*
X120800000Y-113400000D01*
X84865000Y-115600000D02*
X77025000Y-107760000D01*
X118600000Y-115600000D02*
X84865000Y-115600000D01*
X77025000Y-107760000D02*
X74485000Y-107760000D01*
X120800000Y-113400000D02*
X118600000Y-115600000D01*
X119655000Y-64655000D02*
X120800000Y-65800000D01*
%TO.N,Net-(U1-Pad1)*%
X99295000Y-64655000D02*
X99295000Y-67195000D01*
%TD*%
%TA.AperFunction,Conductor*%
%TO.N,/GND*%
G36*
X76205151Y-62128002D02*
G01*
X76251644Y-62181658D01*
X76261748Y-62251932D01*
X76232254Y-62316512D01*
X76177010Y-62353489D01*
X75980271Y-62419317D01*
X75977178Y-62420739D01*
X75977177Y-62420740D01*
X75970974Y-62423593D01*
X75654694Y-62569066D01*
X75347193Y-62753101D01*
X75344467Y-62755163D01*
X75344465Y-62755164D01*
X75338620Y-62759585D01*
X75061367Y-62969270D01*
X74800559Y-63215043D01*
X74567819Y-63487546D01*
X74565900Y-63490358D01*
X74565897Y-63490363D01*
X74483597Y-63611011D01*
X74365871Y-63783591D01*
X74197077Y-64099714D01*
X74063411Y-64432218D01*
X74062491Y-64435492D01*
X74062489Y-64435497D01*
X73982249Y-64720961D01*
X73966437Y-64777213D01*
X73907290Y-65130663D01*
X73886661Y-65488434D01*
X73886833Y-65491829D01*
X73886833Y-65491830D01*
X73889598Y-65546407D01*
X73904792Y-65846340D01*
X73905329Y-65849695D01*
X73905330Y-65849701D01*
X73935298Y-66036797D01*
X73961470Y-66200195D01*
X74056033Y-66545859D01*
X74187374Y-66879288D01*
X74216407Y-66934588D01*
X74351366Y-67191646D01*
X74353957Y-67196582D01*
X74355858Y-67199411D01*
X74355864Y-67199421D01*
X74519253Y-67442568D01*
X74553834Y-67494029D01*
X74784665Y-67768150D01*
X75043751Y-68015738D01*
X75328061Y-68233897D01*
X75357936Y-68252061D01*
X75631355Y-68418303D01*
X75631360Y-68418306D01*
X75634270Y-68420075D01*
X75637358Y-68421521D01*
X75637357Y-68421521D01*
X75955710Y-68570649D01*
X75955720Y-68570653D01*
X75958794Y-68572093D01*
X75962012Y-68573195D01*
X75962015Y-68573196D01*
X76294615Y-68687071D01*
X76294623Y-68687073D01*
X76297838Y-68688174D01*
X76647435Y-68766959D01*
X76699728Y-68772917D01*
X77000114Y-68807142D01*
X77000122Y-68807142D01*
X77003497Y-68807527D01*
X77006901Y-68807545D01*
X77006904Y-68807545D01*
X77201227Y-68808562D01*
X77361857Y-68809403D01*
X77365243Y-68809053D01*
X77365245Y-68809053D01*
X77714932Y-68772917D01*
X77714941Y-68772916D01*
X77718324Y-68772566D01*
X77721657Y-68771852D01*
X77721660Y-68771851D01*
X77894186Y-68734864D01*
X78068727Y-68697446D01*
X78408968Y-68584922D01*
X78735066Y-68436311D01*
X78996395Y-68281145D01*
X79040262Y-68255099D01*
X79040267Y-68255096D01*
X79043207Y-68253350D01*
X79329786Y-68038180D01*
X79591451Y-67793319D01*
X79825140Y-67521630D01*
X80001580Y-67264908D01*
X80026190Y-67229101D01*
X80026195Y-67229094D01*
X80028120Y-67226292D01*
X80029732Y-67223298D01*
X80029737Y-67223290D01*
X80062902Y-67161695D01*
X97932251Y-67161695D01*
X97932548Y-67166848D01*
X97932548Y-67166851D01*
X97938011Y-67261590D01*
X97945110Y-67384715D01*
X97946247Y-67389761D01*
X97946248Y-67389767D01*
X97959604Y-67449029D01*
X97994222Y-67602639D01*
X98032461Y-67696811D01*
X98071649Y-67793319D01*
X98078266Y-67809616D01*
X98194987Y-68000088D01*
X98341250Y-68168938D01*
X98345225Y-68172238D01*
X98345231Y-68172244D01*
X98350425Y-68176556D01*
X98390059Y-68235460D01*
X98391555Y-68306441D01*
X98354439Y-68366962D01*
X98314168Y-68391480D01*
X98206946Y-68431676D01*
X98191351Y-68440214D01*
X98089276Y-68516715D01*
X98076715Y-68529276D01*
X98000214Y-68631351D01*
X97991676Y-68646946D01*
X97946522Y-68767394D01*
X97942895Y-68782649D01*
X97937369Y-68833514D01*
X97937000Y-68840328D01*
X97937000Y-69462885D01*
X97941475Y-69478124D01*
X97942865Y-69479329D01*
X97950548Y-69481000D01*
X100634884Y-69481000D01*
X100650123Y-69476525D01*
X100651328Y-69475135D01*
X100652999Y-69467452D01*
X100652999Y-68840331D01*
X100652629Y-68833510D01*
X100647105Y-68782648D01*
X100643479Y-68767396D01*
X100598324Y-68646946D01*
X100589786Y-68631351D01*
X100513285Y-68529276D01*
X100500724Y-68516715D01*
X100398649Y-68440214D01*
X100383054Y-68431676D01*
X100272813Y-68390348D01*
X100216049Y-68347706D01*
X100191349Y-68281145D01*
X100206557Y-68211796D01*
X100228104Y-68183115D01*
X100329430Y-68082144D01*
X100329440Y-68082132D01*
X100333096Y-68078489D01*
X100363732Y-68035855D01*
X100460435Y-67901277D01*
X100463453Y-67897077D01*
X100504018Y-67815000D01*
X104496693Y-67815000D01*
X104515885Y-68034371D01*
X104572880Y-68247076D01*
X104588767Y-68281145D01*
X104663618Y-68441666D01*
X104663621Y-68441671D01*
X104665944Y-68446653D01*
X104669100Y-68451160D01*
X104669101Y-68451162D01*
X104761770Y-68583506D01*
X104792251Y-68627038D01*
X104947962Y-68782749D01*
X104952471Y-68785906D01*
X104952473Y-68785908D01*
X105020456Y-68833510D01*
X105128346Y-68909056D01*
X105327924Y-69002120D01*
X105540629Y-69059115D01*
X105760000Y-69078307D01*
X105979371Y-69059115D01*
X106192076Y-69002120D01*
X106391654Y-68909056D01*
X106499544Y-68833510D01*
X106567527Y-68785908D01*
X106567529Y-68785906D01*
X106572038Y-68782749D01*
X106727749Y-68627038D01*
X106758231Y-68583506D01*
X106850899Y-68451162D01*
X106850900Y-68451160D01*
X106854056Y-68446653D01*
X106856379Y-68441671D01*
X106856382Y-68441666D01*
X106931233Y-68281145D01*
X106947120Y-68247076D01*
X107004115Y-68034371D01*
X107023307Y-67815000D01*
X109346693Y-67815000D01*
X109365885Y-68034371D01*
X109422880Y-68247076D01*
X109438767Y-68281145D01*
X109513618Y-68441666D01*
X109513621Y-68441671D01*
X109515944Y-68446653D01*
X109519100Y-68451160D01*
X109519101Y-68451162D01*
X109611770Y-68583506D01*
X109642251Y-68627038D01*
X109797962Y-68782749D01*
X109802471Y-68785906D01*
X109802473Y-68785908D01*
X109870456Y-68833510D01*
X109978346Y-68909056D01*
X110177924Y-69002120D01*
X110390629Y-69059115D01*
X110610000Y-69078307D01*
X110829371Y-69059115D01*
X111042076Y-69002120D01*
X111241654Y-68909056D01*
X111349544Y-68833510D01*
X111417527Y-68785908D01*
X111417529Y-68785906D01*
X111422038Y-68782749D01*
X111577749Y-68627038D01*
X111608231Y-68583506D01*
X111700899Y-68451162D01*
X111700900Y-68451160D01*
X111704056Y-68446653D01*
X111706379Y-68441671D01*
X111706382Y-68441666D01*
X111781233Y-68281145D01*
X111797120Y-68247076D01*
X111854115Y-68034371D01*
X111873307Y-67815000D01*
X111854115Y-67595629D01*
X111797120Y-67382924D01*
X111753585Y-67289562D01*
X111706382Y-67188334D01*
X111706379Y-67188329D01*
X111704056Y-67183347D01*
X111700899Y-67178838D01*
X111580908Y-67007473D01*
X111580906Y-67007470D01*
X111577749Y-67002962D01*
X111422038Y-66847251D01*
X111241654Y-66720944D01*
X111042076Y-66627880D01*
X110829371Y-66570885D01*
X110610000Y-66551693D01*
X110390629Y-66570885D01*
X110177924Y-66627880D01*
X110084562Y-66671415D01*
X109983334Y-66718618D01*
X109983329Y-66718621D01*
X109978347Y-66720944D01*
X109973840Y-66724100D01*
X109973838Y-66724101D01*
X109802473Y-66844092D01*
X109802470Y-66844094D01*
X109797962Y-66847251D01*
X109642251Y-67002962D01*
X109639094Y-67007470D01*
X109639092Y-67007473D01*
X109519101Y-67178838D01*
X109515944Y-67183347D01*
X109513621Y-67188329D01*
X109513618Y-67188334D01*
X109466415Y-67289562D01*
X109422880Y-67382924D01*
X109365885Y-67595629D01*
X109346693Y-67815000D01*
X107023307Y-67815000D01*
X107004115Y-67595629D01*
X106947120Y-67382924D01*
X106903585Y-67289562D01*
X106856382Y-67188334D01*
X106856379Y-67188329D01*
X106854056Y-67183347D01*
X106850899Y-67178838D01*
X106730908Y-67007473D01*
X106730906Y-67007470D01*
X106727749Y-67002962D01*
X106572038Y-66847251D01*
X106391654Y-66720944D01*
X106192076Y-66627880D01*
X105979371Y-66570885D01*
X105760000Y-66551693D01*
X105540629Y-66570885D01*
X105327924Y-66627880D01*
X105234562Y-66671415D01*
X105133334Y-66718618D01*
X105133329Y-66718621D01*
X105128347Y-66720944D01*
X105123840Y-66724100D01*
X105123838Y-66724101D01*
X104952473Y-66844092D01*
X104952470Y-66844094D01*
X104947962Y-66847251D01*
X104792251Y-67002962D01*
X104789094Y-67007470D01*
X104789092Y-67007473D01*
X104669101Y-67178838D01*
X104665944Y-67183347D01*
X104663621Y-67188329D01*
X104663618Y-67188334D01*
X104616415Y-67289562D01*
X104572880Y-67382924D01*
X104515885Y-67595629D01*
X104496693Y-67815000D01*
X100504018Y-67815000D01*
X100520178Y-67782303D01*
X100560136Y-67701453D01*
X100560137Y-67701451D01*
X100562430Y-67696811D01*
X100616509Y-67518818D01*
X100625865Y-67488023D01*
X100625865Y-67488021D01*
X100627370Y-67483069D01*
X100656529Y-67261590D01*
X100657323Y-67229101D01*
X100658074Y-67198365D01*
X100658074Y-67198361D01*
X100658156Y-67195000D01*
X100639852Y-66972361D01*
X100585431Y-66755702D01*
X100496354Y-66550840D01*
X100375014Y-66363277D01*
X100224670Y-66198051D01*
X100220619Y-66194852D01*
X100220615Y-66194848D01*
X100053414Y-66062800D01*
X100053410Y-66062798D01*
X100049359Y-66059598D01*
X100008053Y-66036796D01*
X99958084Y-65986364D01*
X99943312Y-65916921D01*
X99968428Y-65850516D01*
X99995780Y-65823909D01*
X100046061Y-65788044D01*
X100174860Y-65696173D01*
X100190436Y-65680652D01*
X100282541Y-65588868D01*
X100333096Y-65538489D01*
X100392594Y-65455689D01*
X100460435Y-65361277D01*
X100463453Y-65357077D01*
X100467145Y-65349608D01*
X100560136Y-65161453D01*
X100560137Y-65161451D01*
X100562430Y-65156811D01*
X100594900Y-65049940D01*
X100625865Y-64948023D01*
X100625865Y-64948021D01*
X100627370Y-64943069D01*
X100652727Y-64750469D01*
X104047095Y-64750469D01*
X104047392Y-64755622D01*
X104047392Y-64755625D01*
X104053067Y-64854041D01*
X104060427Y-64981697D01*
X104061564Y-64986743D01*
X104061565Y-64986749D01*
X104093240Y-65127298D01*
X104111346Y-65207642D01*
X104113288Y-65212424D01*
X104113289Y-65212428D01*
X104174387Y-65362893D01*
X104198484Y-65422237D01*
X104245989Y-65499758D01*
X104300596Y-65588868D01*
X104319501Y-65619719D01*
X104471147Y-65794784D01*
X104649349Y-65942730D01*
X104849322Y-66059584D01*
X105065694Y-66142209D01*
X105070760Y-66143240D01*
X105070761Y-66143240D01*
X105123846Y-66154040D01*
X105292656Y-66188385D01*
X105423324Y-66193176D01*
X105518949Y-66196683D01*
X105518953Y-66196683D01*
X105524113Y-66196872D01*
X105529233Y-66196216D01*
X105529235Y-66196216D01*
X105602270Y-66186860D01*
X105753847Y-66167442D01*
X105758795Y-66165957D01*
X105758802Y-66165956D01*
X105970747Y-66102369D01*
X105975690Y-66100886D01*
X105980324Y-66098616D01*
X106179049Y-66001262D01*
X106179052Y-66001260D01*
X106183684Y-65998991D01*
X106372243Y-65864494D01*
X106536303Y-65701005D01*
X106542420Y-65692493D01*
X106564839Y-65661293D01*
X106671458Y-65512917D01*
X106681607Y-65492383D01*
X106771784Y-65309922D01*
X106771785Y-65309920D01*
X106774078Y-65305280D01*
X106841408Y-65083671D01*
X106871640Y-64854041D01*
X106871722Y-64850691D01*
X106873245Y-64788365D01*
X106873245Y-64788361D01*
X106873327Y-64785000D01*
X106870488Y-64750469D01*
X109497095Y-64750469D01*
X109497392Y-64755622D01*
X109497392Y-64755625D01*
X109503067Y-64854041D01*
X109510427Y-64981697D01*
X109511564Y-64986743D01*
X109511565Y-64986749D01*
X109543240Y-65127298D01*
X109561346Y-65207642D01*
X109563288Y-65212424D01*
X109563289Y-65212428D01*
X109624387Y-65362893D01*
X109648484Y-65422237D01*
X109695989Y-65499758D01*
X109750596Y-65588868D01*
X109769501Y-65619719D01*
X109921147Y-65794784D01*
X110099349Y-65942730D01*
X110299322Y-66059584D01*
X110515694Y-66142209D01*
X110520760Y-66143240D01*
X110520761Y-66143240D01*
X110573846Y-66154040D01*
X110742656Y-66188385D01*
X110873324Y-66193176D01*
X110968949Y-66196683D01*
X110968953Y-66196683D01*
X110974113Y-66196872D01*
X110979233Y-66196216D01*
X110979235Y-66196216D01*
X111052270Y-66186860D01*
X111203847Y-66167442D01*
X111208795Y-66165957D01*
X111208802Y-66165956D01*
X111420747Y-66102369D01*
X111425690Y-66100886D01*
X111430324Y-66098616D01*
X111629049Y-66001262D01*
X111629052Y-66001260D01*
X111633684Y-65998991D01*
X111822243Y-65864494D01*
X111986303Y-65701005D01*
X111992420Y-65692493D01*
X112014839Y-65661293D01*
X112121458Y-65512917D01*
X112131607Y-65492383D01*
X112221784Y-65309922D01*
X112221785Y-65309920D01*
X112224078Y-65305280D01*
X112291408Y-65083671D01*
X112321640Y-64854041D01*
X112321722Y-64850691D01*
X112323245Y-64788365D01*
X112323245Y-64788361D01*
X112323327Y-64785000D01*
X112309479Y-64616562D01*
X112304773Y-64559318D01*
X112304772Y-64559312D01*
X112304349Y-64554167D01*
X112264154Y-64394142D01*
X112249184Y-64334544D01*
X112249183Y-64334540D01*
X112247925Y-64329533D01*
X112245866Y-64324797D01*
X112157630Y-64121868D01*
X112157628Y-64121865D01*
X112155570Y-64117131D01*
X112029764Y-63922665D01*
X111873887Y-63751358D01*
X111869836Y-63748159D01*
X111869832Y-63748155D01*
X111696177Y-63611011D01*
X111696172Y-63611008D01*
X111692123Y-63607810D01*
X111687607Y-63605317D01*
X111687604Y-63605315D01*
X111493879Y-63498373D01*
X111493875Y-63498371D01*
X111489355Y-63495876D01*
X111484486Y-63494152D01*
X111484482Y-63494150D01*
X111275903Y-63420288D01*
X111275899Y-63420287D01*
X111271028Y-63418562D01*
X111265935Y-63417655D01*
X111265932Y-63417654D01*
X111048095Y-63378851D01*
X111048089Y-63378850D01*
X111043006Y-63377945D01*
X110970096Y-63377054D01*
X110816581Y-63375179D01*
X110816579Y-63375179D01*
X110811411Y-63375116D01*
X110582464Y-63410150D01*
X110362314Y-63482106D01*
X110357726Y-63484494D01*
X110357722Y-63484496D01*
X110290292Y-63519598D01*
X110156872Y-63589052D01*
X110152739Y-63592155D01*
X110152736Y-63592157D01*
X109975790Y-63725012D01*
X109971655Y-63728117D01*
X109968083Y-63731855D01*
X109884369Y-63819457D01*
X109811639Y-63895564D01*
X109808725Y-63899836D01*
X109808724Y-63899837D01*
X109752895Y-63981680D01*
X109681119Y-64086899D01*
X109583602Y-64296981D01*
X109521707Y-64520169D01*
X109497095Y-64750469D01*
X106870488Y-64750469D01*
X106859479Y-64616562D01*
X106854773Y-64559318D01*
X106854772Y-64559312D01*
X106854349Y-64554167D01*
X106814154Y-64394142D01*
X106799184Y-64334544D01*
X106799183Y-64334540D01*
X106797925Y-64329533D01*
X106795866Y-64324797D01*
X106707630Y-64121868D01*
X106707628Y-64121865D01*
X106705570Y-64117131D01*
X106579764Y-63922665D01*
X106423887Y-63751358D01*
X106419836Y-63748159D01*
X106419832Y-63748155D01*
X106246177Y-63611011D01*
X106246172Y-63611008D01*
X106242123Y-63607810D01*
X106237607Y-63605317D01*
X106237604Y-63605315D01*
X106043879Y-63498373D01*
X106043875Y-63498371D01*
X106039355Y-63495876D01*
X106034486Y-63494152D01*
X106034482Y-63494150D01*
X105825903Y-63420288D01*
X105825899Y-63420287D01*
X105821028Y-63418562D01*
X105815935Y-63417655D01*
X105815932Y-63417654D01*
X105598095Y-63378851D01*
X105598089Y-63378850D01*
X105593006Y-63377945D01*
X105520096Y-63377054D01*
X105366581Y-63375179D01*
X105366579Y-63375179D01*
X105361411Y-63375116D01*
X105132464Y-63410150D01*
X104912314Y-63482106D01*
X104907726Y-63484494D01*
X104907722Y-63484496D01*
X104840292Y-63519598D01*
X104706872Y-63589052D01*
X104702739Y-63592155D01*
X104702736Y-63592157D01*
X104525790Y-63725012D01*
X104521655Y-63728117D01*
X104518083Y-63731855D01*
X104434369Y-63819457D01*
X104361639Y-63895564D01*
X104358725Y-63899836D01*
X104358724Y-63899837D01*
X104302895Y-63981680D01*
X104231119Y-64086899D01*
X104133602Y-64296981D01*
X104071707Y-64520169D01*
X104047095Y-64750469D01*
X100652727Y-64750469D01*
X100656529Y-64721590D01*
X100657142Y-64696499D01*
X100658074Y-64658365D01*
X100658074Y-64658361D01*
X100658156Y-64655000D01*
X100639852Y-64432361D01*
X100585431Y-64215702D01*
X100496354Y-64010840D01*
X100404768Y-63869270D01*
X100377822Y-63827617D01*
X100377820Y-63827614D01*
X100375014Y-63823277D01*
X100224670Y-63658051D01*
X100220619Y-63654852D01*
X100220615Y-63654848D01*
X100053414Y-63522800D01*
X100053410Y-63522798D01*
X100049359Y-63519598D01*
X100006387Y-63495876D01*
X99986608Y-63484958D01*
X99853789Y-63411638D01*
X99848920Y-63409914D01*
X99848916Y-63409912D01*
X99648087Y-63338795D01*
X99648083Y-63338794D01*
X99643212Y-63337069D01*
X99638119Y-63336162D01*
X99638116Y-63336161D01*
X99428373Y-63298800D01*
X99428367Y-63298799D01*
X99423284Y-63297894D01*
X99349452Y-63296992D01*
X99205081Y-63295228D01*
X99205079Y-63295228D01*
X99199911Y-63295165D01*
X98979091Y-63328955D01*
X98766756Y-63398357D01*
X98741015Y-63411757D01*
X98582740Y-63494150D01*
X98568607Y-63501507D01*
X98564474Y-63504610D01*
X98564471Y-63504612D01*
X98427024Y-63607810D01*
X98389965Y-63635635D01*
X98235629Y-63797138D01*
X98232715Y-63801410D01*
X98232714Y-63801411D01*
X98152611Y-63918838D01*
X98109743Y-63981680D01*
X98071011Y-64065121D01*
X98034471Y-64143841D01*
X98015688Y-64184305D01*
X97955989Y-64399570D01*
X97932251Y-64621695D01*
X97932548Y-64626848D01*
X97932548Y-64626851D01*
X97941667Y-64785000D01*
X97945110Y-64844715D01*
X97946247Y-64849761D01*
X97946248Y-64849767D01*
X97947959Y-64857359D01*
X97994222Y-65062639D01*
X98078266Y-65269616D01*
X98113254Y-65326712D01*
X98163459Y-65408638D01*
X98194987Y-65460088D01*
X98341250Y-65628938D01*
X98513126Y-65771632D01*
X98517593Y-65774242D01*
X98586445Y-65814476D01*
X98635169Y-65866114D01*
X98648240Y-65935897D01*
X98621509Y-66001669D01*
X98581055Y-66035027D01*
X98568607Y-66041507D01*
X98564474Y-66044610D01*
X98564471Y-66044612D01*
X98434484Y-66142209D01*
X98389965Y-66175635D01*
X98235629Y-66337138D01*
X98109743Y-66521680D01*
X98084786Y-66575446D01*
X98018328Y-66718618D01*
X98015688Y-66724305D01*
X97955989Y-66939570D01*
X97932251Y-67161695D01*
X80062902Y-67161695D01*
X80196395Y-66913772D01*
X80198017Y-66910760D01*
X80332842Y-66578724D01*
X80335212Y-66570406D01*
X80363527Y-66471006D01*
X80431020Y-66234070D01*
X80447038Y-66140364D01*
X80490829Y-65884175D01*
X80490829Y-65884173D01*
X80491401Y-65880828D01*
X80492253Y-65866908D01*
X80513168Y-65524928D01*
X80513278Y-65523131D01*
X80513359Y-65500000D01*
X80493979Y-65142159D01*
X80436066Y-64788505D01*
X80340297Y-64443173D01*
X80338049Y-64437522D01*
X80215134Y-64128652D01*
X80207793Y-64110205D01*
X80142228Y-63986375D01*
X80041702Y-63796513D01*
X80041698Y-63796506D01*
X80040103Y-63793494D01*
X79839190Y-63496746D01*
X79828802Y-63484496D01*
X79693564Y-63325030D01*
X79607403Y-63223432D01*
X79347454Y-62976750D01*
X79062384Y-62759585D01*
X79059472Y-62757828D01*
X79059467Y-62757825D01*
X78758443Y-62576236D01*
X78758437Y-62576233D01*
X78755528Y-62574478D01*
X78430475Y-62423593D01*
X78222947Y-62353349D01*
X78164835Y-62312562D01*
X78137999Y-62246833D01*
X78150959Y-62177029D01*
X78199601Y-62125313D01*
X78263344Y-62108000D01*
X129366000Y-62108000D01*
X129434121Y-62128002D01*
X129480614Y-62181658D01*
X129492000Y-62234000D01*
X129492000Y-64662002D01*
X129471998Y-64730123D01*
X129418342Y-64776616D01*
X129348068Y-64786720D01*
X129283488Y-64757226D01*
X129254648Y-64720965D01*
X129240103Y-64693494D01*
X129039190Y-64396746D01*
X128807403Y-64123432D01*
X128547454Y-63876750D01*
X128348269Y-63725012D01*
X128265091Y-63661647D01*
X128265089Y-63661646D01*
X128262384Y-63659585D01*
X128259472Y-63657828D01*
X128259467Y-63657825D01*
X127958443Y-63476236D01*
X127958437Y-63476233D01*
X127955528Y-63474478D01*
X127663225Y-63338795D01*
X127633571Y-63325030D01*
X127633569Y-63325029D01*
X127630475Y-63323593D01*
X127460751Y-63266145D01*
X127294255Y-63209789D01*
X127294250Y-63209788D01*
X127291028Y-63208697D01*
X127092681Y-63164724D01*
X126944493Y-63131871D01*
X126944487Y-63131870D01*
X126941158Y-63131132D01*
X126937769Y-63130758D01*
X126937764Y-63130757D01*
X126588338Y-63092180D01*
X126588333Y-63092180D01*
X126584957Y-63091807D01*
X126581558Y-63091801D01*
X126581557Y-63091801D01*
X126412080Y-63091505D01*
X126226592Y-63091182D01*
X126113413Y-63103277D01*
X125873639Y-63128901D01*
X125873631Y-63128902D01*
X125870256Y-63129263D01*
X125520117Y-63205606D01*
X125180271Y-63319317D01*
X125177178Y-63320739D01*
X125177177Y-63320740D01*
X125057253Y-63375899D01*
X124854694Y-63469066D01*
X124851760Y-63470822D01*
X124851758Y-63470823D01*
X124570131Y-63639373D01*
X124547193Y-63653101D01*
X124544467Y-63655163D01*
X124544465Y-63655164D01*
X124322181Y-63823277D01*
X124261367Y-63869270D01*
X124258882Y-63871612D01*
X124258877Y-63871616D01*
X124200096Y-63927009D01*
X124000559Y-64115043D01*
X123767819Y-64387546D01*
X123765900Y-64390358D01*
X123765897Y-64390363D01*
X123680741Y-64515197D01*
X123565871Y-64683591D01*
X123397077Y-64999714D01*
X123263411Y-65332218D01*
X123262491Y-65335492D01*
X123262489Y-65335497D01*
X123180007Y-65628938D01*
X123166437Y-65677213D01*
X123165875Y-65680570D01*
X123165875Y-65680571D01*
X123113613Y-65992881D01*
X123107290Y-66030663D01*
X123086661Y-66388434D01*
X123086833Y-66391829D01*
X123086833Y-66391830D01*
X123094888Y-66550840D01*
X123104792Y-66746340D01*
X123105329Y-66749695D01*
X123105330Y-66749701D01*
X123131128Y-66910760D01*
X123161470Y-67100195D01*
X123256033Y-67445859D01*
X123387374Y-67779288D01*
X123395960Y-67795642D01*
X123551168Y-68091269D01*
X123553957Y-68096582D01*
X123555858Y-68099411D01*
X123555864Y-68099421D01*
X123651516Y-68241765D01*
X123753834Y-68394029D01*
X123984665Y-68668150D01*
X124243751Y-68915738D01*
X124528061Y-69133897D01*
X124560056Y-69153350D01*
X124831355Y-69318303D01*
X124831360Y-69318306D01*
X124834270Y-69320075D01*
X124837358Y-69321521D01*
X124837357Y-69321521D01*
X125155710Y-69470649D01*
X125155720Y-69470653D01*
X125158794Y-69472093D01*
X125162012Y-69473195D01*
X125162015Y-69473196D01*
X125494615Y-69587071D01*
X125494623Y-69587073D01*
X125497838Y-69588174D01*
X125847435Y-69666959D01*
X125899728Y-69672917D01*
X126200114Y-69707142D01*
X126200122Y-69707142D01*
X126203497Y-69707527D01*
X126206901Y-69707545D01*
X126206904Y-69707545D01*
X126401227Y-69708562D01*
X126561857Y-69709403D01*
X126565243Y-69709053D01*
X126565245Y-69709053D01*
X126914932Y-69672917D01*
X126914941Y-69672916D01*
X126918324Y-69672566D01*
X126921657Y-69671852D01*
X126921660Y-69671851D01*
X127094186Y-69634864D01*
X127268727Y-69597446D01*
X127608968Y-69484922D01*
X127935066Y-69336311D01*
X128029052Y-69280506D01*
X128240262Y-69155099D01*
X128240267Y-69155096D01*
X128243207Y-69153350D01*
X128529786Y-68938180D01*
X128791451Y-68693319D01*
X129025140Y-68421630D01*
X129131750Y-68266512D01*
X129226190Y-68129101D01*
X129226195Y-68129094D01*
X129228120Y-68126292D01*
X129229732Y-68123298D01*
X129229737Y-68123290D01*
X129255060Y-68076259D01*
X129304966Y-68025763D01*
X129374251Y-68010264D01*
X129440916Y-68034684D01*
X129483795Y-68091269D01*
X129492000Y-68135994D01*
X129492000Y-111362002D01*
X129471998Y-111430123D01*
X129418342Y-111476616D01*
X129348068Y-111486720D01*
X129283488Y-111457226D01*
X129254648Y-111420965D01*
X129240103Y-111393494D01*
X129039190Y-111096746D01*
X129026072Y-111081277D01*
X128943506Y-110983919D01*
X128807403Y-110823432D01*
X128547454Y-110576750D01*
X128282619Y-110375000D01*
X128265091Y-110361647D01*
X128265089Y-110361646D01*
X128262384Y-110359585D01*
X128259472Y-110357828D01*
X128259467Y-110357825D01*
X127958443Y-110176236D01*
X127958437Y-110176233D01*
X127955528Y-110174478D01*
X127630475Y-110023593D01*
X127460751Y-109966145D01*
X127294255Y-109909789D01*
X127294250Y-109909788D01*
X127291028Y-109908697D01*
X127092681Y-109864724D01*
X126944493Y-109831871D01*
X126944487Y-109831870D01*
X126941158Y-109831132D01*
X126937769Y-109830758D01*
X126937764Y-109830757D01*
X126588338Y-109792180D01*
X126588333Y-109792180D01*
X126584957Y-109791807D01*
X126581558Y-109791801D01*
X126581557Y-109791801D01*
X126412080Y-109791505D01*
X126226592Y-109791182D01*
X126113413Y-109803277D01*
X125873639Y-109828901D01*
X125873631Y-109828902D01*
X125870256Y-109829263D01*
X125520117Y-109905606D01*
X125180271Y-110019317D01*
X125177178Y-110020739D01*
X125177177Y-110020740D01*
X125170974Y-110023593D01*
X124854694Y-110169066D01*
X124851760Y-110170822D01*
X124851758Y-110170823D01*
X124574828Y-110336562D01*
X124547193Y-110353101D01*
X124544467Y-110355163D01*
X124544465Y-110355164D01*
X124267390Y-110564715D01*
X124261367Y-110569270D01*
X124000559Y-110815043D01*
X123767819Y-111087546D01*
X123765900Y-111090358D01*
X123765897Y-111090363D01*
X123695104Y-111194142D01*
X123565871Y-111383591D01*
X123397077Y-111699714D01*
X123263411Y-112032218D01*
X123262491Y-112035492D01*
X123262489Y-112035497D01*
X123201993Y-112250720D01*
X123166437Y-112377213D01*
X123165875Y-112380570D01*
X123165875Y-112380571D01*
X123113700Y-112692361D01*
X123107290Y-112730663D01*
X123086661Y-113088434D01*
X123086833Y-113091829D01*
X123086833Y-113091830D01*
X123091021Y-113174501D01*
X123104792Y-113446340D01*
X123105329Y-113449695D01*
X123105330Y-113449701D01*
X123132812Y-113621277D01*
X123161470Y-113800195D01*
X123256033Y-114145859D01*
X123387374Y-114479288D01*
X123388957Y-114482303D01*
X123551168Y-114791269D01*
X123553957Y-114796582D01*
X123555858Y-114799411D01*
X123555864Y-114799421D01*
X123739569Y-115072800D01*
X123753834Y-115094029D01*
X123984665Y-115368150D01*
X124243751Y-115615738D01*
X124528061Y-115833897D01*
X124560056Y-115853350D01*
X124831355Y-116018303D01*
X124831360Y-116018306D01*
X124834270Y-116020075D01*
X124848684Y-116026827D01*
X124902205Y-116051898D01*
X124955408Y-116098908D01*
X124974750Y-116167219D01*
X124954090Y-116235143D01*
X124899987Y-116281115D01*
X124848756Y-116292000D01*
X119112667Y-116292000D01*
X119044546Y-116271998D01*
X118998053Y-116218342D01*
X118987949Y-116148068D01*
X119017443Y-116083488D01*
X119026417Y-116074147D01*
X119030692Y-116070133D01*
X119037107Y-116065472D01*
X119065298Y-116031395D01*
X119073288Y-116022616D01*
X121192253Y-113903652D01*
X121200539Y-113896112D01*
X121207018Y-113892000D01*
X121253644Y-113842348D01*
X121256398Y-113839507D01*
X121276135Y-113819770D01*
X121278615Y-113816573D01*
X121286320Y-113807551D01*
X121316586Y-113775321D01*
X121320405Y-113768375D01*
X121320407Y-113768372D01*
X121326348Y-113757566D01*
X121337199Y-113741047D01*
X121344758Y-113731301D01*
X121349614Y-113725041D01*
X121352759Y-113717772D01*
X121352762Y-113717768D01*
X121367174Y-113684463D01*
X121372391Y-113673813D01*
X121393695Y-113635060D01*
X121398733Y-113615437D01*
X121405137Y-113596734D01*
X121410033Y-113585420D01*
X121410033Y-113585419D01*
X121413181Y-113578145D01*
X121414420Y-113570322D01*
X121414423Y-113570312D01*
X121420099Y-113534476D01*
X121422505Y-113522856D01*
X121431528Y-113487711D01*
X121431528Y-113487710D01*
X121433500Y-113480030D01*
X121433500Y-113459776D01*
X121435051Y-113440065D01*
X121436980Y-113427886D01*
X121438220Y-113420057D01*
X121434059Y-113376038D01*
X121433500Y-113364181D01*
X121433500Y-65878768D01*
X121434027Y-65867585D01*
X121435702Y-65860092D01*
X121435376Y-65849701D01*
X121433562Y-65792002D01*
X121433500Y-65788044D01*
X121433500Y-65760144D01*
X121432996Y-65756153D01*
X121432063Y-65744311D01*
X121430923Y-65708036D01*
X121430674Y-65700111D01*
X121425021Y-65680652D01*
X121421012Y-65661293D01*
X121420846Y-65659983D01*
X121418474Y-65641203D01*
X121415558Y-65633837D01*
X121415556Y-65633831D01*
X121402200Y-65600098D01*
X121398355Y-65588868D01*
X121388230Y-65554017D01*
X121388230Y-65554016D01*
X121386019Y-65546407D01*
X121380927Y-65537797D01*
X121375705Y-65528966D01*
X121367008Y-65511213D01*
X121362472Y-65499758D01*
X121359552Y-65492383D01*
X121333563Y-65456612D01*
X121327047Y-65446692D01*
X121308578Y-65415463D01*
X121304542Y-65408638D01*
X121290221Y-65394317D01*
X121277380Y-65379283D01*
X121270131Y-65369306D01*
X121265472Y-65362893D01*
X121231395Y-65334702D01*
X121222616Y-65326712D01*
X120158652Y-64262747D01*
X120151112Y-64254461D01*
X120147000Y-64247982D01*
X120097348Y-64201356D01*
X120094507Y-64198602D01*
X120074770Y-64178865D01*
X120071573Y-64176385D01*
X120062551Y-64168680D01*
X120036100Y-64143841D01*
X120030321Y-64138414D01*
X120023375Y-64134595D01*
X120023372Y-64134593D01*
X120012566Y-64128652D01*
X119996047Y-64117801D01*
X119989473Y-64112702D01*
X119980041Y-64105386D01*
X119972772Y-64102241D01*
X119972768Y-64102238D01*
X119939463Y-64087826D01*
X119928813Y-64082609D01*
X119890060Y-64061305D01*
X119870437Y-64056267D01*
X119851734Y-64049863D01*
X119840420Y-64044967D01*
X119840419Y-64044967D01*
X119833145Y-64041819D01*
X119825322Y-64040580D01*
X119825312Y-64040577D01*
X119789476Y-64034901D01*
X119777856Y-64032495D01*
X119742711Y-64023472D01*
X119742710Y-64023472D01*
X119735030Y-64021500D01*
X119714776Y-64021500D01*
X119695065Y-64019949D01*
X119682886Y-64018020D01*
X119675057Y-64016780D01*
X119667165Y-64017526D01*
X119631039Y-64020941D01*
X119619181Y-64021500D01*
X118351805Y-64021500D01*
X118283684Y-64001498D01*
X118246013Y-63963940D01*
X118157822Y-63827617D01*
X118157820Y-63827614D01*
X118155014Y-63823277D01*
X118004670Y-63658051D01*
X118000619Y-63654852D01*
X118000615Y-63654848D01*
X117833414Y-63522800D01*
X117833410Y-63522798D01*
X117829359Y-63519598D01*
X117786387Y-63495876D01*
X117766608Y-63484958D01*
X117633789Y-63411638D01*
X117628920Y-63409914D01*
X117628916Y-63409912D01*
X117428087Y-63338795D01*
X117428083Y-63338794D01*
X117423212Y-63337069D01*
X117418119Y-63336162D01*
X117418116Y-63336161D01*
X117208373Y-63298800D01*
X117208367Y-63298799D01*
X117203284Y-63297894D01*
X117129452Y-63296992D01*
X116985081Y-63295228D01*
X116985079Y-63295228D01*
X116979911Y-63295165D01*
X116759091Y-63328955D01*
X116546756Y-63398357D01*
X116521015Y-63411757D01*
X116362740Y-63494150D01*
X116348607Y-63501507D01*
X116344474Y-63504610D01*
X116344471Y-63504612D01*
X116207024Y-63607810D01*
X116169965Y-63635635D01*
X116015629Y-63797138D01*
X116012715Y-63801410D01*
X116012714Y-63801411D01*
X115932611Y-63918838D01*
X115889743Y-63981680D01*
X115851011Y-64065121D01*
X115814471Y-64143841D01*
X115795688Y-64184305D01*
X115735989Y-64399570D01*
X115712251Y-64621695D01*
X115712548Y-64626848D01*
X115712548Y-64626851D01*
X115721667Y-64785000D01*
X115725110Y-64844715D01*
X115726247Y-64849761D01*
X115726248Y-64849767D01*
X115727959Y-64857359D01*
X115774222Y-65062639D01*
X115858266Y-65269616D01*
X115893254Y-65326712D01*
X115943459Y-65408638D01*
X115974987Y-65460088D01*
X116121250Y-65628938D01*
X116293126Y-65771632D01*
X116321212Y-65788044D01*
X116366445Y-65814476D01*
X116415169Y-65866114D01*
X116428240Y-65935897D01*
X116401509Y-66001669D01*
X116361055Y-66035027D01*
X116348607Y-66041507D01*
X116344474Y-66044610D01*
X116344471Y-66044612D01*
X116214484Y-66142209D01*
X116169965Y-66175635D01*
X116015629Y-66337138D01*
X115889743Y-66521680D01*
X115864786Y-66575446D01*
X115798328Y-66718618D01*
X115795688Y-66724305D01*
X115735989Y-66939570D01*
X115712251Y-67161695D01*
X115712548Y-67166848D01*
X115712548Y-67166851D01*
X115718011Y-67261590D01*
X115725110Y-67384715D01*
X115726247Y-67389761D01*
X115726248Y-67389767D01*
X115739604Y-67449029D01*
X115774222Y-67602639D01*
X115812461Y-67696811D01*
X115851649Y-67793319D01*
X115858266Y-67809616D01*
X115974987Y-68000088D01*
X116121250Y-68168938D01*
X116125225Y-68172238D01*
X116125231Y-68172244D01*
X116130425Y-68176556D01*
X116170059Y-68235460D01*
X116171555Y-68306441D01*
X116134439Y-68366962D01*
X116094168Y-68391480D01*
X115986946Y-68431676D01*
X115971351Y-68440214D01*
X115869276Y-68516715D01*
X115856715Y-68529276D01*
X115780214Y-68631351D01*
X115771676Y-68646946D01*
X115726522Y-68767394D01*
X115722895Y-68782649D01*
X115717369Y-68833514D01*
X115717000Y-68840328D01*
X115717000Y-69462885D01*
X115721475Y-69478124D01*
X115722865Y-69479329D01*
X115730548Y-69481000D01*
X118414884Y-69481000D01*
X118430123Y-69476525D01*
X118431328Y-69475135D01*
X118432999Y-69467452D01*
X118432999Y-68840331D01*
X118432629Y-68833510D01*
X118427105Y-68782648D01*
X118423479Y-68767396D01*
X118378324Y-68646946D01*
X118369786Y-68631351D01*
X118293285Y-68529276D01*
X118280724Y-68516715D01*
X118178649Y-68440214D01*
X118163054Y-68431676D01*
X118052813Y-68390348D01*
X117996049Y-68347706D01*
X117971349Y-68281145D01*
X117986557Y-68211796D01*
X118008104Y-68183115D01*
X118109430Y-68082144D01*
X118109440Y-68082132D01*
X118113096Y-68078489D01*
X118143732Y-68035855D01*
X118240435Y-67901277D01*
X118243453Y-67897077D01*
X118300178Y-67782303D01*
X118340136Y-67701453D01*
X118340137Y-67701451D01*
X118342430Y-67696811D01*
X118396509Y-67518818D01*
X118405865Y-67488023D01*
X118405865Y-67488021D01*
X118407370Y-67483069D01*
X118436529Y-67261590D01*
X118437323Y-67229101D01*
X118438074Y-67198365D01*
X118438074Y-67198361D01*
X118438156Y-67195000D01*
X118419852Y-66972361D01*
X118365431Y-66755702D01*
X118276354Y-66550840D01*
X118155014Y-66363277D01*
X118004670Y-66198051D01*
X118000619Y-66194852D01*
X118000615Y-66194848D01*
X117833414Y-66062800D01*
X117833410Y-66062798D01*
X117829359Y-66059598D01*
X117788053Y-66036796D01*
X117738084Y-65986364D01*
X117723312Y-65916921D01*
X117748428Y-65850516D01*
X117775780Y-65823909D01*
X117826061Y-65788044D01*
X117954860Y-65696173D01*
X117970436Y-65680652D01*
X118062541Y-65588868D01*
X118113096Y-65538489D01*
X118172594Y-65455689D01*
X118240435Y-65361277D01*
X118243453Y-65357077D01*
X118245746Y-65352437D01*
X118247446Y-65349608D01*
X118299674Y-65301518D01*
X118355451Y-65288500D01*
X119340406Y-65288500D01*
X119408527Y-65308502D01*
X119429501Y-65325405D01*
X120129595Y-66025499D01*
X120163621Y-66087811D01*
X120166500Y-66114594D01*
X120166500Y-113085406D01*
X120146498Y-113153527D01*
X120129595Y-113174501D01*
X118374500Y-114929595D01*
X118312188Y-114963621D01*
X118285405Y-114966500D01*
X85179595Y-114966500D01*
X85111474Y-114946498D01*
X85090500Y-114929595D01*
X78376218Y-108215313D01*
X78342192Y-108153001D01*
X78344755Y-108089589D01*
X78355865Y-108053022D01*
X78357370Y-108048069D01*
X78386529Y-107826590D01*
X78388156Y-107760000D01*
X78369852Y-107537361D01*
X78315431Y-107320702D01*
X78226354Y-107115840D01*
X78108402Y-106933514D01*
X78107822Y-106932617D01*
X78107820Y-106932614D01*
X78105014Y-106928277D01*
X77954670Y-106763051D01*
X77950619Y-106759852D01*
X77950615Y-106759848D01*
X77783414Y-106627800D01*
X77783410Y-106627798D01*
X77779359Y-106624598D01*
X77738053Y-106601796D01*
X77688084Y-106551364D01*
X77673312Y-106481921D01*
X77698428Y-106415516D01*
X77725780Y-106388909D01*
X77769603Y-106357650D01*
X77904860Y-106261173D01*
X78063096Y-106103489D01*
X78193453Y-105922077D01*
X78201978Y-105904829D01*
X78290136Y-105726453D01*
X78290137Y-105726451D01*
X78292430Y-105721811D01*
X78357370Y-105508069D01*
X78386529Y-105286590D01*
X78388156Y-105220000D01*
X78369852Y-104997361D01*
X78315431Y-104780702D01*
X78284577Y-104709743D01*
X78275756Y-104639296D01*
X78306423Y-104575264D01*
X78366839Y-104537976D01*
X78400126Y-104533500D01*
X81146005Y-104533500D01*
X81163759Y-104534757D01*
X81186636Y-104538013D01*
X81193191Y-104538082D01*
X81195874Y-104538110D01*
X81195877Y-104538110D01*
X81200000Y-104538153D01*
X81204089Y-104537658D01*
X81204093Y-104537658D01*
X81230373Y-104534478D01*
X81234471Y-104534051D01*
X81337191Y-104525064D01*
X81406793Y-104539052D01*
X81457785Y-104588451D01*
X81473690Y-104639601D01*
X81477170Y-104679374D01*
X81519446Y-104837149D01*
X81521769Y-104842130D01*
X81521769Y-104842131D01*
X81586151Y-104980200D01*
X81586154Y-104980205D01*
X81588477Y-104985187D01*
X81682166Y-105118988D01*
X81797666Y-105234488D01*
X81931467Y-105328177D01*
X81936449Y-105330500D01*
X81936454Y-105330503D01*
X82074523Y-105394885D01*
X82079505Y-105397208D01*
X82084813Y-105398630D01*
X82084815Y-105398631D01*
X82231965Y-105438060D01*
X82231967Y-105438060D01*
X82237280Y-105439484D01*
X82242766Y-105439964D01*
X82242772Y-105439965D01*
X82344659Y-105448880D01*
X82351429Y-105449657D01*
X82382549Y-105454086D01*
X82382559Y-105454087D01*
X82386636Y-105454667D01*
X82393256Y-105454736D01*
X82395874Y-105454764D01*
X82395877Y-105454764D01*
X82400000Y-105454807D01*
X82404089Y-105454312D01*
X82404093Y-105454312D01*
X82430373Y-105451132D01*
X82434526Y-105450700D01*
X82477248Y-105446962D01*
X82562720Y-105439484D01*
X82660566Y-105413266D01*
X82715185Y-105398631D01*
X82715187Y-105398630D01*
X82720495Y-105397208D01*
X82725477Y-105394885D01*
X82863546Y-105330503D01*
X82863551Y-105330500D01*
X82868533Y-105328177D01*
X82927729Y-105286727D01*
X82995003Y-105264039D01*
X83063863Y-105281324D01*
X83072268Y-105286725D01*
X83131467Y-105328177D01*
X83136449Y-105330500D01*
X83136454Y-105330503D01*
X83274523Y-105394885D01*
X83279505Y-105397208D01*
X83284813Y-105398630D01*
X83284815Y-105398631D01*
X83431965Y-105438060D01*
X83431967Y-105438060D01*
X83437280Y-105439484D01*
X83442766Y-105439964D01*
X83442772Y-105439965D01*
X83544659Y-105448880D01*
X83551429Y-105449657D01*
X83582549Y-105454086D01*
X83582559Y-105454087D01*
X83586636Y-105454667D01*
X83593256Y-105454736D01*
X83595874Y-105454764D01*
X83595877Y-105454764D01*
X83600000Y-105454807D01*
X83604089Y-105454312D01*
X83604093Y-105454312D01*
X83630373Y-105451132D01*
X83634526Y-105450700D01*
X83677248Y-105446962D01*
X83762720Y-105439484D01*
X83860566Y-105413266D01*
X83915185Y-105398631D01*
X83915187Y-105398630D01*
X83920495Y-105397208D01*
X83925477Y-105394885D01*
X84063546Y-105330503D01*
X84063551Y-105330500D01*
X84068533Y-105328177D01*
X84127729Y-105286727D01*
X84195003Y-105264039D01*
X84263863Y-105281324D01*
X84272268Y-105286725D01*
X84331467Y-105328177D01*
X84336449Y-105330500D01*
X84336454Y-105330503D01*
X84474523Y-105394885D01*
X84479505Y-105397208D01*
X84484813Y-105398630D01*
X84484815Y-105398631D01*
X84631965Y-105438060D01*
X84631967Y-105438060D01*
X84637280Y-105439484D01*
X84642766Y-105439964D01*
X84642772Y-105439965D01*
X84744659Y-105448880D01*
X84751429Y-105449657D01*
X84782549Y-105454086D01*
X84782559Y-105454087D01*
X84786636Y-105454667D01*
X84793256Y-105454736D01*
X84795874Y-105454764D01*
X84795877Y-105454764D01*
X84800000Y-105454807D01*
X84804089Y-105454312D01*
X84804093Y-105454312D01*
X84830373Y-105451132D01*
X84834526Y-105450700D01*
X84877248Y-105446962D01*
X84962720Y-105439484D01*
X85060566Y-105413266D01*
X85115185Y-105398631D01*
X85115187Y-105398630D01*
X85120495Y-105397208D01*
X85125477Y-105394885D01*
X85263546Y-105330503D01*
X85263551Y-105330500D01*
X85268533Y-105328177D01*
X85327729Y-105286727D01*
X85395003Y-105264039D01*
X85463863Y-105281324D01*
X85472268Y-105286725D01*
X85531467Y-105328177D01*
X85536449Y-105330500D01*
X85536454Y-105330503D01*
X85674523Y-105394885D01*
X85679505Y-105397208D01*
X85684813Y-105398630D01*
X85684815Y-105398631D01*
X85831965Y-105438060D01*
X85831967Y-105438060D01*
X85837280Y-105439484D01*
X85842766Y-105439964D01*
X85842772Y-105439965D01*
X85944659Y-105448880D01*
X85951429Y-105449657D01*
X85982549Y-105454086D01*
X85982559Y-105454087D01*
X85986636Y-105454667D01*
X85993256Y-105454736D01*
X85995874Y-105454764D01*
X85995877Y-105454764D01*
X86000000Y-105454807D01*
X86004089Y-105454312D01*
X86004093Y-105454312D01*
X86030373Y-105451132D01*
X86034526Y-105450700D01*
X86077248Y-105446962D01*
X86162720Y-105439484D01*
X86260566Y-105413266D01*
X86315185Y-105398631D01*
X86315187Y-105398630D01*
X86320495Y-105397208D01*
X86325477Y-105394885D01*
X86463546Y-105330503D01*
X86463551Y-105330500D01*
X86468533Y-105328177D01*
X86602334Y-105234488D01*
X86717834Y-105118988D01*
X86811523Y-104985187D01*
X86813846Y-104980205D01*
X86813849Y-104980200D01*
X86878231Y-104842131D01*
X86878231Y-104842130D01*
X86880554Y-104837149D01*
X86922830Y-104679374D01*
X86926310Y-104639601D01*
X86952173Y-104573483D01*
X87009677Y-104531844D01*
X87062813Y-104525064D01*
X87089351Y-104527386D01*
X87109699Y-104530863D01*
X87112291Y-104531529D01*
X87112295Y-104531530D01*
X87119970Y-104533500D01*
X87146005Y-104533500D01*
X87163755Y-104534757D01*
X87186636Y-104538013D01*
X87193679Y-104538087D01*
X87195880Y-104538110D01*
X87195882Y-104538110D01*
X87200000Y-104538153D01*
X87204090Y-104537658D01*
X87204091Y-104537658D01*
X87211747Y-104536731D01*
X87230907Y-104534413D01*
X87246042Y-104533500D01*
X89965406Y-104533500D01*
X90033527Y-104553502D01*
X90054501Y-104570405D01*
X97944778Y-112460682D01*
X97978804Y-112522994D01*
X97977100Y-112583448D01*
X97955989Y-112659570D01*
X97955441Y-112664700D01*
X97955440Y-112664704D01*
X97951933Y-112697522D01*
X97932251Y-112881695D01*
X97932548Y-112886848D01*
X97932548Y-112886851D01*
X97938011Y-112981590D01*
X97945110Y-113104715D01*
X97946247Y-113109761D01*
X97946248Y-113109767D01*
X97966119Y-113197939D01*
X97994222Y-113322639D01*
X98078266Y-113529616D01*
X98108005Y-113578145D01*
X98160213Y-113663341D01*
X98194987Y-113720088D01*
X98341250Y-113888938D01*
X98513126Y-114031632D01*
X98706000Y-114144338D01*
X98914692Y-114224030D01*
X98919760Y-114225061D01*
X98919763Y-114225062D01*
X99027017Y-114246883D01*
X99133597Y-114268567D01*
X99138772Y-114268757D01*
X99138774Y-114268757D01*
X99351673Y-114276564D01*
X99351677Y-114276564D01*
X99356837Y-114276753D01*
X99361957Y-114276097D01*
X99361959Y-114276097D01*
X99573288Y-114249025D01*
X99573289Y-114249025D01*
X99578416Y-114248368D01*
X99583366Y-114246883D01*
X99787429Y-114185661D01*
X99787434Y-114185659D01*
X99792384Y-114184174D01*
X99992994Y-114085896D01*
X100174860Y-113956173D01*
X100197041Y-113934070D01*
X100275488Y-113855896D01*
X100333096Y-113798489D01*
X100345157Y-113781705D01*
X100460435Y-113621277D01*
X100463453Y-113617077D01*
X100480336Y-113582918D01*
X100560136Y-113421453D01*
X100560137Y-113421451D01*
X100562430Y-113416811D01*
X100627370Y-113203069D01*
X100656529Y-112981590D01*
X100658156Y-112915000D01*
X100639852Y-112692361D01*
X100629637Y-112651695D01*
X104282251Y-112651695D01*
X104282548Y-112656848D01*
X104282548Y-112656851D01*
X104288011Y-112751590D01*
X104295110Y-112874715D01*
X104296247Y-112879761D01*
X104296248Y-112879767D01*
X104304947Y-112918365D01*
X104344222Y-113092639D01*
X104428266Y-113299616D01*
X104445307Y-113327425D01*
X104533965Y-113472101D01*
X104544987Y-113490088D01*
X104691250Y-113658938D01*
X104863126Y-113801632D01*
X105056000Y-113914338D01*
X105264692Y-113994030D01*
X105269760Y-113995061D01*
X105269763Y-113995062D01*
X105377017Y-114016883D01*
X105483597Y-114038567D01*
X105488772Y-114038757D01*
X105488774Y-114038757D01*
X105701673Y-114046564D01*
X105701677Y-114046564D01*
X105706837Y-114046753D01*
X105711957Y-114046097D01*
X105711959Y-114046097D01*
X105923288Y-114019025D01*
X105923289Y-114019025D01*
X105928416Y-114018368D01*
X105933366Y-114016883D01*
X106137429Y-113955661D01*
X106137434Y-113955659D01*
X106142384Y-113954174D01*
X106342994Y-113855896D01*
X106524860Y-113726173D01*
X106633091Y-113618319D01*
X106695462Y-113584404D01*
X106766268Y-113589592D01*
X106823030Y-113632238D01*
X106840012Y-113663341D01*
X106863567Y-113726173D01*
X106884385Y-113781705D01*
X106971739Y-113898261D01*
X107088295Y-113985615D01*
X107224684Y-114036745D01*
X107286866Y-114043500D01*
X109083134Y-114043500D01*
X109145316Y-114036745D01*
X109281705Y-113985615D01*
X109398261Y-113898261D01*
X109485615Y-113781705D01*
X109494664Y-113757566D01*
X109529598Y-113664382D01*
X109572240Y-113607618D01*
X109638802Y-113582918D01*
X109708150Y-113598126D01*
X109742817Y-113626114D01*
X109771250Y-113658938D01*
X109943126Y-113801632D01*
X110136000Y-113914338D01*
X110344692Y-113994030D01*
X110349760Y-113995061D01*
X110349763Y-113995062D01*
X110457017Y-114016883D01*
X110563597Y-114038567D01*
X110568772Y-114038757D01*
X110568774Y-114038757D01*
X110781673Y-114046564D01*
X110781677Y-114046564D01*
X110786837Y-114046753D01*
X110791957Y-114046097D01*
X110791959Y-114046097D01*
X111003288Y-114019025D01*
X111003289Y-114019025D01*
X111008416Y-114018368D01*
X111013366Y-114016883D01*
X111217429Y-113955661D01*
X111217434Y-113955659D01*
X111222384Y-113954174D01*
X111422994Y-113855896D01*
X111604860Y-113726173D01*
X111610967Y-113720088D01*
X111710123Y-113621277D01*
X111763096Y-113568489D01*
X111795887Y-113522856D01*
X111890435Y-113391277D01*
X111893453Y-113387077D01*
X111898909Y-113376039D01*
X111990136Y-113191453D01*
X111990137Y-113191451D01*
X111992430Y-113186811D01*
X112057370Y-112973069D01*
X112086529Y-112751590D01*
X112088156Y-112685000D01*
X112069852Y-112462361D01*
X112015431Y-112245702D01*
X111926354Y-112040840D01*
X111805014Y-111853277D01*
X111654670Y-111688051D01*
X111650619Y-111684852D01*
X111650615Y-111684848D01*
X111483414Y-111552800D01*
X111483410Y-111552798D01*
X111479359Y-111549598D01*
X111469054Y-111543909D01*
X111377726Y-111493494D01*
X111283789Y-111441638D01*
X111278920Y-111439914D01*
X111278916Y-111439912D01*
X111078087Y-111368795D01*
X111078083Y-111368794D01*
X111073212Y-111367069D01*
X111068119Y-111366162D01*
X111068116Y-111366161D01*
X110858373Y-111328800D01*
X110858367Y-111328799D01*
X110853284Y-111327894D01*
X110779452Y-111326992D01*
X110635081Y-111325228D01*
X110635079Y-111325228D01*
X110629911Y-111325165D01*
X110409091Y-111358955D01*
X110196756Y-111428357D01*
X109998607Y-111531507D01*
X109994474Y-111534610D01*
X109994471Y-111534612D01*
X109824100Y-111662530D01*
X109819965Y-111665635D01*
X109763537Y-111724684D01*
X109739283Y-111750064D01*
X109677759Y-111785494D01*
X109606846Y-111782037D01*
X109549060Y-111740791D01*
X109530207Y-111707243D01*
X109488767Y-111596703D01*
X109485615Y-111588295D01*
X109398261Y-111471739D01*
X109281705Y-111384385D01*
X109145316Y-111333255D01*
X109083134Y-111326500D01*
X107286866Y-111326500D01*
X107224684Y-111333255D01*
X107088295Y-111384385D01*
X106971739Y-111471739D01*
X106884385Y-111588295D01*
X106881233Y-111596703D01*
X106839919Y-111706907D01*
X106797277Y-111763671D01*
X106730716Y-111788371D01*
X106661367Y-111773163D01*
X106628743Y-111747476D01*
X106578151Y-111691875D01*
X106578142Y-111691866D01*
X106574670Y-111688051D01*
X106570619Y-111684852D01*
X106570615Y-111684848D01*
X106403414Y-111552800D01*
X106403410Y-111552798D01*
X106399359Y-111549598D01*
X106389054Y-111543909D01*
X106297726Y-111493494D01*
X106203789Y-111441638D01*
X106198920Y-111439914D01*
X106198916Y-111439912D01*
X105998087Y-111368795D01*
X105998083Y-111368794D01*
X105993212Y-111367069D01*
X105988119Y-111366162D01*
X105988116Y-111366161D01*
X105778373Y-111328800D01*
X105778367Y-111328799D01*
X105773284Y-111327894D01*
X105699452Y-111326992D01*
X105555081Y-111325228D01*
X105555079Y-111325228D01*
X105549911Y-111325165D01*
X105329091Y-111358955D01*
X105116756Y-111428357D01*
X104918607Y-111531507D01*
X104914474Y-111534610D01*
X104914471Y-111534612D01*
X104744100Y-111662530D01*
X104739965Y-111665635D01*
X104710268Y-111696711D01*
X104601811Y-111810205D01*
X104585629Y-111827138D01*
X104582715Y-111831410D01*
X104582714Y-111831411D01*
X104521007Y-111921870D01*
X104459743Y-112011680D01*
X104365688Y-112214305D01*
X104305989Y-112429570D01*
X104282251Y-112651695D01*
X100629637Y-112651695D01*
X100585431Y-112475702D01*
X100496354Y-112270840D01*
X100415893Y-112146466D01*
X100377822Y-112087617D01*
X100377820Y-112087614D01*
X100375014Y-112083277D01*
X100224670Y-111918051D01*
X100220619Y-111914852D01*
X100220615Y-111914848D01*
X100053414Y-111782800D01*
X100053410Y-111782798D01*
X100049359Y-111779598D01*
X100008053Y-111756796D01*
X99958084Y-111706364D01*
X99943312Y-111636921D01*
X99968428Y-111570516D01*
X99995780Y-111543909D01*
X100086893Y-111478919D01*
X100174860Y-111416173D01*
X100197619Y-111393494D01*
X100266187Y-111325165D01*
X100333096Y-111258489D01*
X100384074Y-111187546D01*
X100460435Y-111081277D01*
X100463453Y-111077077D01*
X100562430Y-110876811D01*
X100594900Y-110769940D01*
X100625865Y-110668023D01*
X100625865Y-110668021D01*
X100627370Y-110663069D01*
X100656529Y-110441590D01*
X100657191Y-110414485D01*
X100658074Y-110378365D01*
X100658074Y-110378361D01*
X100658156Y-110375000D01*
X100639852Y-110152361D01*
X100585431Y-109935702D01*
X100496354Y-109730840D01*
X100375014Y-109543277D01*
X100371540Y-109539459D01*
X100371533Y-109539450D01*
X100227435Y-109381088D01*
X100196383Y-109317242D01*
X100204779Y-109246744D01*
X100249956Y-109191976D01*
X100276400Y-109178307D01*
X100383052Y-109138325D01*
X100398649Y-109129786D01*
X100500724Y-109053285D01*
X100513285Y-109040724D01*
X100589786Y-108938649D01*
X100598324Y-108923054D01*
X100643478Y-108802606D01*
X100647105Y-108787351D01*
X100652631Y-108736486D01*
X100653000Y-108729672D01*
X100653000Y-108107115D01*
X100648525Y-108091876D01*
X100647135Y-108090671D01*
X100639452Y-108089000D01*
X97957095Y-108089000D01*
X97888974Y-108068998D01*
X97868000Y-108052095D01*
X90738163Y-100922258D01*
X90730623Y-100913972D01*
X90726511Y-100907493D01*
X90676859Y-100860867D01*
X90674018Y-100858113D01*
X90654281Y-100838376D01*
X90651084Y-100835896D01*
X90642062Y-100828191D01*
X90615611Y-100803352D01*
X90609832Y-100797925D01*
X90602886Y-100794106D01*
X90602883Y-100794104D01*
X90592077Y-100788163D01*
X90575558Y-100777312D01*
X90575094Y-100776952D01*
X90559552Y-100764897D01*
X90552283Y-100761752D01*
X90552279Y-100761749D01*
X90518974Y-100747337D01*
X90508324Y-100742120D01*
X90469571Y-100720816D01*
X90449948Y-100715778D01*
X90431245Y-100709374D01*
X90419931Y-100704478D01*
X90419930Y-100704478D01*
X90412656Y-100701330D01*
X90404833Y-100700091D01*
X90404823Y-100700088D01*
X90368987Y-100694412D01*
X90357367Y-100692006D01*
X90322222Y-100682983D01*
X90322221Y-100682983D01*
X90314541Y-100681011D01*
X90294287Y-100681011D01*
X90274576Y-100679460D01*
X90262397Y-100677531D01*
X90254568Y-100676291D01*
X90214295Y-100680098D01*
X90210550Y-100680452D01*
X90198692Y-100681011D01*
X89668506Y-100681011D01*
X89650752Y-100679754D01*
X89648686Y-100679460D01*
X89627875Y-100676498D01*
X89621320Y-100676429D01*
X89618637Y-100676401D01*
X89618634Y-100676401D01*
X89614511Y-100676358D01*
X89610422Y-100676853D01*
X89610418Y-100676853D01*
X89584138Y-100680033D01*
X89579985Y-100680465D01*
X89551206Y-100682983D01*
X89479738Y-100689236D01*
X89410133Y-100675248D01*
X89359141Y-100625849D01*
X89343236Y-100574699D01*
X89337821Y-100512812D01*
X89337341Y-100507325D01*
X89295065Y-100349550D01*
X89273819Y-100303988D01*
X89228360Y-100206499D01*
X89228357Y-100206494D01*
X89226034Y-100201512D01*
X89132345Y-100067711D01*
X89016845Y-99952211D01*
X88959907Y-99912342D01*
X88918646Y-99883451D01*
X88883044Y-99858522D01*
X88878062Y-99856199D01*
X88878057Y-99856196D01*
X88739988Y-99791814D01*
X88739987Y-99791814D01*
X88735006Y-99789491D01*
X88729698Y-99788069D01*
X88729696Y-99788068D01*
X88582546Y-99748639D01*
X88582544Y-99748639D01*
X88577231Y-99747215D01*
X88571745Y-99746735D01*
X88571739Y-99746734D01*
X88469852Y-99737819D01*
X88463082Y-99737042D01*
X88431962Y-99732613D01*
X88431952Y-99732612D01*
X88427875Y-99732032D01*
X88421255Y-99731963D01*
X88418637Y-99731935D01*
X88418634Y-99731935D01*
X88414511Y-99731892D01*
X88410422Y-99732387D01*
X88410418Y-99732387D01*
X88384138Y-99735567D01*
X88379985Y-99735999D01*
X88338713Y-99739610D01*
X88251791Y-99747215D01*
X88201532Y-99760682D01*
X88099326Y-99788068D01*
X88099324Y-99788069D01*
X88094016Y-99789491D01*
X88089035Y-99791814D01*
X88089034Y-99791814D01*
X87950965Y-99856196D01*
X87950960Y-99856199D01*
X87945978Y-99858522D01*
X87910376Y-99883451D01*
X87886782Y-99899972D01*
X87819508Y-99922660D01*
X87750648Y-99905375D01*
X87742240Y-99899972D01*
X87718646Y-99883451D01*
X87683044Y-99858522D01*
X87678062Y-99856199D01*
X87678057Y-99856196D01*
X87539988Y-99791814D01*
X87539987Y-99791814D01*
X87535006Y-99789491D01*
X87529698Y-99788069D01*
X87529696Y-99788068D01*
X87382546Y-99748639D01*
X87382544Y-99748639D01*
X87377231Y-99747215D01*
X87371745Y-99746735D01*
X87371739Y-99746734D01*
X87269852Y-99737819D01*
X87263082Y-99737042D01*
X87231962Y-99732613D01*
X87231952Y-99732612D01*
X87227875Y-99732032D01*
X87221255Y-99731963D01*
X87218637Y-99731935D01*
X87218634Y-99731935D01*
X87214511Y-99731892D01*
X87210422Y-99732387D01*
X87210418Y-99732387D01*
X87184138Y-99735567D01*
X87179985Y-99735999D01*
X87138713Y-99739610D01*
X87051791Y-99747215D01*
X87001532Y-99760682D01*
X86899326Y-99788068D01*
X86899324Y-99788069D01*
X86894016Y-99789491D01*
X86889035Y-99791814D01*
X86889034Y-99791814D01*
X86750965Y-99856196D01*
X86750960Y-99856199D01*
X86745978Y-99858522D01*
X86710376Y-99883451D01*
X86686782Y-99899972D01*
X86619508Y-99922660D01*
X86550648Y-99905375D01*
X86542240Y-99899972D01*
X86518646Y-99883451D01*
X86483044Y-99858522D01*
X86478062Y-99856199D01*
X86478057Y-99856196D01*
X86339988Y-99791814D01*
X86339987Y-99791814D01*
X86335006Y-99789491D01*
X86329698Y-99788069D01*
X86329696Y-99788068D01*
X86182546Y-99748639D01*
X86182544Y-99748639D01*
X86177231Y-99747215D01*
X86171745Y-99746735D01*
X86171739Y-99746734D01*
X86069852Y-99737819D01*
X86063082Y-99737042D01*
X86031962Y-99732613D01*
X86031952Y-99732612D01*
X86027875Y-99732032D01*
X86021255Y-99731963D01*
X86018637Y-99731935D01*
X86018634Y-99731935D01*
X86014511Y-99731892D01*
X86010422Y-99732387D01*
X86010418Y-99732387D01*
X85984138Y-99735567D01*
X85979985Y-99735999D01*
X85938713Y-99739610D01*
X85851791Y-99747215D01*
X85801532Y-99760682D01*
X85699326Y-99788068D01*
X85699324Y-99788069D01*
X85694016Y-99789491D01*
X85689035Y-99791814D01*
X85689034Y-99791814D01*
X85550965Y-99856196D01*
X85550960Y-99856199D01*
X85545978Y-99858522D01*
X85510376Y-99883451D01*
X85486782Y-99899972D01*
X85419508Y-99922660D01*
X85350648Y-99905375D01*
X85342240Y-99899972D01*
X85318646Y-99883451D01*
X85283044Y-99858522D01*
X85278062Y-99856199D01*
X85278057Y-99856196D01*
X85139988Y-99791814D01*
X85139987Y-99791814D01*
X85135006Y-99789491D01*
X85129698Y-99788069D01*
X85129696Y-99788068D01*
X84982546Y-99748639D01*
X84982544Y-99748639D01*
X84977231Y-99747215D01*
X84971745Y-99746735D01*
X84971739Y-99746734D01*
X84869852Y-99737819D01*
X84863082Y-99737042D01*
X84831962Y-99732613D01*
X84831952Y-99732612D01*
X84827875Y-99732032D01*
X84821255Y-99731963D01*
X84818637Y-99731935D01*
X84818634Y-99731935D01*
X84814511Y-99731892D01*
X84810422Y-99732387D01*
X84810418Y-99732387D01*
X84784138Y-99735567D01*
X84779985Y-99735999D01*
X84738713Y-99739610D01*
X84651791Y-99747215D01*
X84601532Y-99760682D01*
X84499326Y-99788068D01*
X84499324Y-99788069D01*
X84494016Y-99789491D01*
X84489035Y-99791814D01*
X84489034Y-99791814D01*
X84350965Y-99856196D01*
X84350960Y-99856199D01*
X84345978Y-99858522D01*
X84310376Y-99883451D01*
X84286782Y-99899972D01*
X84219508Y-99922660D01*
X84150648Y-99905375D01*
X84142240Y-99899972D01*
X84118646Y-99883451D01*
X84083044Y-99858522D01*
X84078062Y-99856199D01*
X84078057Y-99856196D01*
X83939988Y-99791814D01*
X83939987Y-99791814D01*
X83935006Y-99789491D01*
X83929698Y-99788069D01*
X83929696Y-99788068D01*
X83782546Y-99748639D01*
X83782544Y-99748639D01*
X83777231Y-99747215D01*
X83771745Y-99746735D01*
X83771739Y-99746734D01*
X83669852Y-99737819D01*
X83663082Y-99737042D01*
X83631962Y-99732613D01*
X83631952Y-99732612D01*
X83627875Y-99732032D01*
X83621255Y-99731963D01*
X83618637Y-99731935D01*
X83618634Y-99731935D01*
X83614511Y-99731892D01*
X83610422Y-99732387D01*
X83610418Y-99732387D01*
X83584138Y-99735567D01*
X83579985Y-99735999D01*
X83538713Y-99739610D01*
X83451791Y-99747215D01*
X83401532Y-99760682D01*
X83299326Y-99788068D01*
X83299324Y-99788069D01*
X83294016Y-99789491D01*
X83289035Y-99791814D01*
X83289034Y-99791814D01*
X83150965Y-99856196D01*
X83150960Y-99856199D01*
X83145978Y-99858522D01*
X83110376Y-99883451D01*
X83086782Y-99899972D01*
X83019508Y-99922660D01*
X82950648Y-99905375D01*
X82942240Y-99899972D01*
X82918646Y-99883451D01*
X82883044Y-99858522D01*
X82878062Y-99856199D01*
X82878057Y-99856196D01*
X82739988Y-99791814D01*
X82739987Y-99791814D01*
X82735006Y-99789491D01*
X82729698Y-99788069D01*
X82729696Y-99788068D01*
X82582546Y-99748639D01*
X82582544Y-99748639D01*
X82577231Y-99747215D01*
X82571745Y-99746735D01*
X82571739Y-99746734D01*
X82469852Y-99737819D01*
X82463082Y-99737042D01*
X82431962Y-99732613D01*
X82431952Y-99732612D01*
X82427875Y-99732032D01*
X82421255Y-99731963D01*
X82418637Y-99731935D01*
X82418634Y-99731935D01*
X82414511Y-99731892D01*
X82410422Y-99732387D01*
X82410418Y-99732387D01*
X82384138Y-99735567D01*
X82379985Y-99735999D01*
X82338713Y-99739610D01*
X82251791Y-99747215D01*
X82201532Y-99760682D01*
X82099326Y-99788068D01*
X82099324Y-99788069D01*
X82094016Y-99789491D01*
X82089035Y-99791814D01*
X82089034Y-99791814D01*
X81950965Y-99856196D01*
X81950960Y-99856199D01*
X81945978Y-99858522D01*
X81910376Y-99883451D01*
X81869116Y-99912342D01*
X81812177Y-99952211D01*
X81696677Y-100067711D01*
X81602988Y-100201512D01*
X81600665Y-100206494D01*
X81600662Y-100206499D01*
X81555203Y-100303988D01*
X81533957Y-100349550D01*
X81532535Y-100354858D01*
X81532534Y-100354860D01*
X81493106Y-100502008D01*
X81491681Y-100507325D01*
X81491202Y-100512803D01*
X81487126Y-100559397D01*
X81483645Y-100579757D01*
X81481010Y-100590018D01*
X81478936Y-100589485D01*
X81454985Y-100644411D01*
X81395928Y-100683816D01*
X81347373Y-100689069D01*
X81325156Y-100687125D01*
X81304812Y-100683648D01*
X81302220Y-100682982D01*
X81302216Y-100682981D01*
X81294541Y-100681011D01*
X81268506Y-100681011D01*
X81250756Y-100679754D01*
X81227875Y-100676498D01*
X81220832Y-100676424D01*
X81218631Y-100676401D01*
X81218629Y-100676401D01*
X81214511Y-100676358D01*
X81210421Y-100676853D01*
X81210420Y-100676853D01*
X81208900Y-100677037D01*
X81183604Y-100680098D01*
X81168469Y-100681011D01*
X78450489Y-100681011D01*
X78382368Y-100661009D01*
X78335875Y-100607353D01*
X78325771Y-100537079D01*
X78329930Y-100518383D01*
X78331626Y-100512803D01*
X78357370Y-100428069D01*
X78386529Y-100206590D01*
X78388156Y-100140000D01*
X78369852Y-99917361D01*
X78315431Y-99700702D01*
X78226354Y-99495840D01*
X78153534Y-99383277D01*
X78107822Y-99312617D01*
X78107820Y-99312614D01*
X78105014Y-99308277D01*
X77954670Y-99143051D01*
X77950619Y-99139852D01*
X77950615Y-99139848D01*
X77783414Y-99007800D01*
X77783410Y-99007798D01*
X77779359Y-99004598D01*
X77738053Y-98981796D01*
X77688084Y-98931364D01*
X77673312Y-98861921D01*
X77698428Y-98795516D01*
X77725780Y-98768909D01*
X77769603Y-98737650D01*
X77904860Y-98641173D01*
X78063096Y-98483489D01*
X78193453Y-98302077D01*
X78201978Y-98284829D01*
X78290136Y-98106453D01*
X78290137Y-98106451D01*
X78292430Y-98101811D01*
X78357370Y-97888069D01*
X78386529Y-97666590D01*
X78388156Y-97600000D01*
X78369852Y-97377361D01*
X78368591Y-97372339D01*
X78329242Y-97215684D01*
X78332046Y-97144743D01*
X78372759Y-97086580D01*
X78438455Y-97059661D01*
X78451446Y-97058989D01*
X97890290Y-97058989D01*
X97958411Y-97078991D01*
X98004904Y-97132647D01*
X98015008Y-97202921D01*
X98011709Y-97218653D01*
X97955989Y-97419570D01*
X97932251Y-97641695D01*
X97932548Y-97646848D01*
X97932548Y-97646851D01*
X97938011Y-97741590D01*
X97945110Y-97864715D01*
X97946247Y-97869761D01*
X97946248Y-97869767D01*
X97966119Y-97957939D01*
X97994222Y-98082639D01*
X98032461Y-98176811D01*
X98072390Y-98275144D01*
X98078266Y-98289616D01*
X98194987Y-98480088D01*
X98341250Y-98648938D01*
X98513126Y-98791632D01*
X98519773Y-98795516D01*
X98586445Y-98834476D01*
X98635169Y-98886114D01*
X98648240Y-98955897D01*
X98621509Y-99021669D01*
X98581055Y-99055027D01*
X98568607Y-99061507D01*
X98564474Y-99064610D01*
X98564471Y-99064612D01*
X98394100Y-99192530D01*
X98389965Y-99195635D01*
X98235629Y-99357138D01*
X98232715Y-99361410D01*
X98232714Y-99361411D01*
X98148666Y-99484621D01*
X98109743Y-99541680D01*
X98094003Y-99575590D01*
X98018699Y-99737819D01*
X98015688Y-99744305D01*
X97955989Y-99959570D01*
X97932251Y-100181695D01*
X97932548Y-100186848D01*
X97932548Y-100186851D01*
X97938011Y-100281590D01*
X97945110Y-100404715D01*
X97946247Y-100409761D01*
X97946248Y-100409767D01*
X97966119Y-100497939D01*
X97994222Y-100622639D01*
X98078266Y-100829616D01*
X98194987Y-101020088D01*
X98341250Y-101188938D01*
X98513126Y-101331632D01*
X98583595Y-101372811D01*
X98586445Y-101374476D01*
X98635169Y-101426114D01*
X98648240Y-101495897D01*
X98621509Y-101561669D01*
X98581055Y-101595027D01*
X98568607Y-101601507D01*
X98564474Y-101604610D01*
X98564471Y-101604612D01*
X98540247Y-101622800D01*
X98389965Y-101735635D01*
X98235629Y-101897138D01*
X98109743Y-102081680D01*
X98088702Y-102127010D01*
X98020395Y-102274165D01*
X98015688Y-102284305D01*
X97955989Y-102499570D01*
X97932251Y-102721695D01*
X97932548Y-102726848D01*
X97932548Y-102726851D01*
X97942140Y-102893207D01*
X97945110Y-102944715D01*
X97946247Y-102949761D01*
X97946248Y-102949767D01*
X97965824Y-103036628D01*
X97994222Y-103162639D01*
X98036168Y-103265941D01*
X98070458Y-103350386D01*
X98078266Y-103369616D01*
X98090047Y-103388841D01*
X98162913Y-103507747D01*
X98194987Y-103560088D01*
X98341250Y-103728938D01*
X98513126Y-103871632D01*
X98583595Y-103912811D01*
X98586445Y-103914476D01*
X98635169Y-103966114D01*
X98648240Y-104035897D01*
X98621509Y-104101669D01*
X98581055Y-104135027D01*
X98568607Y-104141507D01*
X98564474Y-104144610D01*
X98564471Y-104144612D01*
X98394100Y-104272530D01*
X98389965Y-104275635D01*
X98235629Y-104437138D01*
X98232715Y-104441410D01*
X98232714Y-104441411D01*
X98156251Y-104553502D01*
X98109743Y-104621680D01*
X98015688Y-104824305D01*
X97955989Y-105039570D01*
X97932251Y-105261695D01*
X97932548Y-105266848D01*
X97932548Y-105266851D01*
X97944812Y-105479547D01*
X97945110Y-105484715D01*
X97946247Y-105489761D01*
X97946248Y-105489767D01*
X97966119Y-105577939D01*
X97994222Y-105702639D01*
X98078266Y-105909616D01*
X98194987Y-106100088D01*
X98341250Y-106268938D01*
X98345225Y-106272238D01*
X98345231Y-106272244D01*
X98350425Y-106276556D01*
X98390059Y-106335460D01*
X98391555Y-106406441D01*
X98354439Y-106466962D01*
X98314168Y-106491480D01*
X98206946Y-106531676D01*
X98191351Y-106540214D01*
X98089276Y-106616715D01*
X98076715Y-106629276D01*
X98000214Y-106731351D01*
X97991676Y-106746946D01*
X97946522Y-106867394D01*
X97942895Y-106882649D01*
X97937369Y-106933514D01*
X97937000Y-106940328D01*
X97937000Y-107562885D01*
X97941475Y-107578124D01*
X97942865Y-107579329D01*
X97950548Y-107581000D01*
X100634884Y-107581000D01*
X100650123Y-107576525D01*
X100651328Y-107575135D01*
X100652999Y-107567452D01*
X100652999Y-106940331D01*
X100652629Y-106933510D01*
X100647105Y-106882648D01*
X100643479Y-106867396D01*
X100598324Y-106746946D01*
X100589786Y-106731351D01*
X100513285Y-106629276D01*
X100500724Y-106616715D01*
X100398649Y-106540214D01*
X100383054Y-106531676D01*
X100272813Y-106490348D01*
X100216049Y-106447706D01*
X100191349Y-106381145D01*
X100206557Y-106311796D01*
X100228104Y-106283115D01*
X100329430Y-106182144D01*
X100329440Y-106182132D01*
X100333096Y-106178489D01*
X100390005Y-106099292D01*
X100460435Y-106001277D01*
X100463453Y-105997077D01*
X100498090Y-105926995D01*
X100560136Y-105801453D01*
X100560137Y-105801451D01*
X100562430Y-105796811D01*
X100627370Y-105583069D01*
X100656529Y-105361590D01*
X100657289Y-105330503D01*
X100658074Y-105298365D01*
X100658074Y-105298361D01*
X100658156Y-105295000D01*
X100639852Y-105072361D01*
X100585431Y-104855702D01*
X100496354Y-104650840D01*
X100447462Y-104575264D01*
X100377822Y-104467617D01*
X100377820Y-104467614D01*
X100375014Y-104463277D01*
X100224670Y-104298051D01*
X100220619Y-104294852D01*
X100220615Y-104294848D01*
X100053414Y-104162800D01*
X100053410Y-104162798D01*
X100049359Y-104159598D01*
X100008053Y-104136796D01*
X99958084Y-104086364D01*
X99943312Y-104016921D01*
X99968428Y-103950516D01*
X99995780Y-103923909D01*
X100039603Y-103892650D01*
X100174860Y-103796173D01*
X100333096Y-103638489D01*
X100392594Y-103555689D01*
X100460435Y-103461277D01*
X100463453Y-103457077D01*
X100478482Y-103426669D01*
X100560136Y-103261453D01*
X100560137Y-103261451D01*
X100562430Y-103256811D01*
X100608897Y-103103872D01*
X100625865Y-103048023D01*
X100625865Y-103048021D01*
X100627370Y-103043069D01*
X100656529Y-102821590D01*
X100657191Y-102794485D01*
X100658074Y-102758365D01*
X100658074Y-102758361D01*
X100658156Y-102755000D01*
X100639852Y-102532361D01*
X100585431Y-102315702D01*
X100496354Y-102110840D01*
X100418034Y-101989775D01*
X100377822Y-101927617D01*
X100377820Y-101927614D01*
X100375014Y-101923277D01*
X100224670Y-101758051D01*
X100220619Y-101754852D01*
X100220615Y-101754848D01*
X100053414Y-101622800D01*
X100053410Y-101622798D01*
X100049359Y-101619598D01*
X100008053Y-101596796D01*
X99958084Y-101546364D01*
X99943312Y-101476921D01*
X99968428Y-101410516D01*
X99995780Y-101383909D01*
X100039603Y-101352650D01*
X100174860Y-101256173D01*
X100333096Y-101098489D01*
X100392594Y-101015689D01*
X100460435Y-100921277D01*
X100463453Y-100917077D01*
X100500964Y-100841180D01*
X100560136Y-100721453D01*
X100560137Y-100721451D01*
X100562430Y-100716811D01*
X100610256Y-100559397D01*
X100625865Y-100508023D01*
X100625865Y-100508021D01*
X100627370Y-100503069D01*
X100656529Y-100281590D01*
X100658156Y-100215000D01*
X100639852Y-99992361D01*
X100585431Y-99775702D01*
X100496354Y-99570840D01*
X100447834Y-99495840D01*
X100377822Y-99387617D01*
X100377820Y-99387614D01*
X100375014Y-99383277D01*
X100224670Y-99218051D01*
X100220619Y-99214852D01*
X100220615Y-99214848D01*
X100053414Y-99082800D01*
X100053410Y-99082798D01*
X100049359Y-99079598D01*
X100008053Y-99056796D01*
X99958084Y-99006364D01*
X99943312Y-98936921D01*
X99968428Y-98870516D01*
X99995780Y-98843909D01*
X100041757Y-98811114D01*
X100174860Y-98716173D01*
X100333096Y-98558489D01*
X100390005Y-98479292D01*
X100460435Y-98381277D01*
X100463453Y-98377077D01*
X100498445Y-98306277D01*
X100560136Y-98181453D01*
X100560137Y-98181451D01*
X100562430Y-98176811D01*
X100594900Y-98069940D01*
X100625865Y-97968023D01*
X100625865Y-97968021D01*
X100627370Y-97963069D01*
X100656529Y-97741590D01*
X100657676Y-97694654D01*
X100679336Y-97627042D01*
X100734111Y-97581874D01*
X100804611Y-97573490D01*
X100872733Y-97608637D01*
X108303665Y-105039570D01*
X115724777Y-112460682D01*
X115758803Y-112522994D01*
X115757100Y-112583446D01*
X115735989Y-112659570D01*
X115712251Y-112881695D01*
X115712548Y-112886848D01*
X115712548Y-112886851D01*
X115718011Y-112981590D01*
X115725110Y-113104715D01*
X115726247Y-113109761D01*
X115726248Y-113109767D01*
X115746119Y-113197939D01*
X115774222Y-113322639D01*
X115858266Y-113529616D01*
X115888005Y-113578145D01*
X115940213Y-113663341D01*
X115974987Y-113720088D01*
X116121250Y-113888938D01*
X116293126Y-114031632D01*
X116486000Y-114144338D01*
X116694692Y-114224030D01*
X116699760Y-114225061D01*
X116699763Y-114225062D01*
X116807017Y-114246883D01*
X116913597Y-114268567D01*
X116918772Y-114268757D01*
X116918774Y-114268757D01*
X117131673Y-114276564D01*
X117131677Y-114276564D01*
X117136837Y-114276753D01*
X117141957Y-114276097D01*
X117141959Y-114276097D01*
X117353288Y-114249025D01*
X117353289Y-114249025D01*
X117358416Y-114248368D01*
X117363366Y-114246883D01*
X117567429Y-114185661D01*
X117567434Y-114185659D01*
X117572384Y-114184174D01*
X117772994Y-114085896D01*
X117954860Y-113956173D01*
X117977041Y-113934070D01*
X118055488Y-113855896D01*
X118113096Y-113798489D01*
X118125157Y-113781705D01*
X118240435Y-113621277D01*
X118243453Y-113617077D01*
X118260336Y-113582918D01*
X118340136Y-113421453D01*
X118340137Y-113421451D01*
X118342430Y-113416811D01*
X118407370Y-113203069D01*
X118436529Y-112981590D01*
X118438156Y-112915000D01*
X118419852Y-112692361D01*
X118365431Y-112475702D01*
X118276354Y-112270840D01*
X118195893Y-112146466D01*
X118157822Y-112087617D01*
X118157820Y-112087614D01*
X118155014Y-112083277D01*
X118004670Y-111918051D01*
X118000619Y-111914852D01*
X118000615Y-111914848D01*
X117833414Y-111782800D01*
X117833410Y-111782798D01*
X117829359Y-111779598D01*
X117788053Y-111756796D01*
X117738084Y-111706364D01*
X117723312Y-111636921D01*
X117748428Y-111570516D01*
X117775780Y-111543909D01*
X117866893Y-111478919D01*
X117954860Y-111416173D01*
X117977619Y-111393494D01*
X118046187Y-111325165D01*
X118113096Y-111258489D01*
X118164074Y-111187546D01*
X118240435Y-111081277D01*
X118243453Y-111077077D01*
X118342430Y-110876811D01*
X118374900Y-110769940D01*
X118405865Y-110668023D01*
X118405865Y-110668021D01*
X118407370Y-110663069D01*
X118436529Y-110441590D01*
X118437191Y-110414485D01*
X118438074Y-110378365D01*
X118438074Y-110378361D01*
X118438156Y-110375000D01*
X118419852Y-110152361D01*
X118365431Y-109935702D01*
X118276354Y-109730840D01*
X118155014Y-109543277D01*
X118151540Y-109539459D01*
X118151533Y-109539450D01*
X118007435Y-109381088D01*
X117976383Y-109317242D01*
X117984779Y-109246744D01*
X118029956Y-109191976D01*
X118056400Y-109178307D01*
X118163052Y-109138325D01*
X118178649Y-109129786D01*
X118280724Y-109053285D01*
X118293285Y-109040724D01*
X118369786Y-108938649D01*
X118378324Y-108923054D01*
X118423478Y-108802606D01*
X118427105Y-108787351D01*
X118432631Y-108736486D01*
X118433000Y-108729672D01*
X118433000Y-108107115D01*
X118428525Y-108091876D01*
X118427135Y-108090671D01*
X118419452Y-108089000D01*
X115737095Y-108089000D01*
X115668974Y-108068998D01*
X115648000Y-108052095D01*
X101089141Y-93493236D01*
X101081601Y-93484950D01*
X101077489Y-93478471D01*
X101027837Y-93431845D01*
X101024996Y-93429091D01*
X101005259Y-93409354D01*
X101002062Y-93406874D01*
X100993040Y-93399169D01*
X100966589Y-93374330D01*
X100960810Y-93368903D01*
X100953864Y-93365084D01*
X100953861Y-93365082D01*
X100943055Y-93359141D01*
X100926536Y-93348290D01*
X100926072Y-93347930D01*
X100910530Y-93335875D01*
X100903261Y-93332730D01*
X100903257Y-93332727D01*
X100869952Y-93318315D01*
X100859302Y-93313098D01*
X100820549Y-93291794D01*
X100800926Y-93286756D01*
X100782223Y-93280352D01*
X100770909Y-93275456D01*
X100770908Y-93275456D01*
X100763634Y-93272308D01*
X100755811Y-93271069D01*
X100755801Y-93271066D01*
X100719965Y-93265390D01*
X100708345Y-93262984D01*
X100673194Y-93253959D01*
X100673190Y-93253958D01*
X100665519Y-93251989D01*
X100665504Y-93251989D01*
X100603652Y-93225012D01*
X100564251Y-93165951D01*
X100563964Y-93091762D01*
X100627370Y-92883069D01*
X100656529Y-92661590D01*
X100656611Y-92658240D01*
X100658074Y-92598365D01*
X100658074Y-92598361D01*
X100658156Y-92595000D01*
X100639852Y-92372361D01*
X100632905Y-92344704D01*
X100599242Y-92210684D01*
X100602046Y-92139743D01*
X100642759Y-92081580D01*
X100708455Y-92054661D01*
X100721446Y-92053989D01*
X102885895Y-92053989D01*
X102954016Y-92073991D01*
X102974990Y-92090894D01*
X115724778Y-104840682D01*
X115758804Y-104902994D01*
X115757100Y-104963448D01*
X115735989Y-105039570D01*
X115735441Y-105044700D01*
X115735440Y-105044704D01*
X115731933Y-105077522D01*
X115712251Y-105261695D01*
X115712548Y-105266848D01*
X115712548Y-105266851D01*
X115724812Y-105479547D01*
X115725110Y-105484715D01*
X115726247Y-105489761D01*
X115726248Y-105489767D01*
X115746119Y-105577939D01*
X115774222Y-105702639D01*
X115858266Y-105909616D01*
X115974987Y-106100088D01*
X116121250Y-106268938D01*
X116125225Y-106272238D01*
X116125231Y-106272244D01*
X116130425Y-106276556D01*
X116170059Y-106335460D01*
X116171555Y-106406441D01*
X116134439Y-106466962D01*
X116094168Y-106491480D01*
X115986946Y-106531676D01*
X115971351Y-106540214D01*
X115869276Y-106616715D01*
X115856715Y-106629276D01*
X115780214Y-106731351D01*
X115771676Y-106746946D01*
X115726522Y-106867394D01*
X115722895Y-106882649D01*
X115717369Y-106933514D01*
X115717000Y-106940328D01*
X115717000Y-107562885D01*
X115721475Y-107578124D01*
X115722865Y-107579329D01*
X115730548Y-107581000D01*
X118414884Y-107581000D01*
X118430123Y-107576525D01*
X118431328Y-107575135D01*
X118432999Y-107567452D01*
X118432999Y-106940331D01*
X118432629Y-106933510D01*
X118427105Y-106882648D01*
X118423479Y-106867396D01*
X118378324Y-106746946D01*
X118369786Y-106731351D01*
X118293285Y-106629276D01*
X118280724Y-106616715D01*
X118178649Y-106540214D01*
X118163054Y-106531676D01*
X118052813Y-106490348D01*
X117996049Y-106447706D01*
X117971349Y-106381145D01*
X117986557Y-106311796D01*
X118008104Y-106283115D01*
X118109430Y-106182144D01*
X118109440Y-106182132D01*
X118113096Y-106178489D01*
X118170005Y-106099292D01*
X118240435Y-106001277D01*
X118243453Y-105997077D01*
X118278090Y-105926995D01*
X118340136Y-105801453D01*
X118340137Y-105801451D01*
X118342430Y-105796811D01*
X118407370Y-105583069D01*
X118436529Y-105361590D01*
X118437289Y-105330503D01*
X118438074Y-105298365D01*
X118438074Y-105298361D01*
X118438156Y-105295000D01*
X118419852Y-105072361D01*
X118365431Y-104855702D01*
X118276354Y-104650840D01*
X118227462Y-104575264D01*
X118157822Y-104467617D01*
X118157820Y-104467614D01*
X118155014Y-104463277D01*
X118004670Y-104298051D01*
X118000619Y-104294852D01*
X118000615Y-104294848D01*
X117833414Y-104162800D01*
X117833410Y-104162798D01*
X117829359Y-104159598D01*
X117788053Y-104136796D01*
X117738084Y-104086364D01*
X117723312Y-104016921D01*
X117748428Y-103950516D01*
X117775780Y-103923909D01*
X117819603Y-103892650D01*
X117954860Y-103796173D01*
X118113096Y-103638489D01*
X118172594Y-103555689D01*
X118240435Y-103461277D01*
X118243453Y-103457077D01*
X118258482Y-103426669D01*
X118340136Y-103261453D01*
X118340137Y-103261451D01*
X118342430Y-103256811D01*
X118388897Y-103103872D01*
X118405865Y-103048023D01*
X118405865Y-103048021D01*
X118407370Y-103043069D01*
X118436529Y-102821590D01*
X118437191Y-102794485D01*
X118438074Y-102758365D01*
X118438074Y-102758361D01*
X118438156Y-102755000D01*
X118419852Y-102532361D01*
X118365431Y-102315702D01*
X118276354Y-102110840D01*
X118198034Y-101989775D01*
X118157822Y-101927617D01*
X118157820Y-101927614D01*
X118155014Y-101923277D01*
X118004670Y-101758051D01*
X118000619Y-101754852D01*
X118000615Y-101754848D01*
X117833414Y-101622800D01*
X117833410Y-101622798D01*
X117829359Y-101619598D01*
X117788053Y-101596796D01*
X117738084Y-101546364D01*
X117723312Y-101476921D01*
X117748428Y-101410516D01*
X117775780Y-101383909D01*
X117819603Y-101352650D01*
X117954860Y-101256173D01*
X118113096Y-101098489D01*
X118172594Y-101015689D01*
X118240435Y-100921277D01*
X118243453Y-100917077D01*
X118280964Y-100841180D01*
X118340136Y-100721453D01*
X118340137Y-100721451D01*
X118342430Y-100716811D01*
X118390256Y-100559397D01*
X118405865Y-100508023D01*
X118405865Y-100508021D01*
X118407370Y-100503069D01*
X118436529Y-100281590D01*
X118438156Y-100215000D01*
X118419852Y-99992361D01*
X118365431Y-99775702D01*
X118276354Y-99570840D01*
X118227834Y-99495840D01*
X118157822Y-99387617D01*
X118157820Y-99387614D01*
X118155014Y-99383277D01*
X118004670Y-99218051D01*
X118000619Y-99214852D01*
X118000615Y-99214848D01*
X117833414Y-99082800D01*
X117833410Y-99082798D01*
X117829359Y-99079598D01*
X117788053Y-99056796D01*
X117738084Y-99006364D01*
X117723312Y-98936921D01*
X117748428Y-98870516D01*
X117775780Y-98843909D01*
X117821757Y-98811114D01*
X117954860Y-98716173D01*
X118113096Y-98558489D01*
X118170005Y-98479292D01*
X118240435Y-98381277D01*
X118243453Y-98377077D01*
X118278445Y-98306277D01*
X118340136Y-98181453D01*
X118340137Y-98181451D01*
X118342430Y-98176811D01*
X118374900Y-98069940D01*
X118405865Y-97968023D01*
X118405865Y-97968021D01*
X118407370Y-97963069D01*
X118436529Y-97741590D01*
X118438156Y-97675000D01*
X118419852Y-97452361D01*
X118365431Y-97235702D01*
X118276354Y-97030840D01*
X118155014Y-96843277D01*
X118151540Y-96839459D01*
X118151533Y-96839450D01*
X118007435Y-96681088D01*
X117976383Y-96617242D01*
X117984779Y-96546744D01*
X118029956Y-96491976D01*
X118056400Y-96478307D01*
X118163052Y-96438325D01*
X118178649Y-96429786D01*
X118280724Y-96353285D01*
X118293285Y-96340724D01*
X118369786Y-96238649D01*
X118378324Y-96223054D01*
X118423478Y-96102606D01*
X118427105Y-96087351D01*
X118432631Y-96036486D01*
X118433000Y-96029672D01*
X118433000Y-95407115D01*
X118428525Y-95391876D01*
X118427135Y-95390671D01*
X118419452Y-95389000D01*
X115737095Y-95389000D01*
X115668974Y-95368998D01*
X115648000Y-95352095D01*
X103513163Y-83217258D01*
X103505623Y-83208972D01*
X103501511Y-83202493D01*
X103451859Y-83155867D01*
X103449018Y-83153113D01*
X103429281Y-83133376D01*
X103426084Y-83130896D01*
X103417062Y-83123191D01*
X103390611Y-83098352D01*
X103384832Y-83092925D01*
X103377886Y-83089106D01*
X103377883Y-83089104D01*
X103367077Y-83083163D01*
X103350558Y-83072312D01*
X103350094Y-83071952D01*
X103334552Y-83059897D01*
X103327283Y-83056752D01*
X103327279Y-83056749D01*
X103293974Y-83042337D01*
X103283324Y-83037120D01*
X103244571Y-83015816D01*
X103224948Y-83010778D01*
X103206245Y-83004374D01*
X103194931Y-82999478D01*
X103194930Y-82999478D01*
X103187656Y-82996330D01*
X103179833Y-82995091D01*
X103179823Y-82995088D01*
X103143987Y-82989412D01*
X103132367Y-82987006D01*
X103097222Y-82977983D01*
X103097221Y-82977983D01*
X103089541Y-82976011D01*
X103069287Y-82976011D01*
X103049576Y-82974460D01*
X103037397Y-82972531D01*
X103029568Y-82971291D01*
X103021676Y-82972037D01*
X102985550Y-82975452D01*
X102973692Y-82976011D01*
X100779000Y-82976011D01*
X100710879Y-82956009D01*
X100664386Y-82902353D01*
X100653000Y-82850011D01*
X100653000Y-82707115D01*
X100648525Y-82691876D01*
X100647135Y-82690671D01*
X100639452Y-82689000D01*
X97955116Y-82689000D01*
X97939877Y-82693475D01*
X97938672Y-82694865D01*
X97937001Y-82702548D01*
X97937001Y-82850011D01*
X97916999Y-82918132D01*
X97863343Y-82964625D01*
X97811001Y-82976011D01*
X82934362Y-82976011D01*
X82866241Y-82956009D01*
X82819748Y-82902353D01*
X82812655Y-82882622D01*
X82791488Y-82803624D01*
X82791487Y-82803622D01*
X82790065Y-82798314D01*
X82753825Y-82720596D01*
X82723360Y-82655263D01*
X82723357Y-82655258D01*
X82721034Y-82650276D01*
X82627345Y-82516475D01*
X82511845Y-82400975D01*
X82407738Y-82328078D01*
X82363410Y-82272621D01*
X82356101Y-82202001D01*
X82388132Y-82138641D01*
X82398340Y-82128984D01*
X82402334Y-82126187D01*
X82517834Y-82010687D01*
X82611523Y-81876886D01*
X82613846Y-81871904D01*
X82613849Y-81871899D01*
X82678231Y-81733830D01*
X82678232Y-81733828D01*
X82680554Y-81728848D01*
X82683362Y-81718369D01*
X82684992Y-81712286D01*
X82721942Y-81651663D01*
X82785802Y-81620640D01*
X82828574Y-81620808D01*
X82831964Y-81621406D01*
X82837280Y-81622830D01*
X82855706Y-81624442D01*
X82889351Y-81627386D01*
X82909699Y-81630863D01*
X82912291Y-81631529D01*
X82912295Y-81631530D01*
X82919970Y-81633500D01*
X82946005Y-81633500D01*
X82963755Y-81634757D01*
X82986636Y-81638013D01*
X82993679Y-81638087D01*
X82995880Y-81638110D01*
X82995882Y-81638110D01*
X83000000Y-81638153D01*
X83004090Y-81637658D01*
X83004091Y-81637658D01*
X83012288Y-81636666D01*
X83030907Y-81634413D01*
X83046042Y-81633500D01*
X97811000Y-81633500D01*
X97879121Y-81653502D01*
X97925614Y-81707158D01*
X97937000Y-81759500D01*
X97937000Y-82162885D01*
X97941475Y-82178124D01*
X97942865Y-82179329D01*
X97950548Y-82181000D01*
X100634884Y-82181000D01*
X100650123Y-82176525D01*
X100651328Y-82175135D01*
X100652999Y-82167452D01*
X100652999Y-81759500D01*
X100673001Y-81691379D01*
X100726657Y-81644886D01*
X100778999Y-81633500D01*
X105165406Y-81633500D01*
X105233527Y-81653502D01*
X105254501Y-81670405D01*
X115724778Y-92140682D01*
X115758804Y-92202994D01*
X115757100Y-92263448D01*
X115735989Y-92339570D01*
X115735441Y-92344700D01*
X115735440Y-92344704D01*
X115731220Y-92384197D01*
X115712251Y-92561695D01*
X115712548Y-92566848D01*
X115712548Y-92566851D01*
X115718011Y-92661590D01*
X115725110Y-92784715D01*
X115726247Y-92789761D01*
X115726248Y-92789767D01*
X115739645Y-92849212D01*
X115774222Y-93002639D01*
X115833744Y-93149226D01*
X115845563Y-93178331D01*
X115858266Y-93209616D01*
X115896684Y-93272308D01*
X115959203Y-93374330D01*
X115974987Y-93400088D01*
X116121250Y-93568938D01*
X116125225Y-93572238D01*
X116125231Y-93572244D01*
X116130425Y-93576556D01*
X116170059Y-93635460D01*
X116171555Y-93706441D01*
X116134439Y-93766962D01*
X116094168Y-93791480D01*
X115986946Y-93831676D01*
X115971351Y-93840214D01*
X115869276Y-93916715D01*
X115856715Y-93929276D01*
X115780214Y-94031351D01*
X115771676Y-94046946D01*
X115726522Y-94167394D01*
X115722895Y-94182649D01*
X115717369Y-94233514D01*
X115717000Y-94240328D01*
X115717000Y-94862885D01*
X115721475Y-94878124D01*
X115722865Y-94879329D01*
X115730548Y-94881000D01*
X118414884Y-94881000D01*
X118430123Y-94876525D01*
X118431328Y-94875135D01*
X118432999Y-94867452D01*
X118432999Y-94240331D01*
X118432629Y-94233510D01*
X118427105Y-94182648D01*
X118423479Y-94167396D01*
X118378324Y-94046946D01*
X118369786Y-94031351D01*
X118293285Y-93929276D01*
X118280724Y-93916715D01*
X118178649Y-93840214D01*
X118163054Y-93831676D01*
X118052813Y-93790348D01*
X117996049Y-93747706D01*
X117971349Y-93681145D01*
X117986557Y-93611796D01*
X118008104Y-93583115D01*
X118109430Y-93482144D01*
X118109440Y-93482132D01*
X118113096Y-93478489D01*
X118172594Y-93395689D01*
X118240435Y-93301277D01*
X118243453Y-93297077D01*
X118256309Y-93271066D01*
X118340136Y-93101453D01*
X118340137Y-93101451D01*
X118342430Y-93096811D01*
X118407370Y-92883069D01*
X118436529Y-92661590D01*
X118436611Y-92658240D01*
X118438074Y-92598365D01*
X118438074Y-92598361D01*
X118438156Y-92595000D01*
X118419852Y-92372361D01*
X118365431Y-92155702D01*
X118276354Y-91950840D01*
X118155014Y-91763277D01*
X118004670Y-91598051D01*
X118000619Y-91594852D01*
X118000615Y-91594848D01*
X117833414Y-91462800D01*
X117833410Y-91462798D01*
X117829359Y-91459598D01*
X117788053Y-91436796D01*
X117738084Y-91386364D01*
X117723312Y-91316921D01*
X117748428Y-91250516D01*
X117775780Y-91223909D01*
X117894151Y-91139476D01*
X117954860Y-91096173D01*
X117964150Y-91086916D01*
X118037852Y-91013471D01*
X118113096Y-90938489D01*
X118137949Y-90903903D01*
X118240435Y-90761277D01*
X118243453Y-90757077D01*
X118265074Y-90713331D01*
X118340136Y-90561453D01*
X118340138Y-90561448D01*
X118342430Y-90556811D01*
X118407370Y-90343069D01*
X118436529Y-90121590D01*
X118436945Y-90104556D01*
X118438074Y-90058365D01*
X118438074Y-90058361D01*
X118438156Y-90055000D01*
X118419852Y-89832361D01*
X118365431Y-89615702D01*
X118276354Y-89410840D01*
X118155014Y-89223277D01*
X118004670Y-89058051D01*
X118000619Y-89054852D01*
X118000615Y-89054848D01*
X117833414Y-88922800D01*
X117833410Y-88922798D01*
X117829359Y-88919598D01*
X117788053Y-88896796D01*
X117738084Y-88846364D01*
X117723312Y-88776921D01*
X117748428Y-88710516D01*
X117775780Y-88683909D01*
X117821757Y-88651114D01*
X117954860Y-88556173D01*
X117964150Y-88546916D01*
X118109435Y-88402137D01*
X118113096Y-88398489D01*
X118142116Y-88358104D01*
X118240435Y-88221277D01*
X118243453Y-88217077D01*
X118256309Y-88191066D01*
X118340136Y-88021453D01*
X118340137Y-88021451D01*
X118342430Y-88016811D01*
X118407370Y-87803069D01*
X118436529Y-87581590D01*
X118438156Y-87515000D01*
X118419852Y-87292361D01*
X118365431Y-87075702D01*
X118276354Y-86870840D01*
X118155014Y-86683277D01*
X118004670Y-86518051D01*
X118000619Y-86514852D01*
X118000615Y-86514848D01*
X117833414Y-86382800D01*
X117833410Y-86382798D01*
X117829359Y-86379598D01*
X117788053Y-86356796D01*
X117738084Y-86306364D01*
X117723312Y-86236921D01*
X117748428Y-86170516D01*
X117775780Y-86143909D01*
X117894151Y-86059476D01*
X117954860Y-86016173D01*
X117964150Y-86006916D01*
X118109435Y-85862137D01*
X118113096Y-85858489D01*
X118142116Y-85818104D01*
X118240435Y-85681277D01*
X118243453Y-85677077D01*
X118256309Y-85651066D01*
X118340136Y-85481453D01*
X118340137Y-85481451D01*
X118342430Y-85476811D01*
X118407370Y-85263069D01*
X118436529Y-85041590D01*
X118436611Y-85038240D01*
X118438074Y-84978365D01*
X118438074Y-84978361D01*
X118438156Y-84975000D01*
X118419852Y-84752361D01*
X118365431Y-84535702D01*
X118276354Y-84330840D01*
X118220168Y-84243989D01*
X118157822Y-84147617D01*
X118157820Y-84147614D01*
X118155014Y-84143277D01*
X118136891Y-84123360D01*
X118007798Y-83981488D01*
X117976746Y-83917642D01*
X117985141Y-83847143D01*
X118030317Y-83792375D01*
X118056761Y-83778706D01*
X118163297Y-83738767D01*
X118171705Y-83735615D01*
X118288261Y-83648261D01*
X118375615Y-83531705D01*
X118426745Y-83395316D01*
X118433500Y-83333134D01*
X118433500Y-81536866D01*
X118426745Y-81474684D01*
X118375615Y-81338295D01*
X118288261Y-81221739D01*
X118171705Y-81134385D01*
X118159132Y-81129672D01*
X118053203Y-81089960D01*
X117996439Y-81047318D01*
X117971739Y-80980756D01*
X117986947Y-80911408D01*
X118008493Y-80882727D01*
X118109435Y-80782137D01*
X118113096Y-80778489D01*
X118172594Y-80695689D01*
X118240435Y-80601277D01*
X118243453Y-80597077D01*
X118279637Y-80523865D01*
X118340136Y-80401453D01*
X118340137Y-80401451D01*
X118342430Y-80396811D01*
X118407370Y-80183069D01*
X118436529Y-79961590D01*
X118438156Y-79895000D01*
X118419852Y-79672361D01*
X118365431Y-79455702D01*
X118276354Y-79250840D01*
X118155014Y-79063277D01*
X118004670Y-78898051D01*
X118000619Y-78894852D01*
X118000615Y-78894848D01*
X117833414Y-78762800D01*
X117833410Y-78762798D01*
X117829359Y-78759598D01*
X117788053Y-78736796D01*
X117738084Y-78686364D01*
X117723312Y-78616921D01*
X117748428Y-78550516D01*
X117775780Y-78523909D01*
X117894151Y-78439476D01*
X117954860Y-78396173D01*
X117964150Y-78386916D01*
X118109435Y-78242137D01*
X118113096Y-78238489D01*
X118243453Y-78057077D01*
X118258482Y-78026669D01*
X118340136Y-77861453D01*
X118340137Y-77861451D01*
X118342430Y-77856811D01*
X118394330Y-77685989D01*
X118405865Y-77648023D01*
X118405867Y-77648015D01*
X118407370Y-77643069D01*
X118436529Y-77421590D01*
X118437213Y-77393589D01*
X118438074Y-77358365D01*
X118438074Y-77358361D01*
X118438156Y-77355000D01*
X118419852Y-77132361D01*
X118365431Y-76915702D01*
X118276354Y-76710840D01*
X118155014Y-76523277D01*
X118004670Y-76358051D01*
X118000619Y-76354852D01*
X118000615Y-76354848D01*
X117833414Y-76222800D01*
X117833410Y-76222798D01*
X117829359Y-76219598D01*
X117788053Y-76196796D01*
X117738084Y-76146364D01*
X117723312Y-76076921D01*
X117748428Y-76010516D01*
X117775780Y-75983909D01*
X117821757Y-75951114D01*
X117954860Y-75856173D01*
X117964150Y-75846916D01*
X118109435Y-75702137D01*
X118113096Y-75698489D01*
X118172594Y-75615689D01*
X118240435Y-75521277D01*
X118243453Y-75517077D01*
X118256309Y-75491066D01*
X118340136Y-75321453D01*
X118340137Y-75321451D01*
X118342430Y-75316811D01*
X118407370Y-75103069D01*
X118436529Y-74881590D01*
X118436611Y-74878240D01*
X118438074Y-74818365D01*
X118438074Y-74818361D01*
X118438156Y-74815000D01*
X118419852Y-74592361D01*
X118365431Y-74375702D01*
X118276354Y-74170840D01*
X118220168Y-74083989D01*
X118157822Y-73987617D01*
X118157820Y-73987614D01*
X118155014Y-73983277D01*
X118004670Y-73818051D01*
X118000619Y-73814852D01*
X118000615Y-73814848D01*
X117833414Y-73682800D01*
X117833410Y-73682798D01*
X117829359Y-73679598D01*
X117788053Y-73656796D01*
X117738084Y-73606364D01*
X117723312Y-73536921D01*
X117748428Y-73470516D01*
X117775780Y-73443909D01*
X117821757Y-73411114D01*
X117954860Y-73316173D01*
X117964150Y-73306916D01*
X118109435Y-73162137D01*
X118113096Y-73158489D01*
X118172594Y-73075689D01*
X118240435Y-72981277D01*
X118243453Y-72977077D01*
X118246505Y-72970903D01*
X118340136Y-72781453D01*
X118340137Y-72781451D01*
X118342430Y-72776811D01*
X118407370Y-72563069D01*
X118436529Y-72341590D01*
X118438156Y-72275000D01*
X118419852Y-72052361D01*
X118365431Y-71835702D01*
X118276354Y-71630840D01*
X118155014Y-71443277D01*
X118151540Y-71439459D01*
X118151533Y-71439450D01*
X118007435Y-71281088D01*
X117976383Y-71217242D01*
X117984779Y-71146744D01*
X118029956Y-71091976D01*
X118056400Y-71078307D01*
X118163052Y-71038325D01*
X118178649Y-71029786D01*
X118280724Y-70953285D01*
X118293285Y-70940724D01*
X118369786Y-70838649D01*
X118378324Y-70823054D01*
X118423478Y-70702606D01*
X118427105Y-70687351D01*
X118432631Y-70636486D01*
X118433000Y-70629672D01*
X118433000Y-70007115D01*
X118428525Y-69991876D01*
X118427135Y-69990671D01*
X118419452Y-69989000D01*
X115735116Y-69989000D01*
X115719877Y-69993475D01*
X115718672Y-69994865D01*
X115717001Y-70002548D01*
X115717001Y-70629669D01*
X115717371Y-70636490D01*
X115722895Y-70687352D01*
X115726521Y-70702604D01*
X115771676Y-70823054D01*
X115780214Y-70838649D01*
X115856715Y-70940724D01*
X115869276Y-70953285D01*
X115971351Y-71029786D01*
X115986946Y-71038324D01*
X116095827Y-71079142D01*
X116152591Y-71121784D01*
X116177291Y-71188345D01*
X116162083Y-71257694D01*
X116142691Y-71284175D01*
X116019200Y-71413401D01*
X116015629Y-71417138D01*
X115889743Y-71601680D01*
X115795688Y-71804305D01*
X115735989Y-72019570D01*
X115712251Y-72241695D01*
X115712548Y-72246848D01*
X115712548Y-72246851D01*
X115718011Y-72341590D01*
X115725110Y-72464715D01*
X115726247Y-72469761D01*
X115726248Y-72469767D01*
X115746119Y-72557939D01*
X115774222Y-72682639D01*
X115858266Y-72889616D01*
X115974987Y-73080088D01*
X116121250Y-73248938D01*
X116293126Y-73391632D01*
X116326466Y-73411114D01*
X116366445Y-73434476D01*
X116415169Y-73486114D01*
X116428240Y-73555897D01*
X116401509Y-73621669D01*
X116361055Y-73655027D01*
X116348607Y-73661507D01*
X116344474Y-73664610D01*
X116344471Y-73664612D01*
X116174100Y-73792530D01*
X116169965Y-73795635D01*
X116015629Y-73957138D01*
X115889743Y-74141680D01*
X115795688Y-74344305D01*
X115735989Y-74559570D01*
X115712251Y-74781695D01*
X115712548Y-74786848D01*
X115712548Y-74786851D01*
X115718011Y-74881590D01*
X115725110Y-75004715D01*
X115726247Y-75009761D01*
X115726248Y-75009767D01*
X115745287Y-75094246D01*
X115774222Y-75222639D01*
X115821752Y-75339693D01*
X115845563Y-75398331D01*
X115858266Y-75429616D01*
X115896684Y-75492308D01*
X115959203Y-75594330D01*
X115974987Y-75620088D01*
X116121250Y-75788938D01*
X116293126Y-75931632D01*
X116326466Y-75951114D01*
X116366445Y-75974476D01*
X116415169Y-76026114D01*
X116428240Y-76095897D01*
X116401509Y-76161669D01*
X116361055Y-76195027D01*
X116348607Y-76201507D01*
X116344474Y-76204610D01*
X116344471Y-76204612D01*
X116174100Y-76332530D01*
X116169965Y-76335635D01*
X116015629Y-76497138D01*
X115889743Y-76681680D01*
X115857856Y-76750375D01*
X115801732Y-76871285D01*
X115795688Y-76884305D01*
X115735989Y-77099570D01*
X115712251Y-77321695D01*
X115712548Y-77326851D01*
X115712422Y-77332024D01*
X115710914Y-77331987D01*
X115696410Y-77394485D01*
X115645518Y-77443988D01*
X115575942Y-77458118D01*
X115509771Y-77432389D01*
X115497574Y-77421670D01*
X113431391Y-75355486D01*
X111133163Y-73057258D01*
X111125623Y-73048972D01*
X111121511Y-73042493D01*
X111071859Y-72995867D01*
X111069018Y-72993113D01*
X111049281Y-72973376D01*
X111046084Y-72970896D01*
X111037062Y-72963191D01*
X111010611Y-72938352D01*
X111004832Y-72932925D01*
X110997886Y-72929106D01*
X110997883Y-72929104D01*
X110987077Y-72923163D01*
X110970558Y-72912312D01*
X110970094Y-72911952D01*
X110954552Y-72899897D01*
X110947283Y-72896752D01*
X110947279Y-72896749D01*
X110913974Y-72882337D01*
X110903324Y-72877120D01*
X110864571Y-72855816D01*
X110844948Y-72850778D01*
X110826245Y-72844374D01*
X110814931Y-72839478D01*
X110814930Y-72839478D01*
X110807656Y-72836330D01*
X110799833Y-72835091D01*
X110799823Y-72835088D01*
X110763987Y-72829412D01*
X110752367Y-72827006D01*
X110717222Y-72817983D01*
X110717221Y-72817983D01*
X110709541Y-72816011D01*
X110689287Y-72816011D01*
X110669576Y-72814460D01*
X110657397Y-72812531D01*
X110649568Y-72811291D01*
X110641676Y-72812037D01*
X110605550Y-72815452D01*
X110593692Y-72816011D01*
X100720489Y-72816011D01*
X100652368Y-72796009D01*
X100605875Y-72742353D01*
X100595771Y-72672079D01*
X100599930Y-72653383D01*
X100625867Y-72568015D01*
X100627370Y-72563069D01*
X100656529Y-72341590D01*
X100658156Y-72275000D01*
X100639852Y-72052361D01*
X100585431Y-71835702D01*
X100496354Y-71630840D01*
X100375014Y-71443277D01*
X100371540Y-71439459D01*
X100371533Y-71439450D01*
X100227435Y-71281088D01*
X100196383Y-71217242D01*
X100204779Y-71146744D01*
X100249956Y-71091976D01*
X100276400Y-71078307D01*
X100383052Y-71038325D01*
X100398649Y-71029786D01*
X100500724Y-70953285D01*
X100513285Y-70940724D01*
X100589786Y-70838649D01*
X100598324Y-70823054D01*
X100643478Y-70702606D01*
X100647105Y-70687351D01*
X100652631Y-70636486D01*
X100653000Y-70629672D01*
X100653000Y-70007115D01*
X100648525Y-69991876D01*
X100647135Y-69990671D01*
X100639452Y-69989000D01*
X97955116Y-69989000D01*
X97939877Y-69993475D01*
X97938672Y-69994865D01*
X97937001Y-70002548D01*
X97937001Y-70629669D01*
X97937371Y-70636490D01*
X97942895Y-70687352D01*
X97946521Y-70702604D01*
X97991676Y-70823054D01*
X98000214Y-70838649D01*
X98076715Y-70940724D01*
X98089276Y-70953285D01*
X98191351Y-71029786D01*
X98206946Y-71038324D01*
X98315827Y-71079142D01*
X98372591Y-71121784D01*
X98397291Y-71188345D01*
X98382083Y-71257694D01*
X98362691Y-71284175D01*
X98239200Y-71413401D01*
X98235629Y-71417138D01*
X98109743Y-71601680D01*
X98015688Y-71804305D01*
X97955989Y-72019570D01*
X97932251Y-72241695D01*
X97932548Y-72246848D01*
X97932548Y-72246851D01*
X97938011Y-72341590D01*
X97945110Y-72464715D01*
X97946247Y-72469762D01*
X97946248Y-72469766D01*
X97989641Y-72662310D01*
X97985105Y-72733161D01*
X97942984Y-72790313D01*
X97876650Y-72815619D01*
X97866724Y-72816011D01*
X83897014Y-72816011D01*
X83828893Y-72796009D01*
X83782400Y-72742353D01*
X83773538Y-72713853D01*
X83773319Y-72711349D01*
X83734915Y-72568023D01*
X83732466Y-72558884D01*
X83732465Y-72558882D01*
X83731043Y-72553574D01*
X83728720Y-72548592D01*
X83664338Y-72410523D01*
X83664335Y-72410518D01*
X83662012Y-72405536D01*
X83609620Y-72330713D01*
X83571482Y-72276246D01*
X83571480Y-72276244D01*
X83568323Y-72271735D01*
X83452823Y-72156235D01*
X83319022Y-72062546D01*
X83314040Y-72060223D01*
X83314035Y-72060220D01*
X83175966Y-71995838D01*
X83175965Y-71995838D01*
X83170984Y-71993515D01*
X83165676Y-71992093D01*
X83165674Y-71992092D01*
X83018524Y-71952663D01*
X83018522Y-71952663D01*
X83013209Y-71951239D01*
X83007723Y-71950759D01*
X83007717Y-71950758D01*
X82905830Y-71941843D01*
X82899060Y-71941066D01*
X82867940Y-71936637D01*
X82867930Y-71936636D01*
X82863853Y-71936056D01*
X82857233Y-71935987D01*
X82854615Y-71935959D01*
X82854612Y-71935959D01*
X82850489Y-71935916D01*
X82846400Y-71936411D01*
X82846396Y-71936411D01*
X82820116Y-71939591D01*
X82815963Y-71940023D01*
X82773241Y-71943761D01*
X82687769Y-71951239D01*
X82589923Y-71977457D01*
X82535304Y-71992092D01*
X82535302Y-71992093D01*
X82529994Y-71993515D01*
X82525013Y-71995838D01*
X82525012Y-71995838D01*
X82386943Y-72060220D01*
X82386938Y-72060223D01*
X82381956Y-72062546D01*
X82322760Y-72103996D01*
X82255486Y-72126684D01*
X82186626Y-72109399D01*
X82178218Y-72103996D01*
X82119022Y-72062546D01*
X82114040Y-72060223D01*
X82114035Y-72060220D01*
X81975966Y-71995838D01*
X81975965Y-71995838D01*
X81970984Y-71993515D01*
X81965676Y-71992093D01*
X81965674Y-71992092D01*
X81818524Y-71952663D01*
X81818522Y-71952663D01*
X81813209Y-71951239D01*
X81807723Y-71950759D01*
X81807717Y-71950758D01*
X81705830Y-71941843D01*
X81699060Y-71941066D01*
X81667940Y-71936637D01*
X81667930Y-71936636D01*
X81663853Y-71936056D01*
X81657233Y-71935987D01*
X81654615Y-71935959D01*
X81654612Y-71935959D01*
X81650489Y-71935916D01*
X81646400Y-71936411D01*
X81646396Y-71936411D01*
X81620116Y-71939591D01*
X81615963Y-71940023D01*
X81573241Y-71943761D01*
X81487769Y-71951239D01*
X81389923Y-71977457D01*
X81335304Y-71992092D01*
X81335302Y-71992093D01*
X81329994Y-71993515D01*
X81325013Y-71995838D01*
X81325012Y-71995838D01*
X81186943Y-72060220D01*
X81186938Y-72060223D01*
X81181956Y-72062546D01*
X81048155Y-72156235D01*
X80932655Y-72271735D01*
X80929498Y-72276244D01*
X80929496Y-72276246D01*
X80891358Y-72330713D01*
X80838966Y-72405536D01*
X80836643Y-72410518D01*
X80836640Y-72410523D01*
X80772258Y-72548592D01*
X80769935Y-72553574D01*
X80768513Y-72558882D01*
X80768512Y-72558884D01*
X80766063Y-72568023D01*
X80727659Y-72711349D01*
X80727518Y-72712966D01*
X80696521Y-72775505D01*
X80635606Y-72811973D01*
X80603964Y-72816011D01*
X78509500Y-72816011D01*
X78441379Y-72796009D01*
X78394886Y-72742353D01*
X78383500Y-72690011D01*
X78383500Y-71301866D01*
X78376745Y-71239684D01*
X78325615Y-71103295D01*
X78238261Y-70986739D01*
X78121705Y-70899385D01*
X77985316Y-70848255D01*
X77923134Y-70841500D01*
X76126866Y-70841500D01*
X76064684Y-70848255D01*
X75928295Y-70899385D01*
X75811739Y-70986739D01*
X75724385Y-71103295D01*
X75721233Y-71111703D01*
X75679919Y-71221907D01*
X75637277Y-71278671D01*
X75570716Y-71303371D01*
X75501367Y-71288163D01*
X75468743Y-71262476D01*
X75418151Y-71206875D01*
X75418142Y-71206866D01*
X75414670Y-71203051D01*
X75410619Y-71199852D01*
X75410615Y-71199848D01*
X75243414Y-71067800D01*
X75243410Y-71067798D01*
X75239359Y-71064598D01*
X75043789Y-70956638D01*
X75038920Y-70954914D01*
X75038916Y-70954912D01*
X74838087Y-70883795D01*
X74838083Y-70883794D01*
X74833212Y-70882069D01*
X74828119Y-70881162D01*
X74828116Y-70881161D01*
X74618373Y-70843800D01*
X74618367Y-70843799D01*
X74613284Y-70842894D01*
X74539452Y-70841992D01*
X74395081Y-70840228D01*
X74395079Y-70840228D01*
X74389911Y-70840165D01*
X74169091Y-70873955D01*
X73956756Y-70943357D01*
X73930416Y-70957069D01*
X73765254Y-71043047D01*
X73758607Y-71046507D01*
X73754474Y-71049610D01*
X73754471Y-71049612D01*
X73737838Y-71062101D01*
X73715142Y-71079142D01*
X73709653Y-71083263D01*
X73643169Y-71108169D01*
X73573773Y-71093177D01*
X73523499Y-71043047D01*
X73508000Y-70982503D01*
X73508000Y-62234000D01*
X73528002Y-62165879D01*
X73581658Y-62119386D01*
X73634000Y-62108000D01*
X76137030Y-62108000D01*
X76205151Y-62128002D01*
G37*
%TD.AperFunction*%
%TA.AperFunction,Conductor*%
G36*
X97879121Y-94538991D02*
G01*
X97925614Y-94592647D01*
X97937000Y-94644989D01*
X97937000Y-94862885D01*
X97941475Y-94878124D01*
X97942865Y-94879329D01*
X97950548Y-94881000D01*
X100632906Y-94881000D01*
X100701027Y-94901002D01*
X100722001Y-94917905D01*
X108226122Y-102422027D01*
X115724777Y-109920682D01*
X115758803Y-109982994D01*
X115757100Y-110043446D01*
X115735989Y-110119570D01*
X115735440Y-110124707D01*
X115734456Y-110133913D01*
X115712251Y-110341695D01*
X115712548Y-110346853D01*
X115712422Y-110352024D01*
X115710914Y-110351987D01*
X115696410Y-110414485D01*
X115645518Y-110463988D01*
X115575942Y-110478118D01*
X115509771Y-110452389D01*
X115497574Y-110441670D01*
X108418706Y-103362801D01*
X101089141Y-96033236D01*
X101081601Y-96024950D01*
X101077489Y-96018471D01*
X101027837Y-95971845D01*
X101024996Y-95969091D01*
X101005259Y-95949354D01*
X101002062Y-95946874D01*
X100993040Y-95939169D01*
X100966589Y-95914330D01*
X100960810Y-95908903D01*
X100953864Y-95905084D01*
X100953861Y-95905082D01*
X100943055Y-95899141D01*
X100926536Y-95888290D01*
X100926072Y-95887930D01*
X100910530Y-95875875D01*
X100903261Y-95872730D01*
X100903257Y-95872727D01*
X100869952Y-95858315D01*
X100859302Y-95853098D01*
X100820549Y-95831794D01*
X100800926Y-95826756D01*
X100782223Y-95820352D01*
X100770909Y-95815456D01*
X100770908Y-95815456D01*
X100763634Y-95812308D01*
X100755808Y-95811068D01*
X100748190Y-95808855D01*
X100748828Y-95806658D01*
X100695143Y-95781214D01*
X100657612Y-95720949D01*
X100653000Y-95687171D01*
X100653000Y-95407115D01*
X100648525Y-95391876D01*
X100647135Y-95390671D01*
X100639452Y-95389000D01*
X97955116Y-95389000D01*
X97939877Y-95393475D01*
X97938672Y-95394865D01*
X97937001Y-95402548D01*
X97937001Y-95665989D01*
X97916999Y-95734110D01*
X97863343Y-95780603D01*
X97811001Y-95791989D01*
X78381491Y-95791989D01*
X78313370Y-95771987D01*
X78266877Y-95718331D01*
X78256773Y-95648057D01*
X78268533Y-95610163D01*
X78290138Y-95566448D01*
X78292430Y-95561811D01*
X78344060Y-95391876D01*
X78355865Y-95353023D01*
X78355865Y-95353021D01*
X78357370Y-95348069D01*
X78386529Y-95126590D01*
X78388156Y-95060000D01*
X78369852Y-94837361D01*
X78329242Y-94675684D01*
X78332046Y-94604743D01*
X78372759Y-94546580D01*
X78438455Y-94519661D01*
X78451446Y-94518989D01*
X97811000Y-94518989D01*
X97879121Y-94538991D01*
G37*
%TD.AperFunction*%
%TA.AperFunction,Conductor*%
G36*
X80829149Y-101968013D02*
G01*
X80875642Y-102021669D01*
X80886548Y-102063029D01*
X80891681Y-102121697D01*
X80933957Y-102279472D01*
X80936280Y-102284453D01*
X80936280Y-102284454D01*
X81000662Y-102422523D01*
X81000665Y-102422528D01*
X81002988Y-102427510D01*
X81072892Y-102527342D01*
X81080725Y-102538529D01*
X81103413Y-102605803D01*
X81086128Y-102674663D01*
X81080733Y-102683058D01*
X80988477Y-102814813D01*
X80986154Y-102819795D01*
X80986151Y-102819800D01*
X80921769Y-102957869D01*
X80919446Y-102962851D01*
X80918024Y-102968159D01*
X80918023Y-102968161D01*
X80878597Y-103115301D01*
X80877170Y-103120626D01*
X80876691Y-103126104D01*
X80874471Y-103151480D01*
X80848608Y-103217599D01*
X80791105Y-103259239D01*
X80748950Y-103266500D01*
X78436146Y-103266500D01*
X78368025Y-103246498D01*
X78321532Y-103192842D01*
X78311428Y-103122568D01*
X78315587Y-103103872D01*
X78355379Y-102972903D01*
X78357555Y-102962837D01*
X78358986Y-102951962D01*
X78356775Y-102937778D01*
X78343617Y-102934000D01*
X74357000Y-102934000D01*
X74288879Y-102913998D01*
X74242386Y-102860342D01*
X74231000Y-102808000D01*
X74231000Y-102552000D01*
X74251002Y-102483879D01*
X74304658Y-102437386D01*
X74357000Y-102426000D01*
X78343344Y-102426000D01*
X78356875Y-102422027D01*
X78358180Y-102412947D01*
X78316214Y-102245875D01*
X78312894Y-102236124D01*
X78264252Y-102124253D01*
X78255433Y-102053806D01*
X78286099Y-101989775D01*
X78346516Y-101952487D01*
X78379802Y-101948011D01*
X80761028Y-101948011D01*
X80829149Y-101968013D01*
G37*
%TD.AperFunction*%
%TD*%
M02*
