M48
; DRILL file {KiCad (6.0.1)} date Wed Jul 20 21:55:55 2022
; FORMAT={-:-/ absolute / inch / decimal}
; #@! TF.CreationDate,2022-07-20T21:55:55-07:00
; #@! TF.GenerationSoftware,Kicad,Pcbnew,(6.0.1)
; #@! TF.FileFunction,Plated,1,2,PTH
FMAT,2
INCH
; #@! TA.AperFunction,Plated,PTH,ComponentDrill
T1C0.0394
; #@! TA.AperFunction,Plated,PTH,ComponentDrill
T2C0.0402
; #@! TA.AperFunction,Plated,PTH,ComponentDrill
T3C0.1260
%
G90
G05
T1
X2.9325Y-2.8425
X2.9325Y-2.9425
X2.9325Y-3.0425
X2.9325Y-3.1425
X2.9325Y-3.2425
X2.9325Y-3.3425
X2.9325Y-3.4425
X2.9325Y-3.5425
X2.9325Y-3.6425
X2.9325Y-3.7425
X2.9325Y-3.8425
X2.9325Y-3.9425
X2.9325Y-4.0425
X2.9325Y-4.1425
X2.9325Y-4.2425
X3.0325Y-2.8425
X3.0325Y-2.9425
X3.0325Y-3.0425
X3.0325Y-3.1425
X3.0325Y-3.2425
X3.0325Y-3.3425
X3.0325Y-3.4425
X3.0325Y-3.5425
X3.0325Y-3.6425
X3.0325Y-3.7425
X3.0325Y-3.8425
X3.0325Y-3.9425
X3.0325Y-4.0425
X3.0325Y-4.1425
X3.0325Y-4.2425
T2
X3.9093Y-2.5455
X3.9093Y-2.6455
X3.9093Y-2.7455
X3.9093Y-2.8455
X3.9093Y-2.9455
X3.9093Y-3.0455
X3.9093Y-3.1455
X3.9093Y-3.2455
X3.9093Y-3.3455
X3.9093Y-3.4455
X3.9093Y-3.5455
X3.9093Y-3.6455
X3.9093Y-3.7455
X3.9093Y-3.8455
X3.9093Y-3.9455
X3.9093Y-4.0455
X3.9093Y-4.1455
X3.9093Y-4.2455
X3.9093Y-4.3455
X3.9093Y-4.4455
X4.1593Y-4.4364
X4.2593Y-4.4364
X4.3593Y-4.4364
X4.6093Y-2.5455
X4.6093Y-2.6455
X4.6093Y-2.7455
X4.6093Y-2.8455
X4.6093Y-2.9455
X4.6093Y-3.0455
X4.6093Y-3.1455
X4.6093Y-3.2455
X4.6093Y-3.3455
X4.6093Y-3.4455
X4.6093Y-3.5455
X4.6093Y-3.6455
X4.6093Y-3.7455
X4.6093Y-3.8455
X4.6093Y-3.9455
X4.6093Y-4.0455
X4.6093Y-4.1455
X4.6093Y-4.2455
X4.6093Y-4.3455
X4.6093Y-4.4455
T3
X3.0079Y-4.4567
X3.0394Y-2.5787
X4.9764Y-2.6142
X4.9764Y-4.4528
T0
M30
